<?xml version="1.0" encoding="UTF-8"?>
<svg id="_圖層_1" data-name="圖層 1" xmlns="http://www.w3.org/2000/svg" viewBox="0 0 668 1080">
  <defs>
    <style>
      .cls-1 {
        fill: #f45955;
      }

      .cls-1, .cls-2, .cls-3 {
        stroke-width: 0px;
      }

      .cls-2 {
        fill: #fff;
      }

      .cls-3 {
        fill: #008fce;
      }
    </style>
  </defs>
  <path class="cls-1" d="M473.08,1073c45.57-76.5,27.03-370.13,27.03-465.95v-103.77h.06l79.61-133.64c45.57-76.5,70.22-169.71,70.22-265.53V.25h-29.96v103.86c0,95.82-24.65,189.03-70.22,265.53l-79.55,133.55h-.12v103.86c0,95.82,18.53,389.45-27.03,465.95"/>
  <path class="cls-2" d="M443.44,1073c45.57-76.5,27.03-370.13,27.03-465.95v-103.77h.06l79.61-133.64c45.57-76.5,70.22-169.71,70.22-265.53V.25h-29.96v103.86c0,95.82-24.65,189.03-70.22,265.53l-79.55,133.55h-.12v103.86c0,95.82,18.53,389.45-27.03,465.95"/>
  <path class="cls-2" d="M383.36,1073c45.57-76.5,27.03-370.13,27.03-465.95v-103.77h.06l79.61-133.64c45.57-76.5,70.22-169.71,70.22-265.53V.25h-29.96v103.86c0,95.82-24.65,189.03-70.22,265.53l-79.55,133.55h-.12v103.86c0,95.82,18.53,389.45-27.03,465.95"/>
  <path class="cls-3" d="M413.79,1073c45.57-76.5,27.03-370.13,27.03-465.95v-103.77h.06l79.61-133.64c45.57-76.5,70.22-169.71,70.22-265.53V.25h-29.96v103.86c0,95.82-24.65,189.03-70.22,265.53l-79.55,133.55h-.12v103.86c0,95.82,18.53,389.45-27.03,465.95"/>
  <path class="cls-1" d="M355.28,1073c45.57-76.5,27.03-370.13,27.03-465.95v-103.77h.06l79.61-133.64c45.57-76.5,70.22-169.71,70.22-265.53V.25h-29.96v103.86c0,95.82-24.65,189.03-70.22,265.53l-79.55,133.55h-.12v103.86c0,95.82,18.53,389.45-27.03,465.95"/>
  <path class="cls-2" d="M325.63,1073c45.57-76.5,27.03-370.13,27.03-465.95v-103.77h.06l79.61-133.64c45.57-76.5,70.22-169.71,70.22-265.53V.25h-29.96v103.86c0,95.82-24.65,189.03-70.22,265.53l-79.55,133.55h-.12v103.86c0,95.82,18.53,389.45-27.03,465.95"/>
  <path class="cls-2" d="M265.56,1073c45.57-76.5,27.03-370.13,27.03-465.95v-103.77h.06l79.61-133.64c45.57-76.5,70.22-169.71,70.22-265.53V.25h-29.96v103.86c0,95.82-24.65,189.03-70.22,265.53l-79.55,133.55h-.12v103.86c0,95.82,18.53,389.45-27.03,465.95"/>
  <path class="cls-3" d="M295.99,1073c45.57-76.5,27.03-370.13,27.03-465.95v-103.77h.06l79.61-133.64c45.57-76.5,70.22-169.71,70.22-265.53V.25h-29.96v103.86c0,95.82-24.65,189.03-70.22,265.53l-79.55,133.55h-.12v103.86c0,95.82,18.53,389.45-27.03,465.95"/>
  <path class="cls-1" d="M237.48,1073c45.57-76.5,27.03-370.13,27.03-465.95v-103.77h.06l79.61-133.64c45.57-76.5,70.22-169.71,70.22-265.53V.25h-29.96v103.86c0,95.82-24.65,189.03-70.22,265.53l-79.55,133.55h-.12v103.86c0,95.82,18.53,389.45-27.03,465.95"/>
  <path class="cls-2" d="M207.83,1073c45.57-76.5,27.03-370.13,27.03-465.95v-103.77h.06l79.61-133.64c45.57-76.5,70.22-169.71,70.22-265.53V.25h-29.96v103.86c0,95.82-24.65,189.03-70.22,265.53l-79.55,133.55h-.12v103.86c0,95.82,18.53,389.45-27.03,465.95"/>
  <path class="cls-2" d="M147.76,1073c45.57-76.5,27.03-370.13,27.03-465.95v-103.77h.06l79.61-133.64c45.57-76.5,70.22-169.71,70.22-265.53V.25h-29.96v103.86c0,95.82-24.65,189.03-70.22,265.53l-79.55,133.55h-.12v103.86c0,95.82,18.53,389.45-27.03,465.95"/>
  <path class="cls-3" d="M178.19,1073c45.57-76.5,27.03-370.13,27.03-465.95v-103.77h.06l79.61-133.64c45.57-76.5,70.22-169.71,70.22-265.53V.25h-29.96v103.86c0,95.82-24.65,189.03-70.22,265.53l-79.55,133.55h-.12v103.86c0,95.82,18.53,389.45-27.03,465.95"/>
  <path class="cls-1" d="M119.68,1073c45.57-76.5,27.03-370.13,27.03-465.95v-103.77h.06l79.61-133.64c45.57-76.5,70.22-169.71,70.22-265.53V.25h-29.96v103.86c0,95.82-24.65,189.03-70.22,265.53l-79.55,133.55h-.12v103.86c0,95.82,18.53,389.45-27.03,465.95"/>
  <path class="cls-2" d="M90.03,1073c45.57-76.5,27.03-370.13,27.03-465.95v-103.77h.06l79.61-133.64c45.57-76.5,70.22-169.71,70.22-265.53V.25h-29.96v103.86c0,95.82-24.65,189.03-70.22,265.53l-79.55,133.55h-.12v103.86c0,95.82,18.53,389.45-27.03,465.95"/>
  <path class="cls-2" d="M29.96,1073c45.57-76.5,27.03-370.13,27.03-465.95v-103.77h.06l79.61-133.64c45.57-76.5,70.22-169.71,70.22-265.53V.25h-29.96v103.86c0,95.82-24.65,189.03-70.22,265.53L27.15,503.19h-.12v103.86c0,95.82,18.53,389.45-27.03,465.95"/>
  <path class="cls-3" d="M60.39,1073c45.57-76.5,27.03-370.13,27.03-465.95v-103.77h.06l79.61-133.64c45.57-76.5,70.22-169.71,70.22-265.53V.25h-29.96v103.86c0,95.82-24.65,189.03-70.22,265.53l-79.55,133.55h-.12v103.86c0,95.82,18.53,389.45-27.03,465.95"/>
</svg>