<?xml version="1.0" encoding="UTF-8"?>
<svg id="_圖層_1" data-name="圖層 1" xmlns="http://www.w3.org/2000/svg" viewBox="0 0 543.67 724.97">
  <defs>
    <style>
      .cls-1 {
        fill: #e43131;
      }

      .cls-1, .cls-2, .cls-3 {
        stroke-width: 0px;
      }

      .cls-2 {
        fill: #c10e00;
      }

      .cls-3 {
        fill: #6d0e09;
      }
    </style>
  </defs>
  <path class="cls-2" d="M532.78,513.34c-5.46-49.11-45.73-408.17-48.33-423.26-3.9-22.61-24.94-56.9-24.94-56.9-6.24-14.03-16.37-15.59-16.37-15.59C408.84,8.23,307.51,2,281,.44s-79.51,1.56-79.51,1.56c-10.91,0-38.19,3.9-38.19,3.9-30.01,5.85-80.66,23.38-97.24,30.17-4.19,1.71-7.81,4.55-10.49,8.19-18.77,25.48-22.2,87.92-26.11,109.71-.93,5.16-1.42,10.39-1.48,15.63l-12.39,364.4S0,664.17,0,668.85s3.12,6.24,3.12,6.24l42.87,14.81s7.02,2.34,7.02-3.9,5.46-88.86,6.24-93.54,6.24-3.9,6.24-3.9c0,0,233.07,21.83,239.3,21.83s5.46,5.46,5.46,5.46l5.93,94.94c.18,2.87,2.23,5.28,5.04,5.9,11.09,2.45,38.58,8.29,49.04,8.29,13.25,0,17.93-3.9,17.93-3.9l21.99-12.06c1.33-.73,2.14-2.15,2.1-3.67-.48-15.4-3.04-97.52-3.04-99.64,0-2.34,1.56-3.12,1.56-3.12,0,0,87.3-61.58,89.64-65.48s10.91-1.56,9.35,6.24c-1.35,6.73,8.92,69.16,11.76,86.16.35,2.07,2.65,3.17,4.48,2.14l15.47-8.72c1.37-.77,2.21-2.22,2.19-3.8-.48-36.63-10.9-105.8-10.9-105.8ZM302.05,564l-234.63-21.05s-5.46.78-5.46-4.68c0,0,7.02-45.99,7.02-84.18,0-13.27-3.12-337.52,26.5-337.52l150.44,14.81s36.64,0,41.31,35.08c0,0,17.15,326.6,17.15,338.3s3.12,52.23,3.12,52.23c0,0,1.56,7.02-5.46,7.02ZM498.09,495.8l-81.85,54.56s-5.46,3.12-8.57-1.56l-16.37-413.91s-1.56-10.13,8.57-15.59l50.67-24.94s4.68-2.34,8.57,1.56c0,0,8.96,45.6,9.74,54.17,0,0,30.01,322.32,31.57,338.69,0,0,1.56,4.68-2.34,7.02Z"/>
  <g>
    <path class="cls-3" d="M500.82,491.9s-27.28-322.32-30.4-330.89l-9.35-61.97s-2.34-7.79-10.13-4.68l-17.93,8.57s32.74,338.3,38.19,378.83c0,0,2.34,10.91-3.9,10.13l-61.58-6.24.78,25.72,59.24,6.24,32.74-21.83s2.34-1.56,2.34-3.9Z"/>
    <path class="cls-3" d="M510.17,544.91c0-2.34,0-9.35-3.12-9.35s-3.12-1.56-7.02,2.34l-21.83,15.59,5.46,46.77s0,6.24,4.68,7.79l31.18,8.57s-9.35-69.37-9.35-71.71Z"/>
    <path class="cls-3" d="M248.27,468.52c-5.46,0-4.68-6.24-4.68-6.24l-8.57-332.06-84.96-8.57,8.57,347.65c0,3.12-3.9,4.68-3.9,4.68l-91.2,49.11s-1.56,10.91-1.56,14.81,3.9,4.68,3.9,4.68l7.79.78,78.73-42.09c6.24-1.56,6.24,3.9,6.24,3.9l-.78,45.99,84.96,7.79.78-60.8c0-5.46,4.68-4.68,4.68-4.68l56.12,6.24-2.34-25.72-53.78-5.46Z"/>
    <path class="cls-3" d="M157.07,648.58c0,4.68,6.24,2.34,6.24,2.34,31.96-17.15,74.83-4.68,74.83-4.68,4.68,0,4.68-4.27,4.68-4.27v-37.05l-84.96-7.79-.78,51.45Z"/>
  </g>
  <path class="cls-1" d="M75.22,32.4S145.37,10.57,160.18,7.45c0,0,21.83-6.24,50.67-6.24,0,0,95.88-3.9,131.73,3.12,0,0,87.61,6.72,97.98,11.93,0,0,19.92,5.22,8.91,16.13,0,0-46.09,30.4-114.68,33.52s-153.56.78-198.77-6.24c-45.21-7.02-98.99-15.59-60.8-27.28Z"/>
  <ellipse class="cls-3" cx="261.75" cy="29.39" rx="37.81" ry="8.57"/>
</svg>