<?xml version="1.0" encoding="UTF-8" standalone="no"?>
<!-- Created with Inkscape (http://www.inkscape.org/) -->

<svg
   width="153.49065mm"
   height="167.1037mm"
   viewBox="0 0 153.49065 167.1037"
   version="1.1"
   id="svg1"
   xml:space="preserve"
   xmlns="http://www.w3.org/2000/svg"
   xmlns:svg="http://www.w3.org/2000/svg"><defs
     id="defs1" /><g
     id="layer1"><g
       style="clip-rule:evenodd;fill-rule:evenodd;stroke-linejoin:round;stroke-miterlimit:2"
       id="g1"
       transform="matrix(0.26458333,0,0,0.26458333,-61.420885,-52.050704)"><path
         d="m 242.7,604 z m 0,0 c -13.9,6.4 -12.4,-29 -5.1,-37.9 12.8,10.2 21.3,28.1 5.1,37.9 z m 7.5,-188.2 c 13.2,-38.5 2.3,-81.1 17.1,-119.5 8.9,-33 30.2,-61.9 60.3,-76.5 12.2,-6.8 23.4,-16.3 36.4,-21.4 22.4,8.9 -33.6,33.4 0.2,18.4 4.9,-14.4 20.6,-12.6 32.5,-16.9 11.6,-6.1 24.6,-2.9 26.5,5.3 9.8,-0.8 28.7,-13.3 30.1,3.1 -6.1,19.4 -26.5,24.1 -13.8,45.2 -2,-16.1 9.8,-37.5 19.8,-45.2 34.6,0.3 68.2,-13.6 102.9,-7.7 11.5,-0.6 23.3,-4.7 34.5,-2.8 1.5,28 -51,38.2 -75,37.7 -13.8,-3.6 -11.9,17.2 -4.7,18.1 1.2,12.8 -25.7,47.1 -5.3,23.9 10,-19.5 14.9,-33.2 39.1,-33 29.8,-8.5 46.5,-50.8 77.8,-22.4 28.6,15.3 56.6,31.4 82.6,51.3 13.4,7.4 24,17.9 22,30.3 22.4,29.3 45.1,58.5 68.9,86.7 11.4,20.5 -20.9,4.7 -4.8,23.4 22.2,61.6 17.6,130 -0.1,192 -1.4,11.3 0.6,23.3 -3,34.1 -21.1,-1.4 -24.3,37 -41.2,52.3 -37,53.5 -91,92.3 -150.1,115.2 -15.4,6.7 -30,15.8 -45.9,20.9 -21,-20.1 37.2,-32.3 29.7,-44.6 -13.2,-11.8 -11,-59.1 -12.9,-18.9 16.8,26.6 -17.9,30 -22.5,56 -26.9,1.2 -61,5 -90.6,-0.3 -29,-4.4 -55.8,-17.1 -83.5,-27.1 -20.4,-24 -55.9,-40 -76,-68.8 -8.7,-12.2 -24.5,-19.2 -30.4,-32.9 3.5,-13.1 -12.8,-24 -18.9,-35.9 -7.3,-10.4 -1.8,-20.8 -11.8,-32.5 -16.3,-18.7 -0.6,-25.4 15.7,-9.3 21.7,7.2 -23.6,-11.2 -5.9,-18.3 11.9,-9 16.2,15.6 23.6,23.1 17.2,15.8 -8.8,22.5 -18.4,25.5 13.6,-2.3 3.6,27.9 13,3.2 6.6,-23.6 21.6,-17.6 28.7,0.3 9.8,14.6 17.1,16.4 -2.8,24.4 -7.8,11.9 -35.6,18.6 -6.9,10.8 5.8,1.2 25.2,-35.4 35,-7.3 13.9,20.5 39.6,27.3 60.9,36.6 51.8,16.2 109.2,24.5 161.8,7.5 38,-11.1 -25.1,-12 -36.9,-16.6 -29,-4 -59.5,-13.8 -79.2,-35.6 -11.4,-36.7 14.7,16.1 17.9,1.9 -8.4,-10.2 -11.6,-47.3 -0.2,-17 13.4,12 15,0.4 1.6,-7.9 -6.9,-15.6 -2.8,-34.5 3.8,-9.5 18.8,26.9 52.9,29.7 81.6,37.1 13.3,7.4 103.7,-6.2 76.3,-4.6 -33.2,2.2 -67.1,4.1 -100,-1.8 -12.9,-3 -17.9,-17.5 -30.5,-20.5 -15.2,-6.5 -17,-46.7 -4.2,-15.9 5.9,17.1 27.1,6.8 8.8,-1.6 -11.8,-7.1 -10.3,-46.5 -2.1,-17.6 7.4,7.7 16.2,23 28,15.3 -9,-1 -25.5,-31.2 -16.6,-38.1 3.7,16.1 19.1,34.2 35.2,35.7 39.9,4.8 79,-7.3 114.8,-24.4 18.3,-19.7 15.2,-57.8 19.4,-85.2 5.4,-57.6 -20.7,-120.5 -73.9,-144.3 -18.6,-12.9 -32.9,-10.3 -36.9,14.3 -16.4,37.3 -42.6,69.6 -64.5,102.6 -2.1,14.3 -3.7,27.8 -5.2,6.1 -9.6,-19.6 -14.6,22.5 -13.5,18.8 -3.6,-13.4 -13.2,-54.9 -14.9,-20.4 -2.6,33.8 -8.3,-25 0.1,-34.6 23.1,-20.1 35.3,-50.8 40.7,-82.3 6.4,-13.4 3.3,-36.9 -2.9,-10 -8.4,42.4 -34.2,76.7 -61,108.4 -5,15.8 -8.6,50 -9.9,13.6 -9.5,5.7 -15.6,10.5 -16.1,18.5 -0.9,-17.1 -18.6,-29 -18.5,-5.3 0.1,-24.9 -0.8,-58.4 23,-71.8 12.4,-14.9 15.2,-52.1 9.4,-59.3 -55.6,23.8 -101.2,68.4 -158.3,88.5 -25.1,4.1 -15.3,-33.7 -10.2,-40.4 z m 243.2,180 c -7.7,23.7 56.5,43.7 20.5,23.6 -8.2,-6.4 -16,-13.9 -20.5,-23.6 z M 459.1,451.6 c -9.9,10.8 -8.6,55.5 -3.3,21.2 0.9,-12 26.4,-43.1 3.3,-21.2 z m -56.5,-115 c -2,-18.8 3.8,-10.7 10.8,-18.5 7.7,-19 10.4,-42.2 -3.3,-59.3 -15.5,-27.1 -52.5,-16.2 -68.5,4.3 -11.8,24 31.6,-22.1 45.6,-1.2 21.8,15.3 14.4,50.9 15.4,74.7 z m 294.7,221 c 23.6,-94.9 -36.8,-208.9 -133.1,-224.2 -43.6,-7.3 -89.6,0 -128.3,22.3 57.6,-17.5 124.5,-13.4 175.6,21.1 49.5,34.3 63.1,101.4 54.6,159.2 -7.6,72.8 -39.5,152.3 -107.8,183.9 C 537,734 490,732 482.2,736.5 c 38.8,4.7 80.6,-3.6 110.4,-31.6 45.5,-39.4 91.6,-84.8 104.7,-147.3 z M 469,625 c -4.5,24.3 62.6,33.7 24.4,20.1 -9.2,-5 -18.3,-11.1 -24.4,-20.1 z m 30.2,4.3 c -12.6,-9.3 -30.4,-32.3 -15.3,-5 9,13.3 54.6,23.6 20.6,8.5 l -4.7,-3.1 z M 441,648.2 c -4.8,23 56.9,36.5 19.9,19.6 -7.7,-5.2 -15.1,-11.3 -19.9,-19.6 z m -5.1,25.8 c 8.7,10.6 49.6,13.6 18.1,5 -9.5,0.3 -37.2,-32.4 -18.1,-5 z M 403.5,367.3 c 1.4,-15.3 -8.8,-28.8 -5.2,-44.1 -0.3,-22.8 2.4,-65 -30.9,-59.4 -16.8,-3.5 -46,35.9 -17.3,25.7 35.8,6.4 17.2,74 -14.3,42.5 -17.4,-10.5 1.4,-45 -19.4,-23.6 -21.9,17.7 -23.1,49.8 -41,70 -16.2,-0.9 -24.4,35 -3,22.2 23.1,-5.3 33.3,30 32.4,28.7 14.6,-10.6 16,-55.8 35.1,-47.5 0,19.6 -2.4,31.9 16.1,15.2 14.7,-11.1 34.8,-18.8 47.7,-29.8 z m -15,116.3 c 2.4,-16.9 18.2,-59.9 19,-53.4 -16.4,11.2 -17.4,35.1 -19,53.4 z M 343.9,291.2 c -22,20.8 30.9,30.3 10.2,1.7 -2.7,-2.6 -6.8,-3.3 -10.2,-1.7 z m 122.5,200.2 c 2.8,18 4.2,-31.7 15.3,-38.1 8.9,-18.3 -26.1,18.7 -15.3,38.1 z M 423,768 c 0.1,-17.9 32,-48.2 3.6,-21.3 -6.1,28.4 -35.4,16.1 -52.1,36.3 10.4,-16.5 48.6,-0.6 48.5,-15 z M 404.7,221.9 c 13.6,-4.9 21.4,-25.9 4.8,-5.8 -20.6,-0.7 6.6,25.7 -4.8,5.8 z m 1,272.5 c -0.8,-10.9 26,-77.7 15.7,-57.4 -17,12.7 -16.9,37.9 -15.7,57.4 z M 745,392.6 c 8.8,15.6 68.2,8.6 30.5,6.6 -20.7,-5.6 -34.1,-26.2 -46,2.7 -9,7.5 -26.9,15.1 -5.8,7.7 8.4,-3.5 16.2,-9.2 21.3,-17 z M 446.5,630 c -7.4,21.5 52.6,40.9 19.7,22.4 -7.8,-6.1 -15.4,-13.2 -19.7,-22.4 z m 37.9,-138.9 c -0.4,-15.7 26.5,-56.7 3,-25.9 -3.1,8.2 -3.5,17.2 -3,25.9 z M 661.9,301.3 c 11,17.3 -23.2,70.2 1.6,33.2 2,-36.5 41.4,-11.6 62.2,-34.5 7.6,-6 -24.9,9.4 -35.2,5.8 -12.7,4.1 -19.8,-12.7 -28.6,-4.6 z m 84.5,301.4 c -1.2,17.9 50.7,47.5 21.1,23.4 -13.6,-17.4 -13.4,-40.4 -39.4,-25.9 -11.8,0 -30,-5.5 -8.9,2.4 8.8,2.7 18.4,3.2 27.2,0.1 z M 423.6,492.1 c 1,-19.3 23.7,-59.8 19.3,-56.5 -20.5,9.2 -20.7,36.8 -19.3,56.5 z"
         fill="#82b5d4"
         fill-opacity="0.5"
         id="path2"
         style="stroke-width:0.718071" /></g></g></svg>
