<?xml version="1.0" encoding="UTF-8" standalone="no"?>
<svg
   width="100%"
   height="100%"
   viewBox="0 0 400 400"
   version="1.1"
   xml:space="preserve"
   style="fill-rule:evenodd;clip-rule:evenodd;stroke-linejoin:round;stroke-miterlimit:2;"
   id="svg61"
   sodipodi:docname="archilife.svg"
   inkscape:version="1.4 (86a8ad7, 2024-10-11)"
   xmlns:inkscape="http://www.inkscape.org/namespaces/inkscape"
   xmlns:sodipodi="http://sodipodi.sourceforge.net/DTD/sodipodi-0.dtd"
   xmlns="http://www.w3.org/2000/svg"
   xmlns:svg="http://www.w3.org/2000/svg"><defs
   id="defs61" /><sodipodi:namedview
   id="namedview61"
   pagecolor="#ffffff"
   bordercolor="#000000"
   borderopacity="0.25"
   inkscape:showpageshadow="2"
   inkscape:pageopacity="0.0"
   inkscape:pagecheckerboard="0"
   inkscape:deskcolor="#d1d1d1"
   inkscape:zoom="2.8425"
   inkscape:cx="199.8241"
   inkscape:cy="200"
   inkscape:window-width="2560"
   inkscape:window-height="1351"
   inkscape:window-x="-9"
   inkscape:window-y="-9"
   inkscape:window-maximized="1"
   inkscape:current-layer="svg61" />
    <g
   transform="matrix(0.189463,0,0,0.189463,-54.408,167.35)"
   id="g60"
   style="fill-rule:evenodd;clip-rule:evenodd;stroke-linejoin:round;stroke-miterlimit:2">
                <g
   transform="matrix(4.16667,0,0,4.16667,1910.76,282.294)"
   id="g1">
                    <path
   d="M0,3.239L-4.903,-9.026L-7.865,-9.026L-7.869,12.266L-4.559,12.266L-4.557,0.152L0.789,12.266L3.155,12.266L3.157,-9.027L0.009,-9.027L0,3.239Z"
   style="fill:rgb(35,25,22);fill-rule:nonzero;"
   id="path1" />
                </g>
                <g
   transform="matrix(4.16667,0,0,4.16667,2202.76,282.217)"
   id="g2">
                    <path
   d="M0,3.239L-4.903,-9.026L-7.865,-9.026L-7.869,12.266L-4.559,12.266L-4.557,0.152L0.789,12.266L3.155,12.266L3.157,-9.027L0.009,-9.027L0,3.239Z"
   style="fill:rgb(35,25,22);fill-rule:nonzero;"
   id="path2" />
                </g>
                <g
   transform="matrix(4.16667,0,0,4.16667,2145.39,265.668)"
   id="g3">
                    <path
   d="M0,11.208C0,12.563 -0.616,13.251 -1.82,13.251C-3.022,13.251 -3.64,12.563 -3.64,11.208L-3.64,0.321C-3.64,-1.032 -3.022,-1.697 -1.82,-1.697C-0.616,-1.697 0,-1.032 0,0.321L0,11.208ZM-1.689,-5.337C-5.2,-5.337 -7.247,-3.316 -7.247,-0.044L-7.247,10.717C-7.247,14.554 -5.329,16.545 -1.82,16.545C1.626,16.545 3.642,14.525 3.642,10.808L3.642,0.043C3.642,-3.345 1.528,-5.337 -1.689,-5.337"
   style="fill:rgb(35,25,22);fill-rule:nonzero;"
   id="path3" />
                </g>
                <g
   transform="matrix(4.16667,0,0,4.16667,414.567,182.838)"
   id="g4">
                    <rect
   x="401.878"
   y="14.805"
   width="3.66"
   height="21.295"
   style="fill:rgb(2,2,2);"
   id="rect3" />
                </g>
                <g
   transform="matrix(4.16667,0,0,4.16667,2037.17,319.112)"
   id="g5">
                    <path
   d="M0,-14.493L3.671,-14.493L3.671,3.401L7.211,3.401L7.211,-14.493L10.911,-14.493L10.911,-17.894L0,-17.894L0,-14.493Z"
   style="fill:rgb(35,25,22);fill-rule:nonzero;"
   id="path4" />
                </g>
                <g
   transform="matrix(4.16667,0,0,4.16667,2005.94,278.02)"
   id="g6">
                    <path
   d="M0,5.219L1.229,-1.69L1.46,-1.69L2.622,5.219L0,5.219ZM-0.981,-8.039L-4.806,13.258L-1.278,13.258L-0.519,8.644L3.108,8.644L3.833,13.258L7.526,13.258L3.702,-8.039L-0.981,-8.039Z"
   style="fill:rgb(35,25,22);fill-rule:nonzero;"
   id="path5" />
                </g>
                <g
   transform="matrix(4.16667,0,0,4.16667,1963.71,266.932)"
   id="g7">
                    <path
   d="M0,10.558C0,12.005 -0.527,12.788 -1.88,12.788L-3.693,12.788L-3.693,-2.23L-2.869,-2.23C-0.892,-2.23 0,-1.445 0,0.302L0,10.558ZM-2.143,-5.366L-7.257,-5.366L-7.257,15.924L-1.978,15.924C2.013,15.924 3.661,14.055 3.661,9.983L3.661,0.485C3.661,-3.465 1.847,-5.366 -2.143,-5.366"
   style="fill:rgb(35,25,22);fill-rule:nonzero;"
   id="path6" />
                </g>
                <g
   transform="matrix(4.16667,0,0,4.16667,1854.14,266.285)"
   id="g8">
                    <path
   d="M0,11.172C0,12.462 -0.716,13.181 -1.787,13.181C-2.861,13.181 -3.674,12.462 -3.674,11.172L-3.674,-5.214L-7.281,-5.214L-7.281,10.514C-7.281,14.379 -5.33,16.386 -1.82,16.386C1.625,16.386 3.608,14.35 3.608,10.605L3.608,-5.214L0,-5.214L0,11.172Z"
   style="fill:rgb(35,25,22);fill-rule:nonzero;"
   id="path7" />
                </g>
                <g
   transform="matrix(4.16667,0,0,4.16667,1801.05,265.6)"
   id="g9">
                    <path
   d="M0,11.208C0,12.563 -0.616,13.251 -1.82,13.251C-3.022,13.251 -3.64,12.563 -3.64,11.208L-3.64,0.321C-3.64,-1.032 -3.022,-1.697 -1.82,-1.697C-0.616,-1.697 0,-1.032 0,0.321L0,11.208ZM-1.689,-5.337C-5.2,-5.337 -7.247,-3.316 -7.247,-0.044L-7.247,10.717C-7.247,14.554 -5.329,16.545 -1.82,16.545C1.627,16.545 3.642,14.525 3.642,10.808L3.642,0.043C3.642,-3.345 1.528,-5.337 -1.689,-5.337"
   style="fill:rgb(35,25,22);fill-rule:nonzero;"
   id="path8" />
                </g>
                <g
   transform="matrix(4.16667,0,0,4.16667,1724.31,244.562)"
   id="g10">
                    <path
   d="M0,21.299L3.64,21.299L3.64,11.976L7.751,11.976L7.751,8.478L3.64,8.478L3.64,3.677L9.481,3.677L9.481,0L0,0L0,21.299Z"
   style="fill:rgb(35,25,22);fill-rule:nonzero;"
   id="path9" />
                </g>
                <g
   transform="matrix(-3.60918,2.08205,2.08205,3.60918,621.727,174.651)"
   id="g11">
                    <path
   d="M0.718,-2.68C1.513,-2.678 2.156,-2.035 2.155,-1.242C2.154,-0.447 1.51,0.193 0.718,0.195C-0.076,0.193 -0.718,-0.45 -0.719,-1.244C-0.72,-2.036 -0.075,-2.681 0.718,-2.68"
   style="fill:rgb(61,80,95);fill-rule:nonzero;"
   id="path10" />
                </g>
                <g
   transform="matrix(-3.60844,-2.08334,-2.08334,3.60844,476.522,252.511)"
   id="g12">
                    <path
   d="M-6.468,-24.137C0.675,-24.136 6.468,-18.347 6.469,-11.204C6.468,-4.06 0.676,1.732 -6.468,1.733C-13.613,1.731 -19.403,-4.058 -19.403,-11.204C-19.402,-18.347 -13.612,-24.138 -6.468,-24.137"
   style="fill:rgb(61,80,95);fill-rule:nonzero;"
   id="path11" />
                </g>
                <g
   transform="matrix(3.60829,2.0836,2.0836,-3.60829,663.224,144.714)"
   id="g13">
                    <path
   d="M6.468,-1.733C13.612,-1.731 19.404,4.06 19.403,11.203C19.402,18.347 13.609,24.138 6.468,24.136C-0.677,24.136 -6.467,18.345 -6.468,11.201C-6.468,4.057 -0.674,-1.734 6.468,-1.733"
   style="fill:rgb(61,80,95);fill-rule:nonzero;"
   id="path12" />
                </g>
                <g
   transform="matrix(-3.60852,2.0832,2.0832,3.60852,663.224,306.417)"
   id="g14">
                    <path
   d="M6.465,-24.14C13.61,-24.139 19.402,-18.347 19.402,-11.202C19.402,-4.058 13.61,1.73 6.465,1.731C-0.678,1.732 -6.469,-4.061 -6.469,-11.205C-6.469,-18.35 -0.677,-24.138 6.465,-24.14"
   style="fill:rgb(61,80,95);fill-rule:nonzero;"
   id="path13" />
                </g>
                <g
   transform="matrix(3.60844,-2.08334,-2.08334,-3.60844,663.228,90.8212)"
   id="g15">
                    <path
   d="M-6.468,-1.733C0.675,-1.734 6.467,4.058 6.468,11.203C6.467,18.348 0.675,24.136 -6.468,24.137C-13.611,24.138 -19.403,18.346 -19.403,11.202C-19.403,4.06 -13.611,-1.732 -6.468,-1.733"
   style="fill:rgb(61,80,95);fill-rule:nonzero;"
   id="path14" />
                </g>
                <g
   transform="matrix(-4.16667,0,0,4.16667,709.905,279.458)"
   id="g16">
                    <path
   d="M0.001,-25.871C7.146,-25.869 12.937,-20.078 12.936,-12.936C12.936,-5.79 7.146,-0.002 0.001,0C-7.143,-0.002 -12.936,-5.79 -12.936,-12.936C-12.936,-20.078 -7.143,-25.869 0.001,-25.871"
   style="fill:rgb(61,80,95);fill-rule:nonzero;"
   id="path15" />
                </g>
                <g
   transform="matrix(4.16667,0,0,4.16667,523.198,63.8742)"
   id="g17">
                    <path
   d="M0,25.871C7.144,25.869 12.935,20.078 12.935,12.934C12.935,5.79 7.144,0 0,0C-7.143,0 -12.936,5.79 -12.936,12.934C-12.935,20.078 -7.143,25.869 0,25.871"
   style="fill:rgb(61,80,95);fill-rule:nonzero;"
   id="path16" />
                </g>
                <g
   transform="matrix(3.60816,2.08382,2.08382,-3.60816,569.867,198.614)"
   id="g18">
                    <path
   d="M2.157,-0.578C4.539,-0.577 6.469,1.355 6.468,3.737C6.467,6.117 4.536,8.048 2.157,8.046C-0.226,8.047 -2.157,6.117 -2.155,3.737C-2.154,1.353 -0.225,-0.577 2.157,-0.578"
   style="fill:rgb(61,80,95);fill-rule:nonzero;"
   id="path17" />
                </g>
                <g
   transform="matrix(3.60816,2.08382,2.08382,-3.60816,632.101,162.676)"
   id="g19">
                    <path
   d="M2.157,-0.578C4.539,-0.577 6.468,1.354 6.469,3.734C6.469,6.116 4.537,8.046 2.157,8.046C-0.225,8.048 -2.155,6.116 -2.154,3.733C-2.153,1.351 -0.224,-0.579 2.157,-0.578"
   style="fill:rgb(61,80,95);fill-rule:nonzero;"
   id="path18" />
                </g>
                <g
   transform="matrix(3.60812,-2.08388,-2.08388,-3.60812,632.109,216.573)"
   id="g20">
                    <path
   d="M-2.156,-0.577C0.223,-0.578 2.155,1.351 2.155,3.735C2.156,6.114 0.227,8.044 -2.156,8.044C-4.536,8.047 -6.467,6.115 -6.468,3.734C-6.468,1.353 -4.538,-0.576 -2.156,-0.577"
   style="fill:rgb(61,80,95);fill-rule:nonzero;"
   id="path19" />
                </g>
                <g
   transform="matrix(-3.60837,2.08346,2.08346,3.60837,632.106,144.716)"
   id="g21">
                    <path
   d="M2.155,-8.045C4.537,-8.047 6.466,-6.117 6.467,-3.733C6.467,-1.352 4.537,0.577 2.155,0.578C-0.225,0.578 -2.155,-1.351 -2.156,-3.735C-2.156,-6.114 -0.227,-8.044 2.155,-8.045"
   style="fill:rgb(61,80,95);fill-rule:nonzero;"
   id="path20" />
                </g>
                <g
   transform="matrix(4.16667,0,0,4.16667,647.667,171.663)"
   id="g22">
                    <path
   d="M0,8.623C2.381,8.623 4.312,6.694 4.312,4.312C4.312,1.929 2.381,0 0,0C-2.381,0 -4.311,1.929 -4.311,4.312C-4.311,6.694 -2.381,8.623 0,8.623"
   style="fill:rgb(61,80,95);fill-rule:nonzero;"
   id="path21" />
                </g>
                <g
   transform="matrix(-4.16667,0,0,4.16667,585.432,171.662)"
   id="g23">
                    <path
   d="M0,-8.623C2.381,-8.623 4.312,-6.694 4.312,-4.311C4.312,-1.931 2.381,0 0,0C-2.381,0 -4.312,-1.931 -4.312,-4.311C-4.312,-6.694 -2.381,-8.623 0,-8.623"
   style="fill:rgb(61,80,95);fill-rule:nonzero;"
   id="path22" />
                </g>
                <g
   transform="matrix(-3.60819,2.08377,2.08377,3.60819,611.37,180.637)"
   id="g24">
                    <path
   d="M0.721,-2.681C1.514,-2.681 2.158,-2.037 2.157,-1.245C2.158,-0.451 1.516,0.192 0.721,0.194C-0.071,0.194 -0.717,-0.449 -0.715,-1.244C-0.715,-2.038 -0.072,-2.682 0.721,-2.681"
   style="fill:rgb(61,80,95);fill-rule:nonzero;"
   id="path23" />
                </g>
                <g
   transform="matrix(-2.08222,-3.60908,-3.60908,2.08222,621.746,162.677)"
   id="g25">
                    <path
   d="M-1.244,-2.152C-0.451,-2.153 0.195,-1.509 0.194,-0.717C0.195,0.078 -0.45,0.72 -1.244,0.721C-2.037,0.721 -2.681,0.077 -2.681,-0.718C-2.68,-1.511 -2.038,-2.154 -1.244,-2.152"
   style="fill:rgb(61,80,95);fill-rule:nonzero;"
   id="path24" />
                </g>
                <g
   transform="matrix(-4.16667,0,0,4.16667,616.545,189.628)"
   id="g26">
                    <path
   d="M-0.001,-2.874C0.793,-2.874 1.437,-2.232 1.437,-1.438C1.437,-0.643 0.793,0 -0.001,0C-0.795,0 -1.438,-0.643 -1.438,-1.438C-1.438,-2.232 -0.795,-2.874 -0.001,-2.874"
   style="fill:rgb(61,80,95);fill-rule:nonzero;"
   id="path25" />
                </g>
                <g
   transform="matrix(4.16667,0,0,4.16667,616.549,153.697)"
   id="g27">
                    <path
   d="M0,2.874C0.794,2.874 1.437,2.232 1.437,1.438C1.437,0.643 0.794,0 0,0C-0.794,0 -1.438,0.645 -1.438,1.438C-1.438,2.232 -0.794,2.874 0,2.874"
   style="fill:rgb(61,80,95);fill-rule:nonzero;"
   id="path26" />
                </g>
                <g
   transform="matrix(3.60882,2.08268,2.08268,-3.60882,621.734,180.649)"
   id="g28">
                    <path
   d="M0.719,-0.193C1.512,-0.191 2.155,0.452 2.154,1.245C2.156,2.039 1.512,2.683 0.719,2.682C-0.075,2.682 -0.72,2.039 -0.718,1.246C-0.718,0.453 -0.075,-0.193 0.719,-0.193"
   style="fill:rgb(61,80,95);fill-rule:nonzero;"
   id="path27" />
                </g>
                <g
   transform="matrix(-3.60855,-2.08314,-2.08314,3.60855,600.987,168.665)"
   id="g29">
                    <path
   d="M-0.719,-2.683C0.075,-2.683 0.716,-2.037 0.717,-1.244C0.717,-0.45 0.073,0.193 -0.719,0.194C-1.512,0.193 -2.157,-0.45 -2.156,-1.244C-2.156,-2.038 -1.513,-2.68 -0.719,-2.683"
   style="fill:rgb(61,80,95);fill-rule:nonzero;"
   id="path28" />
                </g>
                <g
   transform="matrix(4.16667,0,0,4.16667,1652.23,297.071)"
   id="g30">
                    <path
   d="M0,-3.917L-3.644,-3.917L-3.644,-12.605L-7.255,-12.605L-7.255,8.688L-3.644,8.688L-3.672,-0.364L-0.028,-0.364L0,8.688L3.645,8.688L3.645,-12.605L0,-12.605L0,-3.917Z"
   style="fill:rgb(35,25,22);fill-rule:nonzero;"
   id="path29" />
                </g>
                <g
   transform="matrix(4.16667,0,0,4.16667,1593.55,334.693)"
   id="g31">
                    <path
   d="M0,-21.876C-3.518,-21.876 -5.57,-19.856 -5.57,-16.585L-5.57,-5.827C-5.57,-1.992 -3.714,0 -0.131,0C3.322,0 5.341,-2.02 5.341,-5.736L5.341,-7.936L1.692,-7.936L1.692,-5.083C1.692,-3.625 0.232,-3.485 -0.114,-3.485C-0.461,-3.485 -1.954,-3.625 -1.954,-5.083L-1.954,-16.794C-1.954,-18.249 -0.131,-18.242 -0.131,-18.242C-0.131,-18.242 1.692,-18.249 1.692,-16.794L1.692,-14.476L5.341,-14.476L5.341,-16.498C5.341,-19.885 3.224,-21.876 0,-21.876"
   style="fill:rgb(35,25,22);fill-rule:nonzero;"
   id="path30" />
                </g>
                <g
   transform="matrix(4.16667,0,0,4.16667,1540.93,295.521)"
   id="g32">
                    <path
   d="M0,-3.182L-1.528,-3.182L-1.528,-8.507L-0.133,-8.507C0.896,-8.51 2.211,-7.911 2.211,-5.963C2.211,-3.935 1.266,-3.228 0,-3.182M6.033,-6.084C5.998,-8.904 4.86,-11.994 0.3,-12.238L-5.095,-12.238L-5.095,9.056L-1.51,9.052L-1.51,0.452L0.093,0.46L2.593,9.056L6.246,9.052L3.453,-0.316C5.315,-1.448 6.065,-3.55 6.033,-6.084"
   style="fill:rgb(35,25,22);fill-rule:nonzero;"
   id="path31" />
                </g>
                <g
   transform="matrix(4.16667,0,0,4.16667,1479.12,278.035)"
   id="g33">
                    <path
   d="M0,5.219L1.229,-1.69L1.46,-1.69L2.622,5.219L0,5.219ZM-0.981,-8.039L-4.806,13.258L-1.278,13.258L-0.519,8.644L3.108,8.644L3.833,13.258L7.526,13.258L3.702,-8.039L-0.981,-8.039Z"
   style="fill:rgb(35,25,22);fill-rule:nonzero;"
   id="path32" />
                </g>
                <g
   transform="matrix(4.16667,0,0,4.16667,1412.01,244.573)"
   id="g34">
                    <path
   d="M0,21.293L9.528,21.293L9.528,17.6L3.657,17.6L3.657,12.018L7.884,12.018L7.884,8.656L3.657,8.656L3.657,3.693L9.528,3.693L9.528,0L0,0L0,21.293Z"
   style="fill:rgb(35,25,22);fill-rule:nonzero;"
   id="path33" />
                </g>
                <g
   transform="matrix(4.16667,0,0,4.16667,1391.72,293.762)"
   id="g35">
                    <path
   d="M0,-2.342C-2.2,-3.975 -3.579,-4.769 -3.613,-6.577C-3.635,-7.766 -2.651,-8.561 -1.781,-8.516C-0.424,-8.446 0.25,-7.079 0.751,-5.62L3.864,-6.47C3.984,-8.528 1.426,-12.011 -1.542,-12.071C-4.921,-12.138 -7.121,-9.845 -7.012,-6.251C-6.921,-3.264 -4.9,-1.46 -2.788,0.326C-0.824,1.986 0.359,2.423 0.359,4.181C0.359,5.401 -0.529,6.293 -1.84,6.293C-3.349,6.293 -4.121,5.273 -4.339,2.889L-7.505,3.441C-7.633,7.24 -4.987,9.796 -1.51,9.796C1.675,9.796 3.801,7.027 3.887,4.573C3.999,1.418 2.362,-0.588 0,-2.342"
   style="fill:rgb(35,25,22);fill-rule:nonzero;"
   id="path34" />
                </g>
                <g
   transform="matrix(4.16667,0,0,4.16667,1314.08,244.551)"
   id="g36">
                    <path
   d="M0,21.293L9.528,21.293L9.528,17.6L3.657,17.6L3.657,12.018L7.884,12.018L7.884,8.656L3.657,8.656L3.657,3.693L9.528,3.693L9.528,0L0,0L0,21.293Z"
   style="fill:rgb(35,25,22);fill-rule:nonzero;"
   id="path35" />
                </g>
                <g
   transform="matrix(4.16667,0,0,4.16667,1283.49,295.549)"
   id="g37">
                    <path
   d="M0,-3.182L-1.528,-3.182L-1.528,-8.507L-0.133,-8.507C0.896,-8.51 2.21,-7.911 2.21,-5.963C2.21,-3.935 1.266,-3.228 0,-3.182M6.033,-6.084C5.998,-8.904 4.86,-11.994 0.3,-12.238L-5.095,-12.238L-5.095,9.056L-1.51,9.052L-1.51,0.452L0.093,0.46L2.593,9.056L6.246,9.052L3.453,-0.315C5.315,-1.448 6.065,-3.55 6.033,-6.084"
   style="fill:rgb(35,25,22);fill-rule:nonzero;"
   id="path36" />
                </g>
                <g
   transform="matrix(4.16667,0,0,4.16667,1159.51,244.519)"
   id="g38">
                    <path
   d="M0,21.293L9.528,21.293L9.528,17.6L3.657,17.6L3.657,12.018L7.884,12.018L7.884,8.656L3.657,8.656L3.657,3.693L9.528,3.693L9.528,0L0,0L0,21.293Z"
   style="fill:rgb(35,25,22);fill-rule:nonzero;"
   id="path37" />
                </g>
                <g
   transform="matrix(4.16667,0,0,4.16667,1113.29,244.52)"
   id="g39">
                    <path
   d="M0,21.299L3.64,21.299L3.64,11.976L7.751,11.976L7.751,8.478L3.64,8.478L3.64,3.677L9.481,3.677L9.481,0L0,0L0,21.299Z"
   style="fill:rgb(35,25,22);fill-rule:nonzero;"
   id="path38" />
                </g>
                <g
   transform="matrix(4.16667,0,0,4.16667,1057.45,333.244)"
   id="g40">
                    <path
   d="M0,-21.294L-3.697,-21.294L-3.697,0L5.786,0L5.786,-3.298L0,-3.298L0,-21.294Z"
   style="fill:rgb(35,25,22);fill-rule:nonzero;"
   id="path39" />
                </g>
                <g
   transform="matrix(4.16667,0,0,4.16667,414.567,182.68)"
   id="g41">
                    <rect
   x="144.364"
   y="14.824"
   width="3.66"
   height="21.295"
   style="fill:rgb(2,2,2);"
   id="rect40" />
                </g>
                <g
   transform="matrix(4.16667,0,0,4.16667,993.063,297.039)"
   id="g42">
                    <path
   d="M0,-3.917L-3.644,-3.917L-3.644,-12.605L-7.255,-12.605L-7.255,8.688L-3.644,8.688L-3.672,-0.364L-0.028,-0.364L0,8.688L3.645,8.688L3.645,-12.605L0,-12.605L0,-3.917Z"
   style="fill:rgb(35,25,22);fill-rule:nonzero;"
   id="path41" />
                </g>
                <g
   transform="matrix(4.16667,0,0,4.16667,933.716,334.484)"
   id="g43">
                    <path
   d="M0,-21.876C-3.518,-21.876 -5.57,-19.856 -5.57,-16.585L-5.57,-5.827C-5.57,-1.991 -3.714,0 -0.131,0C3.322,0 5.341,-2.02 5.341,-5.736L5.341,-7.936L1.692,-7.936L1.692,-5.083C1.692,-3.625 0.232,-3.485 -0.114,-3.485C-0.46,-3.485 -1.954,-3.625 -1.954,-5.083L-1.954,-16.794C-1.954,-18.249 -0.131,-18.242 -0.131,-18.242C-0.131,-18.242 1.692,-18.249 1.692,-16.794L1.692,-14.476L5.341,-14.476L5.341,-16.498C5.341,-19.885 3.224,-21.876 0,-21.876"
   style="fill:rgb(35,25,22);fill-rule:nonzero;"
   id="path42" />
                </g>
                <g
   transform="matrix(4.16667,0,0,4.16667,879.689,295.522)"
   id="g44">
                    <path
   d="M0,-3.182L-1.528,-3.182L-1.528,-8.507L-0.133,-8.507C0.896,-8.509 2.21,-7.911 2.21,-5.963C2.21,-3.935 1.266,-3.228 0,-3.182M6.033,-6.084C5.998,-8.904 4.86,-11.994 0.3,-12.238L-5.095,-12.238L-5.095,9.056L-1.51,9.052L-1.51,0.452L0.093,0.46L2.593,9.056L6.246,9.052L3.453,-0.316C5.315,-1.448 6.065,-3.55 6.033,-6.084"
   style="fill:rgb(35,25,22);fill-rule:nonzero;"
   id="path43" />
                </g>
                <g
   transform="matrix(4.16667,0,0,4.16667,818.809,278.015)"
   id="g45">
                    <path
   d="M0,5.219L1.229,-1.69L1.46,-1.69L2.622,5.219L0,5.219ZM-0.981,-8.039L-4.806,13.258L-1.278,13.258L-0.519,8.644L3.108,8.644L3.833,13.258L7.526,13.258L3.702,-8.039L-0.981,-8.039Z"
   style="fill:rgb(35,25,22);fill-rule:nonzero;"
   id="path44" />
                </g>
                <g
   transform="matrix(4.16667,0,0,4.16667,414.567,182.855)"
   id="g46">
                    <rect
   x="161.821"
   y="14.803"
   width="3.66"
   height="21.295"
   style="fill:rgb(2,2,2);"
   id="rect45" />
                </g>
                <g
   transform="matrix(4.16667,0,0,4.16667,878.787,124.837)"
   id="g47">
                    <path
   d="M0,3.663C0,3.663 -1.258,2.78 -1.375,2.679C-1.492,2.577 -3.32,1.257 -3.547,1.069C-3.773,0.882 -5.281,-0.228 -5.469,-0.415C-5.55,-0.496 -5.853,-0.702 -6.183,-0.914C-5.786,-1.267 -5.521,-1.505 -5.469,-1.556C-5.187,-1.829 -3.25,-3.946 -3.391,-3.837C-3.486,-3.763 -2.031,-5.526 -1.133,-6.665L-1.125,-6.665C-1.039,-6.681 -0.211,-7.712 -0.156,-7.806C-0.102,-7.9 -0.094,-8.321 -0.141,-8.462C-0.187,-8.603 -0.836,-9.493 -1.062,-9.634C-1.289,-9.775 -1.453,-9.907 -1.766,-9.884C-2.078,-9.86 -6.672,-10.001 -6.875,-9.962C-6.918,-9.954 -7.214,-9.952 -7.64,-9.953C-7.64,-10.9 -7.645,-12.508 -7.672,-12.759C-7.711,-13.118 -7.719,-13.97 -7.547,-14.196C-7.375,-14.423 -6.977,-14.681 -6.828,-14.743C-6.68,-14.806 -6.43,-15.009 -6.437,-15.181C-6.445,-15.353 -6.569,-15.497 -6.828,-15.561C-7.087,-15.626 -8.669,-15.785 -8.763,-15.791C-8.857,-15.797 -10.745,-15.988 -10.828,-15.991C-10.91,-15.994 -11.176,-16.031 -11.203,-16.04C-11.203,-16.04 -12.281,-16.384 -12.234,-15.29C-12.199,-14.46 -12.199,-11.462 -12.201,-10.004C-12.556,-10.008 -12.788,-10.01 -12.813,-10.009C-12.938,-10.001 -18.109,-9.954 -18.234,-9.993C-18.234,-9.993 -18.961,-10.103 -19,-9.509C-19.039,-8.915 -19.008,-8.095 -19,-7.9C-18.992,-7.704 -18.977,-6.923 -18.859,-6.712C-18.742,-6.501 -18.695,-6.267 -17.891,-6.337C-17.086,-6.407 -9.281,-6.618 -8.938,-6.618C-8.826,-6.618 -7.969,-6.622 -6.864,-6.626C-7.021,-6.334 -7.159,-6.086 -7.203,-6.025C-7.32,-5.86 -9.242,-3.626 -9.578,-3.337C-9.914,-3.048 -11.266,-1.767 -11.609,-1.478C-11.953,-1.189 -15.039,1.296 -15.484,1.569C-15.93,1.843 -17.852,2.968 -18.219,3.179C-18.586,3.39 -19.133,3.71 -19.359,3.819C-19.586,3.929 -20.359,4.202 -20.062,4.491C-19.766,4.78 -17.07,6.288 -16.656,6.507C-16.242,6.726 -16.266,6.944 -15.5,6.601C-14.734,6.257 -12.523,4.593 -12.313,4.46C-12.305,4.455 -12.275,4.43 -12.254,4.414C-12.252,5.115 -12.25,5.684 -12.25,5.768C-12.25,6.007 -12.375,16.944 -12.391,17.244C-12.406,17.543 -12.529,19.611 -12.349,19.765C-12.17,19.919 -12.099,19.962 -11.927,20.005C-11.756,20.047 -7.966,20.013 -7.834,19.97C-7.701,19.928 -7.693,19.97 -7.568,19.816C-7.443,19.662 -7.412,19.594 -7.412,19.063C-7.412,18.532 -7.484,14.366 -7.484,14.058C-7.484,13.749 -7.516,11.12 -7.516,10.855C-7.516,10.589 -7.492,7.857 -7.5,7.532C-7.507,7.26 -7.535,4.308 -7.526,3.119C-7.135,3.408 -6.701,3.703 -6.578,3.788C-6.375,3.929 -5,5.249 -4.672,5.507C-4.344,5.765 -2.875,6.819 -2.656,6.929C-2.438,7.038 -2.109,6.624 -1.906,6.413C-1.703,6.202 -0.57,5.03 -0.203,4.804C0.164,4.577 0.344,4.358 0.422,4.163C0.5,3.968 0,3.663 0,3.663"
   style="fill:rgb(2,2,2);fill-rule:nonzero;"
   id="path46" />
                </g>
                <g
   transform="matrix(4.16667,0,0,4.16667,950.523,122.838)"
   id="g48">
                    <path
   d="M0,4.828C0.132,4.822 1.078,4.867 2.189,4.925C2.196,5.85 2.25,9.828 2.25,9.828C2.235,10.046 2.228,12.094 2.224,14.22C0.966,14.262 -3.54,14.252 -3.75,14.266C-3.894,14.275 -5.52,14.261 -6.747,14.249C-6.768,11.909 -6.774,6.977 -6.782,4.885C-5.946,4.843 0,4.828 0,4.828M8.344,-7.953C8,-8.125 8.031,-8.078 7.687,-8.078C7.344,-8.078 -3.578,-8 -3.938,-7.985C-3.975,-7.983 -4.131,-7.983 -4.371,-7.984C-4.343,-8.165 -4.321,-8.302 -4.312,-8.36C-4.312,-8.36 -4.023,-12.633 -3.984,-12.891C-3.984,-12.891 -3.977,-13.844 -3.563,-14.031C-3.563,-14.031 -2.953,-14.383 -3.125,-14.672C-3.125,-14.672 -3.266,-14.984 -4.531,-15.172C-4.531,-15.172 -6.547,-15.484 -7.031,-15.547C-7.031,-15.547 -8.391,-15.75 -8.563,-15.578C-8.563,-15.578 -9,-15.422 -8.969,-15.016C-8.969,-15.016 -8.984,-11.172 -9,-10.953C-9,-10.953 -9.09,-9.454 -9.184,-8.035C-12.143,-8.07 -15.25,-8.11 -15.25,-8.11C-15.25,-8.11 -16.57,-8.194 -16.594,-7.61C-16.631,-6.688 -16.625,-5.703 -16.625,-5.578C-16.625,-5.453 -16.734,-4.469 -16.344,-4.36C-15.953,-4.25 -15.016,-4.266 -14.625,-4.266C-14.453,-4.266 -12.173,-4.281 -9.651,-4.299C-10.101,-2.303 -11.009,1.441 -11.719,2.953C-12.672,4.984 -14.406,8.203 -16.281,10.109C-18.156,12.015 -19.078,12.953 -22,14.922C-22,14.922 -22.656,15.344 -22.469,15.547C-22.469,15.547 -22.125,15.891 -21.25,16.078C-21.25,16.078 -20.266,16.391 -19.531,16.891C-19.531,16.891 -18.797,17.594 -18.312,17.516C-18.312,17.516 -17.984,17.547 -17.187,16.891C-17.187,16.891 -14.516,14.75 -14.156,14.359C-14.156,14.359 -11.938,12.109 -11.563,11.64C-11.563,11.64 -11.519,11.578 -11.458,11.489C-11.472,14.191 -11.472,19.203 -11.472,19.203C-11.52,20.375 -11.24,20.427 -11.151,20.477C-11.063,20.528 -7.499,20.484 -7.499,20.484C-6.821,20.437 -6.835,20.366 -6.72,20.245C-6.608,20.127 -6.595,19.732 -6.595,19.732C-6.595,19.732 -6.59,18.802 -6.62,17.911C-4.727,17.721 1.312,17.828 1.312,17.828C1.462,17.828 1.857,17.848 2.219,17.871L2.219,19.203C2.172,20.375 2.438,20.328 2.438,20.328C2.594,20.578 6.062,20.484 6.062,20.484C6.719,20.437 6.781,20.266 6.781,20.266C6.874,20.165 6.905,20.047 6.914,19.947C6.915,19.945 6.917,19.944 6.917,19.942C6.918,19.937 6.918,19.927 6.919,19.921C6.919,19.919 6.92,19.917 6.92,19.916C6.94,19.795 6.936,19.531 6.932,19.417C6.947,18.444 6.812,15.516 6.812,15.516C6.774,15.243 6.767,7.691 6.757,4.922C6.825,4.607 6.781,2.172 6.781,2.172C6.812,1.531 6.531,1.484 6.531,1.484C6.375,1.297 6.281,1.359 6.281,1.359C6.047,1.265 -1.937,1.453 -1.937,1.453C-2.247,1.453 -4.96,1.386 -6.383,1.35C-6.361,1.27 -6.333,1.189 -6.312,1.109C-6.312,1.109 -5.281,-2.5 -5,-3.985C-5,-3.985 -4.979,-4.118 -4.945,-4.335C-3.659,-4.346 -2.752,-4.355 -2.688,-4.36C-2.453,-4.375 7.828,-4.141 8.063,-4.266C8.297,-4.391 8.328,-4.391 8.406,-4.641C8.484,-4.891 8.531,-6.063 8.531,-6.266C8.531,-6.469 8.688,-7.781 8.344,-7.953"
   style="fill:rgb(2,2,2);fill-rule:nonzero;"
   id="path47" />
                </g>
                <g
   transform="matrix(4.16667,0,0,4.16667,1188.46,69.2713)"
   id="g49">
                    <path
   d="M0,30.476C0.009,30.337 -0.001,30.215 -0.014,30.126C-0.035,29.887 -0.117,29.487 -0.42,29.458C-0.404,29.435 -3.586,29.571 -3.835,29.611C-3.835,29.611 -7.24,29.745 -7.476,29.745C-7.476,29.745 -11.478,29.824 -11.719,29.818C-11.719,29.818 -14.96,29.842 -15.201,29.853C-15.201,29.853 -16.971,29.847 -18.364,29.84C-18.359,27.796 -18.361,24.108 -18.365,20.442C-17.553,20.435 -16.996,20.43 -16.903,20.428C-16.451,20.418 -5.634,20.809 -5.43,20.737C-5.43,20.737 -5.244,20.65 -5.213,20.571C-5.213,20.571 -5.181,20.457 -5.185,20.36C-5.185,20.36 -5.103,17.681 -5.111,17.607C-5.119,17.532 -5.128,17.231 -5.177,17.169C-5.226,17.106 -5.305,16.846 -5.631,16.836C-5.956,16.826 -9.831,16.996 -10.216,17.006C-10.602,17.016 -16.154,17.13 -16.508,17.13C-16.617,17.13 -17.37,17.125 -18.37,17.118C-18.373,14.718 -18.376,12.581 -18.378,11.239L-18.378,9.847L-18.379,9.847C-18.379,9.847 -18.378,9.763 -18.378,9.65L-18.378,9.847C-16.577,9.845 -15.076,9.843 -15.076,9.843C-14.912,9.851 -9.935,9.906 -9.935,9.906C-9.709,9.898 -6.044,10.015 -6.044,10.015C-5.654,10.022 -3.767,10.022 -3.767,10.022C-3.337,9.99 -3.294,9.718 -3.294,9.718C-3.255,9.578 -3.31,8.5 -3.31,8.5C-3.294,8.39 -3.31,6.875 -3.31,6.875C-3.341,6.703 -3.498,6.625 -3.498,6.625C-3.648,6.54 -4.169,6.546 -4.169,6.546C-4.513,6.523 -8.701,6.578 -8.701,6.578C-8.818,6.601 -13.919,6.578 -13.919,6.578C-14.002,6.578 -16.397,6.554 -18.373,6.54L-18.373,6.312C-18.374,6.259 -18.376,6.098 -18.378,5.893L-18.378,3.627C-18.338,2.68 -18.201,-0.61 -18.201,-0.61C-18.13,-0.907 -17.138,-1.282 -17.138,-1.282C-16.599,-1.555 -16.888,-2.125 -16.888,-2.125C-17.312,-2.486 -17.954,-2.567 -18.378,-2.577C-18.634,-2.583 -18.81,-2.563 -18.81,-2.563C-19.06,-2.579 -22.076,-2.813 -22.076,-2.813C-22.951,-2.977 -23.091,-2.782 -23.091,-2.782C-23.388,-2.657 -23.357,-2.313 -23.357,-2.313C-23.427,-2.11 -23.326,2.281 -23.326,2.281C-23.322,2.432 -23.336,4.463 -23.352,6.525C-25.498,6.515 -28.31,6.5 -28.31,6.5C-28.434,6.5 -30.85,6.455 -32.346,6.428C-31.806,5.476 -31.215,4.325 -30.883,3.588C-30.414,2.546 -29.946,2.588 -29.946,2.588C-29.029,2.39 -28.868,2.161 -28.868,2.161C-28.589,1.822 -29.091,1.276 -29.091,1.276C-29.352,1.015 -31.3,0.442 -31.3,0.442C-31.789,0.349 -33.841,-0.391 -33.841,-0.391C-34.737,-0.62 -34.862,0.692 -34.862,0.692C-34.893,0.921 -35.06,1.338 -35.196,1.713C-35.331,2.088 -35.987,3.296 -36.341,4.067C-36.696,4.838 -37.914,6.703 -38.716,7.734C-39.518,8.765 -41.873,10.88 -42.508,11.401C-43.143,11.921 -44.571,12.859 -44.571,12.859C-45.133,13.005 -45.196,13.463 -45.196,13.463C-45.175,13.755 -44.8,13.817 -44.8,13.817C-44.425,14.005 -43.404,14.546 -43.404,14.546C-42.862,14.807 -42.008,15.421 -42.008,15.421C-41.404,15.838 -41.008,15.817 -41.008,15.817C-40.321,15.671 -38.633,13.796 -37.529,12.901C-36.883,12.377 -35.937,11.321 -34.897,10.022C-34.397,10.015 -32.925,9.95 -31.271,9.932C-28.248,9.899 -24.513,9.859 -24.513,9.859C-24.468,9.857 -24.029,9.856 -23.379,9.854C-23.382,10.257 -23.371,14.057 -23.361,17.079L-23.487,17.078C-24.002,17.073 -24.367,17.07 -24.466,17.068C-24.966,17.057 -29.862,16.995 -30.279,17.005C-30.696,17.016 -36.754,16.815 -36.993,16.815C-37.232,16.815 -37.272,16.869 -37.393,16.971C-37.515,17.073 -37.605,17.175 -37.597,17.528C-37.589,17.881 -37.631,19.388 -37.663,19.603C-37.663,19.603 -37.78,20.343 -37.554,20.55C-37.554,20.55 -37.45,20.743 -36.426,20.742C-36.426,20.742 -29.1,20.536 -28.766,20.526C-28.611,20.522 -26.153,20.503 -23.513,20.482L-23.35,20.481C-23.349,20.718 -23.348,20.856 -23.348,20.856L-23.348,24.848C-23.353,25.125 -23.321,28.047 -23.344,29.809L-23.43,29.808C-23.491,29.808 -23.552,29.807 -23.611,29.807C-24.424,29.802 -25.074,29.797 -25.154,29.795C-25.154,29.795 -29.901,29.73 -30.119,29.724C-30.119,29.724 -40.519,29.618 -41.201,29.524C-41.179,29.532 -43.33,29.422 -43.522,29.478C-43.522,29.478 -43.825,29.512 -43.86,29.7C-43.86,29.7 -43.954,30.136 -43.954,30.5C-43.954,30.5 -44.072,32.389 -44.048,32.571C-44.048,32.571 -44.037,32.871 -43.931,32.983C-43.931,32.983 -43.698,33.453 -43.156,33.394C-43.156,33.394 -33.719,33.059 -33.484,33.053C-33.484,33.053 -22.355,33.139 -21.968,33.139L-11.544,33.139C-11.544,33.139 -4.654,33.277 -4.413,33.289C-4.413,33.289 -1.073,33.354 -0.967,33.336C-0.861,33.319 0.051,33.392 -0.01,32.664C-0.01,32.664 0.03,30.923 0,30.476"
   style="fill:rgb(2,2,2);fill-rule:nonzero;"
   id="path48" />
                </g>
                <g
   transform="matrix(4.16667,0,0,4.16667,1263.27,97.1833)"
   id="g50">
                    <path
   d="M0,17.091C-0.975,17.3 -2.643,17.194 -2.643,17.194C-2.763,17.199 -3.566,17.163 -4.096,17.138C-4.09,16.706 -4.084,16.399 -4.08,16.348C-4.08,16.348 -4.068,15.084 -4.068,14.866C-4.068,14.866 -4.027,12.731 -4.033,12.395C-4.033,12.395 -3.951,9.713 -3.951,9.584C-3.951,9.584 -3.861,7.059 -3.83,6.38C-3.815,6.34 -3.802,6.296 -3.788,6.255C-3.262,6.258 -1.273,6.248 -1.08,6.243C-1.008,6.241 -0.569,6.243 -0.018,6.247C-0.01,7.652 0.086,14.725 0.086,14.725C0.069,14.801 0.035,15.863 0,17.091M3.628,22.558C4.253,22.381 4.19,22.037 4.19,22.037C4.253,21.85 4.044,16.246 4.044,16.246C4.044,16.121 4.003,10.621 4.003,10.621C4.003,10.496 3.961,6.433 3.961,6.433C3.954,6.374 3.98,6.148 3.993,5.958C3.997,5.91 4,5.867 4.002,5.843C4.008,5.766 4.061,4.513 4.061,4.348C4.061,4.184 3.991,3.654 3.908,3.478C3.826,3.301 3.202,3.337 3.202,3.337C3.132,3.354 1.185,3.39 0.602,3.395C0.137,3.4 -1.966,3.353 -2.953,3.339C-2.891,3.073 -2.825,2.815 -2.768,2.537C-2.768,2.537 -1.749,-2.372 -1.443,-4.886C-0.201,-4.882 0.777,-4.877 0.838,-4.875C1.008,-4.869 4.32,-4.84 4.32,-4.84C4.585,-4.875 4.626,-5.063 4.626,-5.063C4.832,-5.34 4.79,-7.463 4.79,-7.463C4.849,-8.052 4.485,-8.157 4.485,-8.157C4.214,-8.31 3.449,-8.24 3.449,-8.24C3.302,-8.222 -0.41,-8.275 -0.41,-8.275L-2.551,-8.275C-2.674,-8.269 -7.656,-8.322 -7.656,-8.322C-7.898,-8.328 -11.033,-8.31 -11.033,-8.31C-11.304,-8.299 -11.304,-7.993 -11.304,-7.993C-11.339,-7.84 -11.351,-6.31 -11.351,-6.146C-11.351,-5.981 -11.315,-5.228 -11.315,-5.228C-11.209,-4.71 -10.798,-4.805 -10.798,-4.805C-10.527,-4.775 -7.274,-4.893 -7.021,-4.899C-6.962,-4.9 -6.507,-4.9 -5.854,-4.899C-5.998,-3.149 -6.261,-0.136 -6.393,0.272C-6.393,0.272 -7.081,3.78 -7.971,5.194C-7.971,5.194 -10.167,9.295 -10.456,9.662C-10.456,9.662 -13.401,13.139 -13.643,13.35C-13.643,13.35 -13.932,13.561 -13.737,13.819C-13.737,13.819 -10.62,15.186 -10.346,15.241C-10.346,15.241 -10.073,15.389 -9.706,15.147C-9.706,15.147 -8.667,14.201 -8.378,13.912C-8.378,13.912 -8.303,13.849 -8.177,13.728C-8.191,15.621 -8.213,18.313 -8.227,18.454C-8.247,18.673 -8.487,23.11 -8.518,23.246C-8.549,23.381 -8.645,24.266 -8.645,24.266C-8.645,24.266 -8.715,24.925 -8.656,25.054C-8.656,25.054 -8.586,25.395 -8.151,25.372C-8.151,25.372 -4.568,25.419 -4.468,25.372C-4.468,25.372 -4.168,25.366 -4.162,24.925C-4.162,24.925 -4.121,21.425 -4.139,21.148C-4.139,21.148 -4.137,20.948 -4.134,20.637C-3.15,20.518 -1.362,20.522 -1.362,20.522C-1.109,20.538 -0.478,20.553 -0.091,20.562C-0.097,20.84 -0.102,21.017 -0.102,21.017C-0.143,22.027 -0.039,22.371 -0.039,22.371C0.201,22.714 2.044,22.621 2.044,22.621C2.409,22.621 3.628,22.558 3.628,22.558"
   style="fill:rgb(2,2,2);fill-rule:nonzero;"
   id="path49" />
                </g>
                <g
   transform="matrix(4.16667,0,0,4.16667,1343.92,194.377)"
   id="g51">
                    <path
   d="M0,-28.354C0,-28.354 1.288,-28.33 2.838,-28.302C2.838,-28.293 2.833,-28.282 2.833,-28.274C2.833,-28.274 2.792,-20.215 2.792,-20.005C2.792,-20.005 2.791,-19.828 2.789,-19.524C0.134,-19.528 -2.651,-19.532 -2.771,-19.521C-2.805,-19.518 -2.971,-19.515 -3.214,-19.513C-3.21,-20.097 -3.21,-20.532 -3.219,-20.625C-3.25,-20.969 -3.313,-24.469 -3.313,-24.969C-3.313,-25.393 -3.324,-27.469 -3.375,-28.307C-1.703,-28.332 -0.111,-28.354 0,-28.354M-7.781,-12.125C-7.844,-11.75 -8.141,-9.875 -8.406,-8.969C-8.672,-8.062 -9.172,-6.687 -9.406,-6.187C-9.641,-5.687 -10.047,-4.828 -10.531,-4.125C-11.016,-3.422 -12.063,-2.031 -12.469,-1.719C-12.875,-1.406 -13.609,-0.765 -14.094,-0.5C-14.578,-0.234 -15.297,0.25 -15.563,0.344C-15.828,0.438 -16.156,0.641 -16.156,0.75C-16.156,0.86 -15.938,1.016 -15.5,1.219C-15.063,1.422 -13.5,2.438 -13.375,2.594C-13.25,2.75 -12.953,3.016 -12.781,3.094C-12.609,3.172 -12.281,3.344 -11.813,3.031C-11.344,2.719 -10.313,2.016 -10.094,1.813C-9.875,1.61 -8.828,0.61 -8.469,0.188C-8.109,-0.234 -7.297,-1.219 -7,-1.656C-6.703,-2.094 -6.031,-3.265 -5.812,-3.719C-5.594,-4.172 -4.906,-5.453 -4.687,-6.062C-4.469,-6.672 -4.047,-8.109 -3.906,-8.719C-3.766,-9.328 -3.516,-11.359 -3.469,-11.719C-3.422,-12.078 -3.234,-14.484 -3.25,-14.937C-3.255,-15.071 -3.251,-15.595 -3.245,-16.271L-2.958,-16.271C-2.958,-16.271 2.354,-16.229 2.5,-16.229C2.5,-16.229 2.604,-16.228 2.768,-16.227C2.748,-13.192 2.721,-9.404 2.708,-9.217C2.708,-9.217 2.333,2.327 2.333,2.621C2.333,2.621 2.458,3.062 2.75,3.125C2.75,3.125 6.854,3.209 7.125,3.125C7.125,3.125 7.417,3.041 7.5,2.579C7.5,2.579 7.312,-7.39 7.333,-7.705C7.333,-7.705 7.312,-15.891 7.333,-16.101C7.333,-16.101 7.334,-16.137 7.335,-16.193C8.816,-16.182 10.095,-16.171 10.208,-16.166C10.208,-16.166 12.74,-16.094 12.938,-16.125C12.938,-16.125 13.438,-16.083 13.521,-16.687C13.521,-16.687 13.667,-18.833 13.458,-19.104C13.458,-19.104 13.417,-19.635 12.25,-19.562C12.25,-19.562 7.844,-19.531 7.604,-19.521C7.586,-19.52 7.497,-19.519 7.376,-19.519C7.417,-22.92 7.472,-27.65 7.458,-27.771C7.458,-27.771 7.474,-27.96 7.496,-28.219C7.871,-28.212 8.126,-28.208 8.167,-28.208C8.167,-28.208 12.479,-28.073 12.646,-28.167C12.646,-28.167 12.823,-28.208 12.896,-28.416C12.896,-28.416 13,-30.937 12.979,-31.042C12.979,-31.042 13,-31.458 12.396,-31.458C12.396,-31.458 9.156,-31.5 8.938,-31.5C8.938,-31.5 3.688,-31.531 3.5,-31.521C3.5,-31.521 -6.833,-31.552 -7.021,-31.542C-7.021,-31.542 -11.292,-31.51 -11.458,-31.583C-11.458,-31.583 -12.24,-31.698 -12.438,-31.542C-12.438,-31.542 -12.76,-31.489 -12.771,-31C-12.771,-31 -12.854,-28.75 -12.813,-28.583C-12.813,-28.583 -12.813,-28.333 -12.688,-28.229C-12.688,-28.229 -12.49,-28.083 -12.042,-28.125C-12.042,-28.125 -8.835,-28.206 -7.716,-28.238C-7.666,-28.033 -7.621,-27.832 -7.594,-27.656C-7.484,-26.96 -7.5,-24.125 -7.5,-23.875C-7.5,-23.625 -7.516,-19.828 -7.5,-19.594C-7.499,-19.579 -7.498,-19.548 -7.498,-19.505C-8.365,-19.504 -9.027,-19.503 -9.104,-19.5C-9.104,-19.5 -12.063,-19.489 -12.5,-19.583C-12.5,-19.583 -13.563,-19.708 -13.604,-19.208C-13.604,-19.208 -13.719,-18.291 -13.708,-18.062C-13.708,-18.062 -13.719,-16.771 -13.688,-16.666C-13.688,-16.666 -13.49,-16.239 -13.104,-16.271L-7.531,-16.271C-7.541,-15.676 -7.553,-15.2 -7.562,-15.062C-7.594,-14.625 -7.719,-12.5 -7.781,-12.125"
   style="fill:rgb(2,2,2);fill-rule:nonzero;"
   id="path50" />
                </g>
                <g
   transform="matrix(4.16667,0,0,4.16667,1535.83,92.1596)"
   id="g52">
                    <path
   d="M0,-0.758C1,-0.765 1.78,-0.771 1.834,-0.766C1.95,-0.754 7.36,-0.738 10.191,-0.721C10.221,0.081 10.25,0.766 10.25,0.766C10.256,0.877 10.253,1.784 10.235,2.706C10.046,2.613 9.867,2.525 9.724,2.453C9.724,2.453 8.888,1.688 8.568,1.781C8.568,1.781 8.287,1.656 7.974,2.563C7.974,2.563 7.739,3.135 7.584,3.391C7.333,3.803 7.089,3.992 6.857,4.117C6.482,4.32 4.277,4.422 3.645,4.422C3.013,4.422 0.169,4.484 -0.026,3.734C-0.207,3.039 -0.092,-0.019 0,-0.758M-27.213,4.831C-27.213,4.831 -27.26,5.29 -26.541,5.297L-23.463,5.297C-23.463,5.297 -23.041,5.335 -22.838,5.222C-22.838,5.222 -22.534,5.139 -22.588,4.364C-22.643,3.589 -22.701,0.684 -22.526,-0.226C-22.526,-0.226 -22.483,-0.564 -22.451,-0.775C-19.6,-0.771 -16.361,-0.766 -16.291,-0.766C-16.166,-0.766 -5.002,-0.828 -4.776,-0.766C-4.745,-0.757 -4.595,-0.751 -4.371,-0.748C-4.421,-0.618 -4.448,-0.466 -4.416,-0.266C-4.416,-0.266 -4.573,5.258 -4.416,5.5C-4.416,5.5 -4.182,6.563 -2.776,7.156C-2.776,7.156 -1.526,7.641 3.24,7.547C3.24,7.547 7.779,7.641 8.927,7.188C8.927,7.188 10.076,6.719 10.552,6.094C10.552,6.094 10.761,5.802 11.002,5.437C12.079,5.471 14.313,5.458 14.313,5.458C14.802,5.469 14.75,5.229 14.75,5.229C14.813,5.01 14.604,3.042 14.604,3.042C14.542,2.573 14.563,0.417 14.563,0.417C14.584,-0.437 14.75,-2.854 14.75,-2.854C14.771,-3.312 14.781,-3.625 14.5,-3.854C14.426,-3.914 14.111,-3.93 13.755,-3.928L13.752,-3.928C13.752,-3.928 5.865,-3.797 5.521,-3.797C5.177,-3.797 -3.518,-3.852 -3.635,-3.844L-3.645,-3.844C-3.645,-3.851 -3.646,-3.869 -3.646,-3.869C-3.646,-3.869 -3.708,-5.543 -3.479,-5.93C-3.25,-6.316 -2.312,-6.703 -2.312,-7.175C-2.312,-7.175 -2.021,-7.626 -3.271,-7.819C-3.271,-7.819 -7.479,-8.399 -7.812,-8.291C-7.812,-8.291 -8.396,-8.377 -8.437,-7.948C-8.437,-7.948 -8.541,-7.347 -8.521,-7.046C-8.521,-7.046 -8.5,-4.577 -8.479,-4.17C-8.479,-4.17 -8.484,-4.021 -8.492,-3.825C-10.776,-3.818 -13.023,-3.812 -13.104,-3.812C-13.104,-3.812 -22.291,-3.859 -22.51,-3.859C-22.51,-3.859 -23.971,-3.859 -25.666,-4.016C-25.666,-4.016 -26.338,-4.156 -26.729,-3.984C-26.729,-3.984 -27.096,-3.844 -27.104,-3.516C-27.104,-3.516 -27.081,-1.398 -27.088,-1.281C-27.09,-0.788 -27.033,0.08 -27.041,0.256C-27.041,0.256 -27.229,4.575 -27.213,4.831"
   style="fill:rgb(2,2,2);fill-rule:nonzero;"
   id="path51" />
                </g>
                <g
   transform="matrix(4.16667,0,0,4.16667,1483.94,130.096)"
   id="g53">
                    <path
   d="M0,-9.309C0,-9.309 -0.318,-9.303 -0.541,-8.956C-0.541,-8.956 -1.524,-7.656 -1.953,-7.262C-1.953,-7.262 -3.218,-6.15 -4.035,-5.627C-4.853,-5.103 -6.129,-4.191 -7.471,-3.674C-7.471,-3.674 -10.094,-2.821 -10.341,-2.744C-10.341,-2.744 -10.553,-2.642 -10.494,-2.511C-10.435,-2.38 -7.388,0.085 -7.082,0.079C-7.082,0.079 -7.006,0.097 -6.824,0.02C-6.824,0.02 -2.688,-1.685 -0.682,-3.286C1.323,-4.885 2.229,-5.944 2.659,-6.203C2.659,-6.203 2.912,-6.427 3.753,-6.344C3.753,-6.344 4.335,-6.439 4.388,-6.78C4.388,-6.78 4.588,-7.274 3.271,-7.885C3.271,-7.885 1.953,-8.497 1.877,-8.544C1.88,-8.542 1.88,-8.542 1.884,-8.54C1.589,-8.719 0.42,-9.406 0,-9.309"
   style="fill:rgb(2,2,2);fill-rule:nonzero;"
   id="path52" />
                </g>
                <g
   transform="matrix(4.16667,0,0,4.16667,1538.9,176.602)"
   id="g54">
                    <path
   d="M0,-6.336C-0.153,-5.58 -0.364,-4.581 -0.405,-4.385C-0.468,-4.088 -0.983,-0.525 -1.03,-0.166C-1.077,0.194 -1.358,2.928 -1.436,3.834C-1.514,4.74 -1.139,5.303 -0.936,5.584C-0.733,5.865 -0.249,6.303 0.064,6.49C0.376,6.678 1.048,6.881 1.47,6.99C1.892,7.1 4.173,7.178 4.532,7.178C4.892,7.178 7.798,7.194 9.032,7.24C10.267,7.287 11.064,6.944 11.751,6.74C12.439,6.537 13.345,5.49 13.564,5.272C13.782,5.053 14.626,3.709 14.876,3.178C15.126,2.647 15.236,2.162 15.314,1.865C15.392,1.569 15.392,1.24 15.376,1.022C15.361,0.803 15.048,0.74 14.845,0.647C14.642,0.553 13.97,0.272 13.689,0.178C13.407,0.084 12.376,-0.697 12.126,-0.885C11.876,-1.072 11.861,-1.056 11.626,-0.978C11.392,-0.9 11.282,-0.181 11.189,0.272C11.095,0.725 10.876,1.147 10.72,1.584C10.564,2.022 10.329,2.397 10.157,2.709C9.986,3.022 9.626,3.412 9.376,3.584C9.126,3.756 8.454,3.834 8.126,3.865C7.798,3.897 5.861,3.959 5.501,3.959C5.142,3.959 4.314,3.881 3.939,3.803C3.564,3.725 3.392,3.553 3.251,3.272C3.111,2.99 3.048,2.631 3.064,2.272C3.079,1.912 3.298,-0.541 3.376,-1.01C3.454,-1.478 3.829,-4.01 3.97,-4.666C4.066,-5.112 4.26,-6.185 4.386,-6.92C4.493,-7.339 4.716,-8.226 4.751,-8.463C4.751,-8.463 5.025,-9.267 4.829,-9.588C4.829,-9.588 4.782,-9.822 4.361,-9.822C3.939,-9.822 -1.725,-9.541 -1.968,-9.51C-2.082,-9.495 -4.289,-9.398 -6.603,-9.297C-6.525,-10.227 -6.449,-11.574 -6.363,-11.667C-6.254,-11.785 -6.274,-11.879 -5.698,-11.985C-5.698,-11.985 -4.999,-12.277 -4.999,-12.55C-4.999,-12.55 -4.957,-13.079 -5.604,-13.185L-9.569,-13.703C-9.569,-13.703 -11.08,-13.859 -11.172,-13.848C-11.264,-13.836 -11.463,-13.808 -11.451,-13.35C-11.451,-13.35 -11.499,-11.144 -11.499,-10.879C-11.499,-10.879 -11.613,-9.792 -11.753,-9.07C-11.884,-9.064 -11.982,-9.058 -11.999,-9.056C-12.202,-9.033 -22.677,-8.735 -23.499,-8.76C-23.499,-8.76 -24.686,-8.892 -25.014,-8.603C-25.014,-8.603 -25.343,-8.517 -25.343,-7.869C-25.343,-7.869 -25.264,-5.924 -25.139,-5.681C-25.139,-5.681 -25.085,-5.564 -24.983,-5.463C-24.983,-5.463 -25.069,-5.283 -23.108,-5.353C-23.108,-5.353 -14.218,-5.822 -13.733,-5.853C-13.733,-5.853 -13.259,-5.873 -12.54,-5.903C-12.68,-5.44 -12.811,-5.062 -12.91,-4.855C-12.91,-4.855 -13.304,-3.75 -13.757,-3.126C-13.757,-3.126 -15.116,-1.303 -16.534,-0.197C-16.534,-0.197 -17.534,0.868 -19.993,1.98C-22.451,3.092 -24.828,3.692 -26.145,3.862C-26.145,3.862 -27.334,3.933 -27.616,4.074C-27.616,4.074 -27.916,4.186 -27.91,4.392C-27.91,4.392 -28.087,4.545 -27.157,5.133C-27.157,5.133 -25.551,6.392 -25.098,7.203C-25.098,7.203 -24.887,7.523 -24.381,7.428C-23.875,7.333 -21.516,6.598 -20.993,6.427C-20.469,6.256 -15.598,4.056 -15.228,3.839C-14.857,3.621 -12.704,2.133 -11.298,0.627C-9.893,-0.879 -9.12,-2.178 -8.816,-2.726C-8.571,-3.169 -8.01,-3.971 -7.487,-5.832C-7.46,-5.926 -7.427,-6.021 -7.39,-6.119C-5.751,-6.189 -4.388,-6.248 -4.202,-6.26C-4.202,-6.26 -2.074,-6.291 0,-6.336"
   style="fill:rgb(2,2,2);fill-rule:nonzero;"
   id="path53" />
                </g>
                <g
   transform="matrix(4.16667,0,0,4.16667,1746.23,100.498)"
   id="g55">
                    <path
   d="M0,15.484C0,15.484 -2.79,15.512 -5.552,15.539C-5.534,14.801 -5.522,14.248 -5.522,14.176C-5.522,14.176 -5.539,13.052 -5.033,13.046C-5.033,13.046 -4.594,12.952 -4.594,12.635C-4.594,12.635 -4.621,12.288 -4.821,12.235C-4.821,12.235 -9.102,11.711 -9.421,11.754C-9.421,11.754 -9.768,11.78 -9.963,11.964C-10.007,12.006 -10.081,12.072 -10.104,12.121C-10.194,12.317 -10.286,12.357 -10.234,12.894C-10.234,12.894 -10.222,14.158 -10.207,15.584C-10.627,15.588 -10.894,15.59 -10.931,15.59C-10.931,15.59 -15.451,15.555 -15.706,15.531C-15.706,15.531 -16.129,15.49 -16.675,15.446C-15.834,14.859 -15.105,14.321 -14.786,14.009C-14.786,14.009 -12.4,11.631 -11.382,10.527C-10.294,10.522 -9.507,10.517 -9.378,10.514C-9.378,10.514 -6.011,10.506 -3.365,10.501C-3.043,10.968 -2.682,11.447 -2.682,11.447C-2.099,12.374 -0.036,14.343 0.359,14.676C0.462,14.762 0.891,15.06 1.48,15.46C0.758,15.469 0.09,15.479 0,15.484M-13.849,5.512C-13.495,5.377 -5.224,5.554 -5.224,5.554C-5.005,5.564 -1.359,5.648 -1.151,5.648C-1.069,5.648 -0.982,5.625 -0.903,5.6L-0.89,5.6C-0.891,6.05 -0.906,6.62 -0.909,6.643C-0.916,6.693 -0.919,7.064 -0.921,7.522L-1.102,7.522C-1.254,7.522 -8.472,7.506 -8.632,7.522C-8.71,7.53 -11.524,7.534 -14.427,7.536C-14.426,7.477 -14.423,6.705 -14.418,5.617C-14.146,5.539 -13.849,5.512 -13.849,5.512M-14.395,0.683C-14.098,0.542 -13.62,0.5 -13.62,0.5C-13.266,0.364 -4.995,0.541 -4.995,0.541C-4.776,0.552 -1.13,0.635 -0.922,0.635C-0.919,0.635 -0.911,0.767 -0.904,0.888L-0.906,0.888C-0.906,1.359 -0.894,2.202 -0.891,2.751L-0.904,2.751C-1.276,3.103 -1.849,3.116 -1.849,3.116L-10.464,3.116C-10.685,3.116 -13.206,3.008 -14.405,2.956C-14.402,2.189 -14.398,1.409 -14.395,0.683M-14.381,-2.271C-14.38,-2.484 -14.379,-2.603 -14.379,-2.603L-14.356,-4.259C-11.922,-4.269 -9.392,-4.281 -9.159,-4.287C-9.159,-4.287 -2.18,-4.304 -0.917,-4.303C-0.915,-3.792 -0.914,-2.82 -0.912,-2.085C-1.25,-1.902 -1.62,-1.896 -1.62,-1.896L-10.234,-1.896C-10.469,-1.896 -13.293,-2.018 -14.382,-2.065C-14.381,-2.134 -14.381,-2.214 -14.381,-2.271M14.572,7.788C14.572,7.788 14.466,7.497 13.987,7.493C13.509,7.488 9.797,7.521 9.53,7.525C9.385,7.528 6.303,7.526 3.495,7.525C3.493,7.423 3.492,7.353 3.492,7.33C3.492,7.284 3.493,6.387 3.495,5.509C3.497,4.813 3.498,3.949 3.501,3.064L3.518,3.064C3.519,2.554 3.507,1.627 3.506,1.061L3.518,1.061C3.521,-0.327 3.514,-1.811 3.512,-2.176L3.518,-2.176L3.569,-4.232C6.103,-4.19 8.851,-4.145 9.014,-4.145C9.014,-4.145 12.386,-3.993 12.826,-4.342C12.826,-4.342 12.975,-4.519 13.006,-4.962C13.037,-5.405 13.131,-6.731 13.006,-6.891C13.006,-6.891 12.908,-7.17 12.465,-7.174C12.022,-7.177 8.586,-7.146 8.339,-7.142C8.221,-7.14 5.981,-7.141 3.669,-7.142L3.711,-8.346C3.77,-8.564 4.388,-9.075 4.388,-9.075C4.796,-9.293 4.726,-9.575 4.726,-9.575C4.766,-9.804 4.647,-9.846 4.647,-9.846C4.438,-10.21 0.893,-10.304 0.266,-10.304C-0.362,-10.304 -0.352,-10.304 -0.571,-10.137C-0.79,-9.971 -0.81,-9.575 -0.81,-9.575C-0.835,-9.441 -0.865,-8.231 -0.887,-7.145L-1.5,-7.145C-1.641,-7.145 -8.32,-7.161 -8.469,-7.145C-8.544,-7.137 -11.424,-7.134 -14.253,-7.132L-14.203,-8.5C-14.141,-8.718 -13.495,-9.229 -13.495,-9.229C-13.068,-9.448 -13.141,-9.729 -13.141,-9.729C-13.099,-9.958 -13.224,-10 -13.224,-10C-13.443,-10.364 -17.151,-10.458 -17.807,-10.458C-18.464,-10.458 -18.453,-10.458 -18.682,-10.291C-18.911,-10.125 -18.932,-9.729 -18.932,-9.729C-18.96,-9.588 -18.993,-8.255 -19.017,-7.13L-19.734,-7.13C-19.922,-7.13 -26.032,-7.15 -26.367,-7.174C-26.367,-7.174 -27.841,-7.296 -28.029,-7.174C-28.029,-7.174 -28.396,-7.13 -28.36,-6.609C-28.36,-6.609 -28.392,-4.766 -28.36,-4.695C-28.36,-4.695 -28.347,-4.476 -28.233,-4.366C-28.233,-4.366 -28.171,-4.154 -26.476,-4.177C-24.837,-4.2 -19.63,-4.234 -19.043,-4.24C-19.042,-3.699 -19.051,6.799 -19.049,7.538L-20.805,7.538C-21.008,7.538 -27.61,7.517 -27.971,7.493C-27.971,7.493 -29.565,7.365 -29.768,7.493C-29.768,7.493 -30.164,7.538 -30.125,8.084C-30.125,8.084 -30.16,10.013 -30.125,10.087C-30.125,10.087 -30.111,10.317 -29.989,10.432C-29.989,10.432 -29.921,10.653 -28.09,10.629C-26.26,10.604 -20.298,10.567 -19.997,10.563C-19.997,10.563 -18.932,10.559 -17.478,10.553C-17.605,10.725 -18.715,12.205 -20.078,13.176C-20.078,13.176 -21.526,14.759 -26.161,16.551C-26.161,16.551 -28.026,17.207 -29.37,17.488C-29.37,17.488 -30.203,17.645 -30.224,17.926C-30.224,17.926 -30.266,18.155 -29.745,18.426C-29.745,18.426 -27.995,19.259 -27.453,19.905C-27.453,19.905 -27.057,20.551 -26.911,20.551C-26.911,20.551 -25.422,20.353 -24.766,20.072C-24.766,20.072 -21.297,18.499 -20.724,18.134C-20.724,18.134 -20.133,17.757 -19.325,17.228C-19.321,17.67 -19.294,18.21 -19.188,18.355C-19.188,18.355 -18.9,18.702 -17.235,18.608C-15.571,18.513 -10.681,18.561 -10.435,18.555C-10.435,18.555 -10.327,18.554 -10.17,18.553C-10.163,19.058 -10.156,19.425 -10.151,19.517C-10.151,19.517 -10.234,21.899 -10.234,22.035C-10.234,22.035 -10.238,22.25 -10.165,22.545C-10.48,22.548 -10.687,22.55 -10.719,22.551C-10.891,22.559 -17.461,22.449 -17.734,22.457C-18.008,22.465 -21.641,22.473 -21.922,22.473L-25.469,22.395C-25.469,22.395 -26.062,22.27 -26.312,22.473C-26.312,22.473 -26.578,22.574 -26.609,23.004C-26.609,23.004 -26.656,25.231 -26.609,25.285C-26.609,25.285 -26.633,25.488 -26.203,25.676C-26.203,25.676 -22.211,25.692 -21.672,25.676C-21.672,25.676 -14.953,25.551 -14.734,25.551L-6.266,25.551C-6.266,25.551 2.852,25.762 3.203,25.754C3.203,25.754 9.539,25.942 9.875,25.863C9.875,25.863 10.25,25.91 10.5,25.645C10.5,25.645 10.672,25.356 10.672,24.848C10.672,24.848 10.859,23.153 10.547,22.785C10.547,22.785 10.531,22.574 10.063,22.551C9.594,22.528 8.906,22.481 8.719,22.488C8.531,22.496 1.75,22.449 1.563,22.457C1.375,22.465 -4.984,22.488 -5.156,22.504C-5.181,22.506 -5.321,22.509 -5.528,22.511C-5.531,22.478 -5.698,20.629 -5.669,19.952C-5.66,19.756 -5.644,19.21 -5.626,18.532C-3.33,18.522 -1.05,18.514 -0.929,18.519C-0.929,18.519 3.035,18.637 3.306,18.555C3.306,18.555 3.46,18.561 3.635,18.425C3.635,18.425 3.735,18.366 3.741,17.731C3.741,17.731 3.779,17.412 3.795,17.012C5.131,17.901 6.441,18.762 6.859,19.027C7.776,19.606 10.839,20.676 10.839,20.676C11.182,20.801 11.609,20.676 11.609,20.676C12.047,20.52 12.964,19.155 12.964,19.155C13.099,19.009 13.943,18.384 13.943,18.384C14.495,17.968 13.943,17.77 13.943,17.77C13.745,17.666 12.609,17.322 12.609,17.322C11.432,17.113 7.109,15.051 7.109,15.051C4.234,13.488 2.349,11.426 2.151,11.134C2.068,11.012 1.927,10.787 1.747,10.529C4.729,10.578 10.022,10.662 10.258,10.662C10.258,10.662 13.903,10.822 14.377,10.456C14.377,10.456 14.538,10.271 14.572,9.808C14.606,9.344 14.708,7.956 14.572,7.788"
   style="fill:rgb(2,2,2);fill-rule:nonzero;"
   id="path54" />
                </g>
                <g
   transform="matrix(4.16667,0,0,4.16667,1949.66,152.734)"
   id="g56">
                    <path
   d="M0,-9.749C-1.398,-9.744 -2.657,-9.737 -2.753,-9.73C-2.753,-9.73 -9.201,-9.793 -9.471,-9.761C-9.471,-9.761 -12.44,-9.868 -14.807,-9.95C-15.334,-9.968 -15.832,-9.985 -16.26,-10C-15.952,-10.182 -15.761,-10.295 -15.761,-10.295C-15.355,-10.607 -11.796,-13.624 -11.796,-13.624C-11.326,-13.966 -8.298,-17.056 -8.298,-17.056C-8.151,-17.195 -7.803,-17.483 -7.374,-17.831C-6.221,-16.245 -4.901,-14.879 -2.079,-12.463C-1.026,-11.561 0.353,-10.608 1.688,-9.755C1.145,-9.753 0.563,-9.751 0,-9.749M15.796,-7.963C15.39,-8.213 12.827,-8.744 12.827,-8.744C11.265,-9.088 7.421,-10.791 6.358,-11.306C5.296,-11.822 1.187,-14.447 -1.298,-16.713C-2.943,-18.213 -3.878,-19.521 -4.33,-20.243C-4.292,-20.273 -4.265,-20.295 -4.251,-20.306C-4.04,-20.478 -3.704,-20.635 -3.704,-21.072C-3.704,-21.51 -4.282,-21.619 -4.282,-21.619C-4.587,-21.681 -8.313,-22.838 -8.313,-22.838C-9.313,-23.252 -9.61,-22.963 -9.61,-22.963C-9.985,-22.744 -10.267,-22.135 -10.267,-22.135C-10.798,-20.728 -13.549,-17.766 -13.549,-17.766C-14.044,-17.16 -18.22,-13.66 -18.22,-13.66C-18.979,-13.066 -22.873,-10.736 -23.867,-10.26C-24.861,-9.783 -30.702,-7.713 -30.702,-7.713C-30.914,-7.436 -28.855,-6.154 -28.855,-6.154C-28.62,-5.954 -27.067,-4.86 -27.067,-4.86C-26.514,-4.889 -25.892,-5.244 -25.892,-5.244C-24.579,-5.556 -21.423,-7.088 -21.423,-7.088C-21.163,-7.174 -20.093,-7.771 -18.953,-8.427C-18.952,-8.249 -18.948,-8.051 -18.936,-7.824C-18.936,-7.824 -18.971,-7.074 -18.819,-6.886C-18.819,-6.886 -18.748,-6.699 -17.95,-6.699L-9.767,-6.699C-9.771,-5.694 -9.762,-2.947 -9.761,-1.801C-9.96,-1.799 -10.104,-1.797 -10.142,-1.794C-10.142,-1.794 -20.543,-2.075 -21.048,-2.075C-21.048,-2.075 -22.173,-2.138 -22.454,-1.856C-22.454,-1.856 -22.86,-1.747 -22.735,0.144C-22.735,0.144 -22.782,0.894 -22.579,1.081C-22.579,1.081 -22.485,1.269 -21.423,1.269L-9.761,1.269L-9.761,9.86C-10.977,9.851 -12.106,9.835 -12.329,9.852C-12.603,9.873 -14.243,9.86 -16.026,9.837C-15.695,9.728 -15.259,9.566 -14.954,9.383C-14.954,9.383 -13.501,8.821 -13.298,8.477C-13.298,8.477 -12.985,8.253 -13.735,6.998C-13.735,6.998 -16.251,3.071 -17.048,2.977C-17.048,2.977 -17.36,2.681 -18.61,3.345L-19.86,4.008C-19.86,4.008 -20.72,4.383 -20.579,4.758C-20.579,4.758 -20.392,5.274 -19.673,5.915C-19.673,5.915 -17.923,8.446 -17.767,8.696C-17.767,8.696 -17.327,9.479 -16.902,9.825C-18.806,9.798 -20.65,9.766 -20.985,9.758C-21.688,9.743 -26.11,9.649 -26.673,9.571C-26.673,9.571 -27.61,9.54 -27.892,9.758C-27.892,9.758 -28.173,9.883 -28.173,10.227L-28.173,12.665C-28.173,12.665 -28.22,13.133 -27.673,13.227C-27.126,13.321 -20.22,13.071 -19.954,13.071L-3.704,13.071C-3.704,13.071 5.749,13.222 6.202,13.248C6.202,13.248 12.552,13.503 13.132,13.341C13.132,13.341 13.37,13.201 13.327,12.758C13.327,12.758 13.53,10.196 13.171,9.977C13.171,9.977 12.827,9.696 11.046,9.79C9.599,9.866 4.237,9.839 1.988,9.843C3.233,8.655 4.983,6.227 4.983,6.227C5.312,5.852 5.827,5.79 5.827,5.79C6.858,5.508 6.577,5.227 6.577,5.227C6.702,4.665 5.608,4.415 5.608,4.415C4.718,4.118 3.015,3.345 3.015,3.345C1.843,2.665 1.454,3.516 1.358,3.946C1.223,4.558 0.296,5.665 0.296,5.665C-0.188,6.337 -2.298,8.321 -2.298,8.321C-2.86,8.852 -1.704,9.071 -1.704,9.071C-1.274,9.096 -0.467,9.636 -0.137,9.868C-1.74,9.877 -4.421,9.872 -4.767,9.883C-4.81,9.885 -4.885,9.884 -5.021,9.884L-5.021,1.269L-2.454,1.269C-2.173,1.269 3.28,1.487 3.765,1.487C3.765,1.487 7.483,1.597 7.827,1.487C7.827,1.487 8.171,1.597 8.171,0.925L8.171,-1.325C8.171,-1.325 8.249,-1.794 7.702,-1.794C7.702,-1.794 -0.907,-1.778 -1.204,-1.763C-1.204,-1.763 -3.024,-1.776 -5.021,-1.787C-5.022,-2.998 -5.021,-5.945 -5.021,-6.699L-3.693,-6.699C-3.482,-6.699 0.617,-6.48 0.981,-6.48C0.981,-6.48 3.776,-6.371 4.034,-6.48C4.034,-6.48 4.293,-6.371 4.293,-7.043L4.293,-8.169C5.486,-7.475 6.327,-7.025 6.327,-7.025C8.264,-5.947 12.296,-4.463 12.296,-4.463C13.046,-4.291 13.077,-4.65 13.077,-4.65C13.374,-5.103 14.14,-6.056 14.14,-6.056C14.562,-6.619 15.608,-7.431 15.608,-7.431C16.108,-7.76 15.796,-7.963 15.796,-7.963"
   style="fill:rgb(2,2,2);fill-rule:nonzero;"
   id="path55" />
                </g>
                <g
   transform="matrix(4.16667,0,0,4.16667,2164.53,172.427)"
   id="g57">
                    <path
   d="M0,4.874C-0.692,4.947 -8.624,4.905 -8.861,4.916C-9.05,4.924 -16.952,4.826 -20.379,4.773C-20.392,4.332 -20.403,4.036 -20.403,4.036C-20.401,4.015 -20.398,3.798 -20.395,3.483C-20.287,3.457 -20.189,3.434 -20.121,3.419C-19.828,3.354 -18.35,3.321 -18.198,3.321C-18.046,3.321 -8.095,3.3 -7.954,3.3C-7.813,3.3 0.106,3.365 0.704,3.408C0.876,3.421 1.002,3.45 1.106,3.483C1.102,3.74 1.098,3.918 1.095,3.957C1.088,4.026 1.068,4.37 1.043,4.837C0.629,4.84 0.235,4.849 0,4.874M-20.359,-1.089C-19.905,-1.104 -18.194,-1.16 -17.977,-1.16C-17.727,-1.16 -10.959,-1.173 -10.779,-1.173C-10.599,-1.173 -0.081,-1.146 0.191,-1.133C0.264,-1.13 0.639,-1.119 1.147,-1.106C1.143,-0.682 1.138,-0.098 1.133,0.525C0.881,0.598 0.484,0.642 0.411,0.649C0.291,0.66 -10.453,0.649 -10.496,0.649C-10.54,0.649 -19.252,0.649 -20.002,0.595C-20.128,0.585 -20.253,0.568 -20.376,0.549C-20.375,0.35 -20.376,0.213 -20.377,0.185C-20.381,0.116 -20.368,-0.442 -20.359,-1.089M0.98,8.064C1.043,8.634 1.449,8.673 1.449,8.673C1.73,8.853 3.887,8.728 4.637,8.736C5.387,8.744 5.48,8.377 5.48,8.377C5.676,8.064 5.407,4.075 5.407,3.739C5.407,3.468 5.478,-0.488 5.506,-2.014C5.519,-2.431 5.523,-2.883 5.503,-2.968C5.468,-3.123 5.543,-3.938 4.727,-3.93C3.911,-3.921 1.415,-3.78 1.205,-3.775C0.994,-3.771 -5.239,-3.7 -5.392,-3.705C-5.546,-3.709 -12.705,-3.7 -12.902,-3.705C-13.099,-3.709 -20.986,-3.784 -21.201,-3.78C-21.416,-3.775 -22.594,-3.841 -22.726,-3.858C-22.726,-3.858 -24.139,-3.979 -24.39,-3.868C-24.641,-3.757 -24.772,-3.555 -24.785,-3.387C-24.797,-3.236 -24.829,-1.701 -24.803,-1.321C-24.802,-1.278 -24.8,-1.236 -24.8,-1.219C-24.8,-1.045 -24.932,4.732 -24.958,5.12C-24.983,5.509 -25.107,7.99 -25.141,8.395C-25.175,8.8 -24.156,8.767 -24.156,8.767C-24.156,8.767 -22.152,8.808 -21.397,8.75C-20.641,8.693 -20.395,8.387 -20.395,8.387C-20.335,8.306 -20.35,8.205 -20.343,7.583C-19.082,7.553 -17.915,7.524 -17.744,7.52C-17.351,7.509 -9.43,7.603 -9.233,7.582C-9.078,7.566 -2.135,7.615 0.932,7.605C0.924,7.998 0.966,7.93 0.98,8.064"
   style="fill:rgb(2,2,2);fill-rule:nonzero;"
   id="path56" />
                </g>
                <g
   transform="matrix(4.16667,0,0,4.16667,2146.76,69.2138)"
   id="g58">
                    <path
   d="M0,5.916C-0.266,5.932 -6.641,5.791 -7.031,5.822C-7.373,5.85 -14.065,5.733 -15.954,5.683C-13.347,4.87 -11.304,4.053 -8.908,3.111C-7.63,2.609 -6.329,1.962 -5.24,1.376C-4.104,2.076 -2.215,3.182 -0.521,3.896C0.71,4.415 2.999,5.19 5.402,5.938C3.675,5.901 0.207,5.904 0,5.916M16.448,5.333C16.448,5.333 13.896,4.812 12.906,4.583C12.906,4.583 6.604,3.145 4.656,2.353C2.708,1.562 -0.781,0.083 -1.594,-0.646C-1.629,-0.679 -1.68,-0.702 -1.728,-0.726C-1.339,-1.039 -1.375,-1.161 -1.375,-1.161C-1.099,-1.675 -1.84,-1.978 -1.84,-1.978C-1.997,-2.072 -4.447,-2.897 -4.447,-2.897C-5.547,-3.344 -5.987,-2.512 -5.987,-2.512C-9.442,0.048 -12.018,0.928 -15.662,2.232C-19.306,3.535 -25.51,4.226 -26.562,4.525C-27.614,4.823 -26.405,5.624 -26.405,5.624C-26.044,5.907 -26.075,5.813 -25.086,6.912C-24.096,8.012 -23.641,7.792 -23.641,7.792C-22.541,7.682 -18.332,6.378 -18.332,6.378C-18.116,6.319 -17.918,6.261 -17.711,6.202C-17.713,6.223 -17.717,6.237 -17.719,6.26C-17.734,6.557 -17.797,7.869 -17.797,7.869C-17.797,7.869 -17.891,8.447 -17.734,8.697C-17.578,8.947 -17,9.025 -16.594,8.979C-16.187,8.932 -3.938,8.979 -3.5,8.947C-3.063,8.916 6.031,9.213 6.375,9.197C6.719,9.182 6.781,9.26 7,9.072C7.219,8.885 7.234,8.635 7.25,8.447C7.266,8.26 7.25,6.775 7.219,6.635C7.207,6.584 7.208,6.535 7.206,6.486C10.46,7.455 13.495,8.243 13.961,8.137C13.961,8.137 14.243,8.231 14.557,7.949C14.557,7.949 15.667,6.656 15.927,6.437C15.927,6.437 16.344,5.937 16.573,5.833C16.573,5.833 16.896,5.551 16.448,5.333"
   style="fill:rgb(2,2,2);fill-rule:nonzero;"
   id="path57" />
                </g>
                <g
   transform="matrix(4.16667,0,0,4.16667,2063.16,142.44)"
   id="g59">
                    <path
   d="M0,-4.205C0.865,-4.21 1.595,-4.215 1.786,-4.216C1.897,-4.217 2.396,-4.217 3.107,-4.217C3.464,-3.757 3.805,-3.298 3.933,-3.153C3.933,-3.153 4.715,-1.871 5.285,-0.974C5.146,-0.973 5.038,-0.973 5.006,-0.971C4.778,-0.959 2.115,-0.989 0.004,-1.016C-0.004,-2.039 -0.011,-2.928 -0.011,-2.96C-0.011,-2.997 -0.006,-3.597 0,-4.205M12.417,-4.194C12.512,-3.982 12.585,-3.772 12.594,-3.581C12.641,-2.655 12.563,-1.4 12.563,-1.4C12.563,-1.4 12.546,-1.185 12.504,-0.923C11.547,-0.931 10.397,-0.941 9.284,-0.95C8.924,-1.663 8.14,-3.207 7.618,-4.214C9.9,-4.211 12.04,-4.205 12.417,-4.194M16.751,-3.832C16.759,-3.92 16.797,-4.042 16.852,-4.177C19.16,-4.169 21.589,-4.161 22.051,-4.162C21.854,-3.639 20.857,-1.878 20.118,-0.855C19.029,-0.865 17.881,-0.876 16.922,-0.885C16.81,-1.174 16.713,-1.517 16.72,-1.848C16.736,-2.624 16.72,-3.479 16.751,-3.832M26.298,-4.1C27.262,-4.087 28.286,-4.076 29.252,-4.069C29.217,-3.075 29.177,-1.922 29.14,-0.889C29.019,-0.889 28.931,-0.888 28.9,-0.884C28.684,-0.861 25.914,-0.828 24.579,-0.818C24.882,-1.479 25.661,-3.131 26.298,-4.1M-3.966,-0.078L-3.966,-0.05C-3.966,0.101 -4.036,2.163 -4.019,2.269C-4.019,2.269 -3.902,2.607 -3.639,2.695C-3.639,2.695 -0.391,2.736 -0.309,2.707C-0.227,2.678 -0.309,2.707 -0.309,2.707C-0.309,2.707 0.018,2.707 0.03,2.111C0.03,2.111 0.029,1.988 0.027,1.795C0.901,1.789 1.642,1.785 1.834,1.784C2.381,1.78 12.15,1.783 12.532,1.808C12.532,1.808 21.691,1.841 22.174,1.838C22.448,1.836 25.988,1.905 29.048,1.929C29.04,2.432 29.358,2.575 29.358,2.575C29.679,2.892 32.877,2.727 32.877,2.727C33.707,2.722 33.624,2.316 33.624,2.316C33.731,2.207 33.654,-2.308 33.603,-4.767C33.621,-5.101 33.631,-5.623 33.576,-6.06C33.572,-6.222 33.57,-6.33 33.57,-6.33C33.55,-6.45 33.496,-6.537 33.43,-6.61C33.379,-6.708 33.318,-6.784 33.236,-6.802C33.236,-6.802 33.191,-6.803 33.126,-6.805C32.76,-6.922 32.307,-6.833 32.307,-6.833C32.293,-6.831 32.268,-6.83 32.24,-6.828C31.007,-6.859 29.047,-6.904 28.861,-6.884C28.587,-6.855 24.203,-6.809 23.847,-6.816C23.492,-6.823 14.877,-6.906 14.677,-6.904C14.476,-6.903 5.342,-6.991 4.959,-6.971C4.577,-6.95 -2.643,-7.049 -2.643,-7.049C-2.643,-7.049 -3.984,-7.097 -4.008,-6.586C-4.021,-6.317 -4.018,-6.048 -4.013,-5.816L-4.013,-5.811C-4.013,-5.791 -4.008,-5.589 -4,-5.296C-4,-5.287 -3.999,-5.269 -3.998,-5.238C-3.972,-4.284 -3.921,-2.469 -3.925,-2.399C-3.93,-2.33 -3.95,-1.159 -3.96,-0.495C-3.965,-0.352 -3.967,-0.213 -3.966,-0.078"
   style="fill:rgb(2,2,2);fill-rule:nonzero;"
   id="path58" />
                </g>
            </g>
</svg>
