<svg viewBox="0 0 1024 1024" xmlns="http://www.w3.org/2000/svg" fill-rule="evenodd" clip-rule="evenodd" stroke-linejoin="round" stroke-miterlimit="2"><path d="M438.123 514.529c0 42.579-34.535 77.118-77.118 77.118-42.59 0-77.11-34.539-77.11-77.118 0-42.583 34.52-77.101 77.11-77.101 42.583 0 77.118 34.518 77.118 77.101m154.21 0c0 42.579-34.518 77.118-77.101 77.118-42.587 0-77.109-34.539-77.109-77.118 0-42.583 34.522-77.101 77.109-77.101 42.583 0 77.101 34.518 77.101 77.101m154.211 0c0 42.579-34.518 77.118-77.101 77.118-42.579 0-77.11-34.539-77.11-77.118 0-42.583 34.531-77.101 77.11-77.101 42.583 0 77.101 34.518 77.101 77.101" fill="rgb(249,235,1)" fill-rule="nonzero"/><path d="M365.803 543.58a8.418 8.418 0 0 1-.875-1.794l-.358-1.598c0-1.419-.47-3.208-1.411-5.358l-.867-2.101c-.367-.654-.539-1.061-.539-1.307l-.703-3.545-.531-4.845c-.114-2.61-.177-5.842-.177-9.732l.358-3.901v-2.895c0-2.8.577-5.078 1.756-6.802.469.844.703 2.147.703 3.869.116 1.95.358 3.409.708 4.367.469.991 1.061 2.389 1.764 4.235.703 1.718 1.286 3.007 1.764 3.887a49.54 49.54 0 0 0 4.93 8.564c.35.556.765 1.086 1.238 1.625l1.944 3.251 1.41 1.617c2.105 2.812 5.4 6.246 9.861 10.358.234.124.539.444.88.974l1.242 1.615c.459.749.88 1.297 1.225 1.629.476.432.937.634 1.419.634.459.781 1.817 1.512 4.049 2.278 2.349.859 3.994 1.95 4.93 3.236l7.053 4.695 15.341 8.574c0 .118.695.381 2.101.826l4.236 1.461v.958c-.12.44-.354.665-.703.665-4.586.305-8.106.707-10.577 1.113-3.996.655-6.649 1.567-7.926 2.756-1.655 1.402-3.064 2.438-4.236 3.08-1.88 1.192-3.472 1.783-4.758 1.783-4.345.112-8.634-1.722-12.865-5.513-1.411-1.076-3.118-2.676-5.108-4.842l-4.766-4.87c-6.335-5.827-9.51-11.341-9.51-16.497-1.294-.337-2.294-1.147-3.002-2.45M353.3 437.165l-.181-.156c-.124 0-.172.131-.172.341 0 .329.048.47.172.47l.181-.655zm-.884 3.097c0 .311.164.476.531.476.109 0 .172-.165.172-.476 0-.322-.063-.495-.172-.495-.367 0-.531.173-.531.495m-11.638 34.173l-.173.477.173.329c.35 0 .531-.112.531-.329 0-.322-.181-.477-.531-.477m-66.265 107.532c0-.109.122-.381.349-.804.234-.552.468-.935.703-1.152 0-.547 1.243-1.181 3.712-1.945l1.928-.794a12.41 12.41 0 0 0 2.472-.974 75.136 75.136 0 0 0 6.173-3.068c.225-.341.88-.764 1.932-1.311l3.356-1.786c3.522-1.825 6.339-3.72 8.453-5.669 1.172-1.286 2.591-2.739 4.236-4.354l4.408-4.21c3.754-3.468 6.693-6.651 8.806-9.573l3.52-4.042c1.522-2.053 2.299-3.61 2.299-4.697 0-.539.12-1.183.345-1.941l1.95-3.252c.225-.415.345-.727.345-.973l3.697-12.467v-1.272l2.114-4.876c.937-4.634 1.652-9.642 2.12-15.061.236-.322.408-.749.53-1.288.116-.432.173-.815.173-1.131l-1.762-1.623c-4.002-.095-9.105.312-15.331 1.303-.949.209-2.174.419-3.697.636-.242.112-.536.158-.886.158l-9.162 1.467c-1.061.428-2.766.703-5.116.811-2.347.109-3.991.303-4.93.648l-1.762.646c0 .095-.125.156-.35.156-.12.095-.236.173-.345.173-.257.21-.482.305-.716.305-1.061.444-2.122.67-3.175.67-1.755 0-3.581-.765-5.469-2.295l-4.564-4.046c-.367-.32-.95-.687-1.773-1.11l-1.939-1.307c-1.53-.971-2.295-2.007-2.295-3.076 0-1.941 1.653-2.916 4.937-2.916 1.181 0 2.99.156 5.461.482 2.468.329 4.348.493 5.642.493 2.581 0 5.116-.049 7.581-.164l11.975-.655c2.244-.101 4.539-.156 6.886-.156.228 0 .586.156 1.053.482.585.329.939.493 1.053.493h.53c.478-.225 1.712-.337 3.705-.337l5.992.173c5.531 0 8.693-1.35 9.518-4.059v-18.611c0-1.084-.118-2.12-.354-3.078 0-.425-.061-.861-.177-1.305l-.703-2.909a9.431 9.431 0 0 1-.181-1.765 28.02 28.02 0 0 1-.349-4.56c.703-.416.53-1.336-.531-2.739-.109 0-.233-.094-.349-.336l-.876-1.131c-.467-.634-.714-1.177-.714-1.629-.236-.312-.703-.563-1.398-.79l-.896-.32c-.582-.124-.939-.219-1.053-.349-1.764-.514-2.644-1.337-2.644-2.419l2.829-2.426 6.335-1.459c.819-.094 1.297-.094 1.41 0l6.341-1.949c2.702-.764 7.062.288 13.043 3.08 6.345 3.137 9.042 6.32 8.113 9.556-2.583 1.419-4.93 3.68-7.052 6.8-1.878 2.833-3.055 5.408-3.531 7.764 0 2.619-.173 5.644-.524 9.095-.345 3.454-.522 6.099-.522 7.932 0 4.314 3.166 6.468 9.516 6.468l7.747-.802c2.832-.329 5.303-.649 7.417-.992 5.267-.842 10.156-2.076 14.617-3.699l.884-.819c.461-.427.88-.749 1.225-.966 1.074-.764 1.95-1.131 2.644-1.131 2.356-.65 5.522 1.826 9.525 7.451a23.715 23.715 0 0 1 3.347 2.594l4.234 5c.461.667.81 1.033 1.052 1.126v1.168c-.113.539-.358.798-.707.798-3.417 0-7.459-.32-12.162-.991l-12.154-1.607-5.28-.158c-2.356-.109-4.305-.381-5.827-.816h-16.92c0 .32-.181.652-.522.974-.478.428-.889.632-1.234.632-.47 0-.95-.04-1.419-.135-.225 0-.64-.116-1.225-.324-.592-.12-.998-.215-1.242-.331a6.16 6.16 0 0 0-1.411-.164c-2.347 0-3.806 1.79-4.398 5.339-.244 1.175-.421 2.705-.539 4.556-.107.191-.164.575-.164 1.114l-.177 2.589c-.12 1.394-.417 3.192-.884 5.341l-1.225 5.347-.358 2.582v1.802c-.236 1.955-.592 3.452-1.061 4.539l-4.931 8.72a7.29 7.29 0 0 1-.703 1.966c-.246.539-.6 1.061-1.061 1.608l-1.411 1.459c-.591.539-.949.92-1.061 1.148-.825.958-1.764 2.315-2.816 4.046l-2.828 4.362-9.684 7.775c-1.286.444-2.994 1.461-5.116 3.067l-4.937 3.743-5.461 2.581c-.591.436-1.052.861-1.406 1.306l-11.636 6.467c-.695.764-1.583 1.402-2.644 1.941-.345.225-.876.451-1.583.648-.703.211-1.234.436-1.583.655l-6.695 4.211c-2.714 1.513-5.118 2.278-7.223 2.278-.124-.341-.421-.725-.889-1.148l-.53-.482zm286.196 1.288c.741 0 1.086-.095 1.086-.312-.252-.322-.478-.547-.711-.654h-.375v.966zm-4.737.975h.539v-.329h-.539v.329zm-8.291-70.449c0 .211.116.32.358.32.236 0 .35-.109.35-.32 0-.427-.114-.654-.35-.654-.242 0-.358.227-.358.654m-.172 22.356c.461 0 .766-.177.88-.488.128-.228.189-.548.189-.975-1.069 0-1.779.333-2.137.975 0 .311.358.488 1.068.488m-22.388 22.343c.11 0 .243.063.367.158.225 0 .351.061.351.16l1.577.665 2.12 1.63a4.736 4.736 0 0 0 2.644.798c.828 0 1.634-.112 2.459-.339 1.169-.209 1.756-.537 1.756-.973v-3.566l-1.048-.958h-10.053c-.564 0-1.116.168-1.591.482-.577.32-.758.64-.514.973.122.206.772.539 1.932.97m-36.475-69.638c0 .531.528 1.609 1.589 3.232.939 1.629 1.634 2.455 2.11 2.455 1.995 0 5.176-.234 9.524-.67 4.337-.32 7.566-.497 9.686-.497l5.112.177c3.29 0 5.756-.427 7.402-1.303 2.252-1.177 3.347-3.282 3.347-6.307 0-.651-.111-1.72-.349-3.249-.112-1.288-.244-2.135-.354-2.575l-.349-.482a48.73 48.73 0 0 0-5.643 0c-1.41 0-2.816.047-4.227.141l-6.173.341h-16.747c-2.347 0-3.88.859-4.568 2.575-.251.657-.36 1.529-.36 2.598v3.564zm-4.758 5.495l.345.497.185.493c1.756.098 2.636-.546 2.636-1.965-.107-.206-.585-.137-1.41.177l-1.756.798zm-6.522 54.587c.469 1.403 1.061 2.169 1.755 2.264l6.889.972 5.804-.972c3.766-.323 6.872-.539 9.343-.634 3.529-.227 6.64-.322 9.337-.322h18.339c.461 0 1.461-.114 2.99-.333 1.661-.208 2.816-.436 3.524-.648.461 0 .876-.421 1.225-1.297.251-.747.478-1.83.712-3.236a40.9 40.9 0 0 0 .703-7.61V522.84c0-.408.177-1.267.522-2.583l.551-2.573-2.122-2.928c-1.286 0-3.054-.168-5.305-.482-2.339-.337-4.107-.493-5.269-.493l-16.929.32-.349-.164-8.106-.156c-.469.436-1.648.748-3.528.975l-2.286.312-10.217-.312c-4.939 0-7.411 1.303-7.411 3.886 0 3.129 1.653 4.695 4.939 4.695l5.638-.497c.234 0 .71.114 1.406.35l1.232.303c2.472 0 5.288-.044 8.472-.156l16.566-1.472c3.042-.197 5.867-.292 8.459-.292l4.583-.185c1.398.115 2.122.593 2.122 1.452 0 1.956-.48 3.158-1.419 3.564l-4.937-.155c-1.88 0-4.042.061-6.513.155l-12.87.836c-2.358.097-4.469.156-6.349.156h-9.346c-3.286.099-6.225.255-8.808.48-1.522 0-2.472.539-2.825 1.625-.225.428-.35.967-.35 1.615v1.613c0 3.572 1.765 5.336 5.289 5.336l2.122-.475h20.267c2.228-.866 6.044-1.341 11.451-1.453.819-.107 1.932-.177 3.339-.177l9.53-.311c.939-.095 1.703.254 2.287 1.13.593.872.88 1.783.88 2.748 0 .989-.35 1.627-1.07 1.947h-6.861c-2.695.124-4.992.271-6.867.478l-3.184.497c-2.463.103-6.052.172-10.747.172h-11.453c-8.93.211-14.28 1.116-16.044 2.739 0 1.082.297 2.261.889 3.564m-35.773 40.165c.592-.32 1.459-.701 2.644-1.146l3.878-1.435c.459-.133.756-.226.88-.32.234-.219.876-.508 1.935-.828.943-.32 1.522-.478 1.756-.478l1.238-.793 4.939-1.965 1.233-.806 1.583-.324c.35 0 .712-.156 1.061-.486l1.929-2.598c.471-.325.888-.482 1.238-.482 2.231-.424 4.876-1.779 7.934-4.043l10.228-7.606c.932-.669 1.697-1.316 2.286-1.949 1.299-1.303 2.051-3.072 2.291-5.35.109 0-.177-.164-.88-.476a5.52 5.52 0 0 0-2.295-.494l-7.394.494-1.061.476-1.937 5.672c-1.652 3.659-3.469 5.505-5.467 5.505-3.057 0-4.994-1.714-5.811-5.194l.523-16.17v-31.259c-.708-.655-1.053-2.065-1.053-4.227 0-1.714 1.764-2.575 5.28-2.575 1.882-.451 4.12-.722 6.701-.834a39.654 39.654 0 0 1 3.52-.139h3.533c1.164 0 3.166.093 5.983.303 2.815.219 4.937.333 6.347.333 1.061 0 1.998-.044 2.817-.16l5.651-.476 15.155-.33a901.276 901.276 0 0 0 15.514-.661l2.286-1.287 1.756-1.305c1.531-1.183 2.775-2.261 3.697-3.219 1.17-1.208 1.764-2.295 1.764-3.248 0-.67-.172-.967-.522-.967h-20.625c-1.061 0-1.998.112-2.817.297-.592.242-1.173.51-1.764.834l-1.234.789c-.465.228-1.002.341-1.592.341-.349 0-.698-.168-1.044-.496-.469-.306-.716-.571-.716-.798l-16.389.164-4.051.328c-1.174.211-1.768.367-1.768.461-3.642 2.838-6.274 4.461-7.926 4.882l-2.636 1.937c-1.181.958-2.061 1.287-2.653.958.242-.421.186-.844-.172-1.28-.116-.217-.531-.6-1.226-1.139l-1.591-1.295c-.472-.654-.708-1.225-.708-1.768v-17.023a10.543 10.543 0 0 1-.875-3.392 7.325 7.325 0 0 1-.186-1.625v-1.783c0-1.398.186-2.373.531-2.912.236-.522.646-.905 1.238-1.13l1.756-.156c.945-.095 1.703-.322 2.294-.638 3.167-.128 7.287.316 12.331 1.27l5.111 1.147c1.645.326 2.942.482 3.878.482l2.472-.975c1.878-.654 4.581-.974 8.103-.974 3.061 0 6.695-.095 10.931-.312l9.53-.166 5.983-5.35c.112-1.939-.88-2.895-3.01-2.895h-2.644l-4.92.478c-4.003 0-7.695.061-11.112.156l-13.922.802a137.49 137.49 0 0 1-6.341.156c-4.581 0-9.806.227-15.686.651l-15.502 1.151c-1.303.423-2.01 1.606-2.122 3.543-.124.655-.181 1.535-.181 2.583.129.238.181.445.181.67v1.941l-.694 3.886a6.485 6.485 0 0 0-.186 1.472c-.478 2.467-1.233 4.425-2.286 5.823l-4.766 2.899c-1.756.989-3.339 1.467-4.752 1.467-3.882 0-5.991-1.294-6.349-3.886.225-1.183.703-2.964 1.419-5.349a29.631 29.631 0 0 1 1.048-3.253l2.463-6.779c.712-2.168 1.295-3.775 1.773-4.861 1.166-3.792 1.754-7.088 1.754-9.888l-.518-8.253c0-1.078.345-1.617 1.048-1.617 1.053 0 2.411 2.261 4.055 6.811l1.764 5.179c.695 1.715 1.411 2.802 2.114 3.229l6.341.164c3.996-.095 7.162-.646 9.518-1.625l.88-5.99c.469-2.376.711-4.313.711-5.827-.476-.863-.825-1.941-1.061-3.253l-1.406-7.096c-.358-1.312-.764-2.39-1.238-3.253-.242-.337-.703-.806-1.406-1.467l-1.592-1.617c-1.175-1.299-1.762-2.524-1.762-3.733 0-.322.057-.539.181-.634.109-.225.406-.32.88-.32.467 0 1.343.415 2.638 1.295 1.177.868 2.238 1.71 3.175 2.59.949.749 2.532 1.835 4.766 3.217l5.625 3.585c4.47 3.006 6.705 5.492 6.705 7.433.594 3.348-.294 6.217-2.644 8.598-.817.864-1.939 1.786-3.337 2.739l-3.713 2.261.539.497 11.8.173c5.042-.217 8.05-1.076 8.989-2.59l-.53-11.183a47.242 47.242 0 0 1-.173-4.059l.703-1.271c.114-2.261.061-4.228-.181-5.851-.469-2.463-1.349-4.429-2.644-5.842l-1.941-1.768c-.828-.859-1.225-1.548-1.225-2.087 0-1.208 1.061-1.842 3.166-1.955.711-.112 1.714-.156 2.998-.156.238.101.471.156.707.156h2.286l3.518-1.131 1.777-.322a12.293 12.293 0 0 1 2.105-.173c1.07 0 2.653.556 4.775 1.626.807.538 1.52 1.077 2.11 1.627.583.65.871 1.173.871 1.608 0 .217-.172.765-.522 1.615l-.53 1.297c-.478 2.166-.758 4.695-.868 7.627-.132 1.722-.185 4.362-.185 7.927v4.844c0 1.419.053 2.455.185 3.088.11 1.303.634 2.261 1.571 2.933.467 0 1.48-.716 2.993-2.105l2.295-1.786c.234-.328.592-.711 1.068-1.147l1.052-.983.868-1.756 3.713-5.025c1.88-2.697 2.821-5.087 2.821-7.137 0-.539-.061-1.07-.177-1.63l-.366-1.109c-.242-.444-.337-.768-.337-.983a3.178 3.178 0 0 1-.193-1.131v-1.13c.132-.32.288-.497.53-.497h7.419l8.966 4.375c4.245 2.486 6.354 4.922 6.354 7.294 0 .632-.876 1.295-2.623 1.948-.255.219-.608.366-1.07.478l-4.218 1.785-5.653 3.24c-.815.549-1.225.863-1.225.958-2.122.652-4.478 1.949-7.061 3.905-2.339 1.608-3.512 2.592-3.512 2.912-.476.227.112.427 1.747.633l2.468.341 5.288-.974h4.583c1.889 0 3.653-.061 5.285-.156 4.227-.228 7.471-.703 9.705-1.468.924-.317 1.941-1.56 2.993-3.726l.529-1.147c.236-.415.461-.729.697-.954.476-.638.998-.975 1.589-.975l7.061 4.059c2.931 1.722 5.289 3.28 7.036 4.687 5.061 3.993 7.581 8.583 7.581 13.76 0 1.623-.88 2.831-2.644 3.564l-2.293.65c-.827.209-1.402.436-1.749.653l-9.173 1.467c-.834.099-1.756.314-2.817.638l-3.002.954c-2.469.897-4.406 1.303-5.808 1.303-.244 0-.609-.25-1.053-.789-.345-.67-.539-1.184-.539-1.624 0-1.307.287-3.195.872-5.669.476-2.394.72-4.211.72-5.516.459-.972.349-1.779-.345-2.417-.264-.132-.609-.383-1.053-.827-.366-.187-.609-.415-.741-.64h-3.503c-2.48-.095-4.642-.095-6.522 0-2.581 0-4.651.069-6.184.164-1.875.217-2.8.476-2.8.825-.477.845 1.053 2.739 4.584 5.651l1.755 1.613a12.086 12.086 0 0 1 1.592 1.459c1.053.974 1.402 1.623 1.053 1.949 0 .539-.287 1.131-.88 1.779-.363.539-.876 1.147-1.592 1.785-1.413 1.398-1.989 2.162-1.771 2.257v14.75c.243.094.592.383 1.068.81l1.419 1.451c.572.633 1.111 1.086 1.575 1.305.469.415.875.631 1.233.631 1.173.992 2.419 1.699 3.705 2.106l2.295.654h.703c1.878.432 2.817 1.678 2.817 3.714 0 1.842-.876 3.082-2.64 3.737-2.01.88-3.063 1.678-3.175 2.425-.349 2.381-.522 5.306-.522 8.739 0 2.072.095 4.4.346 6.973l.88 8.581c.111.655.172 1.246.172 1.794l.35 3.391c.242 2.609.358 4.964.358 7.131l-.88 2.598c-.242.966-.531 1.827-.88 2.591-.828 1.817-1.817 3.392-2.99 4.68 0 .131-.419.514-1.242 1.145-.941.647-1.402 1.03-1.402 1.133v1.295c-.131.863.063 1.303.522 1.303l8.105 2.105c2.826.863 5.226 2.097 7.232 3.72l1.941 1.609c.827.88 1.225 1.612 1.225 2.282 0 .953-.172 1.781-.522 2.414-.25.55-.648 1.089-1.24 1.628-.133.21-.351.415-.707.634-.12 0-.236.069-.346.164l-.351.332c-.476.322-.825.651-1.067.975-1.053 3.886-4.758 5.823-11.095 5.823-1.529 0-3.12-.953-4.75-2.911-.366-.211-.72-.592-1.069-1.131l-1.225-1.461a4.797 4.797 0 0 0-1.245-1.295 4.437 4.437 0 0 0-1.225-1.286c0-.227-.425-.638-1.242-1.303-.939-.646-1.419-1.091-1.419-1.299-1.632-2.798-3.93-5.293-6.859-7.436-1.175-.983-2.533-1.951-4.063-2.926-.695-.314-1.459-.75-2.293-1.289-.349-.113-.694-.341-1.046-.652-.131 0-.356-.095-.701-.322l-.539-.32c-.116 0-.577-.333-1.402-.983-.939-.636-1.531-.975-1.773-.975-1.53.111-2.869-.695-4.042-2.417-1.299-1.739-2.524-2.598-3.714-2.598h-13.033l-2.463.32c-1.061.131-1.937.288-2.653.476-.825.351-1.347.716-1.583 1.147 0 2.074.412 3.838 1.238 5.35.233.539.642 1.242 1.225 2.105v.33c.12.095.234.148.366.148l1.049 1.941c-.354 1.303-1.049 2.231-2.11 2.77-.358.211-.888.413-1.591.638l-2.645.815-13.572 6.16c-3.175 1.398-6.105 2.581-8.8 3.552l-4.242 1.307-4.409 2.242c-1.177.764-2.174 1.209-2.985 1.303a38.451 38.451 0 0 0-3.705.994c-.476.095-1.11.314-1.937.634l-1.768.633c-3.16 1.091-5.632 1.628-7.396 1.628-1.764 0-2.826-.325-3.175-.975 0-.2.349-.537 1.061-.966m251.127-97.648c.707 0 1.419.045 2.122.156l10.208.156c4.947 0 7.419-3.564 7.419-10.695.819-2.675-.288-4.633-3.339-5.817-1.185-.538-2.583-.875-4.236-.97a24.404 24.404 0 0 0-4.05-.318c-4.929 0-8.819.413-11.636 1.288-1.181.636-1.773 2.15-1.773 4.523 0 .452.07.88.19 1.294 0 .335.052.672.164.983l.194.958c.103.337.156.672.156.992 0 .406-.053.859-.156 1.286l-.358 1.131c-.251.444-.366.766-.366.991-.11.407-.173.79-.173 1.11 0 .56.116 1.082.349 1.629.242.539.592.967 1.053 1.303h4.232zm20.646 67.693c.095-3.137.156-6.208.156-9.234L713 534.829l.522-2.91v-21.052l-1.053-6.306c-.6-2.387-2.166-3.728-4.758-4.056h-19.572c-1.398.204-2.8 1.286-4.219 3.231-1.179 1.731-2.468 2.59-3.87 2.59-.834 0-1.467-.476-1.943-1.451l-1.592-2.747-1.052-.975a14.424 14.424 0 0 1-1.419-1.45c-.592-.539-1-1.036-1.225-1.462-.35-.652-.539-1.2-.539-1.627l.711-1.781c.461-1.183.703-1.895.703-2.105l1.23-8.425c.345-4.198.539-7.007.539-8.426l.353-14.728c.106.111-.181-.966-.892-3.244-.811-3.026-1.23-5.192-1.23-6.472-.111-.112-.305-.476-.53-1.147l-1.748-4.354c-.477-.863-.892-1.472-1.242-1.785-.694-.32-1.172-.609-1.419-.815a2.119 2.119 0 0 1-.694-1.611h.871c.354-.111.548-.267.548-.494h3.145c1.535.111 2.947.436 4.236.974 0 .323.48.767 1.419 1.304.242.189.703.478 1.416.798l1.584.81c2.816 1.722 4.408 3.192 4.753 4.383 0 9.487.177 15 .531 16.531.585 1.92 2.532 2.894 5.81 2.894 1.053 0 2.706-.155 4.939-.477l11.459-1.464c1.411 0 2.105-2.101 2.105-6.311 0-3.783-1.747-6.703-5.288-8.754h-10.57c-.228-.21-.695-.444-1.403-.638l-3.713-1.147c-.461-.312-.695-.695-.695-1.131 0-.844.349-1.513 1.061-1.92 1.164 0 2.295-.069 3.347-.193l3.158-.32a11.17 11.17 0 0 1 1.779-.158c.701-.11 1.404-.164 2.099-.164 1.771-.095 3.767-.156 5.99-.156 2.13 0 4.585-1.148 7.41-3.409l3.512-3.071c.724-.651 1.311-1.127 1.783-1.453.573-.537 1.12-.989 1.583-1.303 4.931.444 8.809 2.549 11.634 6.303 0 .35.164.897.513 1.63.251.539.651 1.208 1.243 1.953 0 .209.061.428.193.636l.859 1.303c.35.663.539 1.087.539 1.297 0 1.731-.827 3.181-2.467 4.366l-1.941 1.304c-.724.539-1.226 1.077-1.583 1.625-1.173 1.714-1.937 4.202-2.287 7.455l-.358 3.884v3.225c.226-.112.419.27.531 1.131v12.964c0 2.916.116 6.208.349 9.871l.704 10.051c.233 2.166.349 3.775.349 4.859l.366 5.017c.221 3.549.346 6.802.346 9.724l.513 28.825-1.225 3.729c-.234.633-.349 1.176-.349 1.629.115 0-.173.537-.876 1.606l-.889 1.617c-.225.653-.358 1.2-.358 1.609-.345.225-.694.644-1.052 1.315-.345.537-.695 1.327-1.053 2.417-.118.112-.25.329-.345.666l-.889 2.09c-.475 1.076-.936 1.998-1.41 2.754 0 .107-.345.654-1.057 1.621-.722.97-1.053 1.562-1.053 1.779-.13.322-.303.646-.53.958l-.886 1.147c-.828.861-1.592 1.297-2.295 1.297-1.402 0-2.402-.914-2.994-2.756a10.355 10.355 0 0 1-.53-2.105 12.347 12.347 0 0 1-.173-1.941l.897-14.573zm-87.251-91.674l5.634.158c2.238.131 4 .131 5.288 0 3.87-.21 6.036-1.568 6.514-4.042-.922-5.177-4.105-7.777-9.507-7.777l-2.817.158c-2.234.226-3.947.341-5.112.341l-2.294 1.937c-.941.973-1.417 1.775-1.417 2.434 0 4.53 1.24 6.791 3.711 6.791m-.366 23.312h7.95c3.625-.189 6.397-.861 8.275-1.928.697-.655 1.165-1.67 1.419-3.072a8.84 8.84 0 0 0 .158-1.781v-4.227c0-1.061-.095-1.99-.349-2.754-.573-1.716-1.88-2.958-3.87-3.722-6.225 0-10.642.225-13.217.665-1.764 0-2.886.865-3.366 2.587-.573 1.843-.867 5.937-.867 12.304.808 1.294 2.111 1.928 3.867 1.928m-18.495 82.935l.703-1.946c.462-1.941.708-3.408.708-4.366l-.185-2.45-.346-1.27v-2.583c.112-.539.285-1.053.531-1.459v-15.072l.522-.981v-38.536l-1.053-4.539v-14.577c0-5.19-.061-9.668-.177-13.442-.362-9.078-.997-15.289-1.936-18.628-.114-.545-.358-1.067-.704-1.606l-1.244-1.625c-.461-.653-.749-1.192-.876-1.628-.349-.65-.522-1.286-.522-1.92 0-.781.522-1.242 1.571-1.469.263-.114.707-.225 1.417-.333.593 0 1.069-.048 1.419-.164.227 0 .875-.173 1.928-.497l1.769-.469a8.615 8.615 0 0 1 4.408.469l3.52 2.122 1.592 1.287 1.947.974a8.708 8.708 0 0 0 4.391.497c.939-.225 2.165-.381 3.697-.497l6.181-.155 1.941-.339c1.529-.2 2.866-.537 4.043-.967.703-.32 1.528-.911 2.469-1.77.345-.219.766-.6 1.225-1.152l1.07-1.111c1.991-1.842 3.739-2.767 5.288-2.767 1.286 0 2.99.983 5.112 2.933 2.006 1.825 2.989 3.276 2.989 4.354 0 .551-.128 1.13-.345 1.793l-.703 1.939c-.24.322-.289.444-.194.322-.219.312-.349.6-.349.809l-.51 1.452v7.468l.352 10.522-.352 1.941v15.221l1.053 4.211c.225.313 0 .858-.701 1.625l-1.413 1.286h-31.905c-2.114 0-3.181.88-3.181 2.594l-.522 12.295c.364 1.303.522 2.713.522 4.223l-.522 4.852.522 11.661v8.914l-.522 16.531c-.819 8.408-2.411 14.235-4.767 17.486 0 .095-.345.634-1.052 1.625-.695.958-1.053 1.537-1.053 1.781l-2.64 2.417c-3.533.436-5.288-1.364-5.288-5.345 0-.539.069-1.183.172-1.941" fill="rgb(35,25,22)" fill-rule="nonzero"/></svg>