<?xml version="1.0" encoding="UTF-8" standalone="no"?>
<!DOCTYPE svg PUBLIC "-//W3C//DTD SVG 1.1//EN" "http://www.w3.org/Graphics/SVG/1.1/DTD/svg11.dtd">
<svg width="100%" height="100%" viewBox="0 0 400 400" version="1.1" xmlns="http://www.w3.org/2000/svg" xmlns:xlink="http://www.w3.org/1999/xlink" xml:space="preserve" xmlns:serif="http://www.serif.com/" style="fill-rule:evenodd;clip-rule:evenodd;stroke-linejoin:round;stroke-miterlimit:2;">
    <g transform="matrix(1,0,0,1,-903,-519)">
        <g id="臺北市政府資訊局_logo_400x400" transform="matrix(1,0,0,1,453,519)">
            <rect x="450" y="0" width="400" height="400" style="fill:transparent;"/>
            <g transform="matrix(1.04116,0,0,1.04116,524.244,233.053)">
                <path d="M0,-8.639L0.1,-8.17L0.168,-7.199L1.506,-7.567L3.75,-8.103L4.754,-8.27L5.793,-9.71L5.959,-10.179C5.859,-10.313 5.49,-10.28 4.822,-10.112L0,-8.639ZM7.299,-11.82C8.303,-11.15 8.84,-10.714 8.873,-10.413C8.873,-10.179 8.672,-9.844 8.303,-9.442L7.365,-8.27L7.434,-8.27L7.701,-8.17L7.834,-7.801L7.701,-7.433L7.6,-7.132L7.365,-6.998L6.896,-6.931C4.988,-6.797 2.713,-6.295 0.168,-5.424L-0.234,-5.424L-0.436,-5.558C-0.568,-5.525 -0.637,-5.525 -0.67,-5.625L-0.803,-5.759L-0.971,-5.96L-1.105,-6.228L-1.172,-6.328L-1.373,-6.83L-1.941,-8.538L-2.578,-9.643C-2.746,-9.877 -2.746,-10.011 -2.645,-10.011L-2.443,-10.145L-1.842,-10.212L-0.838,-10.145L6.262,-11.752C6.662,-11.987 7.031,-11.987 7.299,-11.82M4.754,-18.65L6.027,-19.085L6.395,-19.186L7.6,-18.582C7.768,-18.449 7.869,-18.248 7.869,-18.014C7.869,-17.712 7.801,-17.511 7.668,-17.344C7.467,-17.11 7.199,-16.942 6.863,-16.875L5.021,-16.44L4.754,-15.535L4.486,-14.799L5.49,-15.067L6.229,-15.067L6.863,-14.967C7.131,-14.967 7.299,-14.867 7.4,-14.699L7.467,-14.364L7.467,-14.129L7.4,-13.895L7.232,-13.594L6.998,-13.326L6.496,-13.058C4.922,-12.422 3.516,-11.987 2.311,-11.719L-0.268,-11.284L-0.637,-11.284C-0.803,-11.25 -1.072,-11.518 -1.406,-12.155L-1.74,-12.992L-1.641,-13.125L-1.205,-13.226L1.541,-14.03L1.607,-14.699L1.607,-15.436L-0.135,-14.9L-0.77,-14.799C-1.105,-14.799 -1.406,-14.933 -1.707,-15.167L-2.443,-15.938C-2.678,-16.306 -2.813,-16.54 -2.779,-16.674C-2.746,-16.842 -2.779,-17.009 -2.912,-17.176L-2.912,-17.445L-2.813,-17.645L-2.645,-17.645L-2.443,-17.545L-2.143,-17.545L-0.334,-17.712L1.473,-17.98L1.271,-19.085C1.172,-19.587 1.205,-19.822 1.373,-19.721C1.473,-19.655 1.607,-19.688 1.775,-19.788C1.875,-19.889 2.209,-19.788 2.779,-19.554L4.721,-18.683L4.754,-18.65ZM2.912,-0.87C2.443,-0.235 1.775,0.468 0.937,1.239L0.838,1.439L1.037,1.439L4.553,0.267L6.262,-0.268L6.094,-0.67L5.893,-1.306C5.926,-1.407 5.994,-1.44 6.094,-1.407L6.662,-1.407C7.365,-1.44 8.002,-1.273 8.504,-0.938C9.074,-0.536 9.375,-0.034 9.441,0.569C9.51,1.005 9.441,1.473 9.309,1.875C9.107,2.31 8.84,2.578 8.504,2.611C8.17,2.645 7.902,2.545 7.6,2.243L6.797,1.205C5.859,1.373 4.889,1.607 3.885,1.975L4.018,2.042L4.721,2.611L4.787,3.18L4.721,3.616L5.994,3.147L6.428,3.08L7.031,3.281L7.635,3.783L7.969,4.218C8.002,4.319 7.902,4.486 7.668,4.788L7.4,5.223C7.4,5.323 7.199,5.39 6.797,5.491L4.721,6.026L4.721,7.366C6.562,7.265 7.936,7.265 8.873,7.366C9.375,7.399 9.709,7.366 10.012,7.232L10.379,6.998L10.949,7.299L11.953,7.868C12.188,7.968 12.322,8.102 12.389,8.303L12.557,8.839C12.59,9.073 12.59,9.241 12.488,9.408L12.188,9.877L11.686,10.245C11.584,10.345 11.484,10.38 11.35,10.345L11.049,10.245C9.576,9.977 8.104,9.911 6.629,9.944C4.553,10.045 2.545,10.279 0.604,10.58L-1.941,11.083L-2.578,11.25L-2.879,11.116L-3.248,10.614L-3.75,9.911L-4.018,9.375L-4.152,8.906L-4.152,8.505L-3.918,8.37L-3.482,8.47L-2.879,8.47C-1.439,8.069 0.1,7.767 1.775,7.6L1.842,7.299L1.842,6.595L0.436,6.763L-0.135,6.763L-0.637,6.495L-1.205,5.926L-1.607,5.491L-1.809,5.089C-1.908,4.854 -1.809,4.788 -1.473,4.821C-0.871,4.922 -0.066,4.888 1.037,4.654L1.842,4.453L1.842,3.917L1.641,2.979L1.574,2.812L0.201,3.348L-0.502,3.682C-0.803,3.85 -1.205,3.716 -1.707,3.281C-2.043,2.946 -2.244,2.578 -2.344,2.109C-2.443,1.64 -2.344,1.406 -2.076,1.339L-1.004,1.071C-0.77,1.038 -0.369,0.569 0.168,-0.302L0.369,-0.603L-0.436,-0.603C-0.703,-0.636 -0.904,-0.703 -1.037,-0.837L-1.473,-1.339L-1.674,-1.674C-1.74,-1.775 -1.74,-1.875 -1.674,-1.909L-1.037,-2.143C-0.334,-2.177 0.904,-2.411 2.713,-2.813C4.119,-3.148 5.324,-3.549 6.361,-4.018L6.662,-4.052L7.365,-3.851L7.936,-3.617L8.104,-3.248L7.834,-2.478C7.768,-2.344 7.566,-2.243 7.199,-2.21L3.08,-1.339L2.912,-0.87ZM-8.338,-4.855C-8.371,-4.989 -8.371,-5.089 -8.27,-5.157L-7.566,-5.056C-7.131,-4.889 -6.73,-4.62 -6.428,-4.219C-6.193,-3.952 -6.061,-3.549 -5.994,-3.014C-2.713,-4.052 0.502,-4.822 3.684,-5.391C6.529,-5.86 9.342,-6.16 12.121,-6.228C12.455,-6.228 12.723,-6.295 12.891,-6.429L13.494,-6.596C13.762,-6.596 14.096,-6.462 14.465,-6.228L15.201,-5.592L15.736,-5.123L16.439,-4.386L16.707,-3.617C16.809,-3.315 16.809,-3.08 16.74,-2.913C16.641,-2.745 16.506,-2.612 16.34,-2.511L15.502,-2.377L14.631,-2.377L13.393,-2.009C12.891,-1.875 12.422,-1.808 11.953,-1.808L10.346,-1.674C10.111,-1.641 9.943,-1.641 9.877,-1.742C9.811,-1.842 9.91,-1.976 10.213,-2.143C10.881,-2.646 11.619,-3.382 12.322,-4.286C12.488,-4.521 12.59,-4.721 12.557,-4.822C12.521,-4.922 12.389,-4.955 12.188,-4.922C8.303,-4.554 5.156,-4.152 2.645,-3.683C-0.637,-3.014 -3.113,-2.311 -4.754,-1.507L-5.525,-1.105L-5.859,-1.205L-5.994,-1.205L-5.994,-0.134C-6.027,0.167 -6.127,0.569 -6.361,1.071L-6.662,1.674L-7.166,2.109L-7.668,2.377C-7.834,2.411 -7.969,2.31 -8.035,2.142C-8.137,1.875 -8.303,1.573 -8.605,1.305C-8.807,1.038 -8.906,0.67 -8.939,0.234C-8.973,-0.302 -8.771,-1.742 -8.338,-4.018L-8.338,-4.855Z" style="fill:rgb(35,24,21);fill-rule:nonzero;"/>
            </g>
            <g transform="matrix(1.04116,0,0,1.04116,564.707,239.954)">
                <path d="M0,-22.098C-0.166,-22.399 -0.234,-22.6 -0.133,-22.734C-0.033,-22.968 0,-23.237 -0.1,-23.537C-0.133,-23.705 -0.1,-23.872 0.102,-24.006C0.27,-24.107 0.57,-24.074 1.039,-23.906C1.676,-23.671 2.445,-23.303 3.281,-22.801C3.984,-22.399 4.32,-21.964 4.387,-21.496C4.488,-20.792 4.453,-20.19 4.254,-19.553C4.086,-19.018 3.984,-18.214 3.918,-17.176L3.785,-13.426L5.057,-14.397L5.727,-14.732C6.229,-14.799 6.598,-14.799 6.832,-14.732L8.07,-14.263C8.438,-14.062 8.672,-13.895 8.773,-13.727C8.873,-13.527 8.807,-13.159 8.605,-12.589C8.438,-12.221 8.371,-11.987 8.404,-11.819C8.438,-11.652 8.17,-11.417 7.602,-11.049L5.391,-10.078L4.488,-9.777L3.717,-9.843L3.717,-6.763C3.684,-3.582 3.785,-1.808 4.02,-1.506C4.119,-1.306 4.387,-1.239 4.789,-1.272C5.525,-1.372 6.027,-1.506 6.229,-1.674C6.43,-1.841 6.764,-1.909 7.199,-1.874C7.635,-1.874 8.238,-1.741 8.941,-1.44C9.777,-1.105 10.213,-0.837 10.246,-0.603C10.279,-0.369 10.146,-0.167 9.912,0.034C9.576,0.335 9.275,0.67 9.041,1.105C8.906,1.373 8.605,1.506 8.137,1.506C5.76,1.473 4.219,1.541 3.551,1.741C2.914,1.876 2.344,1.708 1.742,1.272C1.139,0.803 0.703,0.1 0.537,-0.871C0.303,-2.209 0.27,-5.959 0.369,-12.187C0.469,-18.247 0.369,-21.562 0,-22.098M-5.992,1.541L-6.494,1.909L-7.064,1.975C-7.266,2.009 -7.398,1.909 -7.432,1.741L-7.699,0.971L-7.867,-0.134L-7.934,-1.072L-10.313,0.77L-11.215,1.239L-11.885,1.072C-12.422,0.838 -12.957,0.435 -13.594,-0.167C-14.027,-0.603 -14.096,-0.904 -13.76,-1.138L-13.023,-1.574C-12.02,-2.076 -10.914,-2.746 -9.676,-3.65L-8.102,-4.721L-8.102,-5.893L-8.203,-8.605L-8.805,-8.203L-9.809,-7.801C-10.277,-7.701 -10.814,-7.801 -11.316,-8.035C-11.852,-8.303 -12.354,-8.638 -12.723,-9.006C-13.225,-9.442 -13.492,-9.81 -13.525,-10.044C-13.559,-10.346 -13.627,-10.58 -13.793,-10.781L-13.961,-11.183L-13.895,-11.484L-13.66,-11.584L-12.789,-11.584L-11.35,-11.987L-8.236,-13.159L-8.303,-16.909C-8.369,-18.315 -8.504,-19.453 -8.805,-20.324L-9.039,-21.227L-9.039,-21.529C-8.939,-21.83 -8.805,-21.964 -8.57,-21.997C-8.438,-22.031 -8.203,-21.93 -7.834,-21.73L-5.021,-19.787C-4.252,-19.185 -3.949,-18.482 -4.117,-17.645C-4.418,-17.209 -4.652,-16.406 -4.754,-15.334L-4.887,-14.062L-3.883,-13.761C-3.582,-13.593 -3.381,-13.359 -3.281,-12.957C-3.18,-12.522 -3.213,-12.154 -3.348,-11.886C-3.582,-11.451 -3.916,-11.116 -4.385,-10.881L-5.121,-10.513L-5.256,-6.763L-4.084,-7.534C-3.682,-7.801 -3.447,-7.869 -3.348,-7.768L-3.516,-7.031C-3.949,-5.725 -4.553,-4.587 -5.322,-3.65C-5.424,-1.506 -5.523,-0.167 -5.658,0.369C-5.725,0.871 -5.824,1.272 -5.992,1.541" style="fill:rgb(35,24,21);fill-rule:nonzero;"/>
            </g>
            <g transform="matrix(1.04116,0,0,1.04116,602.905,229.635)">
                <path d="M0,-1.941C0,-2.21 -0.033,-2.41 -0.133,-2.545C-0.234,-2.644 -0.367,-2.678 -0.535,-2.611L-3.246,-2.008L-3.314,1.105L-3.314,3.483L-1.137,3.483C-0.902,3.483 -0.668,3.382 -0.502,3.115C-0.367,2.88 -0.268,2.21 -0.199,1.105L0,-1.941ZM-12.822,-2.913L-12.822,-3.18L-12.188,-3.18C-11.785,-3.113 -11.449,-2.946 -11.148,-2.644L-10.98,-2.444C-9.643,-3.147 -8.102,-3.682 -6.328,-4.118L-6.293,-4.118L-6.293,-4.988L-6.461,-5.96C-6.629,-6.696 -6.695,-7.097 -6.596,-7.198L-6.494,-7.399C-7.934,-7.198 -9.34,-6.93 -10.746,-6.595L-14.598,-5.625L-15.367,-5.357L-15.803,-5.491L-16.305,-6.093L-16.975,-6.963L-17.344,-7.633L-17.578,-8.203C-17.645,-8.437 -17.645,-8.604 -17.543,-8.738C-17.443,-8.906 -17.377,-8.972 -17.309,-8.939L-16.74,-8.873L-15.938,-8.873C-13.291,-9.71 -10.445,-10.345 -7.365,-10.748C-6.596,-12.623 -6.26,-13.727 -6.428,-14.129C-6.863,-14.798 -7.064,-15.234 -7.031,-15.368C-6.762,-16.506 -6.461,-16.941 -6.127,-16.64C-5.926,-16.272 -5.457,-15.97 -4.787,-15.635C-3.715,-15.1 -3.047,-14.698 -2.711,-14.397C-2.41,-14.163 -2.242,-13.76 -2.176,-13.258C-2.074,-12.823 -2.209,-12.455 -2.543,-12.086L-3.246,-11.25C-1.004,-11.484 0.738,-11.585 1.977,-11.517C2.713,-11.484 3.281,-11.585 3.684,-11.819C3.852,-12.019 4.02,-12.12 4.152,-12.12L4.922,-11.785C5.258,-11.55 5.693,-11.316 6.195,-11.149C6.496,-11.048 6.697,-10.881 6.797,-10.647L7.066,-9.944C7.133,-9.675 7.133,-9.441 7.031,-9.207L6.631,-8.638L6.061,-8.069C5.961,-7.968 5.826,-7.935 5.66,-7.968L5.258,-8.069C3.014,-8.336 0.738,-8.336 -1.605,-8.069L-4.922,-7.667L-4.252,-7.366C-3.648,-7.064 -3.281,-6.796 -3.047,-6.495C-2.744,-6.194 -2.645,-5.859 -2.711,-5.557L-2.979,-4.788L-0.133,-5.022C0.738,-5.055 1.273,-4.955 1.574,-4.654L2.545,-3.883C2.813,-3.75 3.014,-3.548 3.148,-3.314C3.248,-3.08 3.248,-2.812 3.148,-2.51C2.98,-2.109 2.914,-1.038 2.947,0.636C2.98,2.377 2.881,3.617 2.613,4.32C2.379,4.822 2.076,5.257 1.574,5.592L0.402,6.462C0.035,6.73 -0.301,6.797 -0.568,6.697C-0.937,6.563 -1.238,6.295 -1.539,5.893C-2.041,5.391 -2.645,4.922 -3.348,4.554L-3.348,9.577L-3.516,12.221L-3.816,13.393L-4.352,14.23L-4.955,14.632L-5.658,14.933C-5.758,15 -5.859,14.833 -5.959,14.498L-6.127,13.427L-6.328,8.371L-6.328,-1.138L-7.6,-0.736C-8.637,-0.368 -9.34,0.034 -9.709,0.436L-9.977,0.57L-9.809,1.842L-9.643,3.583C-9.609,4.085 -9.709,4.755 -9.943,5.492L-10.145,6.061L-10.479,6.496L-10.881,6.764C-11.016,6.797 -11.115,6.764 -11.215,6.63L-11.752,6.027C-12.188,5.659 -12.455,5.123 -12.621,4.487C-12.822,3.583 -12.855,1.373 -12.723,-2.175L-12.822,-2.913Z" style="fill:rgb(35,24,21);fill-rule:nonzero;"/>
            </g>
            <g transform="matrix(1.04116,0,0,1.04116,637.269,231.519)">
                <path d="M0,-5.224L-0.066,-5.726L-1.34,-4.856L-1.709,-4.588L-2.143,-4.588C-2.445,-3.985 -2.781,-3.55 -3.182,-3.215L-4.187,-2.345C-4.521,-2.077 -4.822,-1.943 -5.125,-1.91L-2.982,0.2L-1.307,1.84L-1.205,1.639C-0.469,-0.269 -0.066,-2.579 0,-5.224M-17.781,-0.905C-17.879,-1.173 -17.914,-1.273 -17.812,-1.24C-17.713,-1.206 -17.646,-1.24 -17.611,-1.34L-16.977,-1.34L-15.805,-1.173L-15.469,-0.871L-15.303,-0.47L-15.066,2.309L-14.969,4.318L-12.857,3.247L-12.924,1.974L-12.992,-1.976L-12.992,-7.5L-13.326,-7.5C-13.795,-7.5 -14.33,-7.802 -15,-8.371C-15.805,-9.175 -16.406,-9.911 -16.775,-10.615C-17.01,-11.083 -16.91,-11.351 -16.473,-11.418L-15.268,-11.686L-13.025,-12.49L-9.879,-13.662C-9.576,-13.762 -9.309,-13.828 -9.076,-13.795L-8.572,-13.729L-8.07,-13.26L-7.469,-12.523C-7.299,-12.288 -7.334,-11.988 -7.5,-11.62L-8.139,-10.748C-8.305,-10.481 -8.607,-10.213 -9.076,-9.945L-10.715,-8.873L-10.816,-7.769L-10.816,-4.186L-10.08,-4.889L-9.879,-5.123L-9.51,-5.291L-8.84,-5.526C-8.607,-5.693 -8.437,-5.693 -8.271,-5.559L-8.035,-5.358L-7.902,-5.123L-7.836,-4.889L-7.836,-4.488L-7.902,-4.153L-8.271,-3.651L-8.473,-3.382L-8.371,-3.316L-7.803,-3.316C-7.535,-3.349 -7.098,-3.248 -6.531,-3.014L-5.961,-2.613C-5.125,-4.085 -4.486,-5.76 -4.119,-7.568C-3.617,-9.778 -3.416,-11.887 -3.518,-13.863C-3.584,-14.632 -3.719,-15.135 -3.951,-15.269L-4.32,-15.57L-4.521,-15.838C-4.555,-15.972 -4.486,-16.073 -4.32,-16.106C-4.219,-16.139 -4.152,-16.273 -4.152,-16.441C-4.119,-16.608 -4.086,-16.742 -3.986,-16.809L-3.383,-17.043C-2.646,-17.177 -1.91,-17.21 -1.24,-17.11C-0.805,-17.077 -0.504,-16.943 -0.268,-16.776C-0.066,-16.608 0.1,-16.474 0.166,-16.24C0.268,-15.871 0.268,-15.537 0.166,-15.168C0.066,-14.934 0.031,-14.632 0.066,-14.264C0.133,-13.125 0,-11.719 -0.336,-10.045L-0.906,-7.903L0.367,-8.639C1.639,-9.41 2.643,-9.878 3.281,-10.113L3.916,-10.413L4.152,-10.748C4.25,-10.849 4.518,-10.816 4.955,-10.648L5.559,-10.581L5.893,-10.514L6.361,-10.078C6.496,-9.911 6.562,-9.778 6.527,-9.61L6.461,-9.175L6.26,-8.807L5.959,-8.505L5.691,-8.505C4.82,-8.271 4.018,-8.003 3.18,-7.568L1.272,-6.53L2.174,-6.128L2.678,-5.693L2.813,-5.325L2.678,-4.856L2.443,-4.354L1.875,-1.106C1.705,0.233 1.305,1.74 0.602,3.347L0.535,3.481L3.514,5.792C5.455,7.165 6.861,7.967 7.732,8.236L9.541,8.972C9.943,9.274 10.277,9.542 10.514,9.842C10.611,9.977 10.479,10.144 10.143,10.412C9.709,10.78 9.174,11.048 8.504,11.215L6.93,11.752C6.527,11.919 6.125,11.986 5.826,11.919C5.455,11.852 4.986,11.651 4.451,11.316C3.381,10.68 2.143,9.709 0.67,8.302L-1.24,6.327L-2.445,7.298C-3.115,7.8 -4.053,8.169 -5.156,8.403L-5.525,8.47L-5.826,8.47C-5.994,8.504 -6.16,8.504 -6.295,8.403L-6.865,8.302C-7.066,8.337 -7.201,8.236 -7.299,8.068C-7.434,7.834 -7.434,7.7 -7.268,7.7L-6.195,7.533C-5.76,7.432 -5.393,7.198 -4.99,6.93C-4.119,6.227 -3.348,5.423 -2.68,4.419C-3.215,3.615 -3.986,2.611 -4.99,1.405L-7.701,-1.842C-7.937,-2.144 -8.305,-2.345 -8.773,-2.512C-8.941,-2.545 -9.008,-2.613 -9.041,-2.746L-9.477,-2.345L-10.281,-1.642L-10.615,-1.373L-10.816,-1.373L-10.816,2.276L-8.674,1.372L-7.869,1.104L-7.133,1.004C-7,0.97 -6.898,1.004 -6.83,1.104L-6.83,2.243C-6.799,2.544 -6.965,2.778 -7.268,3.012C-7.969,3.715 -8.674,4.352 -9.441,4.854C-10.447,5.59 -12.289,6.629 -14.9,8.035C-15.437,8.337 -15.805,8.47 -16.107,8.436C-16.473,8.37 -16.875,8.068 -17.379,7.533C-17.58,7.365 -17.781,6.964 -18.014,6.294C-18.148,5.925 -18.182,5.724 -18.08,5.624L-17.611,5.557C-17.41,5.624 -17.111,5.557 -16.709,5.323L-16.441,5.155L-16.441,5.122L-16.576,4.217L-17.076,1.171C-17.244,0.434 -17.478,-0.236 -17.781,-0.905" style="fill:rgb(35,24,21);fill-rule:nonzero;"/>
            </g>
            <g transform="matrix(1.04116,0,0,1.04116,672.468,230.299)">
                <path d="M0,-3.114L0.066,-6.06C0.102,-6.763 0.066,-7.199 -0.1,-7.467L-0.502,-8.437C-0.604,-8.739 -0.604,-8.906 -0.434,-9.007L-0.201,-9.409C-0.135,-9.576 -0.033,-9.643 0.135,-9.643L0.637,-9.643L1.24,-9.342L1.91,-8.94L3.281,-7.902C3.549,-7.6 3.684,-7.333 3.65,-7.065L3.449,-6.463L3.215,-5.826L3.146,-4.721L3.951,-5.19C4.219,-5.357 4.455,-5.458 4.654,-5.425L5.691,-5.257L6.799,-4.621C7.166,-4.386 7.4,-4.185 7.434,-4.018C7.535,-3.817 7.4,-3.449 7.098,-2.913L6.799,-2.21C6.799,-2.043 6.529,-1.842 5.893,-1.607L3.014,-0.402L3.146,3.884C3.449,7.834 3.518,10.112 3.348,10.815L2.848,12.053L2.043,13.158L1.271,13.895C1.072,13.995 0.904,13.995 0.736,13.895L0.303,13.527L-0.402,12.957L-1.541,12.254L-2.51,11.652C-2.777,11.417 -2.813,11.249 -2.611,11.216L-1.572,11.15L-0.402,11.082C0,11.049 0.201,10.781 0.168,10.279L-0.033,2.343L-0.033,0.636L-1.707,1.138L-2.611,1.272C-2.846,1.306 -3.146,1.205 -3.514,1.004C-4.018,0.737 -4.385,0.468 -4.586,0.2C-4.754,-0.067 -4.988,-0.268 -5.291,-0.435L-5.791,-1.005C-5.992,-1.373 -5.826,-1.507 -5.256,-1.473C-4.52,-1.473 -3.416,-1.741 -2.076,-2.244L0,-3.114ZM-3.648,3.65C-3.045,4.018 -2.576,4.386 -2.277,4.855C-2.143,5.089 -2.107,5.29 -2.143,5.49C-2.176,5.759 -2.309,6.027 -2.545,6.261C-2.777,6.495 -3.146,6.596 -3.549,6.629C-3.75,6.629 -3.982,6.395 -4.285,5.959L-5.992,3.749C-6.229,3.515 -6.295,3.315 -6.229,3.214C-6.193,3.114 -6.059,3.08 -5.893,3.147L-5.457,3.147C-4.687,3.247 -4.117,3.415 -3.648,3.65M-13.09,-9.576L-13.158,-10.112L-13.059,-10.513C-13.023,-10.647 -12.957,-10.681 -12.857,-10.614L-12.42,-10.413L-11.951,-10.279L-11.215,-9.978L-11.082,-9.878C-10.313,-10.279 -9.273,-10.681 -7.902,-11.116L-6.094,-11.619C-5.992,-13.159 -5.992,-14.062 -6.229,-14.331C-6.863,-14.9 -7.166,-15.268 -7.166,-15.369C-7.232,-16.607 -7.064,-17.109 -6.629,-16.875C-6.295,-16.607 -5.791,-16.406 -5.055,-16.306C-3.885,-16.105 -3.113,-15.904 -2.678,-15.67C-2.309,-15.503 -2.041,-15.234 -1.809,-14.732C-1.639,-14.331 -1.639,-13.963 -1.84,-13.527L-2.242,-12.59L-0.67,-12.958L-0.166,-13.058L0.201,-13.192L0.637,-13.427C0.838,-13.527 0.973,-13.56 1.139,-13.494L2.848,-12.59L3.146,-12.121C3.182,-11.886 3.115,-11.619 2.947,-11.317C2.779,-11.05 2.611,-10.916 2.445,-10.916L1.674,-10.916C0.871,-11.05 -0.066,-11.015 -1.004,-10.848C-1.74,-10.781 -2.41,-10.647 -3.08,-10.413L-3.381,-10.045C-3.684,-9.777 -3.982,-9.576 -4.354,-9.51C-4.687,-9.409 -4.955,-9.442 -5.121,-9.609L-5.357,-9.744C-6.764,-9.275 -8.17,-8.672 -9.576,-8.003L-10.277,-7.734C-10.514,-6.998 -10.746,-5.592 -11.049,-3.515L-11.885,0.803L-10.045,-2.01C-8.973,-3.85 -8.471,-5.09 -8.438,-5.692C-8.471,-6.093 -8.438,-6.362 -8.336,-6.496C-8.236,-6.663 -8.104,-6.697 -7.867,-6.663L-6.996,-6.496L-6.027,-6.161L-5.322,-5.659C-5.156,-5.491 -5.055,-5.291 -5.055,-5.123C-5.09,-4.822 -5.223,-4.621 -5.389,-4.487C-5.959,-4.051 -6.395,-3.449 -6.795,-2.779L-7.533,-1.607C-7.434,-1.507 -7.365,-1.373 -7.332,-1.138L-7.197,0.603L-7.197,4.487L-7.299,10.245L-7.465,11.115L-7.801,11.584C-7.969,11.819 -8.201,11.987 -8.504,12.02C-8.705,12.053 -8.84,11.952 -9.006,11.718L-9.709,10.781C-9.877,10.546 -9.943,10.279 -9.844,10.044L-9.709,9.442C-9.51,6.127 -9.441,3.749 -9.51,2.209L-9.51,0.535L-10.211,1.138L-12.152,2.478L-12.354,2.544C-12.756,3.917 -13.125,4.989 -13.559,5.759L-14.934,8.002C-15.135,8.303 -15.736,8.806 -16.74,9.609L-17.309,9.877L-17.947,10.044L-18.246,9.944C-18.314,9.843 -18.281,9.777 -18.18,9.676L-17.545,8.839C-16.875,7.768 -16.238,6.395 -15.701,4.787C-15.066,3.114 -14.43,0.904 -13.826,-1.876C-13.326,-4.119 -13.059,-6.428 -13.023,-8.84L-13.09,-9.576Z" style="fill:rgb(35,24,21);fill-rule:nonzero;"/>
            </g>
            <g transform="matrix(1.04116,0,0,1.04116,699.336,224.58)">
                <path d="M0,7.87L2.074,6.898L2.41,6.832L2.914,6.898L3.414,7.2L3.717,7.502L3.549,8.037L3.383,8.339L2.98,8.64C2.178,8.941 1.406,9.209 0.57,9.377L0.168,9.443L-0.27,9.309L-0.77,8.908L-1.139,8.573L-1.34,8.304C-1.439,8.171 -1.34,8.07 -1.104,8.104L0,7.87ZM5.088,5.627L5.021,1.843L4.887,1.341L4.553,1.24C3.883,1.24 2.914,1.341 1.674,1.642C0.803,1.843 0.199,2.044 -0.135,2.245L-0.938,2.747L-1.104,2.881L-1.373,4.421L-1.373,4.488C-1.373,4.388 -1.273,4.354 -1.072,4.388C-0.836,4.421 -0.469,4.354 -0.033,4.186L1.977,3.349L2.311,3.249L2.812,3.383L3.314,3.718L3.584,4.019L3.414,4.488L3.248,4.856L2.812,5.124L0.535,5.761L0.133,5.761L-0.301,5.627L-0.805,5.224L-1.104,4.89L-1.305,4.622L-1.406,4.521L-1.406,7.803L-1.572,11.686L0.469,11.252C2.043,10.917 3.383,10.448 4.453,9.945C4.619,9.846 4.754,9.811 4.855,9.879L5.189,10.046L5.189,9.846L5.088,5.627ZM0.033,13.528C0.199,13.729 0.234,13.896 0.102,14.131L-0.469,15.002C-1.006,15.839 -1.572,16.676 -2.277,17.412C-2.846,18.115 -3.717,18.684 -4.822,19.086L-5.426,19.153L-5.961,19.086L-6.229,19.086C-6.295,19.019 -6.229,18.919 -6.061,18.785L-5.791,18.517C-5.123,17.847 -4.42,16.943 -3.75,15.872C-3.248,15.101 -2.912,14.432 -2.711,13.863L-2.912,13.863C-3.248,13.863 -3.482,13.729 -3.648,13.561L-4.117,12.892L-4.385,12.523C-4.488,12.424 -4.488,12.323 -4.385,12.256L-3.617,11.955L-3.082,11.955L-3.248,11.351L-3.551,8.405L-3.551,5.124C-3.516,3.986 -3.551,3.015 -3.648,2.311L-3.648,1.408C-3.482,0.839 -3.314,0.504 -3.18,0.436C-3.047,0.403 -2.813,0.471 -2.51,0.705L-1.875,1.14L0.703,0.236C0.803,0.169 0.869,0.136 0.971,0.202L0.334,0.202C0.234,0.202 0.133,0.136 0.102,0.035L0.199,-0.166L0.268,-0.467C0.268,-0.568 0.334,-0.601 0.502,-0.568C0.703,-0.568 0.971,-0.701 1.307,-0.97C1.605,-1.238 2.008,-1.773 2.512,-2.61C2.945,-3.314 3.281,-4.083 3.549,-4.854C3.816,-5.657 3.918,-6.26 3.852,-6.762L3.717,-6.829L3.414,-6.829L3.047,-6.26L2.109,-5.222C1.641,-4.753 1.271,-4.552 1.105,-4.619C0.904,-4.653 0.703,-4.653 0.469,-4.552C-0.033,-4.385 -0.367,-4.351 -0.469,-4.418C-0.604,-4.485 -0.537,-4.786 -0.301,-5.322L0.199,-6.193L0.668,-7.163L1.24,-8.503L1.641,-9.809L1.775,-10.512L1.775,-11.148C1.74,-11.349 1.775,-11.517 1.875,-11.583C2.008,-11.684 2.209,-11.651 2.445,-11.517L3.115,-11.282L4.053,-10.981L4.721,-10.545C4.99,-10.345 5.123,-10.144 5.123,-9.942C5.156,-9.675 5.123,-9.441 4.955,-9.273L4.789,-9.038L5.893,-9.474L8.57,-10.144C8.838,-10.177 9.074,-10.244 9.209,-10.378L9.678,-10.579C9.945,-10.613 10.213,-10.579 10.547,-10.411L11.283,-9.942L11.752,-9.608L12.455,-9.139L12.855,-8.57L12.99,-8.034C12.959,-7.866 12.891,-7.699 12.758,-7.599L12.119,-7.331L11.418,-7.163L10.379,-6.528L9.141,-5.925L7.734,-5.389C7.533,-5.288 7.4,-5.288 7.334,-5.356C7.266,-5.423 7.299,-5.557 7.533,-5.691C8.102,-6.394 8.605,-7.298 9.039,-8.403L9.174,-8.871L8.838,-8.871L6.428,-8.101C5.758,-7.866 5.189,-7.599 4.82,-7.331L4.955,-7.331L5.727,-6.896L6.16,-6.193C6.262,-6.026 6.227,-5.892 6.127,-5.791L6.061,-5.691L6.463,-5.59C6.83,-5.423 7.566,-4.988 8.637,-4.251L10.814,-2.677L12.119,-1.773L13.594,-1.003L14.498,-0.668L15.77,-0.199L17.043,0.236L17.477,0.504C17.578,0.537 17.611,0.604 17.578,0.705C17.578,0.805 17.477,0.972 17.244,1.14L16.641,1.542C16.307,1.709 15.971,1.776 15.668,1.776L14.967,1.877L13.896,2.212C13.66,2.311 13.428,2.311 13.191,2.212L12.455,1.91L11.518,1.441L10.414,0.805C9.811,0.37 8.807,-0.534 7.533,-1.907L5.557,-3.983L5.49,-3.983L4.721,-2.51C4.32,-1.84 3.949,-1.404 3.65,-1.137L2.846,-0.467L2.109,-0.099L2.008,-0.066L4.285,-0.401C4.619,-0.434 4.955,-0.534 5.289,-0.701C5.49,-0.835 5.658,-0.869 5.793,-0.769L6.361,-0.467C7.199,-0.166 7.668,0.068 7.834,0.236L8.303,0.738C8.437,0.905 8.539,1.106 8.57,1.374C8.605,1.709 8.539,2.011 8.369,2.278C8.168,2.646 8.07,3.45 8.102,4.789C8.137,6.664 8.236,8.439 8.437,10.146C8.57,11.084 8.539,11.921 8.369,12.523L7.969,13.695L7.432,13.863L6.998,13.997L6.762,14.164C7.533,14.533 8.338,15.068 9.141,15.771C9.844,16.408 10.178,16.877 10.213,17.211L10.213,18.015L10.012,18.684L9.709,19.153L9.342,19.455L9.008,19.554L8.637,19.455L7.969,18.752L5.459,15.804L4.352,14.365L3.883,13.695C3.918,13.596 4.018,13.528 4.186,13.561L4.789,13.629L5.658,13.83L5.525,13.16L5.391,12.256C2.812,12.658 0.937,13.026 -0.201,13.327L0.033,13.528ZM-5.559,-9.876C-4.721,-9.909 -4.02,-9.842 -3.482,-9.541C-3.248,-9.407 -3.047,-9.206 -2.947,-8.972C-2.846,-8.704 -2.813,-8.403 -2.912,-8.034C-3.014,-7.666 -3.248,-7.364 -3.684,-7.097C-3.85,-7.029 -4.186,-7.064 -4.756,-7.264C-5.926,-7.8 -6.93,-8.201 -7.836,-8.47C-8.17,-8.536 -8.336,-8.67 -8.336,-8.804C-8.336,-8.904 -8.238,-9.038 -8.104,-9.139L-7.635,-9.34C-6.863,-9.708 -6.193,-9.876 -5.559,-9.876M-9.072,-0.401L-9.072,-0.769C-9.107,-0.936 -9.041,-0.97 -8.906,-0.869L-8.404,-0.635C-8.27,-0.568 -7.969,-0.802 -7.398,-1.371C-6.563,-2.241 -5.457,-3.447 -4.152,-5.054C-3.916,-5.423 -3.75,-5.59 -3.684,-5.523C-3.582,-5.456 -3.684,-5.154 -3.916,-4.653L-4.654,-2.811L-4.957,-2.108L-5.225,-1.371L-5.559,-0.434L-5.961,0.504C-6.127,0.839 -6.193,1.14 -6.162,1.341L-6.061,2.346C-6.061,2.814 -6.295,3.183 -6.764,3.483C-6.998,3.584 -7.434,3.417 -8.037,2.948C-8.371,2.68 -8.707,1.91 -9.041,0.705C-9.141,0.337 -9.176,-0.066 -9.107,-0.401L-9.072,-0.401Z" style="fill:rgb(35,24,21);fill-rule:nonzero;"/>
            </g>
            <g transform="matrix(1.04116,0,0,1.04116,743.322,243.581)">
                <path d="M0,-27.423C0.334,-27.657 0.736,-27.724 1.17,-27.59C1.572,-27.423 2.041,-27.189 2.51,-26.854C2.979,-26.519 3.246,-26.184 3.281,-25.882C3.314,-25.514 3.146,-25.213 2.777,-24.911C2.344,-24.51 1.809,-23.639 1.238,-22.3C0.803,-21.195 0.568,-19.822 0.469,-18.148C0.367,-16.005 0.77,-13.561 1.707,-10.748C2.611,-8.104 3.715,-5.826 5.055,-4.019L6.16,-2.68C6.326,-2.713 6.596,-3.149 6.93,-4.119C7.332,-5.024 7.566,-5.793 7.666,-6.43C7.834,-6.998 7.969,-7.233 8.104,-7.199C8.201,-7.199 8.303,-6.932 8.471,-6.362C8.705,-5.392 8.84,-4.321 8.84,-3.114C8.84,-1.943 8.537,-0.904 8.002,-0.034L7.332,1.037C7.166,1.238 7.031,1.339 6.896,1.339C6.764,1.339 6.461,1.205 6.027,0.836C5.223,0.267 4.451,-0.369 3.783,-1.173C2.309,-3.048 1.104,-5.291 0.201,-7.802C-0.637,-10.112 -1.174,-12.724 -1.406,-15.57C-1.574,-18.215 -1.642,-20.358 -1.541,-22.032L-1.607,-22.333L-1.875,-22.166C-2.947,-21.329 -3.885,-20.894 -4.654,-20.793C-5.123,-20.76 -5.559,-20.96 -5.959,-21.396C-6.428,-21.898 -6.799,-22.401 -7.066,-22.903C-7.267,-23.439 -7.267,-23.706 -7.066,-23.706L-6.195,-23.941L0,-27.423ZM-7.031,-15.135L-7.031,-16.642C-7.098,-17.847 -7.166,-18.55 -7.267,-18.784L-7.467,-19.32L-7.467,-19.755L-7.4,-20.191C-7.365,-20.291 -7.232,-20.324 -7.098,-20.257L-6.598,-20.023L-6.262,-19.822L-5.424,-19.354C-5.123,-19.22 -4.924,-19.019 -4.789,-18.784C-4.687,-18.55 -4.654,-18.349 -4.754,-18.114L-4.955,-17.21L-5.057,-16.139L-5.057,-15.939L-4.521,-16.038L-3.549,-16.038C-3.115,-16.106 -2.879,-16.005 -2.713,-15.771L-2.479,-15.335L-2.479,-14.599L-2.678,-14.064L-2.914,-13.628L-3.65,-13.092L-5.057,-12.322L-5.057,-8.404C-5.09,-7.233 -5.057,-5.559 -4.889,-3.215L-4.955,-2.378L-5.324,-1.977L-5.892,-1.407C-6.094,-1.173 -6.428,-1.373 -6.865,-1.909L-6.998,-2.981C-7.098,-4.42 -7.098,-6.63 -6.998,-9.576L-6.998,-11.485L-7.668,-11.318L-8.236,-11.151C-8.504,-11.05 -8.973,-11.418 -9.611,-12.255C-10.146,-12.925 -10.414,-13.326 -10.379,-13.427C-10.348,-13.528 -10.313,-13.595 -10.213,-13.595L-9.611,-13.862C-8.906,-14.264 -8.035,-14.699 -6.998,-15.135L-7.031,-15.135ZM-15.771,-7.199L-15.904,-7.166L-15.771,-6.798L-15.201,-4.654C-14.598,-5.09 -13.896,-5.526 -12.99,-5.927L-12.455,-8.036C-12.389,-8.371 -12.389,-8.572 -12.455,-8.639C-12.557,-8.739 -12.758,-8.739 -13.059,-8.606L-15.771,-7.199ZM-15.334,-18.114C-14.566,-18.382 -13.66,-18.851 -12.656,-19.454L-12.322,-19.588L-11.785,-19.521L-11.25,-19.186L-10.916,-18.885C-10.883,-18.784 -10.916,-18.616 -11.084,-18.349L-11.217,-18.014L-11.652,-17.679C-12.723,-17.177 -13.83,-16.809 -14.934,-16.474L-15.402,-16.373L-15.838,-16.507L-16.373,-16.909L-16.74,-17.21L-16.976,-17.479C-17.076,-17.646 -17.01,-17.746 -16.74,-17.746C-16.373,-17.746 -15.904,-17.88 -15.334,-18.114M-15.435,-14.064L-12.691,-15.536L-12.322,-15.637L-11.785,-15.57L-11.25,-15.302L-10.916,-15.001C-10.883,-14.901 -10.916,-14.699 -11.084,-14.432L-11.217,-14.097L-11.619,-13.762C-12.758,-13.227 -13.928,-12.758 -15.066,-12.423L-15.504,-12.322L-15.973,-12.456L-16.508,-12.824L-16.875,-13.126L-17.111,-13.394C-17.209,-13.561 -17.142,-13.661 -16.875,-13.661L-15.435,-14.064ZM-11.785,-11.251C-10.447,-10.916 -9.811,-10.481 -9.777,-9.946L-9.91,-8.774L-10.414,-6.965C-10.178,-6.998 -9.979,-6.965 -9.91,-6.831L-9.709,-6.564L-9.709,-6.128L-9.811,-5.793L-9.91,-5.559L-10.313,-5.191C-11.285,-4.487 -12.121,-3.951 -12.892,-3.583L-14.498,-2.847L-14.566,-2.847L-14.264,-1.909C-14.23,-1.675 -14.264,-1.574 -14.365,-1.508L-14.767,-1.139L-15,-0.771C-15.066,-0.604 -15.236,-0.637 -15.469,-0.871C-15.904,-1.34 -16.508,-2.378 -17.178,-3.986C-17.947,-5.727 -18.383,-6.965 -18.584,-7.736L-18.918,-8.739L-19.017,-9.142C-18.986,-9.309 -18.918,-9.342 -18.75,-9.309L-17.812,-9.242C-17.545,-9.342 -17.277,-9.242 -16.976,-8.974L-16.91,-8.974C-14.967,-9.543 -13.561,-10.146 -12.691,-10.849C-12.355,-11.184 -12.053,-11.318 -11.785,-11.251M-15.435,-26.151C-15.57,-26.585 -15.604,-27.189 -15.535,-27.991L-15.435,-28.729C-15.334,-28.762 -15.201,-28.762 -15.035,-28.661C-14.732,-28.494 -14.432,-28.46 -14.129,-28.595C-13.861,-28.762 -13.459,-28.695 -13.025,-28.46L-11.887,-27.757C-11.084,-27.121 -10.646,-26.653 -10.646,-26.217C-10.646,-25.748 -10.781,-25.314 -11.084,-24.878L-11.385,-24.241L-11.017,-24.241L-10.279,-24.007C-10.111,-23.941 -10.012,-23.807 -9.945,-23.606C-9.91,-23.472 -10.012,-23.104 -10.246,-22.534C-10.279,-22.401 -10.549,-22.267 -10.982,-22.166L-12.758,-21.564L-12.824,-21.463C-13.191,-21.061 -13.527,-20.793 -13.762,-20.693C-14.063,-20.592 -14.197,-20.626 -14.264,-20.793L-14.566,-20.994C-15.838,-20.592 -16.642,-20.291 -16.91,-20.09C-17.209,-19.923 -17.611,-19.822 -18.115,-19.822C-18.449,-19.822 -18.717,-19.889 -18.885,-20.057L-19.486,-20.659L-19.754,-21.028C-19.855,-21.128 -19.889,-21.195 -19.789,-21.262L-19.053,-21.663C-18.416,-21.764 -17.244,-22.132 -15.57,-22.736L-15.201,-22.869C-14.9,-24.007 -14.799,-24.744 -14.934,-25.012L-15.435,-26.151Z" style="fill:rgb(35,24,21);fill-rule:nonzero;"/>
            </g>
            <g transform="matrix(1.04116,0,0,1.04116,772.143,230.473)">
                <path d="M0,-2.88C0.969,-3.148 1.906,-3.415 2.844,-3.583L5.557,-3.817L7.299,-3.884C8.369,-4.186 9.072,-4.186 9.473,-3.817C10.211,-3.114 10.914,-2.344 11.518,-1.439C12.152,-0.536 12.188,0.167 11.684,0.804C11.316,2.745 11.148,4.486 11.049,5.993C10.914,7.566 10.479,8.973 9.775,10.245C9.107,11.384 8.402,12.221 7.598,12.689C7.465,12.89 7.264,13.024 6.996,13.092L5.992,13.259C5.723,13.292 5.49,13.191 5.254,12.89L4.486,12.288L3.045,11.082L2.143,10.212C1.973,10.045 1.941,9.877 2.041,9.743C2.076,9.643 2.174,9.676 2.344,9.776L3.615,10.045L4.652,10.212C5.088,10.245 5.424,10.111 5.59,9.776C5.857,9.509 6.191,8.672 6.629,7.299C7.299,4.922 7.768,2.377 8.035,-0.302C8.102,-0.971 8.035,-1.34 7.834,-1.406C7.566,-1.54 7.197,-1.574 6.764,-1.507L5.924,-1.507C5.055,-1.507 4.219,-1.439 3.348,-1.273L0.67,-0.637L-0.906,-0.168L-1.34,-0.033C-1.508,-0 -1.709,-0.067 -1.875,-0.168C-2.045,-0.268 -2.211,-0.469 -2.344,-0.771L-2.781,-1.406C-2.982,-1.574 -3.08,-1.775 -3.049,-1.943C-3.049,-2.177 -2.715,-2.311 -2.111,-2.344L0,-2.88ZM-1.508,-11.752L-2.111,-11.552C-2.412,-10.948 -2.848,-9.776 -3.416,-8.002C-1.875,-8.639 0.031,-9.308 2.309,-9.978L3.482,-12.154L3.648,-12.823C3.549,-12.924 3.213,-12.924 2.678,-12.823L-1.508,-11.752ZM-3.25,6.897L-1.977,6.529C-1.475,6.361 -0.973,6.261 -0.437,6.227L0,5.323C0.166,4.754 0.299,4.219 0.334,3.682L0.334,3.281C0.299,3.181 0.166,3.181 -0.035,3.248L-2.277,3.917C-2.848,4.051 -3.316,4.252 -3.652,4.486L-3.652,4.654L-3.25,6.897ZM0.701,1.205C0.937,1.004 1.437,1.038 2.143,1.306L3.781,2.143C4.018,2.311 4.15,2.511 4.117,2.745C4.084,3.113 3.982,3.616 3.75,4.219L2.879,6.094L3.111,6.16L3.549,6.495C3.648,6.663 3.648,6.83 3.549,6.931L3.18,7.701C3.08,8.002 3.014,8.17 2.945,8.136L2.777,8.203L2.41,8.269C0.768,8.304 -1.006,8.538 -2.848,9.04L-3.35,9.04L-3.652,9.308L-3.986,9.71C-4.086,9.91 -4.254,9.844 -4.521,9.576C-4.889,9.14 -5.291,8.269 -5.727,6.931C-6.229,5.457 -6.562,4.42 -6.664,3.783L-6.865,2.946L-6.898,2.444C-6.898,2.243 -6.764,2.176 -6.598,2.243C-6.162,2.41 -5.727,2.477 -5.393,2.444C-5.09,2.377 -4.822,2.477 -4.555,2.712C-3.049,2.243 -1.742,1.875 -0.639,1.674C-0.035,1.573 0.4,1.406 0.701,1.205M5.59,-15.938C7.098,-14.967 7.934,-14.264 8,-13.861C8.035,-13.493 7.834,-12.958 7.365,-12.288L5.857,-9.944L6.025,-9.61L6.025,-9.275L5.924,-8.906L5.723,-8.438L5.49,-8.036L4.719,-7.601C2.879,-6.696 1.272,-5.993 -0.201,-5.592L-3.25,-4.821L-3.818,-4.721C-3.986,-4.688 -4.121,-4.821 -4.354,-5.056L-5.76,-1.373C-6.531,0.469 -7.469,2.276 -8.572,4.051C-9.242,5.089 -10.014,6.061 -10.982,6.964C-11.352,7.198 -11.889,7.366 -12.559,7.467C-13.361,7.533 -13.795,7.5 -13.83,7.399C-13.896,7.165 -13.764,6.764 -13.326,6.16C-12.523,5.29 -11.82,4.252 -11.184,3.113C-10.18,1.373 -9.277,-0.603 -8.371,-2.846C-7.568,-4.855 -6.934,-6.596 -6.531,-8.069C-5.961,-9.978 -5.527,-11.953 -5.357,-13.995L-5.357,-14.498C-5.393,-14.799 -5.357,-14.967 -5.258,-15.068C-5.125,-15.235 -4.955,-15.268 -4.756,-15.201L-4.254,-15.068L-3.184,-14.531L-2.914,-14.398L4.049,-15.736C4.687,-16.105 5.223,-16.172 5.59,-15.938" style="fill:rgb(35,24,21);fill-rule:nonzero;"/>
            </g>
            <g transform="matrix(112.059,0,0,-112.059,615.7,186.696)">
                <path d="M0.998,0.473C0.867,0.378 0.458,0.034 0.243,0.086C0.221,0.091 0.203,0.112 0.2,0.138C0.193,0.199 0.274,0.229 0.27,0.29C0.268,0.311 0.256,0.323 0.239,0.33C0.199,0.346 0.131,0.328 0.106,0.305C0.124,0.321 0.188,0.319 0.195,0.292C0.204,0.254 0.132,0.209 0.105,0.189C0.065,0.161 0.034,0.124 0.016,0.08C-0.003,0.031 -0.009,-0.026 0.021,-0.072C0.178,-0.314 0.943,0.057 0.943,0.057L1,0.475C0.999,0.474 0.998,0.474 0.998,0.473Z" style="fill:url(#_Linear1);fill-rule:nonzero;"/>
            </g>
            <g transform="matrix(109.192,0,0,-109.192,572.697,150.556)">
                <path d="M0.059,-0.013L-0,-0.328C0.107,-0.249 0.198,-0.178 0.311,-0.109C0.399,-0.054 0.49,-0.002 0.584,0.042C0.65,0.072 0.729,0.109 0.804,0.105C0.915,0.099 0.801,-0.059 0.779,-0.105C0.768,-0.131 0.75,-0.164 0.779,-0.183C0.779,-0.183 0.779,-0.184 0.78,-0.184C0.811,-0.202 0.848,-0.185 0.873,-0.165C0.855,-0.179 0.834,-0.151 0.836,-0.137C0.839,-0.111 0.871,-0.09 0.887,-0.072C0.953,0 1.034,0.122 0.985,0.23C0.952,0.3 0.888,0.328 0.809,0.328C0.53,0.328 0.059,-0.013 0.059,-0.013ZM0.76,0.196C0.767,0.229 0.799,0.255 0.832,0.255C0.865,0.255 0.886,0.229 0.88,0.196C0.873,0.163 0.841,0.136 0.809,0.136C0.776,0.136 0.754,0.163 0.76,0.196Z" style="fill:url(#_Linear2);fill-rule:nonzero;"/>
            </g>
            <g transform="matrix(1.04116,0,0,1.04116,513.298,262.588)">
                <path d="M0,-7.772L0,0.001L1.441,0.001C2.691,0.001 3.672,-0.349 4.385,-1.048C5.098,-1.749 5.455,-2.728 5.455,-3.985C5.455,-5.22 5.115,-6.161 4.437,-6.805C3.758,-7.45 2.773,-7.772 1.484,-7.772L0,-7.772ZM-1.641,1.409L-1.641,-9.181L1.572,-9.181C5.309,-9.181 7.178,-7.46 7.178,-4.02C7.178,-2.365 6.646,-1.046 5.582,-0.064C4.518,0.917 3.152,1.409 1.49,1.409L-1.641,1.409Z" style="fill:rgb(35,24,21);fill-rule:nonzero;"/>
            </g>
            <g transform="matrix(1.04116,0,0,1.04116,527.599,260.885)">
                <path d="M0,-1.475C-0.006,-2.122 -0.154,-2.62 -0.445,-2.965C-0.738,-3.312 -1.152,-3.485 -1.689,-3.485C-2.178,-3.485 -2.604,-3.301 -2.963,-2.935C-3.322,-2.568 -3.545,-2.081 -3.631,-1.475L0,-1.475ZM1.557,-0.305L-3.639,-0.305C-3.57,1.221 -2.793,1.984 -1.309,1.984C-0.469,1.984 0.295,1.733 0.984,1.232L0.984,2.559C0.309,3.001 -0.578,3.221 -1.678,3.221C-2.799,3.221 -3.676,2.88 -4.309,2.196C-4.943,1.512 -5.26,0.555 -5.26,-0.675C-5.26,-1.842 -4.92,-2.804 -4.236,-3.561C-3.555,-4.317 -2.701,-4.696 -1.678,-4.696C-0.656,-4.696 0.139,-4.373 0.705,-3.728C1.273,-3.083 1.557,-2.196 1.557,-1.065L1.557,-0.305Z" style="fill:rgb(35,24,21);fill-rule:nonzero;"/>
            </g>
            <g transform="matrix(1.04116,0,0,1.04116,532.624,262.937)">
                <path d="M0,-2.112C0,-1.524 0.18,-1.031 0.547,-0.633C0.91,-0.233 1.371,-0.034 1.926,-0.034C2.598,-0.034 3.117,-0.29 3.486,-0.803C3.855,-1.316 4.039,-2.025 4.039,-2.932C4.039,-3.712 3.869,-4.314 3.525,-4.741C3.185,-5.168 2.707,-5.381 2.092,-5.381C1.475,-5.381 0.975,-5.156 0.584,-4.71C0.193,-4.263 0,-3.698 0,-3.014L0,-2.112ZM0.014,0.056L0.014,4.554L-1.594,4.554L-1.594,-6.488L0.014,-6.488L0.014,-5.229L0.047,-5.229C0.631,-6.187 1.476,-6.666 2.592,-6.666C3.553,-6.666 4.308,-6.33 4.861,-5.657C5.41,-4.985 5.687,-4.074 5.687,-2.926C5.687,-1.663 5.375,-0.651 4.752,0.111C4.127,0.87 3.291,1.251 2.242,1.251C1.283,1.251 0.553,0.853 0.047,0.056L0.014,0.056Z" style="fill:rgb(35,24,21);fill-rule:nonzero;"/>
            </g>
            <g transform="matrix(1.04116,0,0,1.04116,542.796,259.84)">
                <path d="M0,0.534C-0.547,0.607 -0.934,0.746 -1.158,0.95C-1.385,1.156 -1.498,1.456 -1.498,1.853C-1.498,2.186 -1.377,2.458 -1.135,2.671C-0.895,2.883 -0.584,2.988 -0.207,2.988C0.332,2.988 0.777,2.798 1.133,2.418C1.49,2.037 1.668,1.556 1.668,0.979L1.668,0.309L0,0.534ZM-2.318,-3.008C-1.549,-3.463 -0.656,-3.691 0.354,-3.691C2.264,-3.691 3.219,-2.704 3.219,-0.732L3.219,4.048L1.66,4.048L1.66,2.9L1.627,2.9C1.111,3.784 0.346,4.225 -0.67,4.225C-1.414,4.225 -1.998,4.025 -2.424,3.624C-2.85,3.223 -3.064,2.682 -3.064,2.005C-3.064,0.582 -2.219,-0.247 -0.527,-0.485L1.668,-0.785C1.668,-1.911 1.172,-2.475 0.184,-2.475C-0.723,-2.475 -1.557,-2.181 -2.318,-1.592L-2.318,-3.008Z" style="fill:rgb(35,24,21);fill-rule:nonzero;"/>
            </g>
            <g transform="matrix(1.04116,0,0,1.04116,552.831,262.326)">
                <path d="M0,-4.37C-0.236,-4.525 -0.551,-4.601 -0.943,-4.601C-1.463,-4.601 -1.883,-4.374 -2.203,-3.919C-2.525,-3.462 -2.686,-2.858 -2.686,-2.106L-2.686,1.66L-4.293,1.66L-4.293,-5.901L-2.686,-5.901L-2.686,-4.397L-2.652,-4.397C-2.279,-5.486 -1.617,-6.03 -0.668,-6.03C-0.387,-6.03 -0.162,-5.999 0,-5.934L0,-4.37Z" style="fill:rgb(35,24,21);fill-rule:nonzero;"/>
            </g>
            <g transform="matrix(1.04116,0,0,1.04116,558.61,254.097)">
                <path d="M0,9.483C-0.295,9.651 -0.721,9.736 -1.277,9.736C-2.713,9.736 -3.432,8.956 -3.432,7.397L-3.432,3.275L-4.709,3.275L-4.709,2.003L-3.432,2.003L-3.432,0.232L-1.83,-0.253L-1.83,2.003L0,2.003L0,3.275L-1.83,3.275L-1.83,7.117C-1.83,7.587 -1.748,7.926 -1.582,8.135C-1.416,8.345 -1.148,8.45 -0.777,8.45C-0.49,8.45 -0.23,8.368 0,8.204L0,9.483Z" style="fill:rgb(35,24,21);fill-rule:nonzero;"/>
            </g>
            <g transform="matrix(1.04116,0,0,1.04116,571.83,255.997)">
                <path d="M0,7.739L-1.605,7.739L-1.605,3.405C-1.605,2.658 -1.727,2.117 -1.969,1.785C-2.211,1.452 -2.596,1.285 -3.123,1.285C-3.58,1.285 -3.971,1.496 -4.301,1.915C-4.629,2.334 -4.793,2.846 -4.793,3.453L-4.793,7.739L-6.393,7.739L-6.393,3.295C-6.393,1.956 -6.906,1.285 -7.93,1.285C-8.404,1.285 -8.799,1.488 -9.111,1.893C-9.424,2.3 -9.578,2.824 -9.578,3.466L-9.578,7.739L-11.186,7.739L-11.186,0.177L-9.578,0.177L-9.578,1.368L-9.545,1.368C-9.002,0.457 -8.207,0 -7.164,0C-6.102,0 -5.385,0.504 -5.01,1.51C-4.445,0.504 -3.602,0 -2.48,0C-0.826,0 0,1.023 0,3.069L0,7.739Z" style="fill:rgb(35,24,21);fill-rule:nonzero;"/>
            </g>
            <g transform="matrix(1.04116,0,0,1.04116,579.013,260.885)">
                <path d="M0,-1.475C-0.004,-2.122 -0.152,-2.62 -0.445,-2.965C-0.736,-3.312 -1.15,-3.485 -1.687,-3.485C-2.178,-3.485 -2.602,-3.301 -2.961,-2.935C-3.32,-2.568 -3.543,-2.081 -3.631,-1.475L0,-1.475ZM1.559,-0.305L-3.639,-0.305C-3.568,1.221 -2.793,1.984 -1.307,1.984C-0.469,1.984 0.295,1.733 0.984,1.232L0.984,2.559C0.311,3.001 -0.578,3.221 -1.676,3.221C-2.797,3.221 -3.674,2.88 -4.307,2.196C-4.941,1.512 -5.258,0.555 -5.258,-0.675C-5.258,-1.842 -4.918,-2.804 -4.236,-3.561C-3.553,-4.317 -2.701,-4.696 -1.676,-4.696C-0.654,-4.696 0.139,-4.373 0.707,-3.728C1.275,-3.083 1.559,-2.196 1.559,-1.065L1.559,-0.305Z" style="fill:rgb(35,24,21);fill-rule:nonzero;"/>
            </g>
            <g transform="matrix(1.04116,0,0,1.04116,589.29,255.997)">
                <path d="M0,7.739L-1.6,7.739L-1.6,3.466C-1.6,2.012 -2.127,1.285 -3.184,1.285C-3.717,1.285 -4.158,1.487 -4.508,1.89C-4.855,2.295 -5.031,2.805 -5.031,3.425L-5.031,7.739L-6.637,7.739L-6.637,0.177L-5.031,0.177L-5.031,1.415L-4.996,1.415C-4.437,0.471 -3.615,0 -2.535,0C-0.846,0 0,1.039 0,3.118L0,7.739Z" style="fill:rgb(35,24,21);fill-rule:nonzero;"/>
            </g>
            <g transform="matrix(1.04116,0,0,1.04116,595.547,254.097)">
                <path d="M0,9.483C-0.295,9.651 -0.721,9.736 -1.277,9.736C-2.713,9.736 -3.432,8.956 -3.432,7.397L-3.432,3.275L-4.709,3.275L-4.709,2.003L-3.432,2.003L-3.432,0.232L-1.832,-0.253L-1.832,2.003L0,2.003L0,3.275L-1.832,3.275L-1.832,7.117C-1.832,7.587 -1.748,7.926 -1.582,8.135C-1.416,8.345 -1.148,8.45 -0.779,8.45C-0.49,8.45 -0.23,8.368 0,8.204L0,9.483Z" style="fill:rgb(35,24,21);fill-rule:nonzero;"/>
            </g>
            <g transform="matrix(1.04116,0,0,1.04116,601.961,260.082)">
                <path d="M0,0.069C0,0.899 0.203,1.547 0.605,2.011C1.01,2.475 1.559,2.708 2.25,2.708C3.703,2.708 4.432,1.813 4.432,0.021C4.432,-0.845 4.244,-1.504 3.871,-1.958C3.498,-2.412 2.957,-2.639 2.25,-2.639C1.543,-2.639 0.992,-2.398 0.596,-1.913C0.199,-1.43 0,-0.769 0,0.069M-1.633,0.102C-1.633,-1.141 -1.279,-2.123 -0.57,-2.844C0.139,-3.564 1.104,-3.924 2.326,-3.924C3.479,-3.924 4.391,-3.576 5.061,-2.877C5.73,-2.18 6.064,-1.228 6.064,-0.02C6.064,1.196 5.713,2.17 5.006,2.899C4.299,3.629 3.355,3.993 2.176,3.993C1.018,3.993 0.094,3.64 -0.598,2.933C-1.287,2.227 -1.633,1.283 -1.633,0.102" style="fill:rgb(35,24,21);fill-rule:nonzero;"/>
            </g>
            <g transform="matrix(1.04116,0,0,1.04116,614.183,262.51)">
                <path d="M0,-8.396C-0.268,-8.524 -0.543,-8.587 -0.826,-8.587C-1.637,-8.587 -2.043,-8.097 -2.043,-7.118L-2.043,-6.079L-0.293,-6.079L-0.293,-4.806L-2.043,-4.806L-2.043,1.483L-3.643,1.483L-3.643,-4.806L-4.928,-4.806L-4.928,-6.079L-3.643,-6.079L-3.643,-7.2C-3.643,-8.024 -3.395,-8.678 -2.898,-9.158C-2.4,-9.639 -1.766,-9.879 -0.99,-9.879C-0.59,-9.879 -0.258,-9.833 0,-9.743L0,-8.396Z" style="fill:rgb(35,24,21);fill-rule:nonzero;"/>
            </g>
            <g transform="matrix(1.04116,0,0,1.04116,620.712,262.658)">
                <rect x="-1.641" y="-9.249" width="1.641" height="10.59" style="fill:rgb(35,24,21);fill-rule:nonzero;"/>
            </g>
            <g transform="matrix(1.04116,0,0,1.04116,630.193,255.997)">
                <path d="M0,7.739L-1.6,7.739L-1.6,3.466C-1.6,2.012 -2.129,1.285 -3.186,1.285C-3.719,1.285 -4.16,1.487 -4.508,1.89C-4.857,2.295 -5.031,2.805 -5.031,3.425L-5.031,7.739L-6.639,7.739L-6.639,0.177L-5.031,0.177L-5.031,1.415L-4.996,1.415C-4.436,0.471 -3.617,0 -2.537,0C-0.846,0 0,1.039 0,3.118L0,7.739Z" style="fill:rgb(35,24,21);fill-rule:nonzero;"/>
            </g>
            <g transform="matrix(1.04116,0,0,1.04116,636.743,262.51)">
                <path d="M0,-8.396C-0.27,-8.524 -0.547,-8.587 -0.828,-8.587C-1.641,-8.587 -2.045,-8.097 -2.045,-7.118L-2.045,-6.079L-0.295,-6.079L-0.295,-4.806L-2.045,-4.806L-2.045,1.483L-3.645,1.483L-3.645,-4.806L-4.932,-4.806L-4.932,-6.079L-3.645,-6.079L-3.645,-7.2C-3.645,-8.024 -3.396,-8.678 -2.9,-9.158C-2.404,-9.639 -1.766,-9.879 -0.992,-9.879C-0.59,-9.879 -0.262,-9.833 0,-9.743L0,-8.396Z" style="fill:rgb(35,24,21);fill-rule:nonzero;"/>
            </g>
            <g transform="matrix(1.04116,0,0,1.04116,638.92,260.082)">
                <path d="M0,0.069C0,0.899 0.201,1.547 0.605,2.011C1.008,2.475 1.557,2.708 2.25,2.708C3.703,2.708 4.43,1.813 4.43,0.021C4.43,-0.845 4.244,-1.504 3.869,-1.958C3.496,-2.412 2.955,-2.639 2.25,-2.639C1.543,-2.639 0.99,-2.398 0.594,-1.913C0.197,-1.43 0,-0.769 0,0.069M-1.633,0.102C-1.633,-1.141 -1.279,-2.123 -0.572,-2.844C0.137,-3.564 1.102,-3.924 2.324,-3.924C3.479,-3.924 4.389,-3.576 5.059,-2.877C5.729,-2.18 6.064,-1.228 6.064,-0.02C6.064,1.196 5.711,2.17 5.004,2.899C4.297,3.629 3.354,3.993 2.174,3.993C1.016,3.993 0.092,3.64 -0.6,2.933C-1.289,2.227 -1.633,1.283 -1.633,0.102" style="fill:rgb(35,24,21);fill-rule:nonzero;"/>
            </g>
            <g transform="matrix(1.04116,0,0,1.04116,651.561,262.326)">
                <path d="M0,-4.37C-0.234,-4.525 -0.551,-4.601 -0.941,-4.601C-1.463,-4.601 -1.881,-4.374 -2.205,-3.919C-2.523,-3.462 -2.686,-2.858 -2.686,-2.106L-2.686,1.66L-4.293,1.66L-4.293,-5.901L-2.686,-5.901L-2.686,-4.397L-2.65,-4.397C-2.279,-5.486 -1.617,-6.03 -0.67,-6.03C-0.387,-6.03 -0.162,-5.999 0,-5.934L0,-4.37Z" style="fill:rgb(35,24,21);fill-rule:nonzero;"/>
            </g>
            <g transform="matrix(1.04116,0,0,1.04116,664.46,255.997)">
                <path d="M0,7.739L-1.606,7.739L-1.606,3.405C-1.606,2.658 -1.727,2.117 -1.969,1.785C-2.209,1.452 -2.596,1.285 -3.123,1.285C-3.58,1.285 -3.971,1.496 -4.301,1.915C-4.627,2.334 -4.791,2.846 -4.791,3.453L-4.791,7.739L-6.391,7.739L-6.391,3.295C-6.391,1.956 -6.904,1.285 -7.93,1.285C-8.404,1.285 -8.797,1.488 -9.109,1.893C-9.422,2.3 -9.578,2.824 -9.578,3.466L-9.578,7.739L-11.186,7.739L-11.186,0.177L-9.578,0.177L-9.578,1.368L-9.543,1.368C-9.002,0.457 -8.207,0 -7.164,0C-6.102,0 -5.385,0.504 -5.012,1.51C-4.445,0.504 -3.602,0 -2.481,0C-0.826,0 0,1.023 0,3.069L0,7.739Z" style="fill:rgb(35,24,21);fill-rule:nonzero;"/>
            </g>
            <g transform="matrix(1.04116,0,0,1.04116,669.279,259.84)">
                <path d="M0,0.534C-0.547,0.607 -0.934,0.746 -1.158,0.95C-1.385,1.156 -1.496,1.456 -1.496,1.853C-1.496,2.186 -1.375,2.458 -1.135,2.671C-0.893,2.883 -0.584,2.988 -0.203,2.988C0.334,2.988 0.781,2.798 1.135,2.418C1.492,2.037 1.668,1.556 1.668,0.979L1.668,0.309L0,0.534ZM-2.316,-3.008C-1.547,-3.463 -0.656,-3.691 0.357,-3.691C2.266,-3.691 3.221,-2.704 3.221,-0.732L3.221,4.048L1.662,4.048L1.662,2.9L1.627,2.9C1.113,3.784 0.346,4.225 -0.67,4.225C-1.412,4.225 -1.998,4.025 -2.424,3.624C-2.85,3.223 -3.063,2.682 -3.063,2.005C-3.063,0.582 -2.217,-0.247 -0.527,-0.485L1.668,-0.785C1.668,-1.911 1.176,-2.475 0.186,-2.475C-0.723,-2.475 -1.555,-2.181 -2.316,-1.592L-2.316,-3.008Z" style="fill:rgb(35,24,21);fill-rule:nonzero;"/>
            </g>
            <g transform="matrix(1.04116,0,0,1.04116,678.889,254.097)">
                <path d="M0,9.483C-0.297,9.651 -0.723,9.736 -1.279,9.736C-2.715,9.736 -3.432,8.956 -3.432,7.397L-3.432,3.275L-4.711,3.275L-4.711,2.003L-3.432,2.003L-3.432,0.232L-1.832,-0.253L-1.832,2.003L0,2.003L0,3.275L-1.832,3.275L-1.832,7.117C-1.832,7.587 -1.75,7.926 -1.582,8.135C-1.416,8.345 -1.148,8.45 -0.779,8.45C-0.492,8.45 -0.232,8.368 0,8.204L0,9.483Z" style="fill:rgb(35,24,21);fill-rule:nonzero;"/>
            </g>
            <g transform="matrix(1.04116,0,0,1.04116,502.735,222.459)">
                <path d="M170.686,32.389L172.293,32.389L172.293,39.95L170.686,39.95L170.686,32.389ZM170.529,29.791C170.529,29.522 170.621,29.3 170.807,29.125C170.99,28.949 171.225,28.862 171.508,28.862C171.785,28.862 172.02,28.949 172.211,29.125C172.402,29.3 172.498,29.522 172.498,29.791C172.498,30.06 172.402,30.282 172.211,30.458C172.02,30.633 171.785,30.721 171.508,30.721C171.229,30.721 170.996,30.632 170.809,30.455C170.623,30.277 170.529,30.056 170.529,29.791" style="fill:rgb(35,24,21);fill-rule:nonzero;"/>
            </g>
            <g transform="matrix(1.04116,0,0,1.04116,685.673,260.082)">
                <path d="M0,0.069C0,0.899 0.201,1.547 0.605,2.011C1.008,2.475 1.557,2.708 2.25,2.708C3.703,2.708 4.43,1.813 4.43,0.021C4.43,-0.845 4.244,-1.504 3.869,-1.958C3.496,-2.412 2.957,-2.639 2.25,-2.639C1.543,-2.639 0.992,-2.398 0.596,-1.913C0.197,-1.43 0,-0.769 0,0.069M-1.635,0.102C-1.635,-1.141 -1.279,-2.123 -0.57,-2.844C0.137,-3.564 1.103,-3.924 2.324,-3.924C3.477,-3.924 4.391,-3.576 5.059,-2.877C5.728,-2.18 6.064,-1.228 6.064,-0.02C6.064,1.196 5.711,2.17 5.004,2.899C4.299,3.629 3.353,3.993 2.174,3.993C1.018,3.993 0.092,3.64 -0.598,2.933C-1.289,2.227 -1.635,1.283 -1.635,0.102" style="fill:rgb(35,24,21);fill-rule:nonzero;"/>
            </g>
            <g transform="matrix(1.04116,0,0,1.04116,700.756,255.997)">
                <path d="M0,7.739L-1.6,7.739L-1.6,3.466C-1.6,2.012 -2.129,1.285 -3.184,1.285C-3.717,1.285 -4.16,1.487 -4.51,1.89C-4.855,2.295 -5.031,2.805 -5.031,3.425L-5.031,7.739L-6.639,7.739L-6.639,0.177L-5.031,0.177L-5.031,1.415L-4.998,1.415C-4.437,0.471 -3.615,0 -2.535,0C-0.846,0 0,1.039 0,3.118L0,7.739Z" style="fill:rgb(35,24,21);fill-rule:nonzero;"/>
            </g>
            <g transform="matrix(1.04116,0,0,1.04116,713.762,262.588)">
                <path d="M0,-7.772L-3.043,-7.772L-3.043,1.409L-4.689,1.409L-4.689,-7.772L-7.725,-7.772L-7.725,-9.181L0,-9.181L0,-7.772Z" style="fill:rgb(35,24,21);fill-rule:nonzero;"/>
            </g>
            <g transform="matrix(1.04116,0,0,1.04116,718.553,260.885)">
                <path d="M0,-1.475C-0.006,-2.122 -0.154,-2.62 -0.445,-2.965C-0.736,-3.312 -1.15,-3.485 -1.69,-3.485C-2.178,-3.485 -2.602,-3.301 -2.961,-2.935C-3.322,-2.568 -3.545,-2.081 -3.631,-1.475L0,-1.475ZM1.557,-0.305L-3.639,-0.305C-3.57,1.221 -2.793,1.984 -1.307,1.984C-0.469,1.984 0.295,1.733 0.984,1.232L0.984,2.559C0.309,3.001 -0.578,3.221 -1.678,3.221C-2.799,3.221 -3.676,2.88 -4.309,2.196C-4.941,1.512 -5.258,0.555 -5.258,-0.675C-5.258,-1.842 -4.918,-2.804 -4.236,-3.561C-3.555,-4.317 -2.701,-4.696 -1.678,-4.696C-0.656,-4.696 0.139,-4.373 0.707,-3.728C1.273,-3.083 1.557,-2.196 1.557,-1.065L1.557,-0.305Z" style="fill:rgb(35,24,21);fill-rule:nonzero;"/>
            </g>
            <g transform="matrix(1.04116,0,0,1.04116,727.501,256.516)">
                <path d="M0,6.919C-0.557,7.252 -1.27,7.418 -2.141,7.418C-3.244,7.418 -4.137,7.069 -4.82,6.372C-5.504,5.675 -5.846,4.763 -5.846,3.638C-5.846,2.375 -5.479,1.37 -4.744,0.622C-4.012,-0.125 -3.033,-0.499 -1.812,-0.499C-1.061,-0.499 -0.451,-0.378 0.014,-0.137L0.014,1.367C-0.523,0.98 -1.105,0.786 -1.73,0.786C-2.469,0.786 -3.066,1.034 -3.525,1.528C-3.984,2.024 -4.211,2.688 -4.211,3.522C-4.211,4.338 -3.994,4.977 -3.559,5.439C-3.123,5.901 -2.539,6.133 -1.807,6.133C-1.168,6.133 -0.566,5.928 0,5.519L0,6.919Z" style="fill:rgb(35,24,21);fill-rule:nonzero;"/>
            </g>
            <g transform="matrix(1.04116,0,0,1.04116,736.192,252.403)">
                <path d="M0,11.191L-1.607,11.191L-1.607,6.857C-1.607,5.444 -2.129,4.737 -3.172,4.737C-3.701,4.737 -4.143,4.94 -4.492,5.345C-4.844,5.752 -5.019,6.268 -5.019,6.898L-5.019,11.191L-6.625,11.191L-6.625,0L-5.019,0L-5.019,4.839L-4.984,4.839C-4.41,3.915 -3.602,3.452 -2.557,3.452C-0.853,3.452 0,4.483 0,6.543L0,11.191Z" style="fill:rgb(35,24,21);fill-rule:nonzero;"/>
            </g>
            <g transform="matrix(1.04116,0,0,1.04116,745.319,255.997)">
                <path d="M0,7.739L-1.6,7.739L-1.6,3.466C-1.6,2.012 -2.131,1.285 -3.188,1.285C-3.721,1.285 -4.162,1.487 -4.51,1.89C-4.859,2.295 -5.033,2.805 -5.033,3.425L-5.033,7.739L-6.641,7.739L-6.641,0.177L-5.033,0.177L-5.033,1.415L-4.998,1.415C-4.437,0.471 -3.617,0 -2.537,0C-0.846,0 0,1.039 0,3.118L0,7.739Z" style="fill:rgb(35,24,21);fill-rule:nonzero;"/>
            </g>
            <g transform="matrix(1.04116,0,0,1.04116,748.727,260.082)">
                <path d="M0,0.069C0,0.899 0.201,1.547 0.606,2.011C1.01,2.475 1.557,2.708 2.25,2.708C3.703,2.708 4.43,1.813 4.43,0.021C4.43,-0.845 4.242,-1.504 3.869,-1.958C3.496,-2.412 2.955,-2.639 2.25,-2.639C1.543,-2.639 0.992,-2.398 0.596,-1.913C0.197,-1.43 0,-0.769 0,0.069M-1.633,0.102C-1.633,-1.141 -1.279,-2.123 -0.57,-2.844C0.139,-3.564 1.104,-3.924 2.324,-3.924C3.479,-3.924 4.389,-3.576 5.059,-2.877C5.729,-2.18 6.065,-1.228 6.065,-0.02C6.065,1.196 5.711,2.17 5.004,2.899C4.297,3.629 3.356,3.993 2.174,3.993C1.016,3.993 0.092,3.64 -0.598,2.933C-1.289,2.227 -1.633,1.283 -1.633,0.102" style="fill:rgb(35,24,21);fill-rule:nonzero;"/>
            </g>
            <g transform="matrix(1.04116,0,0,1.04116,502.735,222.352)">
                <rect x="244.1" y="28.862" width="1.608" height="11.191" style="fill:rgb(35,24,21);"/>
            </g>
            <g transform="matrix(1.04116,0,0,1.04116,762.109,260.082)">
                <path d="M0,0.069C0,0.899 0.201,1.547 0.605,2.011C1.008,2.475 1.557,2.708 2.25,2.708C3.703,2.708 4.43,1.813 4.43,0.021C4.43,-0.845 4.244,-1.504 3.869,-1.958C3.496,-2.412 2.955,-2.639 2.25,-2.639C1.543,-2.639 0.992,-2.398 0.594,-1.913C0.199,-1.43 0,-0.769 0,0.069M-1.633,0.102C-1.633,-1.141 -1.279,-2.123 -0.57,-2.844C0.137,-3.564 1.104,-3.924 2.324,-3.924C3.479,-3.924 4.389,-3.576 5.059,-2.877C5.73,-2.18 6.064,-1.228 6.064,-0.02C6.064,1.196 5.711,2.17 5.004,2.899C4.299,3.629 3.354,3.993 2.174,3.993C1.016,3.993 0.092,3.64 -0.598,2.933C-1.289,2.227 -1.633,1.283 -1.633,0.102" style="fill:rgb(35,24,21);fill-rule:nonzero;"/>
            </g>
            <g transform="matrix(1.04116,0,0,1.04116,775.697,264.312)">
                <path d="M0,-4.678C0,-5.239 -0.184,-5.716 -0.553,-6.11C-0.922,-6.503 -1.379,-6.701 -1.92,-6.701C-2.582,-6.701 -3.102,-6.451 -3.482,-5.952C-3.863,-5.452 -4.053,-4.762 -4.053,-3.878C-4.053,-3.111 -3.871,-2.5 -3.506,-2.041C-3.142,-1.584 -2.66,-1.355 -2.063,-1.355C-1.457,-1.355 -0.961,-1.58 -0.578,-2.032C-0.191,-2.483 0,-3.052 0,-3.741L0,-4.678ZM1.594,-0.944C1.594,1.891 0.176,3.308 -2.658,3.308C-3.621,3.308 -4.437,3.144 -5.105,2.816L-5.105,1.34C-4.277,1.805 -3.473,2.036 -2.693,2.036C-0.906,2.036 -0.012,1.122 -0.012,-0.704L-0.012,-1.457L-0.041,-1.457C-0.598,-0.532 -1.434,-0.07 -2.549,-0.07C-3.496,-0.07 -4.258,-0.408 -4.83,-1.084C-5.4,-1.761 -5.687,-2.665 -5.687,-3.795C-5.687,-5.071 -5.375,-6.089 -4.746,-6.848C-4.121,-7.607 -3.285,-7.986 -2.242,-7.986C-1.252,-7.986 -0.517,-7.597 -0.041,-6.817L-0.012,-6.817L-0.012,-7.809L1.594,-7.809L1.594,-0.944Z" style="fill:rgb(35,24,21);fill-rule:nonzero;"/>
            </g>
            <g transform="matrix(1.04116,0,0,1.04116,786.41,267.756)">
                <path d="M0,-11.117L-3.33,-2.556C-3.99,-0.851 -4.947,0 -6.199,0C-6.611,0 -6.943,-0.043 -7.199,-0.13L-7.199,-1.483C-6.934,-1.365 -6.662,-1.305 -6.379,-1.305C-5.777,-1.305 -5.332,-1.64 -5.045,-2.311L-4.518,-3.569L-7.514,-11.117L-5.728,-11.117L-3.91,-5.722C-3.869,-5.608 -3.81,-5.367 -3.732,-4.997L-3.699,-4.997C-3.676,-5.143 -3.615,-5.381 -3.514,-5.709L-1.619,-11.117L0,-11.117Z" style="fill:rgb(35,24,21);fill-rule:nonzero;"/>
            </g>
            <g transform="matrix(-0.311294,0.993539,0.993539,0.311294,788.641,265.885)">
                <path d="M-3.276,-1.258L0.564,-1.258L0.924,-2.406L-2.82,-2.711L-3.276,-1.258Z" style="fill:rgb(35,24,21);fill-rule:nonzero;"/>
            </g>
            <g transform="matrix(1.04116,0,0,1.04116,576.253,280.082)">
                <path d="M0,-7.774L-3.041,-7.774L-3.041,1.408L-4.689,1.408L-4.689,-7.774L-7.725,-7.774L-7.725,-9.182L0,-9.182L0,-7.774Z" style="fill:rgb(35,24,21);fill-rule:nonzero;"/>
            </g>
            <g transform="matrix(1.04116,0,0,1.04116,578.639,277.332)">
                <path d="M0,0.535C-0.547,0.608 -0.932,0.747 -1.158,0.951C-1.383,1.157 -1.498,1.457 -1.498,1.854C-1.498,2.187 -1.377,2.459 -1.135,2.672C-0.893,2.884 -0.582,2.989 -0.205,2.989C0.332,2.989 0.779,2.799 1.135,2.419C1.49,2.038 1.67,1.557 1.67,0.98L1.67,0.309L0,0.535ZM-2.318,-3.007C-1.547,-3.462 -0.656,-3.691 0.355,-3.691C2.266,-3.691 3.221,-2.703 3.221,-0.731L3.221,4.049L1.662,4.049L1.662,2.901L1.627,2.901C1.113,3.785 0.348,4.226 -0.67,4.226C-1.414,4.226 -1.998,4.027 -2.422,3.625C-2.85,3.224 -3.063,2.683 -3.063,2.006C-3.063,0.583 -2.217,-0.246 -0.525,-0.484L1.67,-0.784C1.67,-1.91 1.174,-2.474 0.186,-2.474C-0.721,-2.474 -1.557,-2.18 -2.318,-1.591L-2.318,-3.007Z" style="fill:rgb(35,24,21);fill-rule:nonzero;"/>
            </g>
            <g transform="matrix(1.04116,0,0,1.04116,502.735,257.448)">
                <path d="M78.234,15.585L79.841,15.585L79.841,23.147L78.234,23.147L78.234,15.585ZM78.078,12.987C78.078,12.718 78.17,12.496 78.354,12.321C78.539,12.144 78.773,12.059 79.057,12.059C79.334,12.059 79.568,12.144 79.76,12.321C79.951,12.496 80.047,12.718 80.047,12.987C80.047,13.256 79.951,13.477 79.76,13.654C79.568,13.829 79.334,13.917 79.057,13.917C78.777,13.917 78.545,13.828 78.359,13.65C78.17,13.473 78.078,13.252 78.078,12.987" style="fill:rgb(35,24,21);fill-rule:nonzero;"/>
            </g>
            <g transform="matrix(1.04116,0,0,1.04116,589.88,280.43)">
                <path d="M0,-2.112C0,-1.524 0.18,-1.031 0.545,-0.632C0.91,-0.233 1.371,-0.034 1.926,-0.034C2.596,-0.034 3.117,-0.29 3.486,-0.802C3.855,-1.316 4.039,-2.025 4.039,-2.932C4.039,-3.712 3.869,-4.314 3.525,-4.741C3.184,-5.168 2.705,-5.38 2.09,-5.38C1.475,-5.38 0.973,-5.156 0.582,-4.71C0.193,-4.263 0,-3.698 0,-3.014L0,-2.112ZM0.012,0.056L0.012,4.554L-1.596,4.554L-1.596,-6.488L0.012,-6.488L0.012,-5.229L0.047,-5.229C0.629,-6.186 1.479,-6.666 2.59,-6.666C3.551,-6.666 4.307,-6.33 4.859,-5.657C5.412,-4.985 5.686,-4.074 5.686,-2.925C5.686,-1.663 5.373,-0.651 4.75,0.111C4.127,0.87 3.289,1.251 2.242,1.251C1.285,1.251 0.553,0.853 0.047,0.056L0.012,0.056Z" style="fill:rgb(35,24,21);fill-rule:nonzero;"/>
            </g>
            <g transform="matrix(1.04116,0,0,1.04116,602.62,278.379)">
                <path d="M0,-1.475C-0.004,-2.122 -0.152,-2.62 -0.443,-2.965C-0.736,-3.312 -1.15,-3.485 -1.689,-3.485C-2.176,-3.485 -2.6,-3.301 -2.961,-2.935C-3.32,-2.568 -3.543,-2.081 -3.631,-1.475L0,-1.475ZM1.559,-0.305L-3.637,-0.305C-3.568,1.221 -2.793,1.984 -1.305,1.984C-0.467,1.984 0.297,1.733 0.984,1.232L0.984,2.559C0.311,3.001 -0.576,3.221 -1.676,3.221C-2.797,3.221 -3.672,2.88 -4.309,2.196C-4.939,1.512 -5.258,0.555 -5.258,-0.675C-5.258,-1.842 -4.916,-2.804 -4.236,-3.561C-3.555,-4.317 -2.701,-4.696 -1.676,-4.696C-0.654,-4.696 0.141,-4.372 0.707,-3.728C1.275,-3.083 1.559,-2.196 1.559,-1.065L1.559,-0.305Z" style="fill:rgb(35,24,21);fill-rule:nonzero;"/>
            </g>
            <g transform="matrix(1.04116,0,0,1.04116,502.735,257.448)">
                <path d="M99.154,15.585L100.761,15.585L100.761,23.147L99.154,23.147L99.154,15.585ZM98.998,12.987C98.998,12.718 99.09,12.496 99.275,12.321C99.461,12.144 99.693,12.059 99.977,12.059C100.254,12.059 100.49,12.144 100.68,12.321C100.871,12.496 100.969,12.718 100.969,12.987C100.969,13.256 100.871,13.477 100.68,13.654C100.49,13.829 100.254,13.917 99.977,13.917C99.697,13.917 99.465,13.828 99.279,13.65C99.092,13.473 98.998,13.252 98.998,12.987" style="fill:rgb(35,24,21);fill-rule:nonzero;"/>
            </g>
            <g transform="matrix(1.04116,0,0,1.04116,621.491,270.955)">
                <path d="M0,9.758C-0.783,10.153 -1.771,10.352 -2.961,10.352C-4.492,10.352 -5.719,9.87 -6.643,8.905C-7.564,7.942 -8.027,6.67 -8.027,5.088C-8.027,3.439 -7.516,2.078 -6.492,1.009C-5.469,-0.059 -4.148,-0.594 -2.537,-0.594C-1.52,-0.594 -0.674,-0.452 0,-0.171L0,1.491C-0.748,1.072 -1.574,0.862 -2.482,0.862C-3.635,0.862 -4.561,1.242 -5.258,2.001C-5.955,2.76 -6.305,3.752 -6.305,4.979C-6.305,6.15 -5.977,7.098 -5.322,7.822C-4.668,8.547 -3.791,8.909 -2.693,8.909C-1.672,8.909 -0.775,8.675 0,8.205L0,9.758Z" style="fill:rgb(35,24,21);fill-rule:nonzero;"/>
            </g>
            <g transform="matrix(1.04116,0,0,1.04116,502.735,257.448)">
                <path d="M115.898,15.585L117.505,15.585L117.505,23.147L115.898,23.147L115.898,15.585ZM115.742,12.987C115.742,12.718 115.834,12.496 116.02,12.321C116.203,12.144 116.438,12.059 116.719,12.059C116.998,12.059 117.232,12.144 117.424,12.321C117.615,12.496 117.711,12.718 117.711,12.987C117.711,13.256 117.615,13.477 117.424,13.654C117.232,13.829 116.998,13.917 116.719,13.917C116.441,13.917 116.209,13.828 116.023,13.65C115.836,13.473 115.742,13.252 115.742,12.987" style="fill:rgb(35,24,21);fill-rule:nonzero;"/>
            </g>
            <g transform="matrix(1.04116,0,0,1.04116,631.478,271.59)">
                <path d="M0,9.483C-0.297,9.651 -0.723,9.736 -1.277,9.736C-2.715,9.736 -3.432,8.956 -3.432,7.397L-3.432,3.275L-4.711,3.275L-4.711,2.003L-3.432,2.003L-3.432,0.232L-1.832,-0.253L-1.832,2.003L0,2.003L0,3.275L-1.832,3.275L-1.832,7.117C-1.832,7.587 -1.75,7.926 -1.584,8.136C-1.418,8.345 -1.148,8.45 -0.779,8.45C-0.492,8.45 -0.232,8.368 0,8.204L0,9.483Z" style="fill:rgb(35,24,21);fill-rule:nonzero;"/>
            </g>
            <g transform="matrix(1.04116,0,0,1.04116,639.748,285.249)">
                <path d="M0,-11.117L-3.328,-2.556C-3.99,-0.851 -4.945,0 -6.201,0C-6.609,0 -6.941,-0.043 -7.197,-0.13L-7.197,-1.483C-6.934,-1.365 -6.66,-1.305 -6.377,-1.305C-5.777,-1.305 -5.332,-1.64 -5.045,-2.311L-4.518,-3.569L-7.512,-11.117L-5.729,-11.117L-3.908,-5.722C-3.869,-5.608 -3.811,-5.367 -3.732,-4.997L-3.697,-4.997C-3.674,-5.143 -3.613,-5.381 -3.512,-5.709L-1.619,-11.117L0,-11.117Z" style="fill:rgb(35,24,21);fill-rule:nonzero;"/>
            </g>
            <g transform="matrix(1.04116,0,0,1.04116,653.338,271.269)">
                <path d="M0,9.155C-1.059,9.753 -2.277,10.05 -3.658,10.05C-5.24,10.05 -6.504,9.571 -7.453,8.608C-8.4,7.647 -8.873,6.352 -8.873,4.725C-8.873,3.08 -8.348,1.732 -7.299,0.68C-6.248,-0.369 -4.896,-0.895 -3.242,-0.895C-2.102,-0.895 -1.127,-0.72 -0.314,-0.368L-0.314,1.313C-1.148,0.798 -2.158,0.541 -3.344,0.541C-4.459,0.541 -5.375,0.918 -6.086,1.669C-6.795,2.422 -7.152,3.407 -7.152,4.629C-7.152,5.887 -6.824,6.869 -6.17,7.573C-5.516,8.277 -4.631,8.63 -3.514,8.63C-2.775,8.63 -2.152,8.492 -1.646,8.218L-1.646,5.566L-3.896,5.566L-3.896,4.172L0,4.172L0,9.155Z" style="fill:rgb(35,24,21);fill-rule:nonzero;"/>
            </g>
            <g transform="matrix(1.04116,0,0,1.04116,656.748,277.576)">
                <path d="M0,0.069C0,0.899 0.201,1.547 0.605,2.011C1.008,2.475 1.557,2.708 2.25,2.708C3.703,2.708 4.43,1.813 4.43,0.021C4.43,-0.845 4.244,-1.504 3.869,-1.958C3.496,-2.412 2.955,-2.639 2.25,-2.639C1.543,-2.639 0.99,-2.398 0.594,-1.913C0.197,-1.43 0,-0.769 0,0.069M-1.633,0.102C-1.633,-1.141 -1.279,-2.123 -0.572,-2.844C0.137,-3.564 1.102,-3.924 2.324,-3.924C3.479,-3.924 4.389,-3.576 5.059,-2.877C5.729,-2.18 6.064,-1.228 6.064,-0.02C6.064,1.196 5.711,2.17 5.004,2.899C4.297,3.629 3.354,3.993 2.174,3.993C1.016,3.993 0.092,3.64 -0.6,2.934C-1.289,2.227 -1.633,1.283 -1.633,0.102" style="fill:rgb(35,24,21);fill-rule:nonzero;"/>
            </g>
            <g transform="matrix(1.04116,0,0,1.04116,671.575,281.548)">
                <path d="M0,-7.562L-2.945,0L-4.649,0L-7.451,-7.562L-5.707,-7.562L-4.006,-2.359C-3.859,-1.913 -3.772,-1.527 -3.738,-1.203L-3.705,-1.203C-3.664,-1.578 -3.582,-1.951 -3.459,-2.326L-1.688,-7.562L0,-7.562Z" style="fill:rgb(35,24,21);fill-rule:nonzero;"/>
            </g>
            <g transform="matrix(1.04116,0,0,1.04116,677.684,278.379)">
                <path d="M0,-1.475C-0.006,-2.122 -0.154,-2.62 -0.445,-2.965C-0.736,-3.312 -1.15,-3.485 -1.689,-3.485C-2.178,-3.485 -2.602,-3.301 -2.961,-2.935C-3.32,-2.568 -3.545,-2.081 -3.631,-1.475L0,-1.475ZM1.557,-0.305L-3.639,-0.305C-3.568,1.221 -2.793,1.984 -1.307,1.984C-0.469,1.984 0.295,1.733 0.984,1.232L0.984,2.559C0.311,3.001 -0.578,3.221 -1.676,3.221C-2.797,3.221 -3.674,2.88 -4.309,2.196C-4.941,1.512 -5.258,0.555 -5.258,-0.675C-5.258,-1.842 -4.918,-2.804 -4.236,-3.561C-3.555,-4.317 -2.701,-4.696 -1.676,-4.696C-0.654,-4.696 0.139,-4.372 0.707,-3.728C1.275,-3.083 1.557,-2.196 1.557,-1.065L1.557,-0.305Z" style="fill:rgb(35,24,21);fill-rule:nonzero;"/>
            </g>
            <g transform="matrix(1.04116,0,0,1.04116,685.521,279.819)">
                <path d="M0,-4.37C-0.238,-4.525 -0.553,-4.602 -0.945,-4.602C-1.463,-4.602 -1.885,-4.374 -2.205,-3.919C-2.527,-3.462 -2.687,-2.858 -2.687,-2.106L-2.687,1.66L-4.295,1.66L-4.295,-5.901L-2.687,-5.901L-2.687,-4.397L-2.654,-4.397C-2.279,-5.486 -1.619,-6.03 -0.672,-6.03C-0.389,-6.03 -0.164,-5.999 0,-5.934L0,-4.37Z" style="fill:rgb(35,24,21);fill-rule:nonzero;"/>
            </g>
            <g transform="matrix(1.04116,0,0,1.04116,693.685,273.49)">
                <path d="M0,7.739L-1.6,7.739L-1.6,3.466C-1.6,2.012 -2.131,1.285 -3.188,1.285C-3.721,1.285 -4.162,1.487 -4.51,1.89C-4.857,2.295 -5.031,2.805 -5.031,3.425L-5.031,7.739L-6.639,7.739L-6.639,0.177L-5.031,0.177L-5.031,1.415L-4.998,1.415C-4.437,0.471 -3.617,0 -2.537,0C-0.846,0 0,1.039 0,3.118L0,7.739Z" style="fill:rgb(35,24,21);fill-rule:nonzero;"/>
            </g>
            <g transform="matrix(1.04116,0,0,1.04116,707.544,273.49)">
                <path d="M0,7.739L-1.605,7.739L-1.605,3.405C-1.605,2.658 -1.729,2.117 -1.969,1.785C-2.211,1.452 -2.596,1.285 -3.125,1.285C-3.58,1.285 -3.973,1.496 -4.299,1.915C-4.629,2.334 -4.793,2.846 -4.793,3.453L-4.793,7.739L-6.393,7.739L-6.393,3.295C-6.393,1.956 -6.904,1.285 -7.932,1.285C-8.404,1.285 -8.799,1.488 -9.109,1.893C-9.422,2.299 -9.578,2.824 -9.578,3.466L-9.578,7.739L-11.186,7.739L-11.186,0.177L-9.578,0.177L-9.578,1.368L-9.545,1.368C-9.002,0.457 -8.209,0 -7.164,0C-6.104,0 -5.387,0.504 -5.012,1.51C-4.445,0.504 -3.604,0 -2.482,0C-0.828,0 0,1.023 0,3.069L0,7.739Z" style="fill:rgb(35,24,21);fill-rule:nonzero;"/>
            </g>
            <g transform="matrix(1.04116,0,0,1.04116,714.726,278.379)">
                <path d="M0,-1.475C-0.006,-2.122 -0.152,-2.62 -0.443,-2.965C-0.736,-3.312 -1.15,-3.485 -1.689,-3.485C-2.176,-3.485 -2.602,-3.301 -2.961,-2.935C-3.32,-2.568 -3.545,-2.081 -3.631,-1.475L0,-1.475ZM1.559,-0.305L-3.637,-0.305C-3.568,1.221 -2.793,1.984 -1.307,1.984C-0.469,1.984 0.297,1.733 0.984,1.232L0.984,2.559C0.311,3.001 -0.576,3.221 -1.676,3.221C-2.797,3.221 -3.674,2.88 -4.309,2.196C-4.941,1.512 -5.258,0.555 -5.258,-0.675C-5.258,-1.842 -4.918,-2.804 -4.236,-3.561C-3.555,-4.317 -2.701,-4.696 -1.676,-4.696C-0.654,-4.696 0.141,-4.372 0.707,-3.728C1.275,-3.083 1.559,-2.196 1.559,-1.065L1.559,-0.305Z" style="fill:rgb(35,24,21);fill-rule:nonzero;"/>
            </g>
            <g transform="matrix(1.04116,0,0,1.04116,725.004,273.49)">
                <path d="M0,7.739L-1.6,7.739L-1.6,3.466C-1.6,2.012 -2.129,1.285 -3.186,1.285C-3.719,1.285 -4.16,1.487 -4.508,1.89C-4.857,2.295 -5.029,2.805 -5.029,3.425L-5.029,7.739L-6.637,7.739L-6.637,0.177L-5.029,0.177L-5.029,1.415L-4.996,1.415C-4.436,0.471 -3.617,0 -2.535,0C-0.846,0 0,1.039 0,3.118L0,7.739Z" style="fill:rgb(35,24,21);fill-rule:nonzero;"/>
            </g>
            <g transform="matrix(1.04116,0,0,1.04116,731.261,271.59)">
                <path d="M0,9.483C-0.297,9.651 -0.723,9.736 -1.277,9.736C-2.715,9.736 -3.432,8.956 -3.432,7.397L-3.432,3.275L-4.711,3.275L-4.711,2.003L-3.432,2.003L-3.432,0.232L-1.832,-0.253L-1.832,2.003L0,2.003L0,3.275L-1.832,3.275L-1.832,7.117C-1.832,7.587 -1.75,7.926 -1.582,8.136C-1.416,8.345 -1.148,8.45 -0.779,8.45C-0.492,8.45 -0.23,8.368 0,8.204L0,9.483Z" style="fill:rgb(35,24,21);fill-rule:nonzero;"/>
            </g>
        </g>
    </g>
    <defs>
        <linearGradient id="_Linear1" x1="0" y1="0" x2="1" y2="0" gradientUnits="userSpaceOnUse" gradientTransform="matrix(1,0,0,-1,0,0.160277)"><stop offset="0" style="stop-color:rgb(228,0,127);stop-opacity:1"/><stop offset="0.71" style="stop-color:rgb(255,173,0);stop-opacity:1"/><stop offset="1" style="stop-color:rgb(255,173,0);stop-opacity:1"/></linearGradient>
        <linearGradient id="_Linear2" x1="0" y1="0" x2="1" y2="0" gradientUnits="userSpaceOnUse" gradientTransform="matrix(1,0,0,-1,0,-1.97454e-05)"><stop offset="0" style="stop-color:rgb(0,167,255);stop-opacity:1"/><stop offset="1" style="stop-color:rgb(19,174,103);stop-opacity:1"/></linearGradient>
    </defs>
</svg>
