<?xml version="1.0" encoding="UTF-8" standalone="no"?><!DOCTYPE svg PUBLIC "-//W3C//DTD SVG 1.1//EN" "http://www.w3.org/Graphics/SVG/1.1/DTD/svg11.dtd"><svg width="100%" height="100%" viewBox="0 0 1024 1024" version="1.1" xmlns="http://www.w3.org/2000/svg" xmlns:xlink="http://www.w3.org/1999/xlink" xml:space="preserve" xmlns:serif="http://www.serif.com/" style="fill-rule:evenodd;clip-rule:evenodd;stroke-linejoin:round;stroke-miterlimit:2;"><path d="M635.578,599.264C633.567,599.353 631.955,599.365 630.355,599.506C627.992,599.715 625.635,599.989 623.282,600.281C618.74,600.843 617.487,598.939 616.554,594.663C616.361,593.777 616.875,593.239 617.7,593.05C618.5,592.867 619.319,592.766 620.13,592.64C623.79,592.067 627.454,591.514 631.109,590.914C631.832,590.796 632.539,590.541 633.232,590.285C634.517,589.81 635.787,589.288 637.49,588.619L638.781,579.557C636.035,578.724 633.404,579.124 630.808,579.262C628.891,579.362 626.989,579.756 625.079,580.005C622.809,580.3 621.214,579.357 620.493,577.205C620.161,576.21 619.914,575.172 619.76,574.134C619.435,571.954 620.322,570.793 622.483,570.717C625.428,570.614 628.376,570.653 631.323,570.627C631.57,570.626 631.821,570.626 632.064,570.589C634.744,570.178 637.421,569.761 640.157,569.336L643.045,560.273C638.2,560.545 633.576,561.341 628.924,562.12C627.047,561.141 626.51,559.264 626.101,557.448C625.702,555.685 626.826,554.501 628.268,553.657C631.376,551.837 634.798,550.978 638.312,550.403C642.234,549.762 646.207,549.502 650.116,550.067C653.853,550.607 656.365,552.961 654.943,556.872C654.077,559.258 653.165,561.628 652.22,563.984C650.354,568.633 649.186,573.437 648.624,578.424C647.992,584.04 647.25,589.651 646.363,595.233C645.143,602.902 643.682,610.533 642.433,618.198C641.073,626.546 638.914,634.667 635.974,642.595C634.079,647.707 631.5,652.465 628.775,657.168C622.81,667.467 615.49,676.753 607.391,685.407C602.854,690.257 597.984,694.812 593.065,699.282C590.225,701.864 587.01,704.039 583.925,706.345C577.671,711.025 571.391,715.673 565.119,720.329C562.689,722.133 560.297,723.993 557.795,725.691C556.798,726.368 555.589,726.902 554.408,727.104C552.629,727.408 551.064,726.876 549.877,725.277C548.865,723.915 547.502,722.816 546.443,721.483C545.486,720.278 544.47,719.012 543.933,717.6C542.324,713.377 540.96,709.059 539.455,704.794C538.554,702.243 538.398,699.486 538.914,697.024C539.554,693.973 541.299,691.314 544.86,690.463C551.53,688.871 557.76,686.039 564.039,683.359C568.042,681.65 572.006,679.834 576.063,678.262C581.391,676.196 586.328,673.447 590.874,670.033C596.193,666.038 601.557,662.075 606.603,657.751C615.532,650.104 622.58,641.014 626.838,629.905C630.394,620.631 633.025,611.107 635,601.386C635.113,600.836 635.294,600.299 635.578,599.264ZM626.138,477.147C620.138,478.092 614.54,478.902 608.97,479.869C601.575,481.153 594.196,482.54 586.819,483.927C585.263,484.22 583.66,484.123 582.159,484.999C581.038,485.654 580.004,484.994 579.397,483.771C578.002,480.957 578.42,479.709 581.243,478.257C587.558,475.01 594.243,472.725 601.013,470.668C608.251,468.468 615.653,466.976 623.086,465.623C624.031,465.45 624.991,465.363 625.939,465.203C627.082,465.009 627.775,464.487 627.877,463.161C628.346,457.016 628.919,450.877 629.414,444.734C629.612,442.277 629.695,439.811 629.843,437.35C629.987,434.967 630.801,434.335 633.281,434.34C636.539,434.347 637.164,435.373 637.654,437.928C638.144,440.492 638.336,443.121 638.533,445.73C638.94,451.111 639.261,456.498 639.623,461.882C639.699,463.02 640.25,463.44 641.703,463.356C644.241,463.209 646.774,462.895 649.312,462.854C654.575,462.772 659.841,462.762 665.105,462.841C668.632,462.893 672.173,462.998 675.682,463.343C682.725,464.035 689.517,465.865 696.114,468.4C697.869,469.074 699.556,469.922 701.274,470.694C701.423,470.761 701.585,470.824 701.704,470.932C702.308,471.484 702.965,471.971 702.706,473.001C702.474,473.922 701.846,474.091 701.065,474.189C696.912,474.705 692.772,475.351 688.608,475.732C684.459,476.112 680.286,476.429 676.125,476.413C671.283,476.393 666.443,475.982 661.602,475.74C661.19,475.72 660.777,475.681 660.367,475.691C656.038,475.789 651.708,475.916 647.379,475.993C644.94,476.037 642.5,476.002 639.834,476.002L638.473,490.94C640.759,490.94 642.822,491.15 644.822,490.886C647.248,490.567 649.164,491.141 650.72,493.18C651.033,497.961 647.735,502.155 642.86,502.936C641.084,503.22 639.282,503.647 637.513,503.565C636.214,503.504 635.796,503.942 635.349,504.971C633.942,508.205 632.543,511.451 630.944,514.591C629.603,517.224 627.983,519.713 626.492,522.269C626.131,522.889 625.794,523.523 625.174,524.641C629.762,524.238 633.878,523.916 637.986,523.508C645.787,522.734 653.569,521.732 661.382,521.165C667.592,520.716 673.841,520.836 680.069,520.587C683.657,520.444 687.234,519.989 690.821,519.827C694.497,519.661 698.182,519.717 701.86,519.606C703.905,519.545 705.947,519.349 707.989,519.2C708.396,519.171 708.911,519.219 709.186,518.997C711.224,517.347 713.76,517.868 716.055,517.449C717.535,517.18 719.146,517.531 720.681,517.736C721.078,517.789 721.407,518.337 721.77,518.655C722.128,518.968 722.448,519.357 722.858,519.575C724.503,520.448 724.951,520.966 724.557,522.571C724.04,524.683 723.75,526.861 722.032,528.59C720.936,529.694 720.383,531.334 719.571,532.726C718.884,533.904 717.932,534.79 716.564,535.056C716.037,535.16 715.28,535.232 714.94,534.946C712.915,533.25 710.36,533.186 708.003,532.735C702.776,531.736 697.508,530.888 692.222,530.276C688.059,529.793 683.846,529.725 679.652,529.529C674.739,529.299 669.824,529.038 664.906,528.958C657.788,528.841 650.708,529.473 643.647,530.346C638.271,531.011 632.881,531.561 627.506,532.232C625.473,532.485 623.434,532.815 621.45,533.317C616.187,534.649 610.921,535.989 605.715,537.524C601.232,538.846 596.842,540.478 592.388,541.906C585.28,544.186 578.382,547.289 570.877,548.075C567.06,548.474 563.107,548.747 559.343,548.201C553.585,547.364 550.903,543.417 550.156,538.086C550.074,537.494 550.541,536.339 550.917,536.264C551.9,536.068 552.984,536.265 554.007,536.433C554.356,536.491 554.684,536.893 554.952,537.199C556.85,539.375 559.407,539.601 561.966,539.319C568.31,538.621 574.251,536.431 580.18,534.183C588.264,531.119 596.48,528.564 605.145,527.598C610.211,527.033 615.227,526.017 620.474,525.17L622.163,507.922C619.819,507.723 617.87,508.293 615.888,508.708C613.917,509.121 611.912,509.375 609.923,509.704C608.697,509.907 607.915,509.222 607.188,508.381C605.237,506.126 605.502,503.064 608.094,501.673C611.852,499.656 615.722,497.786 620.108,497.498C622.61,497.334 623.764,496.259 624.043,493.752C624.563,489.102 625.044,484.447 625.567,479.796C625.647,479.081 625.866,478.381 626.138,477.147ZM445.936,293.255C445.442,293.801 445.046,294.52 444.437,294.866C440.187,297.284 436.475,300.403 432.896,303.678C425.728,310.242 420.332,318.22 415.107,326.318C410.463,333.514 406.575,341.133 402.53,348.672C397.156,358.685 391.137,368.303 383.796,377.042C381.261,380.059 378.754,383.074 375.756,385.665C369.482,391.088 362.62,395.452 354.823,398.429C347.741,401.133 340.629,403.657 333.174,405.098C329.448,405.818 325.707,405.985 322.04,404.758C320.677,404.302 319.081,404.043 318.771,402.055C319.058,401.853 319.352,401.559 319.706,401.41C323.302,399.897 325.943,397.123 328.618,394.469C336.663,386.485 344.379,378.158 353.117,370.901C356.845,367.806 360.784,364.965 364.502,361.859C368.977,358.119 373.328,354.229 377.717,350.387C385.611,343.474 391.692,334.946 398.481,327.048C401.64,323.372 404.604,319.52 407.901,315.975C411.925,311.647 416.022,307.355 420.424,303.425C424.652,299.652 429.554,296.804 434.897,294.737C437.762,293.627 440.661,292.82 443.705,292.519C444.313,292.459 444.931,292.511 445.543,292.511L445.936,293.255ZM402.61,473.566C405.784,472.469 408.523,471.635 411.172,470.579C414.822,469.124 418.597,468.584 422.49,468.496C423.861,468.465 425.224,468.132 426.595,467.937C426.817,466.979 426.847,466.116 427.209,465.428C428.394,463.172 429.763,461.305 432.878,461.6C435.216,461.822 437.61,461.359 439.98,461.352C442.015,461.347 444.076,461.409 446.074,461.745C446.911,461.885 447.811,462.67 448.336,463.408C449.125,464.514 449.944,465.349 451.274,465.819C453.209,466.501 453.702,467.156 453.43,469.162C453.158,471.166 452.554,473.142 451.927,475.076C451.552,476.232 450.965,477.362 450.269,478.36C449.505,479.456 448.271,480.268 447.674,481.427C447.096,482.548 447.03,483.89 446,484.869C445.184,485.646 444.59,486.656 443.893,487.557C442.415,489.465 440.88,491.237 438.235,491.556C436.936,491.713 436.037,491.343 435.25,490.341C434.239,489.051 433.057,487.89 432.107,486.56C431.36,485.513 430.698,484.348 430.277,483.138C429.496,480.896 428.867,478.596 428.278,476.294C427.85,474.623 426.742,473.912 425.179,473.525C422.881,472.956 420.822,473.328 418.825,474.596C415.877,476.469 413.406,478.769 411.284,481.576C408.511,485.242 405.654,488.894 402.438,492.162C400.169,494.468 397.399,496.526 393.795,496.302C392.885,496.245 391.692,495.94 391.167,495.304C388.937,492.605 386.306,490.094 386.037,486.236C385.978,485.373 385.483,484.536 385.167,483.695C383.316,478.767 383.572,473.901 385.453,469.031C388.116,462.137 390.577,455.164 393.361,448.32C395.806,442.31 398.581,436.433 401.203,430.495C402.134,428.385 403.038,426.263 403.97,424.154C404.672,422.565 405.351,422.137 407,422.183C408.507,422.226 409.359,422.903 409.324,424.442C409.283,426.218 408.948,427.986 408.74,429.758C412.266,427.877 417.096,428.23 419.962,430.677C419.716,431.042 419.532,431.507 419.193,431.79C417.236,433.426 415.28,435.067 413.247,436.607C412.174,437.421 411.142,437.211 410.298,436.034C409.74,435.256 409.399,434.313 409.024,433.417C408.827,432.947 408.766,432.42 408.264,431.942L405.437,445.55C407.056,444.721 408.2,444.115 409.36,443.548C411.172,442.663 413.074,442.261 415.106,442.415C417.637,442.608 420.173,442.787 422.71,442.829C423.201,442.837 423.925,442.301 424.166,441.826C426.985,436.249 429.493,430.513 430.652,424.358C431.14,421.768 432.015,419.093 431.284,416.361C431.244,416.21 431.138,416.077 431.066,415.942C429.433,415.187 427.776,415.062 426.018,415.49C424.836,415.778 423.595,415.936 422.38,415.946C419.983,415.965 417.953,416.879 416.003,418.152C414.287,419.272 413.773,419.071 412.31,417.595C410.742,416.015 410.646,413.874 410.001,411.977C408.979,408.97 410.307,406.47 412.665,404.671C414,403.653 415.642,402.791 417.27,402.448C421.959,401.46 426.745,401.462 431.477,402.127C435.027,402.625 437.168,404.932 437.61,408.484C437.798,409.995 437.566,411.561 437.493,413.101C437.462,413.754 437.318,414.4 437.28,415.052C436.895,421.68 435.546,428.083 432.742,434.129C431.035,437.805 428.709,441.041 425.962,444.05C424.396,445.764 423.137,447.779 421.46,449.43C420.172,450.701 418.894,451.983 417.618,453.265C414.931,455.965 411.427,456.946 407.874,457.638C406.763,457.854 405.484,457.212 404.049,456.913L402.61,473.566ZM570.479,372.72C566.889,371.798 563.603,370.756 560.237,370.152C557.502,369.661 554.671,369.699 551.884,369.494C548.361,369.234 544.837,368.728 541.317,368.757C536.992,368.793 532.638,368.87 528.367,369.795C521.869,371.204 515.32,372.405 508.883,374.05C503.875,375.33 498.997,377.123 494.079,378.745C491.192,379.697 488.352,380.796 485.467,381.759C484.163,382.193 483.478,382.844 483.287,384.34C482.998,386.612 482.27,388.762 480.715,390.623C479.591,391.967 478.858,393.634 477.887,395.116C477.49,395.722 477.008,396.336 476.424,396.744C474.626,397.999 474.178,397.741 472.513,396.189C468.899,392.817 467.858,388.398 467.314,383.824C466.904,380.369 468.895,377.518 470.362,374.607C472.338,370.689 475.632,367.897 478.965,365.201C479.677,364.625 480.755,364.395 481.703,364.242C483.238,363.996 484.803,363.88 486.358,363.851C486.852,363.842 487.39,364.232 487.845,364.533C488.452,364.933 488.998,365.425 489.64,365.934C490.434,368.774 488.255,370.902 487.249,373.733C488.768,373.439 489.979,373.288 491.143,372.966C499.222,370.734 507.418,369.06 515.67,367.604C520.439,366.762 525.141,365.548 529.901,364.642C533.003,364.052 536.155,363.72 539.282,363.265C547.996,362 556.709,360.737 565.42,359.46C567.916,359.094 570.407,358.704 572.894,358.284C573.451,358.19 574.171,358.087 574.483,357.71C575.7,356.246 577.348,356.232 578.985,356.164C582.296,356.025 585.607,355.491 588.919,356.127C589.394,356.219 589.954,356.264 590.306,356.543C593.052,358.721 596.198,360.431 598.441,363.201C599.593,364.625 599.727,366.487 599.488,368.15C598.978,371.709 597.99,375.078 595.8,378.147C594.656,379.75 593.724,381.6 592.61,383.298C590.209,386.959 587.001,389.733 583.272,391.884C581.272,393.037 579.195,393.157 576.989,391.789C574.919,390.504 572.563,389.656 570.289,388.725C568.438,387.967 567.865,386.444 568.09,384.762C568.49,381.779 569.187,378.836 569.773,375.88C569.963,374.925 570.197,373.979 570.479,372.72ZM501.617,580.025C502.533,580.695 503.105,581.103 503.668,581.525C506.029,583.29 508.534,584.897 510.701,586.876C512.538,588.554 512.907,590.858 512.584,593.419C511.757,600.012 508.069,605.147 504.304,610.229C499.753,616.372 495.038,622.394 490.389,628.464C485.37,635.017 481.322,642.166 477.488,649.448C474.462,655.193 471.489,660.968 468.37,666.662C466.31,670.419 463.529,673.692 460.725,676.906C459.851,677.908 458.518,678.583 457.285,679.179C455.797,679.9 454.402,679.403 453.456,678.066C453.219,677.731 453.111,677.278 452.821,677.012C448.617,673.127 448.369,667.673 447.24,662.629C446.193,657.949 448.291,655.223 452.364,653.407C456.161,651.716 459.456,649.384 462.664,646.792C469.141,641.559 475.097,635.794 480.852,629.79C483.751,626.765 486.872,623.95 489.928,621.077C494.026,617.223 497.622,612.944 500.584,608.175C502.441,605.185 504.047,602.035 505.679,598.912C506.125,598.061 506.167,597.007 506.554,596.115C507.647,593.601 506.719,591.806 504.622,590.429C503.178,589.482 501.743,588.474 500.181,587.76C496.144,585.915 495.06,582.364 494.88,578.469C494.828,577.357 495.793,575.979 496.665,575.085C499.883,571.78 503.651,569.132 507.607,566.788C509.846,565.46 512.217,565.001 514.461,567.069C514.568,569.451 513.581,571.111 511.521,572.312C508.032,574.346 505.058,577.055 501.617,580.025ZM298.731,586.075C292.937,585.761 291.335,585.438 291.122,580.814C292.074,580.622 293.073,580.386 294.083,580.227C297.972,579.613 301.879,579.102 305.75,578.396C307.992,577.987 308.864,577.948 310.691,578.963C311.681,581.315 310.244,583.287 309.504,585.282C307.249,591.362 304.798,597.37 302.405,603.398C302.267,603.743 301.97,604.025 301.497,604.685C300.132,601.863 301.484,599.314 301.22,596.652C300.77,596.873 300.316,596.989 300.011,597.267C298.861,598.319 297.691,599.362 296.653,600.519C293.973,603.511 290.552,603.839 286.929,603.245C283.911,602.751 281.152,601.769 278.778,599.557C276.748,597.667 275.801,595.283 274.572,592.979C271.722,587.638 272.396,582.115 273.933,576.671C275.711,570.369 279.099,564.995 284.257,560.836C285.665,559.7 287.048,558.532 288.493,557.444C292.158,554.684 296.479,554.03 300.862,554.023C304.611,554.016 307.425,557.795 306.756,561.606C306.312,564.139 305.067,566.382 303.694,568.512C302.747,569.981 301.799,570.013 300.447,568.839C299.899,568.363 299.362,567.829 298.975,567.222C298.314,566.191 297.509,566.025 296.453,566.502C291.846,568.583 287.986,571.651 285.419,575.977C283.341,579.48 282.955,583.43 284.107,587.432C284.628,589.238 285.8,590.354 287.593,590.906C289.907,591.62 292.07,591.757 294.038,589.955C295.465,588.65 297.018,587.482 298.731,586.075ZM343.686,563.419C342.011,562.338 342.011,562.338 342.078,560.156C341.16,560.393 340.282,560.513 339.49,560.842C335.898,562.335 333.171,564.916 330.813,567.933C330.614,568.188 330.414,568.486 330.345,568.793C328.939,575.043 327.301,581.277 328.672,587.768C329.062,589.615 329.397,591.521 331.528,592.414C334.904,590.02 337.589,586.961 340.524,583.401C339.046,583.519 338.042,583.638 337.037,583.671C334.823,583.742 333.606,582.884 332.952,580.854C332.514,579.495 332.724,579.066 334.057,578.679C337.51,577.675 340.976,576.714 344.416,575.666C346.451,575.046 348.409,574.141 350.469,573.636C353.485,572.895 354.914,574.574 353.925,577.6C352.578,581.723 351.247,585.856 349.724,589.916C347.969,594.597 346.028,599.208 344.129,603.834C343.766,604.72 343.227,605.532 342.75,606.414C341.191,605.812 341.547,604.807 341.714,603.718C342.23,600.333 342.632,596.929 342.722,593.347L341.387,594.927C339.258,597.44 337.101,599.892 334.029,601.358C331.036,602.786 327.689,603.219 324.549,600.102C320.498,596.081 318.386,591.183 318.275,585.562C318.155,579.451 319.618,573.526 321.5,567.769C322.698,564.1 325.295,561.276 328.44,559.004C331.628,556.701 335.13,555.194 339.033,554.599C341.063,554.29 342.961,554.714 344.762,555.531C345.868,556.034 346.429,556.912 346.211,558.321C345.909,560.275 345.142,561.904 343.686,563.419ZM533.824,471.539C530.914,471.728 528.39,471.887 525.866,472.056C524.741,472.132 523.502,472.635 522.628,471.538C521.591,470.237 520.701,468.75 520.957,467.04C521.187,465.501 522.547,464.767 523.904,464.34C527.997,463.055 532.179,462.547 536.492,462.717C539.032,462.817 541.087,463.734 543.016,465.218C544.335,466.232 544.868,467.428 544.859,469.205C544.829,474.303 542.683,478.572 540.135,482.742C539.632,483.566 539.105,484.376 538.54,485.272C540.969,485.272 543.217,485.404 545.444,485.239C548.185,485.034 550.751,487.761 549.925,490.353C549.053,493.092 547.475,495.477 545.673,497.699C544.746,498.842 543.372,499.215 542.09,498.752C539.297,497.745 536.42,497.8 533.564,497.846C528.744,497.923 523.93,498.227 519.111,498.392C516.811,498.47 514.507,498.46 512.205,498.465C509.33,498.47 508.48,496.058 508.549,494.157C508.568,493.646 509.355,492.896 509.93,492.723C511.776,492.167 513.037,491.165 513.764,489.328C514.789,486.736 517.374,486.152 519.599,485.168C523.917,483.259 528.023,481.043 530.897,477.139C532.033,475.594 533.398,474.13 533.824,471.539ZM497.497,493.715C495.724,493.514 495.246,492.072 494.862,490.8C494.249,488.772 493.813,486.679 493.463,484.586C492.46,478.598 492.17,472.55 492.283,466.489C492.427,458.761 493.912,451.243 495.839,443.777C497.644,436.785 500.669,430.384 504.311,424.191C505.966,421.376 507.307,418.334 508.45,415.268C510.419,409.987 512.972,409.62 518.333,409.877C520.418,409.976 520.899,411.475 519.652,413.193C519.171,413.856 518.71,414.679 518.033,415.029C516.299,415.925 515.802,417.494 515.189,419.14C513.537,423.588 511.808,428.01 510.006,432.399C508.307,436.537 507.421,440.882 506.671,445.244C505.019,454.846 503.98,464.555 501.529,474.018C500.425,478.277 499.351,482.548 498.421,486.846C497.94,489.068 497.802,491.363 497.497,493.715ZM521.353,450.52C521.837,448.93 522.127,447.477 522.711,446.153C524.037,443.149 526.705,441.406 529.325,439.717C531.775,438.139 534.071,436.414 535.707,433.99C536.758,432.431 537.633,430.743 538.468,429.056C538.777,428.431 538.749,427.64 538.878,426.902C536.912,425.815 534.908,426.009 532.957,426.014C531.731,426.017 530.507,426.252 529.281,426.361C527.468,426.52 526.394,425.796 525.754,424.013C525.698,423.858 525.627,423.708 525.576,423.552C524.459,420.001 525.353,418.253 528.937,416.977C533.485,415.357 538.176,414.869 542.916,415.628C546.501,416.203 551.427,420.065 550.847,425.569C550.298,430.803 548.617,435.418 545.756,439.723C543.687,442.837 541.384,445.723 537.921,447.371C536.525,448.035 535.03,448.525 533.539,448.949C531.013,449.667 528.452,450.259 525.911,450.925C524.921,451.184 524.026,451.279 523.117,450.56C522.797,450.309 522.112,450.52 521.353,450.52ZM371.653,581.58C370.139,581.801 368.937,582.041 367.722,582.144C364.278,582.435 362.931,581.54 361.805,578.279C361.563,577.58 361.347,576.868 361.182,576.148C360.623,573.699 361.215,572.752 363.641,572.381C367.461,571.796 371.29,571.274 375.115,570.725C375.52,570.667 375.923,570.596 376.29,570.537C378.165,567.911 378.931,564.435 382.524,562.952C383.106,565.653 380.898,567.633 381.154,570.086C384.585,570.32 388.139,569.849 391.324,572.524C390.627,573.447 390.042,574.392 389.294,575.182C386.683,577.942 383.278,579.163 379.651,579.703C378.069,579.939 377.397,580.612 377.019,582.08C376.306,584.846 375.168,587.515 375.235,590.443C375.249,591.071 375.341,591.698 375.444,592.841C376.645,591.935 377.542,591.304 378.389,590.61C380.242,589.093 382.051,587.572 384.623,587.368C386.563,587.215 387.59,588.118 387.124,590.002C386.835,591.163 386.374,592.328 385.763,593.356C383.93,596.44 381.412,598.854 378.393,600.82C374.491,603.361 372.012,602.964 369.916,597.817C368.084,593.318 368.555,588.841 370.611,584.484C370.995,583.671 371.226,582.787 371.653,581.58ZM429.18,326.268C430.227,325.255 431.424,325.332 432.543,325.46C435.302,325.776 438.039,326.454 440.799,326.539C444.616,326.656 448.445,326.377 452.267,326.231C453.085,326.2 453.937,326.137 454.701,325.878C458.001,324.763 460.723,326.085 463.438,327.723C464.961,328.641 465.849,330.002 466.307,331.59C466.921,333.719 467.471,335.897 467.725,338.092C468.08,341.171 468.218,344.284 468.292,347.386C468.335,349.201 467.628,349.524 465.994,348.67C464.465,347.871 462.971,346.998 461.411,346.263C460.457,345.814 459.428,345.488 458.401,345.241C456.545,344.795 454.873,344.095 453.33,342.9C451.919,341.807 450.271,341.011 448.7,340.134C445.259,338.213 441.73,336.438 438.369,334.387C435.851,332.849 433.515,331.004 431.147,329.231C430.157,328.489 429.415,327.508 429.18,326.268ZM597.124,557.287C600.986,556.941 602.971,559.374 605.228,561.215C606.768,562.473 607.502,564.21 607.553,566.206C607.615,568.577 607.679,570.946 607.707,573.316C607.733,575.524 607.799,577.736 607.689,579.937C607.508,583.559 606.884,586.982 604.719,590.154C603.698,591.65 602.724,593.283 601.724,594.841C600.222,597.182 598.536,597.227 596.57,595.305C593.044,591.858 592.217,587.373 591.736,582.777C591.657,582.02 592.08,581.195 592.333,580.423C593.557,576.684 594.787,572.948 596.049,569.224C596.481,567.948 596.22,566.945 595.514,565.765C594.598,564.235 593.953,562.493 593.478,560.763C592.921,558.735 593.987,557.475 596.116,557.294C596.607,557.251 597.105,557.287 597.124,557.287ZM530.76,344.872C529.41,343.346 529.339,341.891 529.434,340.396C529.516,339.086 529.59,337.775 529.693,336.466C529.792,335.191 529.46,334.122 528.746,333.003C527.887,331.655 527.349,330.087 526.786,328.571C526.044,326.577 525.327,324.565 524.776,322.514C524.507,321.514 524.461,320.379 524.621,319.355C524.991,317.002 526.279,316.004 528.643,315.932C531.232,315.853 533.821,315.701 536.41,315.679C539.026,315.657 541.386,316.381 543.338,318.26C544.032,318.927 544.901,319.428 545.736,319.928C547.376,320.91 547.884,321.929 547.638,323.746C547.027,328.246 544.986,332.138 542.524,335.849C541.799,336.941 541.104,338.074 540.235,339.045C537.664,341.916 534.425,343.709 530.76,344.872ZM451.866,591.193C451.615,593.335 450.409,594.908 449.095,596.346C448.47,597.03 447.514,597.605 446.613,597.804C444.304,598.314 441.948,598.855 439.602,598.896C435.156,598.976 431.086,597.717 428.436,593.844C426.688,591.29 425.977,588.434 426.575,585.214C427.808,578.582 432.025,574.953 438.177,573.186C439.82,572.714 441.555,572.386 443.258,572.336C447.505,572.212 449.482,575.646 447.347,579.346C445.668,582.254 443.392,584.602 440.294,586.008C438.078,587.013 435.805,587.892 433.377,588.904C435.258,590.971 437.54,591.233 439.924,590.888C441.199,590.704 442.415,590.138 443.677,589.827C444.854,589.537 446.059,589.358 447.252,589.131C449.303,588.739 450.729,589.684 451.866,591.193ZM433.982,581.805C437.419,581.136 440.56,579.908 442.894,577.155C439.292,577.511 436.558,579.51 433.982,581.805ZM401.921,592.101C402.899,594.125 404.01,594.978 406.017,594.563C408.711,594.008 411.511,593.669 413.573,591.371C414.945,589.843 419.477,590.546 420.609,592.314C420.83,592.66 420.806,593.258 420.707,593.699C420.242,595.771 418.963,597.388 417.519,598.846C417.168,599.201 416.406,599.234 415.827,599.26C414.714,599.309 413.557,599.054 412.489,599.27C410.052,599.763 407.646,600.189 405.14,599.886C401.896,599.496 399.623,597.74 398.394,594.842C396.859,591.22 397.078,587.491 398.485,583.843C399.076,582.311 399.623,580.735 400.434,579.32C403.179,574.532 408.135,571.745 414.468,572.884C415.472,573.065 416.448,573.689 417.312,574.288C418.277,574.956 418.751,575.811 418.534,577.21C418.223,579.22 417.588,580.949 416.378,582.595C414.312,585.406 412.273,588.265 409.012,589.737C406.796,590.736 404.383,591.299 401.921,592.101ZM412.174,578.013C407.669,577.778 404.408,580.011 403.163,584.219C406.892,583.076 409.865,581.184 412.174,578.013ZM467.341,576.535C469.275,575.827 470.92,574.962 472.664,574.652C474.74,574.282 476.906,574.24 479.02,574.336C480.789,574.417 482.034,576.214 482.001,578.23C481.978,579.544 481.864,580.856 481.795,582.17C481.676,584.471 481.704,586.714 482.421,588.989C482.772,590.101 482.538,591.706 481.953,592.739C480.633,595.073 479.046,597.285 477.343,599.362C476.078,600.904 475.328,600.695 473.827,599.143C471.32,596.553 470.843,593.225 470.554,589.898C470.473,588.969 471.046,587.763 471.705,587.032C474.121,584.348 475.324,581.05 477.049,577.601C473.37,577.852 470.559,579.275 468.113,581.401C466.577,582.737 465.297,584.318 464.655,586.365C464.191,587.85 463.328,589.159 461.93,590.157C459.881,589.081 459.674,587.137 459.803,585.325C459.957,583.141 460.513,580.977 461,578.828C461.397,577.079 461.933,575.36 462.435,573.636C463.02,571.625 464.045,570.991 466.111,571.318C467.395,571.522 468.02,572.704 467.807,574.64C467.746,575.189 467.545,575.724 467.341,576.535ZM422.548,382.026C422.328,381.18 421.939,380.278 421.891,379.36C421.821,377.998 421.209,377.151 420.176,376.3C417.695,374.254 415.631,371.879 414.627,368.682C413.807,366.074 414.404,364.472 417.01,363.889C419.233,363.392 421.526,362.914 423.782,362.945C426.428,362.981 428.616,364.57 430.173,366.576C431.426,368.192 430.631,370.316 430.119,372.059C429.218,375.126 427.657,377.937 425.749,380.531C425.023,381.519 424.138,382.138 422.548,382.026Z" style="fill:rgb(5,2,2);"/></svg>