<?xml version="1.0" encoding="UTF-8" standalone="no"?>
<!DOCTYPE svg PUBLIC "-//W3C//DTD SVG 1.1//EN" "http://www.w3.org/Graphics/SVG/1.1/DTD/svg11.dtd">
<svg width="100%" height="100%" viewBox="0 0 400 400" version="1.1" xmlns="http://www.w3.org/2000/svg" xmlns:xlink="http://www.w3.org/1999/xlink" xml:space="preserve" xmlns:serif="http://www.serif.com/" style="fill-rule:evenodd;clip-rule:evenodd;stroke-linejoin:round;stroke-miterlimit:2;">
    <rect id="IIAS_logo_400x400" x="0" y="0" width="400" height="400" style="fill:none;"/>
    <g id="IIAS_logo_400x4001" serif:id="IIAS_logo_400x400">
        <g id="資訊法中心-Icon" serif:id="資訊法中心 Icon" transform="matrix(0.161142,0,0,0.161142,-25.3975,-2393.95)">
            <g transform="matrix(4.16667,0,0,4.16667,1651.64,16050.5)">
                <path d="M0,26.182C-0.291,29.482 -0.867,32.507 -1.729,35.257C-2.59,38.007 -3.42,39.724 -4.219,40.409C-5.018,41.094 -5.936,41.436 -6.973,41.436C-8.241,41.436 -9.335,40.954 -10.259,39.989C-11.183,39.024 -12.064,36.175 -12.905,31.443C-13.746,26.711 -14.166,22.457 -14.166,18.679L-14.166,-7.907L-22.789,-7.907L-22.789,9.277L-15.21,7.086L-15.21,12.597L-22.789,14.788L-22.789,25.407L-28.268,25.407L-28.268,16.248L-34.183,17.709L-34.183,12.199L-28.268,10.738L-28.268,-7.907L-33.436,-7.907L-33.436,-13.262L-8.686,-13.262L-8.686,19.956C-8.686,24.895 -8.002,29.669 -6.631,34.276C-5.844,31.371 -5.335,27.635 -5.106,23.069L0,26.182ZM-42.526,24.283L-49.219,24.283L-49.219,34.338L-42.526,34.338L-42.526,24.283ZM-36.923,39.569L-49.22,39.569L-49.22,41.094L-54.73,41.094L-54.73,18.99L-36.923,18.99L-36.923,39.569ZM-36.985,14.725L-54.73,14.725L-54.73,9.682L-36.985,9.682L-36.985,14.725ZM-36.985,5.417L-54.73,5.417L-54.73,0.311L-36.985,0.311L-36.985,5.417ZM-35.584,-4.047L-56.256,-4.047L-56.256,-9.184L-48.099,-9.184C-48.431,-10.159 -49.106,-11.477 -50.123,-13.137L-44.519,-15.254C-43.398,-13.158 -42.464,-11.134 -41.717,-9.184L-35.584,-9.184L-35.584,-4.047Z" style="fill:rgb(35,25,22);fill-rule:nonzero;"/>
            </g>
            <g transform="matrix(4.16667,0,0,4.16667,0,14186)">
                <path d="M510.988,448.067L494.986,448.067L494.986,465.948L510.988,465.948L510.988,448.067ZM489.134,448.067L473.257,448.067L473.257,465.948L489.134,465.948L489.134,448.067ZM516.872,471.583L494.986,471.583L494.986,488.521L489.134,488.521L489.134,471.583L467.341,471.583L467.341,442.463L489.134,442.463L489.134,432.951L494.986,432.951L494.986,442.463L516.872,442.463L516.872,471.583Z" style="fill:rgb(35,25,22);fill-rule:nonzero;"/>
            </g>
            <g transform="matrix(4.16667,0,0,4.16667,2426.36,16032.5)">
                <path d="M0,34.338L-5.542,36.953C-7.576,28.465 -10.824,20.153 -15.286,12.017L-10.305,9.339C-5.345,18.783 -1.91,27.115 0,34.338M-17.776,6.911L-22.633,10.429C-25.933,4.327 -30.313,-1.515 -35.771,-7.098L-31.755,-10.616C-26.587,-5.739 -21.928,0.104 -17.776,6.911M-12.671,26.555C-12.796,30.623 -13.019,33.902 -13.341,36.393C-13.662,38.883 -14.077,40.513 -14.586,41.28C-15.094,42.048 -15.852,42.785 -16.858,43.491C-17.865,44.196 -19.281,44.616 -21.108,44.752C-22.934,44.886 -24.885,44.954 -26.961,44.954C-29.264,44.954 -31.433,44.865 -33.467,44.689C-35.501,44.513 -36.855,44.186 -37.53,43.709C-38.205,43.231 -38.739,42.577 -39.133,41.747C-39.527,40.918 -39.724,39.911 -39.724,38.728L-39.724,3.424L-34.028,3.424L-34.028,37.202C-34.028,38.738 -33.099,39.475 -31.241,39.413C-29.384,39.35 -26.275,39.319 -21.917,39.319C-21.232,39.319 -20.553,39.096 -19.878,38.65C-19.204,38.204 -18.747,36.341 -18.508,33.062C-18.27,29.783 -18.15,27.064 -18.15,24.905L-12.671,26.555ZM-43.585,10.18C-45.557,22.425 -48.151,32.034 -51.368,39.008L-56.535,35.926C-52.945,27.728 -50.527,18.762 -49.281,9.028L-43.585,10.18Z" style="fill:rgb(35,25,22);fill-rule:nonzero;"/>
            </g>
            <g transform="matrix(4.16667,0,0,4.16667,1556.69,16226.3)">
                <path d="M0,-27.406L-5.479,-25.945C-5.449,-24.085 -5.691,-12.617 -5.798,-8.727C-5.817,-8.042 -6.058,-7.369 -6.523,-6.707C-6.988,-6.045 -7.809,-5.64 -11.094,-5.491C-11.542,-5.471 -11.932,-5.453 -12.285,-5.436L-10.317,0C-9.566,-0.061 -8.845,-0.139 -7.907,-0.234C-5.408,-0.487 -4.82,-0.857 -4.039,-1.344C-3.257,-1.831 -2.5,-2.568 -1.767,-3.555C-1.034,-4.542 -0.575,-5.946 -0.39,-7.768C-0.205,-9.59 -0.084,-11.539 -0.027,-13.614C0.008,-14.866 0.02,-26.232 0,-27.406" style="fill:rgb(35,25,22);fill-rule:nonzero;"/>
            </g>
            <g transform="matrix(4.16667,0,0,4.16667,1390.46,16007.2)">
                <path d="M0,47.351L-3.051,52.27C-8.613,50.485 -14.84,49.188 -21.73,48.378L-18.804,43.584C-12.079,44.165 -5.812,45.421 0,47.351M-8.468,18.617C-12.744,17.226 -17.532,15.687 -21.558,12.989C-24.215,15.396 -27.033,16.935 -31.288,18.617L-8.468,18.617ZM-0.747,4.016C-2.719,6.839 -4.576,9.215 -6.32,11.145L-11.145,8.281C-10.606,7.658 -9.464,6.237 -7.721,4.016L-27.801,4.016C-29.752,6.257 -31.62,8.125 -33.405,9.62L-37.732,5.915C-34.432,3.528 -31.267,-0.083 -28.237,-4.919L-23.007,-3.144C-23.193,-2.418 -23.598,-1.671 -24.221,-0.903L-0.747,-0.903L-0.747,4.016ZM-13.573,36.019L-41.996,36.019L-41.996,38.51L-13.573,38.51L-13.573,36.019ZM-13.573,29.512L-41.996,29.512L-41.996,31.878L-13.573,31.878L-13.573,29.512ZM-13.573,23.131L-41.996,23.131L-41.996,25.372L-13.573,25.372L-13.573,23.131ZM0.373,15.223L-2.304,20.329C-3.944,19.997 -5.791,19.468 -7.845,18.741L-7.845,42.713L-34.743,42.713L-32.004,45.888C-38.002,48.648 -45.079,50.692 -53.235,52.021L-55.975,46.915C-49.915,46.189 -44.114,44.788 -38.572,42.713L-47.943,42.713L-47.943,18.617L-35.895,18.617L-38.323,15.099C-30.872,13.21 -25.321,9.9 -21.668,5.168L-15.877,6.444C-16.5,7.586 -17.605,8.807 -17.916,9.097C-13.392,12.023 -6.87,13.729 0.373,15.223" style="fill:rgb(35,25,22);fill-rule:nonzero;"/>
            </g>
            <g transform="matrix(4.16667,0,0,4.16667,1715.44,16109.7)">
                <path d="M0,-6.799C-1.357,-6.409 -2.795,-6.407 -4.087,-6.976L-4.887,-7.33L-5.867,-5.119L-5.33,-4.881C-3.912,-4.256 -2.835,-3.103 -2.116,-1.73C-2.007,-1.522 -1.874,-1.32 -1.718,-1.127C-0.725,0.1 1.024,0.531 2.471,-0.102C4.662,-1.062 5.323,-3.803 3.828,-5.653C3.077,-6.582 1.867,-7.039 0.678,-6.926C0.436,-6.903 0.21,-6.86 0,-6.799" style="fill:rgb(35,25,22);fill-rule:nonzero;"/>
            </g>
            <g transform="matrix(4.16667,0,0,4.16667,1683.52,16080.3)">
                <path d="M0,-3.138C0.621,-1.871 1.586,-0.804 2.875,-0.229L3.217,-0.076L2.236,2.135L2.157,2.1C0.742,1.468 -0.835,1.444 -2.336,1.833C-2.564,1.892 -2.802,1.93 -3.05,1.944C-4.626,2.031 -6.12,1.025 -6.622,-0.472C-7.382,-2.741 -5.794,-5.071 -3.419,-5.205C-2.227,-5.273 -1.076,-4.683 -0.361,-3.726C-0.216,-3.531 -0.096,-3.335 0,-3.138" style="fill:rgb(35,25,22);fill-rule:nonzero;"/>
            </g>
            <g transform="matrix(1.68716,-3.8098,-3.8098,-1.68716,1681.03,16063.5)">
                <path d="M-3.268,-2.127C-5.242,-2.127 -6.842,-0.527 -6.842,1.447C-6.842,3.42 -5.242,5.021 -3.268,5.02C-1.295,5.02 0.306,3.421 0.306,1.447C0.305,-0.527 -1.294,-2.127 -3.268,-2.127" style="fill:rgb(35,25,22);fill-rule:nonzero;"/>
            </g>
            <g transform="matrix(1.68716,-3.8098,-3.8098,-1.68716,1730.86,16085.6)">
                <path d="M-3.268,-2.127C-5.242,-2.127 -6.842,-0.527 -6.842,1.447C-6.842,3.42 -5.242,5.021 -3.268,5.02C-1.295,5.02 0.306,3.421 0.306,1.447C0.305,-0.527 -1.294,-2.127 -3.268,-2.127" style="fill:rgb(35,25,22);fill-rule:nonzero;"/>
            </g>
            <g transform="matrix(4.16667,0,0,4.16667,1726.77,16048.3)">
                <path d="M0,-6.362C-1.39,-6.114 -2.82,-6.262 -4.046,-6.962L-4.805,-7.397L-6.01,-5.3L-5.5,-5.007C-4.154,-4.238 -3.203,-2.98 -2.63,-1.54C-2.543,-1.321 -2.433,-1.107 -2.298,-0.899C-1.436,0.424 0.258,1.035 1.762,0.555C4.042,-0.172 4.983,-2.83 3.688,-4.825C3.038,-5.827 1.882,-6.407 0.688,-6.418C0.444,-6.42 0.215,-6.4 0,-6.362" style="fill:rgb(35,25,22);fill-rule:nonzero;"/>
            </g>
            <g transform="matrix(4.16667,0,0,4.16667,1696.49,16016.7)">
                <path d="M0,-2.953C0.487,-1.628 1.335,-0.467 2.558,0.239L2.882,0.426L1.677,2.524L1.602,2.48C0.26,1.705 -1.306,1.518 -2.839,1.749C-3.072,1.784 -3.313,1.797 -3.56,1.785C-5.137,1.708 -6.519,0.552 -6.863,-0.989C-7.384,-3.324 -5.562,-5.477 -3.186,-5.364C-1.994,-5.307 -0.91,-4.601 -0.299,-3.575C-0.174,-3.366 -0.075,-3.158 0,-2.953" style="fill:rgb(35,25,22);fill-rule:nonzero;"/>
            </g>
            <g transform="matrix(2.07302,-3.61437,-3.61437,-2.07302,1695.25,16001.8)">
                <path d="M-3.1,-1.796C-5.074,-1.796 -6.674,-0.196 -6.674,1.778C-6.674,3.752 -5.074,5.352 -3.1,5.352C-1.126,5.352 0.474,3.752 0.474,1.778C0.474,-0.196 -1.126,-1.796 -3.1,-1.796" style="fill:rgb(35,25,22);fill-rule:nonzero;"/>
            </g>
            <g transform="matrix(2.07302,-3.61437,-3.61437,-2.07302,1742.52,16028.9)">
                <path d="M-3.1,-1.796C-5.074,-1.796 -6.674,-0.196 -6.674,1.778C-6.674,3.752 -5.074,5.352 -3.1,5.352C-1.126,5.352 0.474,3.752 0.474,1.778C0.474,-0.196 -1.126,-1.796 -3.1,-1.796" style="fill:rgb(35,25,22);fill-rule:nonzero;"/>
            </g>
            <g transform="matrix(4.16667,0,0,4.16667,1213.28,16025.3)">
                <path d="M0,-6.011C-1.177,-5.232 -2.549,-4.8 -3.952,-4.956L-4.822,-5.054L-5.095,-2.651L-4.511,-2.585C-2.97,-2.413 -1.598,-1.636 -0.501,-0.541C-0.334,-0.375 -0.147,-0.222 0.059,-0.085C1.375,0.788 3.173,0.676 4.363,-0.361C6.167,-1.933 5.976,-4.747 3.995,-6.064C3.001,-6.726 1.71,-6.799 0.609,-6.335C0.385,-6.241 0.183,-6.132 0,-6.011" style="fill:rgb(35,25,22);fill-rule:nonzero;"/>
            </g>
            <g transform="matrix(4.16667,0,0,4.16667,1178.59,16016.9)">
                <path d="M0,-4.947C0.973,-3.924 2.212,-3.195 3.615,-3.032L3.986,-2.989L3.713,-0.586L3.627,-0.596C2.087,-0.774 0.576,-0.325 -0.739,0.496C-0.939,0.62 -1.156,0.728 -1.388,0.815C-2.865,1.37 -4.592,0.858 -5.52,-0.42C-6.924,-2.357 -6.107,-5.056 -3.881,-5.895C-2.764,-6.317 -1.489,-6.099 -0.521,-5.4C-0.324,-5.257 -0.151,-5.106 0,-4.947" style="fill:rgb(35,25,22);fill-rule:nonzero;"/>
            </g>
            <g transform="matrix(0.468129,-4.14029,-4.14029,-0.468129,1170.92,15991.9)">
                <path d="M-3.551,-3.172C-5.525,-3.171 -7.125,-1.571 -7.125,0.402C-7.125,2.376 -5.525,3.976 -3.551,3.976C-1.577,3.975 0.023,2.376 0.023,0.402C0.022,-1.572 -1.578,-3.172 -3.551,-3.172" style="fill:rgb(35,25,22);fill-rule:nonzero;"/>
            </g>
            <g transform="matrix(0.468129,-4.14029,-4.14029,-0.468129,1225.07,15998)">
                <path d="M-3.551,-3.172C-5.525,-3.171 -7.125,-1.571 -7.125,0.402C-7.125,2.376 -5.525,3.976 -3.551,3.976C-1.577,3.975 0.023,2.376 0.023,0.402C0.022,-1.572 -1.578,-3.172 -3.551,-3.172" style="fill:rgb(35,25,22);fill-rule:nonzero;"/>
            </g>
            <g transform="matrix(4.16667,0,0,4.16667,1210.72,16064.1)">
                <path d="M0,-4.711C-0.929,-3.649 -2.138,-2.869 -3.533,-2.649L-4.397,-2.513L-4.025,-0.123L-3.444,-0.214C-1.913,-0.456 -0.384,-0.069 0.963,0.696C1.168,0.813 1.389,0.911 1.624,0.989C3.124,1.483 4.828,0.899 5.702,-0.416C7.025,-2.409 6.098,-5.072 3.839,-5.819C2.705,-6.194 1.44,-5.923 0.502,-5.185C0.31,-5.034 0.144,-4.876 0,-4.711" style="fill:rgb(35,25,22);fill-rule:nonzero;"/>
            </g>
            <g transform="matrix(4.16667,0,0,4.16667,1176.22,16075.4)">
                <path d="M0,-6.133C1.208,-5.403 2.597,-5.028 3.992,-5.242L4.362,-5.299L4.734,-2.909L4.648,-2.896C3.116,-2.661 1.777,-1.828 0.726,-0.689C0.566,-0.515 0.386,-0.355 0.185,-0.209C-1.093,0.717 -2.894,0.679 -4.126,-0.308C-5.993,-1.804 -5.919,-4.623 -3.994,-6.021C-3.028,-6.723 -1.741,-6.85 -0.622,-6.432C-0.394,-6.347 -0.187,-6.246 0,-6.133" style="fill:rgb(35,25,22);fill-rule:nonzero;"/>
            </g>
            <g transform="matrix(-0.642988,-4.11676,-4.11676,0.642988,1163.74,16048.3)">
                <path d="M-3.53,-4.125C-5.504,-4.125 -7.104,-2.525 -7.104,-0.552C-7.104,1.422 -5.504,3.022 -3.53,3.023C-1.557,3.022 0.044,1.423 0.043,-0.551C0.043,-2.525 -1.557,-4.124 -3.53,-4.125" style="fill:rgb(35,25,22);fill-rule:nonzero;"/>
            </g>
            <g transform="matrix(-0.642988,-4.11676,-4.11676,0.642988,1217.59,16039.9)">
                <path d="M-3.53,-4.125C-5.504,-4.125 -7.104,-2.525 -7.104,-0.552C-7.104,1.422 -5.504,3.022 -3.53,3.023C-1.557,3.022 0.044,1.423 0.043,-0.551C0.043,-2.525 -1.557,-4.124 -3.53,-4.125" style="fill:rgb(35,25,22);fill-rule:nonzero;"/>
            </g>
            <g transform="matrix(4.16667,0,0,4.16667,1907.63,16000.7)">
                <path d="M0,50.598L-5.266,53.388C-6.228,51.11 -7.147,49.135 -8.025,47.463C-18.872,50.054 -29.019,51.768 -38.465,52.604L-40.597,47.149C-35.352,42.865 -30.617,36.146 -26.396,26.992L-40.534,26.992L-40.534,21.412L-23.198,21.412L-23.198,11.254L-37.838,11.254L-37.838,5.737L-23.198,5.737L-23.198,-2.79L-17.336,-2.79L-17.336,5.737L-3.542,5.737L-3.542,11.254L-17.336,11.254L-17.336,21.412L-0.658,21.412L-0.658,26.992L-19.593,26.992C-23.627,35.331 -27.869,41.789 -32.321,46.366C-25.487,45.593 -18.339,44.307 -10.878,42.51C-12.09,40.274 -14.013,37.286 -16.646,33.544L-11.191,31.036C-6.134,38.56 -2.403,45.081 0,50.598M-40.054,33.984C-43.953,41.157 -48.369,47.444 -53.301,52.846L-57.715,48.63C-53.537,44.526 -49.177,38.453 -44.633,30.408L-40.054,33.984Z" style="fill:rgb(35,25,22);fill-rule:nonzero;"/>
            </g>
            <g transform="matrix(4.16667,0,0,4.16667,0,13734.6)">
                <path d="M295.61,509.708L287.586,509.708L287.586,517.597L295.61,517.597L295.61,509.708ZM286.168,509.708L278.065,509.708L278.065,517.597L286.168,517.597L286.168,509.708ZM297.055,518.897L287.586,518.897L287.586,525.48L286.168,525.48L286.168,518.897L276.647,518.897L276.647,508.421L286.168,508.421L286.168,504.322L287.586,504.322L287.586,508.421L297.055,508.421L297.055,518.897Z" style="fill:rgb(89,87,87);fill-rule:nonzero;"/>
            </g>
            <g transform="matrix(4.16667,0,0,4.16667,0,13736.8)">
                <path d="M321.452,505.621L317.211,505.621L317.211,512.973L321.452,512.973L321.452,505.621ZM326.377,514.177L322.858,514.177L322.858,524.913L321.452,524.913L321.452,514.177L317.211,514.177C317.211,517.215 316.843,519.133 316.107,520.746C315.372,522.36 314.422,523.748 313.257,524.913L312.089,524.052C313.454,522.769 314.422,521.384 314.991,519.896C315.56,518.408 315.823,516.775 315.779,514.177L312.653,514.177L312.653,512.973L315.779,512.973L315.779,505.621L313.087,505.621L313.087,504.37L325.865,504.37L325.865,505.621L322.858,505.621L322.858,512.973L326.377,512.973L326.377,514.177ZM310.54,513.414L306.718,513.414L306.718,521.052L310.54,521.052L310.54,513.414ZM312.497,506.176L308.516,506.176C308.096,508.317 307.487,510.293 306.691,512.103L311.906,512.103L311.906,522.883L310.54,522.883L310.54,522.339L306.717,522.339L306.717,523.273L305.365,523.273L305.365,514.524C304.866,515.255 304.323,515.901 303.736,516.46L302.765,515.468C304.883,513.359 306.337,510.261 307.125,506.176L303.224,506.176L303.224,504.925L312.497,504.925L312.497,506.176Z" style="fill:rgb(89,87,87);fill-rule:nonzero;"/>
            </g>
            <g transform="matrix(4.16667,0,0,4.16667,0,13733.8)">
                <path d="M351.312,512.232L342.158,512.232L342.158,511.039L351.312,511.039L351.312,512.232ZM353.781,511.772L352.389,511.772L352.389,507.798L341.029,507.798L341.029,511.772L339.637,511.772L339.637,506.535L345.875,506.535C345.709,505.944 345.393,505.578 344.93,504.688L346.361,504.346C346.755,505.125 347.097,505.605 347.385,506.535L353.781,506.535L353.781,511.772ZM354.32,520.911C354.32,522.186 354.215,523.142 354.004,523.78C353.794,524.417 353.472,524.85 353.039,525.079C352.606,525.307 351.745,525.421 350.458,525.421C348.944,525.421 348.187,524.917 348.187,523.91L348.187,516.483L345.126,516.483C344.943,519.215 344.327,521.206 343.282,522.457C342.235,523.709 340.679,524.764 338.613,525.621L337.588,524.559C339.593,523.874 341.112,522.918 342.146,521.69C343.179,520.462 343.695,518.727 343.695,516.483L339.689,516.483L339.689,515.279L353.912,515.279L353.912,516.483L349.592,516.483L349.592,523.638C349.592,523.764 349.653,523.888 349.776,524.01C349.898,524.132 350.292,524.193 350.957,524.193C351.553,524.193 351.951,524.156 352.153,524.081C352.354,524.006 352.503,523.908 352.599,523.786C352.696,523.664 352.783,523.276 352.862,522.623C352.94,521.97 352.971,521.269 352.954,520.521L354.32,520.911ZM336.648,512.713C338.145,514.484 338.893,516.342 338.893,518.286C338.893,519.01 338.683,519.606 338.263,520.075C337.843,520.543 336.958,520.778 335.61,520.778C335.268,520.778 334.936,520.765 334.612,520.742L334.074,519.467L335.571,519.491C336.394,519.491 336.93,519.394 337.18,519.201C337.429,519.009 337.554,518.715 337.554,518.321C337.554,516.503 336.77,514.693 335.203,512.89C335.79,511.285 336.463,508.596 337.234,506.282L333.071,506.282L333.071,525.645L331.705,525.645L331.705,505.054L338.692,505.054L338.692,506.282C338.061,508.187 337.383,510.817 336.648,512.713" style="fill:rgb(89,87,87);fill-rule:nonzero;"/>
            </g>
            <g transform="matrix(4.16667,0,0,4.16667,1592.43,15879)">
                <path d="M0,0.555L-8.444,0.555C-10.354,3.972 -12.305,6.73 -14.302,8.832C-10.459,8.447 -6.856,7.895 -3.493,7.179C-4.431,5.77 -5.398,4.507 -6.396,3.389L-5.214,2.751C-2.894,5.545 -1.182,8.021 -0.079,10.178L-1.261,10.933C-1.76,9.863 -2.272,8.966 -2.797,8.241C-6.755,9.036 -11.176,9.69 -16.062,10.201L-16.626,8.903C-15.803,8.596 -14.77,7.628 -13.527,5.998C-12.284,4.369 -11.136,2.555 -10.086,0.555L-16.678,0.555L-16.678,-0.649L-8.957,-0.649L-8.957,-5.419L-15.431,-5.419L-15.431,-6.624L-8.957,-6.624L-8.957,-10.378L-7.577,-10.378L-7.577,-6.624L-1.208,-6.624L-1.208,-5.419L-7.577,-5.419L-7.577,-0.649L0,-0.649L0,0.555ZM-17.85,-1.102L-18.834,-0.205C-20.078,-1.363 -21.612,-2.153 -23.432,-3.034L-22.552,-3.979C-20.685,-3.097 -19.084,-2.26 -17.85,-1.102M-17.191,-7.178L-18.176,-6.281C-19.419,-7.438 -20.954,-8.229 -22.773,-9.109L-21.893,-10.054C-20.026,-9.172 -18.425,-8.335 -17.191,-7.178M-17.664,2.657C-19.301,6.097 -20.89,8.796 -22.431,10.757L-23.613,9.989C-21.976,8.005 -20.369,5.329 -18.793,1.96L-17.664,2.657Z" style="fill:rgb(89,87,87);fill-rule:nonzero;"/>
            </g>
            <g transform="matrix(4.16667,0,0,4.16667,0,13734.4)">
                <path d="M406.397,511.611L401.63,511.611L401.63,514.756L406.397,514.756L406.397,511.611ZM406.397,507.441L401.63,507.441L401.63,510.477L406.397,510.477L406.397,507.441ZM409.97,511.611L407.816,511.611L407.816,515.889L401.63,515.889L401.63,517.762L408.328,517.762L408.328,518.931L401.63,518.931L401.63,521.338L409.431,521.338L409.431,522.519L401.63,522.519L401.63,525.598L400.238,525.598L400.238,522.519L393.08,522.519L393.08,521.338L400.238,521.338L400.238,518.931L393.934,518.931L393.934,517.762L400.238,517.762L400.238,515.889L394.525,515.889L394.525,514.755L400.238,514.755L400.238,511.611L393.37,511.611L393.37,510.477L400.238,510.477L400.238,507.441L394.525,507.441L394.525,506.308L400.238,506.308L400.238,504.44L401.63,504.44L401.63,506.308L407.816,506.308L407.816,510.477L409.97,510.477L409.97,511.611ZM392.779,504.747C391.027,507.258 389.202,509.096 387.302,510.261L386.409,509.363C388.414,508.002 390.117,506.301 391.518,504.263L392.779,504.747ZM392.923,510.072C392.345,511.276 391.789,512.291 391.255,513.118L391.255,525.598L389.824,525.598L389.824,515.172C388.913,516.211 388.007,517.081 387.105,517.782L386.33,516.696C388.213,515.287 389.968,512.981 391.597,509.777L392.923,510.072Z" style="fill:rgb(89,87,87);fill-rule:nonzero;"/>
            </g>
            <g transform="matrix(4.16667,0,0,4.16667,1824.64,15890.8)">
                <path d="M0,-5.091L-3.06,-5.091L-3.06,8.063L-4.386,8.063L-4.386,-5.091L-9.219,-5.091C-9.211,-1.777 -9.514,1.448 -10.132,3.045C-10.749,4.643 -11.702,6.316 -12.989,8.063L-14.118,7.236C-12.594,5.3 -11.627,3.567 -11.216,2.036C-10.804,0.505 -10.598,-1.524 -10.598,-4.051L-10.598,-11.43C-6.947,-11.587 -3.765,-12.162 -1.051,-13.154L-0.315,-12.056C-2.706,-11.174 -5.674,-10.596 -9.219,-10.32L-9.219,-6.272L0,-6.272L0,-5.091ZM-14.656,-6.716L-20.33,-6.716L-20.33,-1.513L-14.656,-1.513L-14.656,-6.716ZM-12.345,-12.056C-14.901,-11.088 -17.563,-10.47 -20.33,-10.202L-20.33,-7.897L-13.29,-7.897L-13.29,-0.284L-20.356,-0.284C-20.592,3.187 -21.301,5.887 -22.483,7.815L-23.665,7.071C-22.361,4.781 -21.709,2.061 -21.709,-1.087L-21.709,-11.194C-18.066,-11.556 -15.151,-12.21 -12.962,-13.154L-12.345,-12.056Z" style="fill:rgb(89,87,87);fill-rule:nonzero;"/>
            </g>
            <g transform="matrix(4.16667,0,0,4.16667,2089.5,16323.9)">
                <path d="M0,10.517C0,10.517 -1.194,9.487 -1.194,8.142L-1.194,-0.786C-1.194,-1.431 -1.517,-1.755 -2.162,-1.755C-2.807,-1.755 -3.129,-1.431 -3.129,-0.786L-3.129,8.142C-3.114,9.58 -2.658,10.312 -2.1,11.105L-1.4,11.805C-0.933,12.272 -0.467,12.272 0,11.805C0.467,11.338 0.467,10.984 0,10.517" style="fill:rgb(89,87,87);fill-rule:nonzero;"/>
            </g>
            <g transform="matrix(4.16667,0,0,4.16667,1505.57,16323.9)">
                <path d="M0,10.517C0,10.517 -1.194,9.487 -1.194,8.142L-1.194,-0.786C-1.194,-1.431 -1.517,-1.755 -2.162,-1.755C-2.807,-1.755 -3.129,-1.431 -3.129,-0.786L-3.129,8.142C-3.114,9.58 -2.658,10.312 -2.1,11.105L-1.4,11.805C-0.933,12.272 -0.467,12.272 0,11.805C0.467,11.338 0.467,10.984 0,10.517" style="fill:rgb(89,87,87);fill-rule:nonzero;"/>
            </g>
            <g transform="matrix(4.16667,0,0,4.16667,1172.85,16306.9)">
                <path d="M0,0.955L0,0C0,-0.637 0.318,-0.955 0.955,-0.955C1.592,-0.955 1.91,-0.637 1.91,0L1.91,0.955C1.91,1.592 1.592,1.91 0.955,1.91C0.318,1.91 0,1.592 0,0.955" style="fill:rgb(89,87,87);fill-rule:nonzero;"/>
            </g>
            <g transform="matrix(4.16667,0,0,4.16667,1320.81,16306.9)">
                <path d="M0,0.955L0,0C0,-0.637 0.318,-0.955 0.955,-0.955C1.592,-0.955 1.91,-0.637 1.91,0L1.91,0.955C1.91,1.592 1.592,1.91 0.955,1.91C0.318,1.91 0,1.592 0,0.955" style="fill:rgb(89,87,87);fill-rule:nonzero;"/>
            </g>
            <g transform="matrix(4.16667,0,0,4.16667,1364.83,16306.9)">
                <path d="M0,0.955L0,0C0,-0.637 0.318,-0.955 0.955,-0.955C1.592,-0.955 1.91,-0.637 1.91,0L1.91,0.955C1.91,1.592 1.592,1.91 0.955,1.91C0.318,1.91 0,1.592 0,0.955" style="fill:rgb(89,87,87);fill-rule:nonzero;"/>
            </g>
            <g transform="matrix(4.16667,0,0,4.16667,1600.83,16306.9)">
                <path d="M0,0.955L0,0C0,-0.637 0.318,-0.955 0.955,-0.955C1.592,-0.955 1.91,-0.637 1.91,0L1.91,0.955C1.91,1.592 1.592,1.91 0.955,1.91C0.318,1.91 0,1.592 0,0.955" style="fill:rgb(89,87,87);fill-rule:nonzero;"/>
            </g>
            <g transform="matrix(4.16667,0,0,4.16667,2016.6,16306.9)">
                <path d="M0,0.955L0,0C0,-0.637 0.318,-0.955 0.955,-0.955C1.592,-0.955 1.91,-0.637 1.91,0L1.91,0.955C1.91,1.592 1.592,1.91 0.955,1.91C0.318,1.91 0,1.592 0,0.955" style="fill:rgb(89,87,87);fill-rule:nonzero;"/>
            </g>
            <g transform="matrix(4.16667,0,0,4.16667,2164.55,16306.9)">
                <path d="M0,0.955L0,0C0,-0.637 0.318,-0.955 0.955,-0.955C1.592,-0.955 1.91,-0.637 1.91,0L1.91,0.955C1.91,1.592 1.592,1.91 0.955,1.91C0.318,1.91 0,1.592 0,0.955" style="fill:rgb(89,87,87);fill-rule:nonzero;"/>
            </g>
            <g transform="matrix(4.16667,0,0,4.16667,1472.03,16353.9)">
                <path d="M0,1.91L-0.955,1.91C-1.592,1.91 -1.91,1.592 -1.91,0.955C-1.91,0.318 -1.592,0 -0.955,0L0,0C0.637,0 0.955,0.318 0.955,0.955C0.955,1.592 0.637,1.91 0,1.91" style="fill:rgb(89,87,87);fill-rule:nonzero;"/>
            </g>
            <g transform="matrix(4.16667,0,0,4.16667,1787.89,16353.9)">
                <path d="M0,1.91L-0.955,1.91C-1.592,1.91 -1.91,1.592 -1.91,0.955C-1.91,0.318 -1.592,0 -0.955,0L0,0C0.637,0 0.955,0.318 0.955,0.955C0.955,1.592 0.637,1.91 0,1.91" style="fill:rgb(89,87,87);fill-rule:nonzero;"/>
            </g>
            <g transform="matrix(4.16667,0,0,4.16667,1156.67,16282.4)">
                <path d="M0,19.088C-0.636,19.088 -0.955,18.77 -0.955,18.133L-0.955,0.954C-0.955,0.318 -0.636,0 0,0C0.636,0 0.955,0.318 0.955,0.954L0.955,18.133C0.955,18.77 0.636,19.088 0,19.088" style="fill:rgb(89,87,87);fill-rule:nonzero;"/>
            </g>
            <g transform="matrix(4.16667,0,0,4.16667,1172.85,16310.2)">
                <path d="M0,11.452L0,-0.001C0,-0.637 0.318,-0.955 0.955,-0.955L5.726,-0.955C6.797,-0.955 7.701,-0.586 8.438,0.152C9.175,0.889 9.544,1.793 9.544,2.862L9.544,11.452C9.544,12.088 9.226,12.407 8.59,12.407C7.954,12.407 7.636,12.088 7.636,11.452L7.636,2.862C7.636,2.323 7.452,1.87 7.086,1.504C6.719,1.137 6.266,0.954 5.726,0.954L1.909,0.954L1.909,11.452C1.909,12.088 1.591,12.407 0.955,12.407C0.318,12.407 0,12.088 0,11.452" style="fill:rgb(89,87,87);fill-rule:nonzero;"/>
            </g>
            <g transform="matrix(4.16667,0,0,4.16667,1228.8,16338)">
                <path d="M0,-7.635L0.955,-7.635L0.955,-9.544C0.955,-10.614 1.325,-11.518 2.068,-12.255C2.81,-12.993 3.711,-13.361 4.772,-13.361L5.726,-13.361C6.363,-13.361 6.681,-13.043 6.681,-12.407C6.681,-11.771 6.363,-11.453 5.726,-11.453L4.772,-11.453C4.242,-11.453 3.791,-11.267 3.42,-10.896C3.049,-10.525 2.863,-10.074 2.863,-9.544L2.863,-7.635L5.726,-7.635C6.363,-7.635 6.681,-7.317 6.681,-6.681C6.681,-6.045 6.363,-5.726 5.726,-5.726L2.863,-5.726L2.863,4.772C2.863,5.408 2.545,5.726 1.909,5.726C1.273,5.726 0.955,5.408 0.955,4.772L0.955,-5.726L0,-5.726C-0.636,-5.726 -0.955,-6.045 -0.955,-6.681C-0.955,-7.317 -0.636,-7.635 0,-7.635" style="fill:rgb(89,87,87);fill-rule:nonzero;"/>
            </g>
            <g transform="matrix(4.16667,0,0,4.16667,1300.66,16326.1)">
                <path d="M0,3.818L0,0C0,-0.79 -0.28,-1.465 -0.839,-2.024C-1.398,-2.583 -2.073,-2.863 -2.863,-2.863C-3.654,-2.863 -4.329,-2.583 -4.888,-2.024C-5.447,-1.465 -5.726,-0.79 -5.726,0L-5.726,3.818C-5.726,4.618 -5.45,5.295 -4.895,5.85C-4.341,6.404 -3.664,6.681 -2.863,6.681C-2.073,6.681 -1.398,6.401 -0.839,5.842C-0.28,5.283 0,4.609 0,3.818M-7.636,3.818L-7.636,0C-7.636,-1.32 -7.171,-2.446 -6.24,-3.376C-5.31,-4.307 -4.184,-4.772 -2.863,-4.772C-1.524,-4.772 -0.393,-4.311 0.527,-3.391C1.448,-2.47 1.909,-1.339 1.909,0L1.909,3.818C1.909,5.138 1.443,6.264 0.513,7.194C-0.417,8.125 -1.543,8.59 -2.863,8.59C-4.184,8.59 -5.31,8.125 -6.24,7.194C-7.171,6.264 -7.636,5.138 -7.636,3.818" style="fill:rgb(89,87,87);fill-rule:nonzero;"/>
            </g>
            <g transform="matrix(4.16667,0,0,4.16667,1320.81,16357.9)">
                <path d="M0,-11.453C0,-12.089 0.318,-12.407 0.955,-12.407L6.681,-12.407C7.317,-12.407 7.636,-12.089 7.636,-11.453L7.636,-9.544C7.636,-8.908 7.317,-8.59 6.681,-8.59C6.045,-8.59 5.726,-8.908 5.726,-9.544L5.726,-10.498L1.909,-10.498L1.909,0C1.909,0.636 1.591,0.954 0.955,0.954C0.318,0.954 0,0.636 0,0L0,-11.453Z" style="fill:rgb(89,87,87);fill-rule:nonzero;"/>
            </g>
            <g transform="matrix(4.16667,0,0,4.16667,1368.81,16361.9)">
                <path d="M0,-13.361L8.59,-13.361C9.659,-13.361 10.563,-12.993 11.301,-12.255C12.038,-11.517 12.407,-10.614 12.407,-9.544L12.407,-0.954C12.407,-0.318 12.089,0 11.453,0C10.816,0 10.498,-0.318 10.498,-0.954L10.498,-9.544C10.498,-10.084 10.315,-10.536 9.949,-10.903C9.583,-11.269 9.129,-11.452 8.59,-11.452L6.681,-11.452L6.681,-0.954C6.681,-0.318 6.363,0 5.726,0C5.09,0 4.772,-0.318 4.772,-0.954L4.772,-11.452L0.955,-11.452L0.955,-0.954C0.955,-0.318 0.636,0 0,0C-0.636,0 -0.955,-0.318 -0.955,-0.954L-0.955,-12.407C-0.955,-13.043 -0.636,-13.361 0,-13.361" style="fill:rgb(89,87,87);fill-rule:nonzero;"/>
            </g>
            <g transform="matrix(4.16667,0,0,4.16667,1464.52,16330.1)">
                <path d="M0,1.909L-3.818,1.909C-4.348,1.909 -4.799,2.095 -5.17,2.466C-5.541,2.837 -5.726,3.288 -5.726,3.818C-5.726,4.338 -5.539,4.786 -5.162,5.163C-4.787,5.539 -4.338,5.727 -3.818,5.727L0,5.727L0,1.909ZM-3.818,7.635C-4.888,7.635 -5.791,7.266 -6.529,6.529C-7.267,5.792 -7.636,4.888 -7.636,3.818C-7.636,3.124 -7.467,2.483 -7.129,1.895C-6.406,0.632 -5.302,0 -3.818,0L0,0L0,-1.909C0,-2.449 -0.183,-2.901 -0.55,-3.268C-0.916,-3.634 -1.369,-3.817 -1.909,-3.817L-5.726,-3.817C-6.363,-3.817 -6.681,-4.136 -6.681,-4.772C-6.681,-5.408 -6.363,-5.726 -5.726,-5.726L-1.909,-5.726C-0.839,-5.726 0.065,-5.358 0.802,-4.62C1.54,-3.882 1.909,-2.979 1.909,-1.909L1.909,6.681C1.909,7.317 1.59,7.635 0.954,7.635L-3.818,7.635Z" style="fill:rgb(89,87,87);fill-rule:nonzero;"/>
            </g>
            <g transform="matrix(4.16667,0,0,4.16667,1492.64,16330.1)">
                <path d="M0,-3.818L-0.955,-3.818C-1.591,-3.818 -1.909,-4.136 -1.909,-4.773C-1.909,-5.408 -1.591,-5.727 -0.955,-5.727L0,-5.727L0,-10.499C0,-11.135 0.318,-11.453 0.954,-11.453C1.59,-11.453 1.909,-11.135 1.909,-10.499L1.909,-5.727L4.772,-5.727C5.408,-5.727 5.726,-5.408 5.726,-4.773C5.726,-4.136 5.408,-3.818 4.772,-3.818L1.909,-3.818L1.909,6.68C1.909,7.317 1.59,7.635 0.954,7.635C0.318,7.635 0,7.317 0,6.68L0,-3.818Z" style="fill:rgb(89,87,87);fill-rule:nonzero;"/>
            </g>
            <g transform="matrix(4.16667,0,0,4.16667,1528.7,16334)">
                <path d="M0,-5.727C0,-6.363 0.318,-6.681 0.955,-6.681C1.591,-6.681 1.909,-6.363 1.909,-5.727L1.909,5.726C1.909,6.362 1.591,6.68 0.955,6.68C0.318,6.68 0,6.362 0,5.726L0,-5.727ZM0,-10.499L0,-11.453C0,-12.089 0.318,-12.407 0.955,-12.407C1.591,-12.407 1.909,-12.089 1.909,-11.453L1.909,-10.499C1.909,-9.862 1.591,-9.544 0.955,-9.544C0.318,-9.544 0,-9.862 0,-10.499" style="fill:rgb(89,87,87);fill-rule:nonzero;"/>
            </g>
            <g transform="matrix(4.16667,0,0,4.16667,1580.67,16326.1)">
                <path d="M0,3.818L0,0C0,-0.79 -0.28,-1.465 -0.839,-2.024C-1.398,-2.583 -2.073,-2.863 -2.863,-2.863C-3.654,-2.863 -4.329,-2.583 -4.888,-2.024C-5.447,-1.465 -5.726,-0.79 -5.726,0L-5.726,3.818C-5.726,4.618 -5.45,5.295 -4.895,5.85C-4.341,6.404 -3.664,6.681 -2.863,6.681C-2.073,6.681 -1.398,6.401 -0.839,5.842C-0.28,5.283 0,4.609 0,3.818M-7.636,3.818L-7.636,0C-7.636,-1.32 -7.171,-2.446 -6.24,-3.376C-5.31,-4.307 -4.184,-4.772 -2.863,-4.772C-1.524,-4.772 -0.393,-4.311 0.527,-3.391C1.448,-2.47 1.909,-1.339 1.909,0L1.909,3.818C1.909,5.138 1.443,6.264 0.513,7.194C-0.417,8.125 -1.543,8.59 -2.863,8.59C-4.184,8.59 -5.31,8.125 -6.24,7.194C-7.171,6.264 -7.636,5.138 -7.636,3.818" style="fill:rgb(89,87,87);fill-rule:nonzero;"/>
            </g>
            <g transform="matrix(4.16667,0,0,4.16667,1600.83,16310.2)">
                <path d="M0,11.452L0,-0.001C0,-0.637 0.318,-0.955 0.955,-0.955L5.726,-0.955C6.797,-0.955 7.701,-0.586 8.438,0.152C9.175,0.889 9.544,1.793 9.544,2.862L9.544,11.452C9.544,12.088 9.226,12.407 8.59,12.407C7.954,12.407 7.636,12.088 7.636,11.452L7.636,2.862C7.636,2.323 7.452,1.87 7.086,1.504C6.719,1.137 6.266,0.954 5.726,0.954L1.909,0.954L1.909,11.452C1.909,12.088 1.591,12.407 0.955,12.407C0.318,12.407 0,12.088 0,11.452" style="fill:rgb(89,87,87);fill-rule:nonzero;"/>
            </g>
            <g transform="matrix(4.16667,0,0,4.16667,1696.82,16357.9)">
                <path d="M0,-17.18C0,-17.816 0.318,-18.134 0.955,-18.134C1.591,-18.134 1.909,-17.816 1.909,-17.18L1.909,-0.955L8.59,-0.955C9.226,-0.955 9.544,-0.637 9.544,-0.001C9.544,0.636 9.226,0.954 8.59,0.954L0.955,0.954C0.318,0.954 0,0.636 0,-0.001L0,-17.18Z" style="fill:rgb(89,87,87);fill-rule:nonzero;"/>
            </g>
            <g transform="matrix(4.16667,0,0,4.16667,1780.6,16330.1)">
                <path d="M0,1.909L-3.818,1.909C-4.348,1.909 -4.799,2.095 -5.17,2.466C-5.541,2.837 -5.726,3.288 -5.726,3.818C-5.726,4.338 -5.539,4.786 -5.162,5.163C-4.787,5.539 -4.338,5.727 -3.818,5.727L0,5.727L0,1.909ZM-3.818,7.635C-4.888,7.635 -5.791,7.266 -6.529,6.529C-7.267,5.792 -7.636,4.888 -7.636,3.818C-7.636,3.124 -7.467,2.483 -7.129,1.895C-6.406,0.632 -5.302,0 -3.818,0L0,0L0,-1.909C0,-2.449 -0.183,-2.901 -0.55,-3.268C-0.916,-3.634 -1.369,-3.817 -1.909,-3.817L-5.726,-3.817C-6.363,-3.817 -6.681,-4.136 -6.681,-4.772C-6.681,-5.408 -6.363,-5.726 -5.726,-5.726L-1.909,-5.726C-0.839,-5.726 0.065,-5.358 0.802,-4.62C1.54,-3.882 1.909,-2.979 1.909,-1.909L1.909,6.681C1.909,7.317 1.59,7.635 0.954,7.635L-3.818,7.635Z" style="fill:rgb(89,87,87);fill-rule:nonzero;"/>
            </g>
            <g transform="matrix(4.16667,0,0,4.16667,1840.53,16306.2)">
                <path d="M0,13.361C-0.443,13.361 -0.752,13.129 -0.926,12.667L-2.863,7.476L-4.801,12.638C-4.984,13.12 -5.292,13.361 -5.726,13.361C-6.228,13.361 -6.55,13.063 -6.695,12.465L-9.515,1.185C-9.534,1.108 -9.544,1.017 -9.544,0.91C-9.544,0.303 -9.226,0 -8.59,0C-8.088,0 -7.78,0.24 -7.664,0.723L-5.553,9.182L-3.774,4.439C-3.62,4.024 -3.316,3.817 -2.863,3.817C-2.42,3.817 -2.121,4.024 -1.967,4.439L-0.188,9.197L1.938,0.723C2.063,0.24 2.372,0 2.863,0C3.114,0 3.336,0.089 3.528,0.267C3.721,0.445 3.818,0.66 3.818,0.91C3.818,1.017 3.808,1.108 3.789,1.185L0.955,12.522C0.819,13.082 0.501,13.361 0,13.361" style="fill:rgb(89,87,87);fill-rule:nonzero;"/>
            </g>
            <g transform="matrix(4.16667,0,0,4.16667,1948.44,16361.9)">
                <path d="M0,-19.088C0.636,-19.088 0.955,-18.77 0.955,-18.134C0.955,-17.498 0.636,-17.179 0,-17.179L-3.817,-17.179C-4.618,-17.179 -5.295,-16.9 -5.849,-16.341C-6.404,-15.782 -6.68,-15.107 -6.68,-14.316L-6.68,-4.772C-6.68,-3.982 -6.401,-3.307 -5.842,-2.748C-5.283,-2.189 -4.608,-1.909 -3.817,-1.909L0,-1.909C0.636,-1.909 0.955,-1.591 0.955,-0.955C0.955,-0.318 0.636,0 0,0L-3.817,0C-5.138,0 -6.264,-0.465 -7.194,-1.396C-8.125,-2.326 -8.59,-3.452 -8.59,-4.772L-8.59,-14.316C-8.59,-15.637 -8.125,-16.762 -7.194,-17.693C-6.264,-18.623 -5.138,-19.088 -3.817,-19.088L0,-19.088Z" style="fill:rgb(89,87,87);fill-rule:nonzero;"/>
            </g>
            <g transform="matrix(4.16667,0,0,4.16667,1984.51,16353.9)">
                <path d="M0,-9.544C-0.791,-9.544 -1.466,-9.264 -2.025,-8.705C-2.584,-8.146 -2.863,-7.471 -2.863,-6.681L-2.863,-5.726L2.863,-5.726L2.863,-6.681C2.863,-7.471 2.583,-8.146 2.024,-8.705C1.465,-9.264 0.79,-9.544 0,-9.544M-2.863,-3.818L-2.863,-1.909C-2.863,-1.388 -2.676,-0.94 -2.299,-0.564C-1.923,-0.188 -1.475,-0 -0.955,-0L3.817,-0C4.454,-0 4.772,0.318 4.772,0.954C4.772,1.591 4.454,1.909 3.817,1.909L-0.955,1.909C-2.025,1.909 -2.928,1.54 -3.666,0.802C-4.403,0.065 -4.772,-0.839 -4.772,-1.909L-4.772,-6.681C-4.772,-8.001 -4.307,-9.127 -3.377,-10.057C-2.447,-10.988 -1.321,-11.453 0,-11.453C1.34,-11.453 2.47,-10.992 3.391,-10.072C4.311,-9.151 4.772,-8.02 4.772,-6.681L4.772,-3.818L-2.863,-3.818Z" style="fill:rgb(89,87,87);fill-rule:nonzero;"/>
            </g>
            <g transform="matrix(4.16667,0,0,4.16667,2016.6,16310.2)">
                <path d="M0,11.452L0,-0.001C0,-0.637 0.318,-0.955 0.955,-0.955L5.726,-0.955C6.797,-0.955 7.701,-0.586 8.438,0.152C9.175,0.889 9.544,1.793 9.544,2.862L9.544,11.452C9.544,12.088 9.226,12.407 8.59,12.407C7.954,12.407 7.636,12.088 7.636,11.452L7.636,2.862C7.636,2.323 7.452,1.87 7.086,1.504C6.719,1.137 6.266,0.954 5.726,0.954L1.909,0.954L1.909,11.452C1.909,12.088 1.591,12.407 0.955,12.407C0.318,12.407 0,12.088 0,11.452" style="fill:rgb(89,87,87);fill-rule:nonzero;"/>
            </g>
            <g transform="matrix(4.16667,0,0,4.16667,2076.52,16330.1)">
                <path d="M0,-3.818L-0.955,-3.818C-1.591,-3.818 -1.909,-4.136 -1.909,-4.773C-1.909,-5.408 -1.591,-5.727 -0.955,-5.727L0,-5.727L0,-10.499C0,-11.135 0.318,-11.453 0.954,-11.453C1.59,-11.453 1.909,-11.135 1.909,-10.499L1.909,-5.727L4.772,-5.727C5.408,-5.727 5.726,-5.408 5.726,-4.773C5.726,-4.136 5.408,-3.818 4.772,-3.818L1.909,-3.818L1.909,6.68C1.909,7.317 1.59,7.635 0.954,7.635C0.318,7.635 0,7.317 0,6.68L0,-3.818Z" style="fill:rgb(89,87,87);fill-rule:nonzero;"/>
            </g>
            <g transform="matrix(4.16667,0,0,4.16667,2132.47,16353.9)">
                <path d="M0,-9.544C-0.791,-9.544 -1.466,-9.264 -2.025,-8.705C-2.584,-8.146 -2.863,-7.471 -2.863,-6.681L-2.863,-5.726L2.863,-5.726L2.863,-6.681C2.863,-7.471 2.583,-8.146 2.024,-8.705C1.465,-9.264 0.79,-9.544 0,-9.544M-2.863,-3.818L-2.863,-1.909C-2.863,-1.388 -2.676,-0.94 -2.299,-0.564C-1.923,-0.188 -1.475,-0 -0.955,-0L3.817,-0C4.454,-0 4.772,0.318 4.772,0.954C4.772,1.591 4.454,1.909 3.817,1.909L-0.955,1.909C-2.025,1.909 -2.928,1.54 -3.666,0.802C-4.403,0.065 -4.772,-0.839 -4.772,-1.909L-4.772,-6.681C-4.772,-8.001 -4.307,-9.127 -3.377,-10.057C-2.447,-10.988 -1.321,-11.453 0,-11.453C1.34,-11.453 2.47,-10.992 3.391,-10.072C4.311,-9.151 4.772,-8.02 4.772,-6.681L4.772,-3.818L-2.863,-3.818Z" style="fill:rgb(89,87,87);fill-rule:nonzero;"/>
            </g>
            <g transform="matrix(4.16667,0,0,4.16667,2164.55,16357.9)">
                <path d="M0,-11.453C0,-12.089 0.318,-12.407 0.955,-12.407L6.681,-12.407C7.317,-12.407 7.636,-12.089 7.636,-11.453L7.636,-9.544C7.636,-8.908 7.317,-8.59 6.681,-8.59C6.045,-8.59 5.726,-8.908 5.726,-9.544L5.726,-10.498L1.909,-10.498L1.909,0C1.909,0.636 1.591,0.954 0.955,0.954C0.318,0.954 0,0.636 0,0L0,-11.453Z" style="fill:rgb(89,87,87);fill-rule:nonzero;"/>
            </g>
            <g transform="matrix(4.16667,0,0,4.16667,2216.53,16377.8)">
                <path d="M0,-5.726C0.636,-5.726 0.954,-5.413 0.954,-4.786C0.954,-4.7 0.627,-3.345 -0.029,-0.723C-0.145,-0.241 -0.453,0 -0.955,0C-1.591,0 -1.909,-0.318 -1.909,-0.954C-1.909,-1.388 -1.581,-2.738 -0.925,-5.003C-0.791,-5.485 -0.482,-5.726 0,-5.726" style="fill:rgb(89,87,87);fill-rule:nonzero;"/>
            </g>
            <g transform="matrix(4.16667,0,0,4.16667,0,14627.3)">
                <rect x="546.538" y="398.214" width="1.349" height="19.14" style="fill:rgb(0,73,85);"/>
            </g>
            <g transform="matrix(4.16667,0,0,4.16667,0,14627.3)">
                <rect x="551.508" y="398.214" width="1.349" height="19.14" style="fill:rgb(0,73,85);"/>
            </g>
            <g transform="matrix(4.16667,0,0,4.16667,2346.7,16353.2)">
                <path d="M0,-12.894C-0.1,-13.161 -0.182,-13.423 -0.245,-13.681C-0.308,-13.903 -0.377,-14.126 -0.449,-14.349L-0.503,-14.349C-0.658,-13.761 -0.808,-13.285 -0.954,-12.92L-4.238,-4.045L3.298,-4.045L0,-12.894ZM5.997,3.123L3.763,-2.83L-4.715,-2.83L-6.951,3.123L-8.435,3.123L-1.063,-16.017L0.218,-16.017L7.511,3.123L5.997,3.123Z" style="fill:rgb(0,73,85);fill-rule:nonzero;"/>
            </g>
            <g transform="matrix(4.16667,0,0,4.16667,2383.42,16289.4)">
                <path d="M0,17.764L0,16.256C1.4,17.128 2.817,17.564 4.252,17.564C5.78,17.564 6.938,17.255 7.727,16.636C8.518,16.018 8.914,15.153 8.914,14.04C8.914,13.062 8.647,12.281 8.117,11.698C7.584,11.115 6.434,10.321 4.661,9.316C2.681,8.186 1.428,7.24 0.9,6.479C0.374,5.719 0.109,4.84 0.109,3.843C0.109,2.491 0.646,1.343 1.718,0.399C2.789,-0.544 4.221,-1.015 6.011,-1.015C7.174,-1.015 8.337,-0.824 9.5,-0.441L9.5,0.947C8.355,0.439 7.134,0.186 5.834,0.186C4.508,0.186 3.455,0.515 2.678,1.174C1.901,1.832 1.514,2.668 1.514,3.683C1.514,4.662 1.78,5.441 2.311,6.018C2.843,6.597 3.989,7.385 5.752,8.382C7.578,9.396 8.794,10.296 9.398,11.084C10.001,11.872 10.304,12.777 10.304,13.8C10.304,15.268 9.784,16.465 8.743,17.39C7.703,18.316 6.234,18.779 4.335,18.779C3.661,18.779 2.888,18.676 2.011,18.471C1.134,18.267 0.465,18.031 0,17.764" style="fill:rgb(0,73,85);fill-rule:nonzero;"/>
            </g>
            <g transform="matrix(4.16667,0,0,4.16667,0,14627.4)">
                <rect x="547.538" y="398.199" width="1.349" height="19.14" style="fill:rgb(35,25,22);"/>
            </g>
            <g transform="matrix(4.16667,0,0,4.16667,0,14618.6)">
                <rect x="546.479" y="399.257" width="1.349" height="19.14" style="fill:rgb(201,201,202);"/>
            </g>
            <g transform="matrix(4.16667,0,0,4.16667,0,14627.4)">
                <rect x="552.507" y="398.199" width="1.349" height="19.14" style="fill:rgb(35,25,22);"/>
            </g>
            <g transform="matrix(4.16667,0,0,4.16667,0,14618.6)">
                <rect x="551.449" y="399.257" width="1.349" height="19.14" style="fill:rgb(201,201,202);"/>
            </g>
            <g transform="matrix(4.16667,0,0,4.16667,2350.87,16353.3)">
                <path d="M0,-12.894C-0.1,-13.161 -0.182,-13.423 -0.245,-13.681C-0.308,-13.903 -0.377,-14.126 -0.449,-14.349L-0.503,-14.349C-0.658,-13.761 -0.808,-13.285 -0.954,-12.92L-4.238,-4.045L3.298,-4.045L0,-12.894ZM5.997,3.123L3.763,-2.83L-4.715,-2.83L-6.951,3.123L-8.435,3.123L-1.063,-16.017L0.218,-16.017L7.511,3.123L5.997,3.123Z" style="fill:rgb(35,25,22);fill-rule:nonzero;"/>
            </g>
            <g transform="matrix(4.16667,0,0,4.16667,2346.46,16348.9)">
                <path d="M0,-12.894C-0.1,-13.161 -0.182,-13.423 -0.245,-13.681C-0.308,-13.903 -0.377,-14.126 -0.449,-14.349L-0.503,-14.349C-0.658,-13.761 -0.808,-13.285 -0.954,-12.92L-4.238,-4.045L3.298,-4.045L0,-12.894ZM5.997,3.123L3.763,-2.83L-4.715,-2.83L-6.951,3.123L-8.435,3.123L-1.063,-16.017L0.218,-16.017L7.511,3.123L5.997,3.123Z" style="fill:rgb(201,201,202);fill-rule:nonzero;"/>
            </g>
            <g transform="matrix(4.16667,0,0,4.16667,2387.58,16289.5)">
                <path d="M0,17.764L0,16.256C1.4,17.128 2.817,17.564 4.252,17.564C5.78,17.564 6.938,17.255 7.727,16.636C8.518,16.018 8.914,15.153 8.914,14.04C8.914,13.062 8.647,12.281 8.117,11.698C7.584,11.115 6.434,10.321 4.661,9.316C2.681,8.186 1.428,7.24 0.9,6.479C0.374,5.719 0.109,4.839 0.109,3.843C0.109,2.491 0.646,1.343 1.718,0.399C2.789,-0.544 4.221,-1.015 6.011,-1.015C7.174,-1.015 8.337,-0.824 9.5,-0.441L9.5,0.947C8.355,0.439 7.134,0.186 5.834,0.186C4.508,0.186 3.455,0.515 2.678,1.174C1.901,1.832 1.514,2.668 1.514,3.683C1.514,4.662 1.78,5.441 2.311,6.018C2.843,6.597 3.989,7.385 5.752,8.382C7.578,9.396 8.794,10.296 9.398,11.084C10.001,11.872 10.304,12.777 10.304,13.8C10.304,15.268 9.784,16.465 8.743,17.39C7.703,18.316 6.234,18.779 4.335,18.779C3.661,18.779 2.888,18.676 2.011,18.471C1.134,18.267 0.465,18.031 0,17.764" style="fill:rgb(35,25,22);fill-rule:nonzero;"/>
            </g>
            <g transform="matrix(4.16667,0,0,4.16667,2383.18,16285)">
                <path d="M0,17.764L0,16.256C1.4,17.128 2.817,17.564 4.252,17.564C5.78,17.564 6.938,17.255 7.727,16.636C8.518,16.018 8.914,15.153 8.914,14.04C8.914,13.062 8.647,12.281 8.117,11.698C7.584,11.115 6.434,10.321 4.661,9.316C2.681,8.186 1.428,7.24 0.9,6.479C0.374,5.719 0.109,4.84 0.109,3.843C0.109,2.491 0.646,1.343 1.718,0.399C2.789,-0.544 4.221,-1.015 6.011,-1.015C7.174,-1.015 8.337,-0.824 9.5,-0.441L9.5,0.947C8.355,0.439 7.134,0.186 5.834,0.186C4.508,0.186 3.455,0.515 2.678,1.174C1.901,1.832 1.514,2.668 1.514,3.683C1.514,4.662 1.78,5.441 2.311,6.018C2.843,6.597 3.989,7.385 5.752,8.382C7.578,9.396 8.794,10.296 9.398,11.084C10.001,11.872 10.304,12.777 10.304,13.8C10.304,15.268 9.784,16.465 8.743,17.39C7.703,18.316 6.234,18.779 4.335,18.779C3.661,18.779 2.888,18.676 2.011,18.471C1.134,18.267 0.465,18.031 0,17.764" style="fill:rgb(201,201,202);fill-rule:nonzero;"/>
            </g>
            <g transform="matrix(4.16667,0,0,4.16667,764.451,16118.2)">
                <path d="M0,-5.639C-0.319,-2.019 -1.648,1.436 -4.211,4.011L-5.802,5.606L-1.399,10.009L-0.33,8.938C2.485,6.111 6.25,4.592 10.214,4.137C10.816,4.068 11.424,3.938 12.031,3.741C15.897,2.491 18.554,-1.31 18.373,-5.37C18.098,-11.522 12.126,-15.648 6.297,-13.771C3.371,-12.828 1.153,-10.345 0.324,-7.386C0.154,-6.782 0.049,-6.2 0,-5.639" style="fill:rgb(0,73,85);fill-rule:nonzero;"/>
            </g>
            <g transform="matrix(4.16667,0,0,4.16667,700.903,16215.2)">
                <path d="M0,-13.664C3.62,-13.983 7.075,-15.312 9.65,-17.875L10.333,-18.554L14.736,-14.151L14.577,-13.994C11.75,-11.179 10.231,-7.414 9.776,-3.45C9.707,-2.848 9.577,-2.24 9.38,-1.633C8.13,2.233 4.329,4.89 0.269,4.709C-5.883,4.434 -10.009,-1.538 -8.132,-7.367C-7.189,-10.293 -4.706,-12.511 -1.747,-13.34C-1.143,-13.51 -0.561,-13.615 0,-13.664" style="fill:rgb(0,73,85);fill-rule:nonzero;"/>
            </g>
            <g transform="matrix(4.16667,0,0,4.16667,863.661,16019)">
                <path d="M0,-5.639C-0.319,-2.019 -1.648,1.436 -4.211,4.011L-5.802,5.606L-1.399,10.009L-0.33,8.938C2.485,6.111 6.25,4.593 10.214,4.137C10.816,4.068 11.424,3.938 12.031,3.741C15.897,2.491 18.554,-1.31 18.373,-5.37C18.098,-11.522 12.126,-15.648 6.297,-13.771C3.371,-12.828 1.153,-10.345 0.324,-7.386C0.154,-6.782 0.049,-6.2 0,-5.639" style="fill:rgb(0,73,85);fill-rule:nonzero;"/>
            </g>
            <g transform="matrix(4.16667,0,0,4.16667,800.113,16116)">
                <path d="M0,-13.664C3.62,-13.983 7.075,-15.312 9.65,-17.875L10.333,-18.554L14.736,-14.151L14.577,-13.994C11.75,-11.179 10.231,-7.414 9.776,-3.45C9.707,-2.848 9.577,-2.24 9.38,-1.633C8.13,2.233 4.329,4.89 0.269,4.709C-5.883,4.434 -10.009,-1.538 -8.132,-7.367C-7.189,-10.293 -4.706,-12.511 -1.747,-13.34C-1.143,-13.51 -0.561,-13.615 0,-13.664" style="fill:rgb(0,73,85);fill-rule:nonzero;"/>
            </g>
            <g transform="matrix(4.16667,0,0,4.16667,805.268,16310.6)">
                <path d="M0,-12.752C-3.62,-13.071 -7.075,-14.4 -9.65,-16.963L-11.245,-18.554L-15.648,-14.151L-14.577,-13.082C-11.75,-10.267 -10.231,-6.502 -9.776,-2.538C-9.707,-1.936 -9.577,-1.328 -9.38,-0.721C-8.13,3.145 -4.329,5.802 -0.269,5.621C5.883,5.346 10.009,-0.626 8.132,-6.455C7.189,-9.381 4.706,-11.599 1.747,-12.428C1.143,-12.598 0.561,-12.703 0,-12.752" style="fill:rgb(0,73,85);fill-rule:nonzero;"/>
            </g>
            <g transform="matrix(4.16667,0,0,4.16667,741.72,16213.6)">
                <path d="M0,-4.727C0.319,-1.107 1.648,2.348 4.211,4.923L4.89,5.606L0.487,10.009L0.33,9.85C-2.485,7.023 -6.25,5.505 -10.214,5.049C-10.816,4.98 -11.424,4.85 -12.031,4.653C-15.897,3.403 -18.554,-0.398 -18.373,-4.458C-18.098,-10.61 -12.126,-14.736 -6.297,-12.859C-3.371,-11.916 -1.153,-9.433 -0.324,-6.474C-0.154,-5.87 -0.049,-5.288 0,-4.727" style="fill:rgb(0,73,85);fill-rule:nonzero;"/>
            </g>
            <g transform="matrix(4.16667,0,0,4.16667,1003.75,16112.1)">
                <path d="M0,-12.752C-3.62,-13.071 -7.075,-14.4 -9.65,-16.963L-11.245,-18.554L-15.648,-14.151L-14.577,-13.082C-11.75,-10.267 -10.231,-6.502 -9.776,-2.538C-9.707,-1.936 -9.577,-1.328 -9.38,-0.721C-8.13,3.145 -4.329,5.802 -0.269,5.621C5.883,5.346 10.009,-0.626 8.132,-6.455C7.189,-9.381 4.706,-11.599 1.747,-12.428C1.143,-12.598 0.561,-12.703 0,-12.752" style="fill:rgb(0,73,85);fill-rule:nonzero;"/>
            </g>
            <g transform="matrix(4.16667,0,0,4.16667,940.206,16015.1)">
                <path d="M0,-4.727C0.319,-1.107 1.648,2.348 4.211,4.923L4.89,5.606L0.487,10.009L0.33,9.85C-2.485,7.023 -6.25,5.504 -10.214,5.049C-10.816,4.98 -11.424,4.85 -12.031,4.653C-15.897,3.403 -18.554,-0.398 -18.373,-4.458C-18.098,-10.61 -12.126,-14.736 -6.297,-12.859C-3.371,-11.916 -1.153,-9.433 -0.324,-6.474C-0.154,-5.87 -0.049,-5.288 0,-4.727" style="fill:rgb(0,73,85);fill-rule:nonzero;"/>
            </g>
            <g transform="matrix(4.16667,0,0,4.16667,606.847,16310.6)">
                <path d="M0,-12.752C-3.62,-13.071 -7.075,-14.4 -9.65,-16.963L-11.245,-18.554L-15.648,-14.151L-14.577,-13.082C-11.75,-10.267 -10.231,-6.502 -9.776,-2.538C-9.707,-1.936 -9.577,-1.328 -9.38,-0.721C-8.13,3.145 -4.329,5.802 -0.269,5.621C5.883,5.346 10.009,-0.626 8.132,-6.455C7.189,-9.381 4.706,-11.599 1.747,-12.428C1.143,-12.598 0.561,-12.703 0,-12.752" style="fill:rgb(0,73,85);fill-rule:nonzero;"/>
            </g>
            <g transform="matrix(4.16667,0,0,4.16667,543.3,16213.6)">
                <path d="M0,-4.727C0.319,-1.107 1.648,2.348 4.211,4.923L4.89,5.606L0.487,10.009L0.33,9.85C-2.485,7.023 -6.25,5.504 -10.214,5.049C-10.816,4.98 -11.424,4.85 -12.031,4.653C-15.897,3.403 -18.554,-0.398 -18.373,-4.458C-18.098,-10.61 -12.126,-14.736 -6.297,-12.859C-3.371,-11.916 -1.153,-9.433 -0.324,-6.474C-0.154,-5.87 -0.049,-5.288 0,-4.727" style="fill:rgb(0,73,85);fill-rule:nonzero;"/>
            </g>
            <g transform="matrix(4.16667,0,0,4.16667,565.528,15919.3)">
                <path d="M0,-5.639C-0.319,-2.019 -1.648,1.436 -4.211,4.011L-5.802,5.606L-1.399,10.009L-0.33,8.938C2.485,6.111 6.25,4.593 10.214,4.137C10.816,4.068 11.424,3.938 12.031,3.741C15.897,2.491 18.554,-1.31 18.373,-5.37C18.098,-11.522 12.126,-15.648 6.297,-13.771C3.371,-12.829 1.153,-10.345 0.324,-7.386C0.154,-6.782 0.049,-6.2 0,-5.639" style="fill:rgb(0,73,85);fill-rule:nonzero;"/>
            </g>
            <g transform="matrix(4.16667,0,0,4.16667,501.98,16016.3)">
                <path d="M0,-13.664C3.62,-13.983 7.075,-15.312 9.65,-17.875L10.333,-18.554L14.736,-14.151L14.577,-13.994C11.75,-11.179 10.231,-7.414 9.776,-3.45C9.707,-2.848 9.577,-2.24 9.38,-1.633C8.13,2.233 4.329,4.89 0.269,4.709C-5.883,4.434 -10.009,-1.538 -8.132,-7.367C-7.189,-10.293 -4.706,-12.511 -1.747,-13.34C-1.143,-13.51 -0.561,-13.615 0,-13.664" style="fill:rgb(0,73,85);fill-rule:nonzero;"/>
            </g>
            <g transform="matrix(4.16667,0,0,4.16667,466.318,16018.5)">
                <path d="M0,-5.639C-0.319,-2.019 -1.648,1.436 -4.211,4.011L-5.802,5.606L-1.399,10.009L-0.33,8.938C2.485,6.111 6.25,4.593 10.214,4.137C10.816,4.068 11.424,3.938 12.031,3.741C15.897,2.491 18.554,-1.31 18.373,-5.37C18.098,-11.522 12.126,-15.648 6.297,-13.771C3.371,-12.828 1.153,-10.345 0.324,-7.386C0.154,-6.782 0.049,-6.2 0,-5.639" style="fill:rgb(0,73,85);fill-rule:nonzero;"/>
            </g>
            <g transform="matrix(4.16667,0,0,4.16667,402.77,16115.5)">
                <path d="M0,-13.664C3.62,-13.983 7.075,-15.312 9.65,-17.875L10.333,-18.554L14.736,-14.151L14.577,-13.994C11.75,-11.179 10.231,-7.414 9.776,-3.45C9.707,-2.848 9.577,-2.24 9.38,-1.633C8.13,2.233 4.329,4.89 0.269,4.709C-5.883,4.434 -10.009,-1.538 -8.132,-7.367C-7.189,-10.293 -4.706,-12.511 -1.747,-13.34C-1.143,-13.51 -0.561,-13.615 0,-13.664" style="fill:rgb(0,73,85);fill-rule:nonzero;"/>
            </g>
            <g transform="matrix(4.16667,0,0,4.16667,665.24,16019)">
                <path d="M0,-5.639C-0.319,-2.019 -1.648,1.436 -4.211,4.011L-5.802,5.606L-1.399,10.009L-0.33,8.938C2.485,6.111 6.25,4.593 10.214,4.137C10.816,4.068 11.424,3.938 12.031,3.741C15.897,2.491 18.554,-1.31 18.373,-5.37C18.098,-11.522 12.126,-15.648 6.297,-13.771C3.371,-12.828 1.153,-10.345 0.324,-7.386C0.154,-6.782 0.049,-6.2 0,-5.639" style="fill:rgb(0,73,85);fill-rule:nonzero;"/>
            </g>
            <g transform="matrix(4.16667,0,0,4.16667,601.693,16116)">
                <path d="M0,-13.664C3.62,-13.983 7.075,-15.312 9.65,-17.875L10.333,-18.554L14.736,-14.151L14.577,-13.994C11.75,-11.179 10.231,-7.414 9.776,-3.45C9.707,-2.848 9.577,-2.24 9.38,-1.633C8.13,2.233 4.329,4.89 0.269,4.709C-5.883,4.434 -10.009,-1.538 -8.132,-7.367C-7.189,-10.293 -4.706,-12.511 -1.747,-13.34C-1.143,-13.51 -0.561,-13.615 0,-13.664" style="fill:rgb(0,73,85);fill-rule:nonzero;"/>
            </g>
            <g transform="matrix(4.16667,0,0,4.16667,566.03,16118.2)">
                <path d="M0,-5.639C-0.319,-2.019 -1.648,1.436 -4.211,4.011L-5.802,5.606L-1.399,10.009L-0.33,8.938C2.485,6.111 6.25,4.593 10.214,4.137C10.816,4.068 11.424,3.938 12.031,3.741C15.897,2.491 18.554,-1.31 18.373,-5.37C18.098,-11.522 12.126,-15.648 6.297,-13.771C3.371,-12.828 1.153,-10.345 0.324,-7.386C0.154,-6.782 0.049,-6.2 0,-5.639" style="fill:rgb(0,73,85);fill-rule:nonzero;"/>
            </g>
            <g transform="matrix(4.16667,0,0,4.16667,502.483,16215.2)">
                <path d="M0,-13.664C3.62,-13.983 7.075,-15.312 9.65,-17.875L10.333,-18.554L14.736,-14.151L14.577,-13.994C11.75,-11.179 10.231,-7.414 9.776,-3.45C9.707,-2.848 9.577,-2.24 9.38,-1.633C8.13,2.233 4.329,4.89 0.269,4.709C-5.883,4.434 -10.009,-1.538 -8.132,-7.367C-7.189,-10.293 -4.706,-12.511 -1.747,-13.34C-1.143,-13.51 -0.561,-13.615 0,-13.664" style="fill:rgb(0,73,85);fill-rule:nonzero;"/>
            </g>
            <g transform="matrix(2.94481,-2.94775,-2.94775,-2.94481,741.81,15799.6)">
                <path d="M-6.508,-2.698C-11.589,-2.697 -15.707,1.421 -15.707,6.501C-15.707,11.582 -11.589,15.7 -6.508,15.701C-1.428,15.701 2.691,11.582 2.69,6.502C2.691,1.422 -1.427,-2.698 -6.508,-2.698" style="fill:rgb(182,201,0);fill-rule:nonzero;"/>
            </g>
            <g transform="matrix(2.94469,-2.94786,-2.94786,-2.94469,642.6,15898.8)">
                <path d="M-6.508,-2.698C-11.589,-2.697 -15.707,1.421 -15.707,6.501C-15.707,11.582 -11.589,15.701 -6.508,15.7C-1.428,15.701 2.691,11.582 2.69,6.501C2.69,1.421 -1.428,-2.698 -6.508,-2.698" style="fill:rgb(0,73,85);fill-rule:nonzero;"/>
            </g>
            <g transform="matrix(2.94469,-2.94786,-2.94786,-2.94469,543.39,15998)">
                <path d="M-6.508,-2.698C-11.589,-2.697 -15.707,1.421 -15.707,6.501C-15.707,11.582 -11.589,15.701 -6.508,15.7C-1.428,15.701 2.691,11.582 2.69,6.501C2.69,1.421 -1.428,-2.698 -6.508,-2.698" style="fill:rgb(0,73,85);fill-rule:nonzero;"/>
            </g>
            <g transform="matrix(2.94469,-2.94786,-2.94786,-2.94469,841.02,15898.8)">
                <path d="M-6.508,-2.698C-11.589,-2.697 -15.707,1.421 -15.707,6.501C-15.707,11.582 -11.589,15.701 -6.508,15.7C-1.428,15.701 2.691,11.582 2.69,6.501C2.69,1.421 -1.428,-2.698 -6.508,-2.698" style="fill:rgb(103,174,40);fill-rule:nonzero;"/>
            </g>
            <g transform="matrix(2.94481,-2.94775,-2.94775,-2.94481,741.81,15998)">
                <path d="M-6.508,-2.698C-11.589,-2.697 -15.707,1.421 -15.707,6.501C-15.707,11.582 -11.589,15.7 -6.508,15.701C-1.428,15.701 2.691,11.582 2.69,6.502C2.691,1.422 -1.427,-2.698 -6.508,-2.698" style="fill:rgb(0,73,85);fill-rule:nonzero;"/>
            </g>
            <g transform="matrix(2.94469,-2.94786,-2.94786,-2.94469,642.6,16097.2)">
                <path d="M-6.508,-2.698C-11.589,-2.697 -15.707,1.421 -15.707,6.501C-15.707,11.582 -11.589,15.701 -6.508,15.7C-1.428,15.701 2.691,11.582 2.69,6.501C2.69,1.421 -1.428,-2.698 -6.508,-2.698" style="fill:rgb(0,73,85);fill-rule:nonzero;"/>
            </g>
            <g transform="matrix(2.94469,-2.94786,-2.94786,-2.94469,543.39,16196.4)">
                <path d="M-6.508,-2.698C-11.589,-2.697 -15.707,1.421 -15.707,6.501C-15.707,11.582 -11.589,15.701 -6.508,15.7C-1.428,15.701 2.691,11.582 2.69,6.501C2.69,1.421 -1.428,-2.698 -6.508,-2.698" style="fill:rgb(0,73,85);fill-rule:nonzero;"/>
            </g>
            <g transform="matrix(2.94481,-2.94775,-2.94775,-2.94481,444.18,16097.2)">
                <path d="M-6.508,-2.698C-11.589,-2.697 -15.707,1.421 -15.707,6.501C-15.707,11.582 -11.589,15.7 -6.508,15.701C-1.428,15.701 2.691,11.582 2.69,6.502C2.691,1.422 -1.427,-2.698 -6.508,-2.698" style="fill:rgb(0,73,85);fill-rule:nonzero;"/>
            </g>
            <g transform="matrix(2.94469,-2.94786,-2.94786,-2.94469,940.23,15998)">
                <path d="M-6.508,-2.698C-11.589,-2.697 -15.707,1.421 -15.707,6.501C-15.707,11.582 -11.589,15.701 -6.508,15.7C-1.428,15.701 2.691,11.582 2.69,6.501C2.69,1.421 -1.428,-2.698 -6.508,-2.698" style="fill:rgb(0,73,85);fill-rule:nonzero;"/>
            </g>
            <g transform="matrix(2.94469,-2.94786,-2.94786,-2.94469,841.02,16097.2)">
                <path d="M-6.508,-2.698C-11.589,-2.697 -15.707,1.421 -15.707,6.501C-15.707,11.582 -11.589,15.701 -6.508,15.7C-1.428,15.701 2.691,11.582 2.69,6.501C2.69,1.421 -1.428,-2.698 -6.508,-2.698" style="fill:rgb(0,73,85);fill-rule:nonzero;"/>
            </g>
            <g transform="matrix(2.94481,-2.94775,-2.94775,-2.94481,642.6,16295.7)">
                <path d="M-6.508,-2.698C-11.589,-2.697 -15.707,1.421 -15.707,6.501C-15.707,11.582 -11.589,15.7 -6.508,15.701C-1.428,15.701 2.691,11.582 2.69,6.502C2.691,1.422 -1.427,-2.698 -6.508,-2.698" style="fill:rgb(0,73,85);fill-rule:nonzero;"/>
            </g>
            <g transform="matrix(2.94481,-2.94775,-2.94775,-2.94481,940.231,16196.5)">
                <path d="M-6.508,-2.698C-11.589,-2.697 -15.707,1.421 -15.707,6.501C-15.707,11.582 -11.589,15.7 -6.508,15.701C-1.428,15.701 2.691,11.582 2.69,6.502C2.691,1.422 -1.427,-2.698 -6.508,-2.698" style="fill:rgb(103,174,40);fill-rule:nonzero;"/>
            </g>
            <g transform="matrix(2.94469,-2.94786,-2.94786,-2.94469,741.811,16394.9)">
                <path d="M-6.508,-2.698C-11.589,-2.697 -15.707,1.421 -15.707,6.501C-15.707,11.582 -11.589,15.701 -6.508,15.7C-1.428,15.701 2.691,11.582 2.69,6.501C2.69,1.421 -1.428,-2.698 -6.508,-2.698" style="fill:rgb(182,201,0);fill-rule:nonzero;"/>
            </g>
        </g>
    </g>
</svg>
