<?xml version="1.0" encoding="UTF-8" standalone="no"?>
<!DOCTYPE svg PUBLIC "-//W3C//DTD SVG 1.1//EN" "http://www.w3.org/Graphics/SVG/1.1/DTD/svg11.dtd">
<svg width="100%" height="100%" viewBox="0 0 400 400" version="1.1" xmlns="http://www.w3.org/2000/svg" xmlns:xlink="http://www.w3.org/1999/xlink" xml:space="preserve" xmlns:serif="http://www.serif.com/" style="fill-rule:evenodd;clip-rule:evenodd;stroke-linejoin:round;stroke-miterlimit:2;">
    <g transform="matrix(1,0,0,1,-450,-519)">
        <g id="justfont_logo_400x400" transform="matrix(1,0,0,1,0,519)">
            <rect x="450" y="0" width="400" height="400" style="fill:white;"/>
            <g transform="matrix(0.0789086,0,0,0.0789086,598.709,184.218)">
                <g transform="matrix(0,-4.16667,-4.16667,0,-443.826,-315.145)">
                    <path d="M-96.534,-96.534C-149.848,-96.534 -193.068,-53.314 -193.068,0C-193.068,53.314 -149.848,96.534 -96.534,96.534C-43.22,96.534 0,53.314 0,0C0,-53.314 -43.22,-96.534 -96.534,-96.534" style="fill:white;fill-rule:nonzero;"/>
                </g>
                <g transform="matrix(4.16667,0,0,4.16667,-443.816,489.075)">
                    <path d="M0,-193.068C-53.312,-193.068 -96.536,-149.844 -96.536,-96.532C-96.536,-43.214 -53.312,0 0,0C2.803,0 5.501,-0.135 8.231,-0.365C8.231,-0.365 8.243,-0.67 8.243,-0.83L8.243,-124.943C8.243,-141.021 21.424,-154.191 37.489,-154.191C41.729,-154.191 45.975,-153.739 50.22,-152.854C54.015,-151.959 56.471,-149.054 56.471,-145.486C56.471,-140.796 52.674,-138.344 49.105,-138.344C45.314,-138.344 42.625,-139.681 37.489,-139.681C29.684,-139.681 23.428,-133.433 23.428,-125.616L23.428,-107.315L49.105,-107.315C53.12,-107.315 56.471,-104.187 56.471,-99.947C56.471,-95.701 53.12,-92.804 49.105,-92.804L23.428,-92.804L23.428,-2.87C65.42,-13.341 96.537,-51.3 96.537,-96.532C96.537,-149.844 53.315,-193.068 0,-193.068" style="fill:rgb(135,179,119);fill-rule:nonzero;"/>
                </g>
                <g transform="matrix(-4.16667,0,0,4.16667,-576.837,-68.7383)">
                    <path d="M0.006,-20.316C5.581,-20.316 10.051,-15.851 10.051,-10.266C10.051,-4.683 5.581,0 0.006,0C-5.579,0 -10.045,-4.683 -10.045,-10.266C-10.045,-15.851 -5.579,-20.316 0.006,-20.316" style="fill:rgb(62,79,51);fill-rule:nonzero;"/>
                </g>
                <g transform="matrix(4.16667,0,0,4.16667,-576.862,715.375)">
                    <path d="M0,-163.857C-4.235,-163.857 -7.588,-160.289 -7.588,-156.269L-7.588,-41.082C-7.588,-27.011 -14.73,-17.191 -27.004,-14.29C-30.583,-13.621 -32.812,-10.721 -32.812,-7.371C-32.812,-2.68 -29.016,0 -25.673,0C-24.991,0 -24.771,0 -23.431,-0.23C-4.685,-3.8 7.588,-20.771 7.588,-41.752L7.588,-156.269C7.588,-160.289 4.245,-163.857 0,-163.857" style="fill:rgb(62,79,51);fill-rule:nonzero;"/>
                </g>
                <g transform="matrix(4.16667,0,0,4.16667,243.912,365.03)">
                    <path d="M0,-105.168C0,-108.28 2.48,-110.767 5.595,-110.767C8.711,-110.767 11.206,-108.28 11.206,-105.168C11.206,-102.045 8.711,-99.425 5.595,-99.425C2.48,-99.425 0,-102.045 0,-105.168M1.36,-81.609C1.36,-83.859 3.23,-85.849 5.595,-85.849C7.975,-85.849 9.841,-83.859 9.841,-81.609L9.841,-17.699C9.841,-5.994 2.985,3.469 -7.481,5.47C-8.235,5.599 -8.351,5.599 -8.736,5.599C-10.601,5.599 -12.711,4.109 -12.711,1.48C-12.711,-0.381 -11.466,-2.006 -9.476,-2.38C-2.625,-4.001 1.36,-9.476 1.36,-17.326L1.36,-81.609Z" style="fill:rgb(69,69,71);fill-rule:nonzero;"/>
                </g>
                <g transform="matrix(4.16667,0,0,4.16667,564.174,260.128)">
                    <path d="M0,-56.433C0,-58.682 1.86,-60.673 4.23,-60.673C6.595,-60.673 8.456,-58.682 8.456,-56.433L8.456,-4.365C8.456,-1.87 6.845,0.38 4.605,1.122C-1.375,3.115 -7.735,4.24 -14.205,4.24C-28.297,4.24 -37.011,-4.735 -37.011,-18.566L-37.011,-56.433C-37.011,-58.682 -35.141,-60.673 -32.776,-60.673C-30.416,-60.673 -28.536,-58.682 -28.536,-56.433L-28.536,-17.941C-28.536,-8.963 -23.186,-3.608 -14.205,-3.608C-9.351,-3.608 -4.495,-4.365 0,-5.73L0,-56.433Z" style="fill:rgb(69,69,71);fill-rule:nonzero;"/>
                </g>
                <g transform="matrix(4.16667,0,0,4.16667,756.161,141.282)">
                    <path d="M0,0.614C-5.855,-1.881 -10.841,-6.361 -10.841,-15.206C-10.841,-25.545 -1.75,-32.149 9.351,-32.149C15.45,-32.149 20.306,-30.907 24.541,-29.04C26.161,-28.287 27.161,-26.789 27.161,-25.052C27.161,-22.802 25.296,-21.187 22.916,-21.187C22.421,-21.187 21.926,-21.304 21.306,-21.559C17.561,-23.304 13.075,-24.299 8.34,-24.299C3.495,-24.299 -2.365,-21.929 -2.365,-15.576C-2.365,-10.593 1.13,-8.099 3.86,-6.979L15.566,-2.251C23.051,0.742 28.027,6.72 28.027,14.323C28.027,24.66 19.561,32.763 8.096,32.763C1.62,32.763 -3.615,31.388 -8.345,29.148C-9.965,28.4 -10.841,27.025 -10.841,25.288C-10.841,23.037 -9.09,21.3 -6.595,21.3C-5.98,21.3 -5.486,21.555 -4.86,21.795C-0.865,23.541 3.495,24.915 8.465,24.915C14.321,24.915 19.561,21.422 19.561,15.69C19.561,10.459 16.951,7.717 11.71,5.477L0,0.614Z" style="fill:rgb(69,69,71);fill-rule:nonzero;"/>
                </g>
                <g transform="matrix(4.16667,0,0,4.16667,985.066,260.1)">
                    <path d="M0,-81.342C0,-83.715 1.86,-85.584 4.23,-85.584C6.59,-85.584 8.456,-83.715 8.456,-81.342L8.456,-59.423L22.791,-59.423C25.031,-59.423 26.897,-57.679 26.897,-55.306C26.897,-52.941 25.031,-51.318 22.791,-51.318L8.456,-51.318L8.456,-12.579C8.456,-7.227 11.956,-3.981 16.315,-3.981C18.186,-3.981 21.681,-4.476 22.911,-4.476C24.656,-4.476 26.897,-2.984 26.897,-0.489C26.897,1.507 25.531,3.244 23.411,3.614C21.041,3.991 18.676,4.242 16.315,4.242C7.345,4.242 0,-2.729 0,-12.826L0,-81.342Z" style="fill:rgb(69,69,71);fill-rule:nonzero;"/>
                </g>
                <g transform="matrix(4.16667,0,0,4.16667,1216.52,209.789)">
                    <path d="M0,-57.192C0,-66.162 7.35,-73.509 16.315,-73.509C18.686,-73.509 21.056,-73.255 23.425,-72.76C25.54,-72.257 26.906,-70.642 26.906,-68.653C26.906,-66.03 24.791,-64.664 22.801,-64.664C20.675,-64.664 19.186,-65.404 16.315,-65.404C11.96,-65.404 8.465,-61.927 8.465,-57.564L8.465,-47.349L22.801,-47.349C25.046,-47.349 26.906,-45.604 26.906,-43.231C26.906,-40.866 25.046,-39.243 22.801,-39.243L8.465,-39.243L8.465,12.084C8.465,14.454 6.605,16.317 4.235,16.317C1.859,16.317 0,14.454 0,12.084L0,-57.192Z" style="fill:rgb(69,69,71);fill-rule:nonzero;"/>
                </g>
                <g transform="matrix(4.16667,0,0,4.16667,1573.11,180.165)">
                    <path d="M0,-18.056C0,-27.776 -5.74,-33.631 -15.456,-33.631C-25.171,-33.631 -30.896,-27.776 -30.896,-18.056L-30.896,0C-30.896,9.728 -25.171,15.583 -15.456,15.583C-5.74,15.583 0,9.728 0,0L0,-18.056ZM8.46,-0.617C8.46,13.715 -1.13,23.426 -15.456,23.426C-29.781,23.426 -39.381,13.715 -39.381,-0.617L-39.381,-17.438C-39.381,-31.764 -29.781,-41.482 -15.456,-41.482C-1.13,-41.482 8.46,-31.764 8.46,-17.438L8.46,-0.617Z" style="fill:rgb(69,69,71);fill-rule:nonzero;"/>
                </g>
                <g transform="matrix(4.16667,0,0,4.16667,1876.73,185.356)">
                    <path d="M0,-20.547C0,-29.525 -5.355,-34.877 -14.2,-34.877C-19.186,-34.877 -24.05,-34.138 -28.531,-32.762L-28.531,17.947C-28.531,20.31 -30.396,22.18 -32.766,22.18C-35.136,22.18 -37.001,20.31 -37.001,17.947L-37.001,-34.138C-37.001,-36.617 -35.381,-38.742 -33.011,-39.607C-27.156,-41.73 -20.811,-42.727 -14.2,-42.727C-0.63,-42.727 8.476,-33.512 8.476,-19.929L8.476,17.947C8.476,20.31 6.595,22.18 4.236,22.18C1.87,22.18 0,20.31 0,17.947L0,-20.547Z" style="fill:rgb(69,69,71);fill-rule:nonzero;"/>
                </g>
                <g transform="matrix(4.16667,0,0,4.16667,2033.96,260.1)">
                    <path d="M0,-81.342C0,-83.715 1.859,-85.584 4.235,-85.584C6.605,-85.584 8.47,-83.715 8.47,-81.342L8.47,-59.423L22.801,-59.423C25.046,-59.423 26.901,-57.679 26.901,-55.306C26.901,-52.941 25.046,-51.318 22.801,-51.318L8.47,-51.318L8.47,-12.579C8.47,-7.227 11.96,-3.981 16.321,-3.981C18.186,-3.981 21.671,-4.476 22.911,-4.476C24.661,-4.476 26.901,-2.984 26.901,-0.489C26.901,1.507 25.54,3.244 23.421,3.614C21.051,3.991 18.681,4.242 16.321,4.242C7.345,4.242 0,-2.729 0,-12.826L0,-81.342Z" style="fill:rgb(69,69,71);fill-rule:nonzero;"/>
                </g>
            </g>
        </g>
    </g>
</svg>
