<?xml version="1.0" encoding="UTF-8" standalone="no"?>
<svg
   width="100%"
   height="100%"
   viewBox="0 0 400 400"
   version="1.1"
   xml:space="preserve"
   style="fill-rule:evenodd;clip-rule:evenodd;stroke-linejoin:round;stroke-miterlimit:2;"
   id="svg14"
   sodipodi:docname="justfont.svg"
   inkscape:version="1.4 (86a8ad7, 2024-10-11)"
   xmlns:inkscape="http://www.inkscape.org/namespaces/inkscape"
   xmlns:sodipodi="http://sodipodi.sourceforge.net/DTD/sodipodi-0.dtd"
   xmlns="http://www.w3.org/2000/svg"
   xmlns:svg="http://www.w3.org/2000/svg"><defs
   id="defs14" /><sodipodi:namedview
   id="namedview14"
   pagecolor="#ffffff"
   bordercolor="#000000"
   borderopacity="0.25"
   inkscape:showpageshadow="2"
   inkscape:pageopacity="0.0"
   inkscape:pagecheckerboard="0"
   inkscape:deskcolor="#d1d1d1"
   inkscape:zoom="2.8425"
   inkscape:cx="199.8241"
   inkscape:cy="200"
   inkscape:window-width="2560"
   inkscape:window-height="1351"
   inkscape:window-x="-9"
   inkscape:window-y="-9"
   inkscape:window-maximized="1"
   inkscape:current-layer="svg14"
   showguides="true"><sodipodi:guide
     position="444.67898,200.5277"
     orientation="0,-1"
     id="guide14"
     inkscape:locked="false" /></sodipodi:namedview>
    <g
   transform="matrix(0.1062972,0,0,0.1062972,130.90702,186.74059)"
   id="g13"
   style="clip-rule:evenodd;fill-rule:evenodd;stroke-width:0.742339;stroke-linejoin:round;stroke-miterlimit:2">
                <g
   transform="matrix(0,-4.16667,-4.16667,0,-443.826,-315.145)"
   id="g1"
   style="stroke-width:0.742339">
                    <path
   d="m -96.534,-96.534 c -53.314,0 -96.534,43.22 -96.534,96.534 0,53.314 43.22,96.534 96.534,96.534 C -43.22,96.534 0,53.314 0,0 0,-53.314 -43.22,-96.534 -96.534,-96.534"
   style="fill:#ffffff;fill-rule:nonzero;stroke-width:0.742339"
   id="path1" />
                </g>
                <g
   transform="matrix(4.16667,0,0,4.16667,-443.816,489.075)"
   id="g2"
   style="stroke-width:0.742339">
                    <path
   d="m 0,-193.068 c -53.312,0 -96.536,43.224 -96.536,96.536 C -96.536,-43.214 -53.312,0 0,0 c 2.803,0 5.501,-0.135 8.231,-0.365 0,0 0.012,-0.305 0.012,-0.465 v -124.113 c 0,-16.078 13.181,-29.248 29.246,-29.248 4.24,0 8.486,0.452 12.731,1.337 3.795,0.895 6.251,3.8 6.251,7.368 0,4.69 -3.797,7.142 -7.366,7.142 -3.791,0 -6.48,-1.337 -11.616,-1.337 -7.805,0 -14.061,6.248 -14.061,14.065 v 18.301 h 25.677 c 4.015,0 7.366,3.128 7.366,7.368 0,4.246 -3.351,7.143 -7.366,7.143 H 23.428 V -2.87 C 65.42,-13.341 96.537,-51.3 96.537,-96.532 96.537,-149.844 53.315,-193.068 0,-193.068"
   style="fill:#87b377;fill-rule:nonzero;stroke-width:0.742339"
   id="path2" />
                </g>
                <g
   transform="matrix(-4.16667,0,0,4.16667,-576.837,-68.7383)"
   id="g3"
   style="stroke-width:0.742339">
                    <path
   d="m 0.006,-20.316 c 5.575,0 10.045,4.465 10.045,10.05 C 10.051,-4.683 5.581,0 0.006,0 c -5.585,0 -10.051,-4.683 -10.051,-10.266 0,-5.585 4.466,-10.05 10.051,-10.05"
   style="fill:#3e4f33;fill-rule:nonzero;stroke-width:0.742339"
   id="path3" />
                </g>
                <g
   transform="matrix(4.16667,0,0,4.16667,-576.862,715.375)"
   id="g4"
   style="stroke-width:0.742339">
                    <path
   d="m 0,-163.857 c -4.235,0 -7.588,3.568 -7.588,7.588 v 115.187 c 0,14.071 -7.142,23.891 -19.416,26.792 -3.579,0.669 -5.808,3.569 -5.808,6.919 0,4.691 3.796,7.371 7.139,7.371 0.682,0 0.902,0 2.242,-0.23 C -4.685,-3.8 7.588,-20.771 7.588,-41.752 v -114.517 c 0,-4.02 -3.343,-7.588 -7.588,-7.588"
   style="fill:#3e4f33;fill-rule:nonzero;stroke-width:0.742339"
   id="path4" />
                </g>
                <g
   transform="matrix(4.16667,0,0,4.16667,243.912,365.03)"
   id="g5"
   style="stroke-width:0.742339">
                    <path
   d="m 0,-105.168 c 0,-3.112 2.48,-5.599 5.595,-5.599 3.116,0 5.611,2.487 5.611,5.599 0,3.123 -2.495,5.743 -5.611,5.743 -3.115,0 -5.595,-2.62 -5.595,-5.743 m 1.36,23.559 c 0,-2.25 1.87,-4.24 4.235,-4.24 2.38,0 4.246,1.99 4.246,4.24 v 63.91 c 0,11.705 -6.856,21.168 -17.322,23.169 -0.754,0.129 -0.87,0.129 -1.255,0.129 -1.865,0 -3.975,-1.49 -3.975,-4.119 0,-1.861 1.245,-3.486 3.235,-3.86 C -2.625,-4.001 1.36,-9.476 1.36,-17.326 Z"
   style="fill:#454547;fill-rule:nonzero;stroke-width:0.742339"
   id="path5" />
                </g>
                <g
   transform="matrix(4.16667,0,0,4.16667,564.174,260.128)"
   id="g6"
   style="stroke-width:0.742339">
                    <path
   d="m 0,-56.433 c 0,-2.249 1.86,-4.24 4.23,-4.24 2.365,0 4.226,1.991 4.226,4.24 v 52.068 c 0,2.495 -1.611,4.745 -3.851,5.487 -5.98,1.993 -12.34,3.118 -18.81,3.118 -14.092,0 -22.806,-8.975 -22.806,-22.806 v -37.867 c 0,-2.249 1.87,-4.24 4.235,-4.24 2.36,0 4.24,1.991 4.24,4.24 v 38.492 c 0,8.978 5.35,14.333 14.331,14.333 4.854,0 9.71,-0.757 14.205,-2.122 z"
   style="fill:#454547;fill-rule:nonzero;stroke-width:0.742339"
   id="path6" />
                </g>
                <g
   transform="matrix(4.16667,0,0,4.16667,756.161,141.282)"
   id="g7"
   style="stroke-width:0.742339">
                    <path
   d="m 0,0.614 c -5.855,-2.495 -10.841,-6.975 -10.841,-15.82 0,-10.339 9.091,-16.943 20.192,-16.943 6.099,0 10.955,1.242 15.19,3.109 1.62,0.753 2.62,2.251 2.62,3.988 0,2.25 -1.865,3.865 -4.245,3.865 -0.495,0 -0.99,-0.117 -1.61,-0.372 -3.745,-1.745 -8.231,-2.74 -12.966,-2.74 -4.845,0 -10.705,2.37 -10.705,8.723 0,4.983 3.495,7.477 6.225,8.597 l 11.706,4.728 c 7.485,2.993 12.461,8.971 12.461,16.574 0,10.337 -8.466,18.44 -19.931,18.44 -6.476,0 -11.711,-1.375 -16.441,-3.615 -1.62,-0.748 -2.496,-2.123 -2.496,-3.86 0,-2.251 1.751,-3.988 4.246,-3.988 0.615,0 1.109,0.255 1.735,0.495 3.995,1.746 8.355,3.12 13.325,3.12 5.856,0 11.096,-3.493 11.096,-9.225 0,-5.231 -2.61,-7.973 -7.851,-10.213 z"
   style="fill:#454547;fill-rule:nonzero;stroke-width:0.742339"
   id="path7" />
                </g>
                <g
   transform="matrix(4.16667,0,0,4.16667,985.066,260.1)"
   id="g8"
   style="stroke-width:0.742339">
                    <path
   d="m 0,-81.342 c 0,-2.373 1.86,-4.242 4.23,-4.242 2.36,0 4.226,1.869 4.226,4.242 v 21.919 h 14.335 c 2.24,0 4.106,1.744 4.106,4.117 0,2.365 -1.866,3.988 -4.106,3.988 H 8.456 v 38.739 c 0,5.352 3.5,8.598 7.859,8.598 1.871,0 5.366,-0.495 6.596,-0.495 1.745,0 3.986,1.492 3.986,3.987 0,1.996 -1.366,3.733 -3.486,4.103 -2.37,0.377 -4.735,0.628 -7.096,0.628 C 7.345,4.242 0,-2.729 0,-12.826 Z"
   style="fill:#454547;fill-rule:nonzero;stroke-width:0.742339"
   id="path8" />
                </g>
                <g
   transform="matrix(4.16667,0,0,4.16667,1216.52,209.789)"
   id="g9"
   style="stroke-width:0.742339">
                    <path
   d="m 0,-57.192 c 0,-8.97 7.35,-16.317 16.315,-16.317 2.371,0 4.741,0.254 7.11,0.749 2.115,0.503 3.481,2.118 3.481,4.107 0,2.623 -2.115,3.989 -4.105,3.989 -2.126,0 -3.615,-0.74 -6.486,-0.74 -4.355,0 -7.85,3.477 -7.85,7.84 v 10.215 h 14.336 c 2.245,0 4.105,1.745 4.105,4.118 0,2.365 -1.86,3.988 -4.105,3.988 H 8.465 v 51.327 c 0,2.37 -1.86,4.233 -4.23,4.233 C 1.859,16.317 0,14.454 0,12.084 Z"
   style="fill:#454547;fill-rule:nonzero;stroke-width:0.742339"
   id="path9" />
                </g>
                <g
   transform="matrix(4.16667,0,0,4.16667,1573.11,180.165)"
   id="g10"
   style="stroke-width:0.742339">
                    <path
   d="m 0,-18.056 c 0,-9.72 -5.74,-15.575 -15.456,-15.575 -9.715,0 -15.44,5.855 -15.44,15.575 V 0 c 0,9.728 5.725,15.583 15.44,15.583 C -5.74,15.583 0,9.728 0,0 Z m 8.46,17.439 c 0,14.332 -9.59,24.043 -23.916,24.043 -14.325,0 -23.925,-9.711 -23.925,-24.043 v -16.821 c 0,-14.326 9.6,-24.044 23.925,-24.044 14.326,0 23.916,9.718 23.916,24.044 z"
   style="fill:#454547;fill-rule:nonzero;stroke-width:0.742339"
   id="path10" />
                </g>
                <g
   transform="matrix(4.16667,0,0,4.16667,1876.73,185.356)"
   id="g11"
   style="stroke-width:0.742339">
                    <path
   d="m 0,-20.547 c 0,-8.978 -5.355,-14.33 -14.2,-14.33 -4.986,0 -9.85,0.739 -14.331,2.115 v 50.709 c 0,2.363 -1.865,4.233 -4.235,4.233 -2.37,0 -4.235,-1.87 -4.235,-4.233 v -52.085 c 0,-2.479 1.62,-4.604 3.99,-5.469 5.855,-2.123 12.2,-3.12 18.811,-3.12 13.57,0 22.676,9.215 22.676,22.798 v 37.876 c 0,2.363 -1.881,4.233 -4.24,4.233 C 1.87,22.18 0,20.31 0,17.947 Z"
   style="fill:#454547;fill-rule:nonzero;stroke-width:0.742339"
   id="path11" />
                </g>
                <g
   transform="matrix(4.16667,0,0,4.16667,2033.96,260.1)"
   id="g12"
   style="stroke-width:0.742339">
                    <path
   d="m 0,-81.342 c 0,-2.373 1.859,-4.242 4.235,-4.242 2.37,0 4.235,1.869 4.235,4.242 v 21.919 h 14.331 c 2.245,0 4.1,1.744 4.1,4.117 0,2.365 -1.855,3.988 -4.1,3.988 H 8.47 v 38.739 c 0,5.352 3.49,8.598 7.851,8.598 1.865,0 5.35,-0.495 6.59,-0.495 1.75,0 3.99,1.492 3.99,3.987 0,1.996 -1.361,3.733 -3.48,4.103 -2.37,0.377 -4.74,0.628 -7.1,0.628 C 7.345,4.242 0,-2.729 0,-12.826 Z"
   style="fill:#454547;fill-rule:nonzero;stroke-width:0.742339"
   id="path12" />
                </g>
            </g>
</svg>
