<?xml version="1.0" encoding="UTF-8" standalone="no"?>
<!DOCTYPE svg PUBLIC "-//W3C//DTD SVG 1.1//EN" "http://www.w3.org/Graphics/SVG/1.1/DTD/svg11.dtd">
<svg width="100%" height="100%" viewBox="0 0 400 400" version="1.1" xmlns="http://www.w3.org/2000/svg" xmlns:xlink="http://www.w3.org/1999/xlink" xml:space="preserve" xmlns:serif="http://www.serif.com/" style="fill-rule:evenodd;clip-rule:evenodd;stroke-linejoin:round;stroke-miterlimit:2;">
    <g transform="matrix(1,0,0,1,0,-2616)">
        <g id="咪卡_logo_400x400" transform="matrix(1,0,0,1,-450,2616)">
            <rect x="450" y="0" width="400" height="400" style="fill:white;"/>
            <g transform="matrix(0.133178,0,0,0.133178,-376.175,-2627.11)">
                <g transform="matrix(8.63164,0,0,8.63164,6402.64,19215)">
                    <path d="M94.655,177.864L103.654,177.864L103.654,204.883L94.655,204.883L94.655,177.864ZM70.813,177.864L80.382,177.864L87.631,189.877L93.332,180.104L93.332,193.704L86.837,204.883L70.813,177.864ZM70.792,204.883L70.792,180.368L79.201,194.478L79.201,204.883L70.792,204.883Z" style="fill:rgb(89,87,87);fill-rule:nonzero;"/>
                </g>
                <g transform="matrix(8.63164,0,0,8.63164,6402.64,19190.4)">
                    <path d="M109.844,186.111L118.864,186.111L118.864,207.734L109.844,207.734L109.844,186.111ZM109.844,177.865L118.864,177.865L118.864,183.607L109.844,183.607L109.844,177.865Z" style="fill:rgb(89,87,87);fill-rule:nonzero;"/>
                </g>
                <g transform="matrix(8.63164,0,0,8.63164,7568.15,20796.9)">
                    <path d="M0,21.623L0,16.574L3.991,16.574L3.991,13.866L12.99,13.866L12.99,16.227L7.595,21.623L0,21.623ZM0,5.396L0,0L7.595,0L12.99,5.396L12.99,8.633L3.991,8.633L3.991,5.396L0,5.396ZM-1.425,21.623L-5.029,21.623L-10.425,16.227L-10.425,5.396L-5.029,0L-1.425,0L-1.425,21.623Z" style="fill:rgb(89,87,87);fill-rule:nonzero;"/>
                </g>
                <g transform="matrix(8.63164,0,0,8.63164,7849.69,20796.9)">
                    <path d="M0,21.623L0,5.396L-12.807,5.396L-12.807,2.708L-10.099,0L3.4,0L8.796,5.396L8.796,21.623L0,21.623ZM-1.425,9.04L-1.425,12.786L-6.067,12.786L-6.067,16.574L-1.425,16.574L-1.425,18.956L-4.113,21.623L-10.995,21.623L-14.619,18.06L-14.619,12.644L-10.995,9.04L-1.425,9.04Z" style="fill:rgb(89,87,87);fill-rule:nonzero;"/>
                </g>
                <g transform="matrix(8.63164,0,0,8.63164,8098.17,20936.9)">
                    <path d="M0,-10.831L-3.828,-10.831L-3.828,-13.193L-0.814,-16.227L4.642,-16.227L9.02,-11.177L9.02,-5.578L0,-5.578L0,-10.831ZM-14.273,-16.227L-5.274,-16.227L-5.274,5.396L-14.273,5.396L-14.273,-16.227Z" style="fill:rgb(89,87,87);fill-rule:nonzero;"/>
                </g>
                <g transform="matrix(8.63164,0,0,8.63164,8302.74,20796.9)">
                    <path d="M0,21.623L0,16.574L12.094,16.574L12.094,18.915L9.407,21.623L0,21.623ZM0,12.949L0,9.183L4.744,9.183L4.744,5.396L0,5.396L0,0L7.635,0L13.031,5.396L13.031,12.949L0,12.949ZM-1.425,21.623L-5.029,21.623L-10.425,16.227L-10.425,5.396L-5.029,0L-1.425,0L-1.425,21.623Z" style="fill:rgb(89,87,87);fill-rule:nonzero;"/>
                </g>
                <g transform="matrix(8.63164,0,0,8.63164,6660.04,21368.8)">
                    <path d="M0,-16.227L0,-21.623L10.099,-21.623L15.495,-16.227L15.495,-6.963L10.099,-1.547L0,-1.547L0,-6.963L6.536,-6.963L6.536,-16.227L0,-16.227ZM-10.262,-21.623L-1.425,-21.623L-1.425,5.396L-10.262,5.396L-10.262,-21.623Z" style="fill:rgb(89,87,87);fill-rule:nonzero;"/>
                </g>
                <g transform="matrix(8.63164,0,0,8.63164,6963.38,21368.8)">
                    <path d="M0,-10.831L-3.828,-10.831L-3.828,-13.193L-0.814,-16.227L4.642,-16.227L9.02,-11.177L9.02,-5.578L0,-5.578L0,-10.831ZM-14.273,-16.227L-5.274,-16.227L-5.274,5.396L-14.273,5.396L-14.273,-16.227Z" style="fill:rgb(89,87,87);fill-rule:nonzero;"/>
                </g>
                <g transform="matrix(8.63164,0,0,8.63164,7287.6,21275.4)">
                    <path d="M0,10.831L-5.396,16.227L-11.422,16.227L-11.422,11.177L-9.183,11.177L-9.183,-0.001L-11.422,-0.001L-11.422,-5.396L-5.396,-5.396L0,-0.001L0,10.831ZM-15.189,11.177L-12.848,11.177L-12.848,16.227L-18.895,16.227L-24.29,10.831L-24.29,-0.001L-18.895,-5.396L-12.848,-5.396L-12.848,-0.001L-15.189,-0.001L-15.189,11.177Z" style="fill:rgb(89,87,87);fill-rule:nonzero;"/>
                </g>
                <g transform="matrix(8.63164,0,0,8.63164,6402.64,20054.2)">
                    <path d="M131.824,157.695L122.825,157.695L122.825,127.826L131.824,127.826L131.824,157.695ZM117.062,152.645L121.399,152.645L121.399,155.557L119.261,157.695L112.929,157.695L108.063,152.828L108.063,140.938L112.929,136.072L121.399,136.072L121.399,141.467L117.062,141.467L117.062,152.645Z" style="fill:rgb(89,87,87);fill-rule:nonzero;"/>
                </g>
                <g transform="matrix(8.63164,0,0,8.63164,6402.64,20125.4)">
                    <path d="M160.977,149.449L151.978,149.449L151.978,127.826L160.977,127.826L160.977,149.449ZM146.541,144.053L150.552,144.053L150.552,146.741L147.946,149.449L142.958,149.449L137.542,144.053L137.542,127.826L146.541,127.826L146.541,144.053Z" style="fill:rgb(89,87,87);fill-rule:nonzero;"/>
                </g>
                <g transform="matrix(8.63164,0,0,8.63164,7931.5,21228.8)">
                    <path d="M0,21.623L0,16.574L3.991,16.574L3.991,13.866L12.99,13.866L12.99,16.227L7.595,21.623L0,21.623ZM0,5.396L0,0L7.595,0L12.99,5.396L12.99,8.633L3.991,8.633L3.991,5.396L0,5.396ZM-1.425,21.623L-5.029,21.623L-10.425,16.227L-10.425,5.396L-5.029,0L-1.425,0L-1.425,21.623Z" style="fill:rgb(89,87,87);fill-rule:nonzero;"/>
                </g>
                <g transform="matrix(8.63164,0,0,8.63164,6402.64,20078.8)">
                    <path d="M206.154,133.222L211,133.222L211,138.618L206.154,138.618L206.154,133.222ZM204.729,149.449L210.674,149.449L210.674,154.845L201.145,154.845L195.729,149.449L195.729,138.617L193.937,138.617L193.937,133.222L195.729,133.222L195.729,130.88L204.729,127.826L204.729,149.449Z" style="fill:rgb(89,87,87);fill-rule:nonzero;"/>
                </g>
                <g transform="matrix(8.63164,0,0,8.63164,6402.64,20054.2)">
                    <path d="M215.805,136.073L224.825,136.073L224.825,157.696L215.805,157.696L215.805,136.073ZM215.805,127.826L224.825,127.826L224.825,133.568L215.805,133.568L215.805,127.826Z" style="fill:rgb(89,87,87);fill-rule:nonzero;"/>
                </g>
                <g transform="matrix(8.63164,0,0,8.63164,8602.47,21275.4)">
                    <path d="M0,10.831L-5.399,16.227L-11.426,16.227L-11.426,11.177L-9.186,11.177L-9.186,-0.001L-11.426,-0.001L-11.426,-5.396L-5.399,-5.396L0,-0.001L0,10.831ZM-15.192,11.177L-12.851,11.177L-12.851,16.227L-18.898,16.227L-24.294,10.831L-24.294,-0.001L-18.898,-5.396L-12.851,-5.396L-12.851,-0.001L-15.192,-0.001L-15.192,11.177Z" style="fill:rgb(89,87,87);fill-rule:nonzero;"/>
                </g>
                <g transform="matrix(8.63164,0,0,8.63164,8776.26,21368.8)">
                    <path d="M0,-10.831L-3.869,-10.831L-3.869,-13.193L-0.855,-16.227L4.154,-16.227L9.02,-11.36L9.02,5.396L0,5.396L0,-10.831ZM-14.415,-16.227L-5.334,-16.227L-5.334,5.396L-14.415,5.396L-14.415,-16.227Z" style="fill:rgb(89,87,87);fill-rule:nonzero;"/>
                </g>
                <g transform="matrix(8.63164,0,0,8.63164,6829.59,21693.5)">
                    <path d="M0,-3.057C-0.069,-3.403 -0.156,-3.719 -0.26,-4.005C-0.364,-4.291 -0.492,-4.538 -0.644,-4.746C-0.795,-4.954 -0.969,-5.115 -1.164,-5.228C-1.358,-5.34 -1.577,-5.397 -1.82,-5.397C-2.323,-5.397 -2.713,-5.294 -2.99,-5.09C-3.268,-4.886 -3.406,-4.619 -3.406,-4.29C-3.406,-4.055 -3.358,-3.865 -3.263,-3.717C-3.168,-3.57 -3.029,-3.437 -2.847,-3.32C-2.665,-3.203 -2.442,-3.094 -2.178,-2.995C-1.913,-2.894 -1.616,-2.78 -1.287,-2.649C-0.915,-2.501 -0.572,-2.354 -0.26,-2.206C0.052,-2.059 0.318,-1.881 0.539,-1.672C0.761,-1.464 0.932,-1.212 1.053,-0.917C1.174,-0.622 1.235,-0.249 1.235,0.202C1.235,0.636 1.163,1.023 1.021,1.361C0.877,1.7 0.674,1.988 0.409,2.227C0.145,2.465 -0.171,2.648 -0.54,2.774C-0.908,2.899 -1.313,2.963 -1.755,2.963C-2.076,2.963 -2.386,2.923 -2.685,2.845C-2.983,2.767 -3.246,2.629 -3.471,2.429C-3.645,2.551 -3.824,2.659 -4.011,2.755C-4.197,2.849 -4.39,2.927 -4.589,2.989C-4.693,2.685 -4.767,2.38 -4.811,2.072C-4.854,1.764 -4.875,1.446 -4.875,1.117C-4.875,0.891 -4.868,0.671 -4.855,0.454C-4.843,0.237 -4.818,0.016 -4.784,-0.209L-3.939,-0.209C-3.939,0.077 -3.902,0.367 -3.828,0.662C-3.755,0.957 -3.636,1.227 -3.471,1.474C-3.307,1.721 -3.092,1.922 -2.827,2.079C-2.563,2.234 -2.245,2.312 -1.872,2.312C-1.534,2.312 -1.25,2.276 -1.021,2.202C-0.791,2.129 -0.604,2.026 -0.462,1.896C-0.318,1.766 -0.215,1.617 -0.149,1.448C-0.085,1.279 -0.052,1.099 -0.052,0.909C-0.052,0.605 -0.13,0.352 -0.286,0.148C-0.442,-0.056 -0.698,-0.218 -1.053,-0.339C-1.582,-0.522 -2.067,-0.702 -2.509,-0.879C-2.951,-1.057 -3.335,-1.269 -3.659,-1.516C-3.984,-1.763 -4.238,-2.056 -4.42,-2.394C-4.603,-2.732 -4.693,-3.148 -4.693,-3.642C-4.693,-4.014 -4.622,-4.35 -4.479,-4.649C-4.336,-4.948 -4.143,-5.202 -3.9,-5.41C-3.657,-5.618 -3.374,-5.776 -3.049,-5.884C-2.724,-5.993 -2.379,-6.046 -2.015,-6.046C-1.694,-6.046 -1.387,-5.988 -1.092,-5.871C-0.798,-5.754 -0.551,-5.557 -0.352,-5.28C-0.256,-5.453 -0.117,-5.596 0.064,-5.708C0.247,-5.821 0.429,-5.904 0.611,-5.955C0.741,-5.539 0.821,-5.07 0.852,-4.545C0.882,-4.021 0.896,-3.525 0.896,-3.057L0,-3.057Z" style="fill:rgb(89,87,87);fill-rule:nonzero;"/>
                </g>
                <g transform="matrix(8.63164,0,0,8.63164,6866.61,21642.1)">
                    <path d="M0,8.723L0,8.177C0.901,8.177 1.353,7.813 1.353,7.085L1.353,1.209C1.353,0.95 1.175,0.82 0.819,0.82C0.551,0.82 0.319,0.865 0.124,0.955C-0.071,1.047 -0.24,1.183 -0.383,1.366C-0.526,1.547 -0.647,1.775 -0.747,2.048C-0.847,2.321 -0.936,2.639 -1.014,3.003L-1.819,2.886L-1.456,0C-1.23,0.035 -0.983,0.061 -0.715,0.078C-0.446,0.096 -0.233,0.104 -0.077,0.104L5.058,0.104C5.248,0.104 5.482,0.096 5.76,0.078C6.037,0.061 6.288,0.035 6.514,0L6.514,2.847L5.76,2.912C5.716,2.228 5.571,1.716 5.324,1.378C5.077,1.04 4.65,0.871 4.043,0.871C3.671,0.871 3.484,0.984 3.484,1.209L3.484,7.085C3.484,7.813 3.943,8.177 4.862,8.177L4.862,8.723L0,8.723Z" style="fill:rgb(89,87,87);fill-rule:nonzero;"/>
                </g>
                <g transform="matrix(8.63164,0,0,8.63164,6969.85,21685)">
                    <path d="M0,-1.014C0.233,-1.014 0.443,-1.03 0.63,-1.06C0.816,-1.09 0.977,-1.16 1.111,-1.269C1.245,-1.377 1.35,-1.54 1.423,-1.758C1.497,-1.976 1.534,-2.272 1.534,-2.646C1.534,-2.951 1.497,-3.202 1.423,-3.403C1.35,-3.603 1.25,-3.762 1.124,-3.879C0.998,-3.996 0.849,-4.079 0.676,-4.127C0.502,-4.175 0.316,-4.2 0.117,-4.2L-0.144,-4.2C-0.403,-4.2 -0.533,-3.986 -0.533,-3.56L-0.533,-1.145C-0.507,-1.058 -0.437,-1.014 -0.325,-1.014L0,-1.014ZM5.369,2.483C5.369,2.604 5.33,2.745 5.252,2.905C5.174,3.066 5.059,3.219 4.907,3.367C4.756,3.514 4.573,3.639 4.361,3.744C4.148,3.847 3.913,3.9 3.652,3.9C3.115,3.9 2.721,3.817 2.47,3.653C2.219,3.488 2.049,3.28 1.963,3.029C1.781,2.517 1.62,2.053 1.481,1.637C1.343,1.221 1.198,0.864 1.046,0.565C0.895,0.266 0.722,0.037 0.526,-0.123C0.331,-0.284 0.082,-0.365 -0.222,-0.365C-0.386,-0.365 -0.49,-0.333 -0.533,-0.273L-0.533,2.457C-0.533,2.96 -0.147,3.211 0.624,3.211L0.624,3.757L-3.849,3.757L-3.849,3.211C-3.103,3.211 -2.73,2.96 -2.73,2.457L-2.73,-3.562C-2.73,-4.047 -3.133,-4.29 -3.939,-4.29L-3.939,-4.863L-1.898,-4.863C-1.612,-4.863 -1.37,-4.865 -1.17,-4.868C-0.971,-4.873 -0.763,-4.879 -0.546,-4.888C-0.33,-4.897 -0.08,-4.904 0.201,-4.908C0.482,-4.912 0.84,-4.914 1.273,-4.914C1.725,-4.914 2.11,-4.858 2.431,-4.745C2.751,-4.632 3.014,-4.478 3.217,-4.283C3.421,-4.088 3.568,-3.858 3.659,-3.593C3.75,-3.328 3.796,-3.04 3.796,-2.728C3.796,-2.138 3.57,-1.659 3.12,-1.29C2.669,-0.921 2.058,-0.689 1.287,-0.593C1.599,-0.55 1.867,-0.498 2.093,-0.438C2.318,-0.377 2.509,-0.297 2.665,-0.198C2.82,-0.098 2.953,0.023 3.062,0.166C3.17,0.309 3.267,0.475 3.354,0.666C3.475,0.943 3.57,1.217 3.64,1.49C3.709,1.763 3.78,2.007 3.854,2.223C3.928,2.44 4.011,2.616 4.102,2.75C4.192,2.883 4.324,2.951 4.498,2.951C4.688,2.951 4.836,2.752 4.939,2.353L5.369,2.483Z" style="fill:rgb(89,87,87);fill-rule:nonzero;"/>
                </g>
                <g transform="matrix(8.63164,0,0,8.63164,7027.64,21643)">
                    <path d="M0,8.619L0,8.073C0.78,8.073 1.17,7.822 1.17,7.319L1.17,1.548C1.17,0.897 0.749,0.572 -0.091,0.572L-0.091,0L7.371,0L7.475,2.549L6.682,2.613C6.604,2.137 6.491,1.77 6.344,1.515C6.196,1.26 6.019,1.073 5.811,0.956C5.603,0.839 5.364,0.769 5.096,0.748C4.827,0.726 4.528,0.716 4.199,0.716C3.913,0.716 3.692,0.757 3.536,0.839C3.38,0.921 3.302,1.039 3.302,1.194L3.302,3.473C3.302,3.68 3.401,3.783 3.601,3.783C3.809,3.783 3.999,3.77 4.173,3.744C4.346,3.719 4.5,3.66 4.635,3.569C4.769,3.477 4.879,3.342 4.966,3.159C5.053,2.977 5.109,2.73 5.135,2.418L5.889,2.418L5.889,5.89L5.135,5.89C5.109,5.595 5.065,5.356 5.005,5.175C4.944,4.992 4.859,4.853 4.751,4.759C4.643,4.663 4.507,4.598 4.342,4.563C4.177,4.529 3.978,4.507 3.744,4.498C3.449,4.524 3.302,4.641 3.302,4.849L3.302,7.28C3.302,7.696 3.627,7.904 4.277,7.904C4.806,7.904 5.228,7.863 5.544,7.781C5.86,7.698 6.118,7.573 6.318,7.404C6.518,7.235 6.678,7.02 6.799,6.761C6.92,6.5 7.046,6.188 7.176,5.824L7.917,5.929L7.553,8.619L0,8.619Z" style="fill:rgb(89,87,87);fill-rule:nonzero;"/>
                </g>
                <g transform="matrix(8.63164,0,0,8.63164,7140.29,21699)">
                    <path d="M0,-4.561L-1.026,-2.079C-1.122,-1.871 -1.17,-1.741 -1.17,-1.688C-1.17,-1.619 -1.035,-1.584 -0.767,-1.584L0.832,-1.584C1.04,-1.584 1.145,-1.602 1.145,-1.636C1.145,-1.68 1.062,-1.914 0.897,-2.338L0,-4.561ZM1.04,2.133L1.04,1.6C1.162,1.584 1.289,1.566 1.424,1.548C1.559,1.532 1.68,1.512 1.788,1.49C1.896,1.468 1.985,1.443 2.055,1.412C2.124,1.381 2.158,1.349 2.158,1.315C2.158,1.271 2.147,1.221 2.126,1.166C2.104,1.109 2.08,1.046 2.055,0.976L1.482,-0.61C1.447,-0.705 1.361,-0.772 1.223,-0.811C1.084,-0.85 0.94,-0.87 0.793,-0.87L-1.104,-0.87C-1.382,-0.87 -1.551,-0.783 -1.611,-0.61L-2.027,0.716C-2.045,0.76 -2.058,0.807 -2.066,0.86C-2.075,0.912 -2.08,0.968 -2.08,1.029C-2.08,1.367 -1.711,1.536 -0.975,1.536L-0.975,2.133L-4.004,2.133L-4.004,1.536C-3.519,1.501 -3.158,1.207 -2.925,0.652L0.156,-6.694L1.365,-6.525L4.395,1.093C4.429,1.189 4.485,1.267 4.563,1.328C4.642,1.388 4.73,1.436 4.83,1.47C4.93,1.505 5.031,1.534 5.136,1.555C5.239,1.577 5.339,1.592 5.435,1.6L5.435,2.133L1.04,2.133Z" style="fill:rgb(89,87,87);fill-rule:nonzero;"/>
                </g>
                <g transform="matrix(8.63164,0,0,8.63164,7261.48,21643)">
                    <path d="M0,8.619L0,8.073C0.754,8.073 1.131,7.787 1.131,7.216L1.027,1.781L-1.547,8.619L-2.717,8.619L-5.499,1.82L-5.551,7.033C-5.551,7.726 -5.126,8.073 -4.277,8.073L-4.277,8.619L-7.514,8.619L-7.514,8.073C-7.124,8.073 -6.825,7.98 -6.617,7.794C-6.409,7.607 -6.301,7.319 -6.292,6.93L-6.187,1.248C-6.187,1.144 -6.194,1.052 -6.207,0.969C-6.221,0.887 -6.269,0.817 -6.351,0.761C-6.433,0.705 -6.561,0.659 -6.733,0.624C-6.907,0.59 -7.149,0.572 -7.462,0.572L-7.462,0L-3.978,0L-1.469,6.292L0.949,0L4.018,0L4.018,0.572C3.757,0.572 3.549,0.592 3.394,0.631C3.237,0.67 3.113,0.722 3.022,0.787C2.932,0.851 2.873,0.924 2.847,1.001C2.821,1.079 2.809,1.162 2.809,1.248L2.964,7.124C2.981,7.757 3.367,8.073 4.121,8.073L4.121,8.619L0,8.619Z" style="fill:rgb(89,87,87);fill-rule:nonzero;"/>
                </g>
                <g transform="matrix(8.63164,0,0,8.63164,7315.01,21643)">
                    <path d="M0,8.619L0,8.073C0.806,8.073 1.209,7.809 1.209,7.28L1.209,1.599C1.209,0.915 0.788,0.572 -0.052,0.572L-0.052,0L4.498,0L4.498,0.572C3.727,0.572 3.341,0.915 3.341,1.599L3.341,7.28C3.341,7.809 3.748,8.073 4.562,8.073L4.562,8.619L0,8.619Z" style="fill:rgb(89,87,87);fill-rule:nonzero;"/>
                </g>
                <g transform="matrix(8.63164,0,0,8.63164,7434.51,21643)">
                    <path d="M0,8.775L-5.525,2.964L-5.525,6.643C-5.525,7.596 -5.083,8.073 -4.199,8.073L-4.199,8.619L-7.437,8.619L-7.437,8.073C-6.708,8.073 -6.344,7.596 -6.344,6.643L-6.344,1.001C-6.344,0.715 -6.769,0.572 -7.618,0.572L-7.618,0L-5.161,0L-0.286,5.226L-0.286,1.885C-0.286,1.009 -0.724,0.572 -1.6,0.572L-1.6,0L1.625,0L1.625,0.572C0.836,0.572 0.441,1.009 0.441,1.885L0.441,8.658L0,8.775Z" style="fill:rgb(89,87,87);fill-rule:nonzero;"/>
                </g>
                <g transform="matrix(8.63164,0,0,8.63164,7524.17,21642.2)">
                    <path d="M0,8.853C-0.173,8.784 -0.338,8.688 -0.493,8.567C-0.649,8.446 -0.784,8.32 -0.896,8.19C-1.2,8.416 -1.549,8.59 -1.943,8.716C-2.338,8.841 -2.742,8.905 -3.158,8.905C-4.45,8.905 -5.449,8.542 -6.155,7.819C-6.861,7.095 -7.215,6.005 -7.215,4.549C-7.215,3.882 -7.139,3.267 -6.987,2.704C-6.836,2.14 -6.6,1.655 -6.278,1.248C-5.958,0.84 -5.549,0.522 -5.05,0.292C-4.552,0.063 -3.96,-0.052 -3.275,-0.052C-3.076,-0.052 -2.864,-0.04 -2.639,-0.013C-2.413,0.013 -2.192,0.054 -1.976,0.11C-1.759,0.166 -1.553,0.24 -1.358,0.332C-1.163,0.422 -0.992,0.533 -0.845,0.663C-0.628,0.325 -0.324,0.099 0.065,-0.013C0.386,0.707 0.546,1.733 0.546,3.068L-0.377,3.068C-0.594,2.184 -0.888,1.551 -1.261,1.169C-1.634,0.789 -2.141,0.598 -2.781,0.598C-3.215,0.598 -3.57,0.695 -3.848,0.89C-4.125,1.085 -4.344,1.341 -4.504,1.657C-4.665,1.974 -4.775,2.337 -4.836,2.749C-4.896,3.161 -4.927,3.58 -4.927,4.003C-4.927,4.394 -4.914,4.832 -4.888,5.317C-4.861,5.802 -4.783,6.257 -4.653,6.682C-4.523,7.107 -4.32,7.464 -4.043,7.754C-3.766,8.044 -3.375,8.19 -2.873,8.19C-2.344,8.19 -1.947,8.063 -1.684,7.808C-1.419,7.553 -1.287,7.116 -1.287,6.495C-1.287,5.674 -1.725,5.265 -2.6,5.265L-2.6,4.718L1.586,4.718L1.586,5.265C0.832,5.265 0.455,5.559 0.455,6.149L0.455,8.853L0,8.853Z" style="fill:rgb(89,87,87);fill-rule:nonzero;"/>
                </g>
                <g transform="matrix(8.63164,0,0,8.63164,7596.76,21728.4)">
                    <path d="M0,-10.425C0,-10.494 0.059,-10.549 0.176,-10.588C0.293,-10.627 0.416,-10.647 0.547,-10.647C0.693,-10.647 0.83,-10.627 0.956,-10.588C1.081,-10.549 1.145,-10.494 1.145,-10.425L1.145,-0.012C1.145,0.066 1.084,0.125 0.963,0.164C0.841,0.203 0.72,0.222 0.599,0.222C0.451,0.222 0.314,0.203 0.188,0.164C0.063,0.125 0,0.066 0,-0.012L0,-10.425Z" style="fill:rgb(89,87,87);fill-rule:nonzero;"/>
                </g>
                <g transform="matrix(8.63164,0,0,8.63164,7700.9,21643.8)">
                    <path d="M0,8.633L-2.925,1.249C-3.168,0.737 -3.536,0.482 -4.03,0.482L-4.03,-0.091L0.286,-0.091L0.286,0.482L-0.364,0.482C-0.615,0.482 -0.741,0.533 -0.741,0.638C-0.741,0.82 -0.707,1.002 -0.637,1.184L1.43,6.67L3.327,1.444C3.362,1.34 3.38,1.196 3.38,1.015C3.38,0.659 2.989,0.482 2.21,0.482L2.21,-0.091L5.434,-0.091L5.434,0.482L4.952,0.482C4.831,0.482 4.726,0.533 4.634,0.638C4.543,0.741 4.45,0.894 4.354,1.093L1.273,8.724L0,8.633Z" style="fill:rgb(89,87,87);fill-rule:nonzero;"/>
                </g>
                <g transform="matrix(8.63164,0,0,8.63164,7759.69,21643)">
                    <path d="M0,8.619L0,8.073C0.807,8.073 1.209,7.809 1.209,7.28L1.209,1.599C1.209,0.915 0.789,0.572 -0.052,0.572L-0.052,0L4.498,0L4.498,0.572C3.727,0.572 3.341,0.915 3.341,1.599L3.341,7.28C3.341,7.809 3.748,8.073 4.563,8.073L4.563,8.619L0,8.619Z" style="fill:rgb(89,87,87);fill-rule:nonzero;"/>
                </g>
                <g transform="matrix(8.63164,0,0,8.63164,7845.75,21655.8)">
                    <path d="M0,5.617C0,5.825 0.018,5.985 0.053,6.097C0.087,6.211 0.148,6.298 0.235,6.358C0.322,6.419 0.433,6.455 0.567,6.469C0.702,6.481 0.87,6.488 1.07,6.488C1.914,6.488 2.547,6.195 2.969,5.61C3.39,5.025 3.602,4.104 3.602,2.847C3.602,1.608 3.393,0.689 2.975,0.092C2.558,-0.506 1.853,-0.805 0.861,-0.805C0.687,-0.805 0.544,-0.799 0.431,-0.785C0.317,-0.773 0.229,-0.742 0.163,-0.695C0.098,-0.647 0.055,-0.575 0.032,-0.481C0.011,-0.385 0,-0.259 0,-0.104L0,5.617ZM-3.341,7.138L-3.341,6.592C-3.09,6.592 -2.884,6.579 -2.724,6.553C-2.563,6.527 -2.439,6.474 -2.353,6.396C-2.267,6.319 -2.208,6.208 -2.178,6.065C-2.147,5.923 -2.132,5.734 -2.132,5.5L-2.132,0.209C-2.132,-0.086 -2.153,-0.3 -2.197,-0.435C-2.24,-0.569 -2.31,-0.662 -2.405,-0.714C-2.5,-0.766 -2.628,-0.801 -2.788,-0.819C-2.949,-0.835 -3.146,-0.87 -3.38,-0.922L-3.38,-1.494C-3.163,-1.468 -2.96,-1.45 -2.769,-1.443C-2.578,-1.434 -2.384,-1.429 -2.184,-1.429C-1.915,-1.429 -1.67,-1.434 -1.449,-1.443C-1.229,-1.45 -0.988,-1.462 -0.728,-1.475C-0.468,-1.487 -0.167,-1.498 0.176,-1.507C0.518,-1.516 0.949,-1.521 1.469,-1.521C2.146,-1.521 2.745,-1.44 3.27,-1.279C3.794,-1.119 4.236,-0.865 4.596,-0.52C4.955,-0.172 5.229,0.278 5.415,0.833C5.601,1.388 5.694,2.054 5.694,2.835C5.694,3.58 5.614,4.223 5.453,4.765C5.293,5.307 5.035,5.754 4.68,6.104C4.324,6.455 3.861,6.716 3.289,6.885C2.717,7.054 2.015,7.138 1.183,7.138L-3.341,7.138Z" style="fill:rgb(89,87,87);fill-rule:nonzero;"/>
                </g>
                <g transform="matrix(8.63164,0,0,8.63164,7913.2,21643)">
                    <path d="M0,8.619L0,8.073C0.78,8.073 1.17,7.822 1.17,7.319L1.17,1.548C1.17,0.897 0.75,0.572 -0.091,0.572L-0.091,0L7.371,0L7.476,2.549L6.683,2.613C6.604,2.137 6.491,1.77 6.344,1.515C6.196,1.26 6.02,1.073 5.812,0.956C5.604,0.839 5.364,0.769 5.096,0.748C4.827,0.726 4.528,0.716 4.199,0.716C3.913,0.716 3.692,0.757 3.536,0.839C3.38,0.921 3.302,1.039 3.302,1.194L3.302,3.473C3.302,3.68 3.401,3.783 3.602,3.783C3.81,3.783 4,3.77 4.173,3.744C4.347,3.719 4.5,3.66 4.635,3.569C4.769,3.477 4.88,3.342 4.966,3.159C5.053,2.977 5.109,2.73 5.135,2.418L5.889,2.418L5.889,5.89L5.135,5.89C5.109,5.595 5.065,5.356 5.005,5.175C4.944,4.992 4.86,4.853 4.752,4.759C4.644,4.663 4.507,4.598 4.342,4.563C4.178,4.529 3.979,4.507 3.744,4.498C3.449,4.524 3.302,4.641 3.302,4.849L3.302,7.28C3.302,7.696 3.627,7.904 4.277,7.904C4.806,7.904 5.229,7.863 5.545,7.781C5.861,7.698 6.119,7.573 6.318,7.404C6.518,7.235 6.678,7.02 6.799,6.761C6.921,6.5 7.046,6.188 7.176,5.824L7.917,5.929L7.553,8.619L0,8.619Z" style="fill:rgb(89,87,87);fill-rule:nonzero;"/>
                </g>
                <g transform="matrix(8.63164,0,0,8.63164,8035.95,21647.4)">
                    <path d="M0,7.657C0.46,7.657 0.837,7.559 1.131,7.364C1.426,7.169 1.658,6.9 1.827,6.557C1.996,6.214 2.112,5.81 2.178,5.345C2.243,4.882 2.275,4.385 2.275,3.855C2.275,3.36 2.243,2.879 2.178,2.41C2.112,1.941 1.991,1.524 1.813,1.16C1.636,0.795 1.387,0.502 1.066,0.28C0.745,0.059 0.325,-0.052 -0.194,-0.052C-0.672,-0.052 -1.053,0.053 -1.339,0.261C-1.625,0.47 -1.844,0.749 -1.995,1.101C-2.147,1.453 -2.247,1.856 -2.294,2.312C-2.342,2.767 -2.366,3.247 -2.366,3.751C-2.366,4.298 -2.331,4.81 -2.262,5.287C-2.192,5.764 -2.069,6.179 -1.892,6.531C-1.714,6.883 -1.474,7.158 -1.17,7.358C-0.866,7.557 -0.477,7.657 0,7.657M4.498,3.758C4.498,4.494 4.381,5.144 4.147,5.708C3.913,6.271 3.59,6.745 3.179,7.131C2.767,7.516 2.281,7.809 1.723,8.009C1.164,8.208 0.555,8.307 -0.104,8.307C-0.728,8.307 -1.312,8.222 -1.858,8.053C-2.404,7.885 -2.882,7.621 -3.289,7.261C-3.696,6.901 -4.017,6.44 -4.251,5.877C-4.484,5.313 -4.602,4.641 -4.602,3.861C-4.602,3.073 -4.489,2.394 -4.264,1.827C-4.038,1.26 -3.725,0.792 -3.321,0.423C-2.918,0.054 -2.441,-0.216 -1.892,-0.39C-1.341,-0.563 -0.745,-0.65 -0.104,-0.65C0.528,-0.65 1.125,-0.557 1.684,-0.37C2.243,-0.184 2.73,0.094 3.146,0.462C3.563,0.83 3.892,1.29 4.134,1.84C4.377,2.39 4.498,3.029 4.498,3.758" style="fill:rgb(89,87,87);fill-rule:nonzero;"/>
                </g>
                <g transform="matrix(8.63164,0,0,8.63164,8138.51,21728.4)">
                    <path d="M0,-10.425C0,-10.494 0.059,-10.549 0.176,-10.588C0.293,-10.627 0.416,-10.647 0.546,-10.647C0.693,-10.647 0.83,-10.627 0.956,-10.588C1.081,-10.549 1.145,-10.494 1.145,-10.425L1.145,-0.012C1.145,0.066 1.083,0.125 0.962,0.164C0.841,0.203 0.72,0.222 0.599,0.222C0.451,0.222 0.314,0.203 0.188,0.164C0.062,0.125 0,0.066 0,-0.012L0,-10.425Z" style="fill:rgb(89,87,87);fill-rule:nonzero;"/>
                </g>
                <g transform="matrix(8.63164,0,0,8.63164,8257.22,21693.5)">
                    <path d="M0,-3.057C-0.069,-3.403 -0.156,-3.719 -0.26,-4.005C-0.364,-4.291 -0.492,-4.538 -0.644,-4.746C-0.795,-4.954 -0.969,-5.115 -1.163,-5.228C-1.358,-5.34 -1.577,-5.397 -1.82,-5.397C-2.322,-5.397 -2.713,-5.294 -2.99,-5.09C-3.268,-4.886 -3.406,-4.619 -3.406,-4.29C-3.406,-4.055 -3.358,-3.865 -3.263,-3.717C-3.168,-3.57 -3.029,-3.437 -2.847,-3.32C-2.665,-3.203 -2.441,-3.094 -2.178,-2.995C-1.913,-2.894 -1.616,-2.78 -1.287,-2.649C-0.914,-2.501 -0.572,-2.354 -0.26,-2.206C0.052,-2.059 0.318,-1.881 0.54,-1.672C0.761,-1.464 0.932,-1.212 1.053,-0.917C1.175,-0.622 1.235,-0.249 1.235,0.202C1.235,0.636 1.164,1.023 1.021,1.361C0.878,1.7 0.674,1.988 0.409,2.227C0.146,2.465 -0.171,2.648 -0.539,2.774C-0.908,2.899 -1.312,2.963 -1.755,2.963C-2.075,2.963 -2.386,2.923 -2.685,2.845C-2.983,2.767 -3.245,2.629 -3.471,2.429C-3.645,2.551 -3.824,2.659 -4.011,2.755C-4.197,2.849 -4.39,2.927 -4.589,2.989C-4.692,2.685 -4.767,2.38 -4.81,2.072C-4.854,1.764 -4.875,1.446 -4.875,1.117C-4.875,0.891 -4.868,0.671 -4.855,0.454C-4.843,0.237 -4.818,0.016 -4.784,-0.209L-3.938,-0.209C-3.938,0.077 -3.902,0.367 -3.828,0.662C-3.755,0.957 -3.636,1.227 -3.471,1.474C-3.307,1.721 -3.092,1.922 -2.827,2.079C-2.563,2.234 -2.244,2.312 -1.872,2.312C-1.534,2.312 -1.25,2.276 -1.021,2.202C-0.791,2.129 -0.604,2.026 -0.461,1.896C-0.318,1.766 -0.214,1.617 -0.149,1.448C-0.084,1.279 -0.052,1.099 -0.052,0.909C-0.052,0.605 -0.13,0.352 -0.286,0.148C-0.441,-0.056 -0.697,-0.218 -1.053,-0.339C-1.582,-0.522 -2.066,-0.702 -2.509,-0.879C-2.951,-1.057 -3.334,-1.269 -3.659,-1.516C-3.984,-1.763 -4.238,-2.056 -4.42,-2.394C-4.602,-2.732 -4.692,-3.148 -4.692,-3.642C-4.692,-4.014 -4.621,-4.35 -4.479,-4.649C-4.335,-4.948 -4.143,-5.202 -3.899,-5.41C-3.657,-5.618 -3.373,-5.776 -3.049,-5.884C-2.724,-5.993 -2.379,-6.046 -2.015,-6.046C-1.694,-6.046 -1.387,-5.988 -1.092,-5.871C-0.797,-5.754 -0.551,-5.557 -0.351,-5.28C-0.256,-5.453 -0.117,-5.596 0.065,-5.708C0.247,-5.821 0.429,-5.904 0.611,-5.955C0.741,-5.539 0.821,-5.07 0.852,-4.545C0.882,-4.021 0.897,-3.525 0.897,-3.057L0,-3.057Z" style="fill:rgb(89,87,87);fill-rule:nonzero;"/>
                </g>
                <g transform="matrix(8.63164,0,0,8.63164,8323.76,21647.4)">
                    <path d="M0,7.657C0.46,7.657 0.837,7.559 1.131,7.364C1.426,7.169 1.658,6.9 1.827,6.557C1.996,6.214 2.112,5.81 2.178,5.345C2.243,4.882 2.275,4.385 2.275,3.855C2.275,3.36 2.243,2.879 2.178,2.41C2.112,1.941 1.991,1.524 1.813,1.16C1.636,0.795 1.387,0.502 1.066,0.28C0.745,0.059 0.325,-0.052 -0.194,-0.052C-0.672,-0.052 -1.053,0.053 -1.339,0.261C-1.625,0.47 -1.844,0.749 -1.995,1.101C-2.147,1.453 -2.247,1.856 -2.294,2.312C-2.342,2.767 -2.366,3.247 -2.366,3.751C-2.366,4.298 -2.331,4.81 -2.262,5.287C-2.192,5.764 -2.069,6.179 -1.892,6.531C-1.714,6.883 -1.474,7.158 -1.17,7.358C-0.866,7.557 -0.477,7.657 0,7.657M4.498,3.758C4.498,4.494 4.381,5.144 4.147,5.708C3.913,6.271 3.59,6.745 3.179,7.131C2.767,7.516 2.281,7.809 1.723,8.009C1.164,8.208 0.555,8.307 -0.104,8.307C-0.728,8.307 -1.312,8.222 -1.858,8.053C-2.404,7.885 -2.882,7.621 -3.289,7.261C-3.696,6.901 -4.017,6.44 -4.251,5.877C-4.484,5.313 -4.602,4.641 -4.602,3.861C-4.602,3.073 -4.489,2.394 -4.264,1.827C-4.038,1.26 -3.725,0.792 -3.321,0.423C-2.918,0.054 -2.441,-0.216 -1.892,-0.39C-1.341,-0.563 -0.745,-0.65 -0.104,-0.65C0.528,-0.65 1.125,-0.557 1.684,-0.37C2.243,-0.184 2.73,0.094 3.146,0.462C3.563,0.83 3.892,1.29 4.134,1.84C4.377,2.39 4.498,3.029 4.498,3.758" style="fill:rgb(89,87,87);fill-rule:nonzero;"/>
                </g>
                <g transform="matrix(8.63164,0,0,8.63164,8441.82,21705.3)">
                    <path d="M0,-5.615C0,-6.3 -0.434,-6.642 -1.3,-6.642L-1.3,-7.215L1.833,-7.215L1.833,-6.642C1.122,-6.642 0.768,-6.3 0.768,-5.615L0.768,-1.741C0.768,-1.238 0.72,-0.781 0.624,-0.37C0.528,0.042 0.354,0.393 0.098,0.683C-0.158,0.974 -0.503,1.199 -0.936,1.36C-1.369,1.52 -1.924,1.6 -2.6,1.6C-3.111,1.6 -3.581,1.529 -4.011,1.385C-4.439,1.242 -4.808,1.045 -5.115,0.794C-5.423,0.542 -5.664,0.241 -5.837,-0.11C-6.011,-0.461 -6.097,-0.844 -6.097,-1.261L-6.097,-5.81C-6.097,-6.365 -6.5,-6.642 -7.306,-6.642L-7.306,-7.215L-2.756,-7.215L-2.756,-6.642C-3.562,-6.642 -3.965,-6.365 -3.965,-5.81L-3.965,-1.586C-3.965,-1.307 -3.941,-1.024 -3.894,-0.734C-3.846,-0.443 -3.754,-0.181 -3.619,0.053C-3.484,0.286 -3.298,0.48 -3.059,0.631C-2.819,0.783 -2.509,0.859 -2.126,0.859C-1.369,0.859 -0.826,0.651 -0.495,0.235C-0.165,-0.181 0,-0.788 0,-1.586L0,-5.615Z" style="fill:rgb(89,87,87);fill-rule:nonzero;"/>
                </g>
                <g transform="matrix(8.63164,0,0,8.63164,8533.16,21643)">
                    <path d="M0,8.775L-5.525,2.964L-5.525,6.643C-5.525,7.596 -5.083,8.073 -4.199,8.073L-4.199,8.619L-7.436,8.619L-7.436,8.073C-6.708,8.073 -6.344,7.596 -6.344,6.643L-6.344,1.001C-6.344,0.715 -6.769,0.572 -7.618,0.572L-7.618,0L-5.161,0L-0.286,5.226L-0.286,1.885C-0.286,1.009 -0.724,0.572 -1.599,0.572L-1.599,0L1.625,0L1.625,0.572C0.836,0.572 0.442,1.009 0.442,1.885L0.442,8.658L0,8.775Z" style="fill:rgb(89,87,87);fill-rule:nonzero;"/>
                </g>
                <g transform="matrix(8.63164,0,0,8.63164,8589.7,21655.8)">
                    <path d="M0,5.617C0,5.825 0.018,5.985 0.053,6.097C0.087,6.211 0.148,6.298 0.235,6.358C0.322,6.419 0.433,6.455 0.567,6.469C0.702,6.481 0.87,6.488 1.07,6.488C1.914,6.488 2.547,6.195 2.969,5.61C3.39,5.025 3.602,4.104 3.602,2.847C3.602,1.608 3.393,0.689 2.975,0.092C2.558,-0.506 1.853,-0.805 0.861,-0.805C0.687,-0.805 0.544,-0.799 0.431,-0.785C0.317,-0.773 0.229,-0.742 0.163,-0.695C0.098,-0.647 0.055,-0.575 0.032,-0.481C0.011,-0.385 0,-0.259 0,-0.104L0,5.617ZM-3.341,7.138L-3.341,6.592C-3.09,6.592 -2.884,6.579 -2.724,6.553C-2.563,6.527 -2.439,6.474 -2.353,6.396C-2.267,6.319 -2.208,6.208 -2.178,6.065C-2.147,5.923 -2.132,5.734 -2.132,5.5L-2.132,0.209C-2.132,-0.086 -2.153,-0.3 -2.197,-0.435C-2.24,-0.569 -2.31,-0.662 -2.405,-0.714C-2.5,-0.766 -2.628,-0.801 -2.788,-0.819C-2.949,-0.835 -3.146,-0.87 -3.38,-0.922L-3.38,-1.494C-3.163,-1.468 -2.96,-1.45 -2.769,-1.443C-2.578,-1.434 -2.384,-1.429 -2.184,-1.429C-1.915,-1.429 -1.67,-1.434 -1.449,-1.443C-1.229,-1.45 -0.988,-1.462 -0.728,-1.475C-0.468,-1.487 -0.167,-1.498 0.176,-1.507C0.518,-1.516 0.949,-1.521 1.469,-1.521C2.146,-1.521 2.745,-1.44 3.27,-1.279C3.794,-1.119 4.236,-0.865 4.596,-0.52C4.955,-0.172 5.229,0.278 5.415,0.833C5.601,1.388 5.694,2.054 5.694,2.835C5.694,3.58 5.614,4.223 5.453,4.765C5.293,5.307 5.035,5.754 4.68,6.104C4.324,6.455 3.861,6.716 3.289,6.885C2.717,7.054 2.015,7.138 1.183,7.138L-3.341,7.138Z" style="fill:rgb(89,87,87);fill-rule:nonzero;"/>
                </g>
            </g>
        </g>
    </g>
</svg>
