<?xml version="1.0" encoding="UTF-8" standalone="no"?>
<!DOCTYPE svg PUBLIC "-//W3C//DTD SVG 1.1//EN" "http://www.w3.org/Graphics/SVG/1.1/DTD/svg11.dtd">
<svg width="100%" height="100%" viewBox="0 0 400 400" version="1.1" xmlns="http://www.w3.org/2000/svg" xmlns:xlink="http://www.w3.org/1999/xlink" xml:space="preserve" xmlns:serif="http://www.serif.com/" style="fill-rule:evenodd;clip-rule:evenodd;stroke-linejoin:round;stroke-miterlimit:2;">
    <g transform="matrix(1,0,0,1,-451,-2085)">
        <g id="moda_logo_400x400" transform="matrix(1,0,0,1,1,2085)">
            <rect x="450" y="0" width="400" height="400" style="fill:white;"/>
            <g transform="matrix(0.246715,0,0,0.246715,489.635,160.657)">
                <g transform="matrix(8.33333,0,0,8.33333,641.139,33.5321)">
                    <path d="M0,14.693C-9.797,14.521 -9.798,0.173 0,0C9.798,0.173 9.797,14.521 0,14.693M0,-2.63C-13.307,-2.63 -13.708,17.323 0,17.323C13.708,17.323 13.307,-2.63 0,-2.63" style="fill-rule:nonzero;"/>
                </g>
                <g transform="matrix(8.33333,0,0,8.33333,834.822,-191.52)">
                    <path d="M0,22.658C-4.899,22.571 -7.348,18.941 -7.348,15.311C-7.348,11.681 -4.899,8.051 0,7.965C4.899,8.051 7.348,11.681 7.348,15.311C7.348,18.941 4.899,22.571 0,22.658M8.758,-2.63C7.993,-2.63 7.372,-2.018 7.372,-1.264L7.372,8.68C5.786,6.724 3.356,5.335 0,5.335C-6.653,5.335 -10.08,10.323 -10.131,15.311C-10.08,20.3 -6.653,25.288 0,25.288C3.356,25.288 5.786,23.899 7.372,21.943L7.372,23.598C7.372,24.352 7.993,24.963 8.758,24.963C9.524,24.963 10.144,24.352 10.144,23.598L10.144,-1.264C10.144,-2.018 9.524,-2.63 8.758,-2.63" style="fill-rule:nonzero;"/>
                </g>
                <g transform="matrix(8.33333,0,0,8.33333,1061.8,-318.384)">
                    <path d="M0,14.693C-4.899,14.606 -7.348,10.976 -7.348,7.346C-7.348,3.716 -4.899,0.086 0,0C4.899,0.086 7.348,3.716 7.348,7.346C7.348,10.976 4.899,14.606 0,14.693M8.74,-2.305C7.972,-2.305 7.349,-1.692 7.349,-0.935L7.349,0.685C5.762,-1.255 3.339,-2.63 0,-2.63C-6.653,-2.63 -10.081,2.358 -10.131,7.346C-10.081,12.335 -6.653,17.323 0,17.323C3.339,17.323 5.762,15.948 7.349,14.008L7.349,15.66C7.349,16.417 7.972,17.031 8.74,17.031C9.508,17.031 10.131,16.417 10.131,15.66L10.131,-0.935C10.131,-1.692 9.508,-2.305 8.74,-2.305" style="fill-rule:nonzero;"/>
                </g>
                <g transform="matrix(8.33333,0,0,8.33333,383.65,177.913)">
                    <path d="M0,-19.663C-4.233,-19.663 -7.157,-17.644 -8.739,-14.89C-10.322,-17.644 -13.248,-19.663 -17.481,-19.663C-20.55,-19.663 -23.196,-18.365 -24.829,-16.17L-24.829,-17.841C-24.829,-18.597 -25.45,-19.213 -26.217,-19.213C-26.989,-19.213 -27.61,-18.597 -27.61,-17.841L-27.61,-1.368C-27.61,-0.612 -26.989,0 -26.217,0C-25.45,0 -24.829,-0.612 -24.829,-1.368C-24.779,-2.971 -24.952,-9.568 -24.701,-11.936C-24.623,-12.425 -24.513,-12.768 -24.448,-12.942C-23.391,-15.386 -20.926,-16.928 -17.481,-17.035C-12.585,-16.945 -10.133,-13.324 -10.129,-9.695L-10.129,-1.37C-10.129,-0.614 -9.507,0 -8.739,0C-7.971,0 -7.348,-0.614 -7.348,-1.37L-7.348,-9.687C-7.348,-13.318 -4.895,-16.945 0,-17.035C3.184,-17.035 5.269,-15.546 6.378,-13.537C7.007,-12.313 7.334,-10.747 7.348,-8.841L7.352,-6.857L7.352,-1.37C7.352,-0.614 7.973,-0.002 8.741,-0.002C9.508,-0.002 10.133,-0.614 10.133,-1.37L10.133,-9.687C10.133,-15.534 6.258,-19.557 0,-19.663" style="fill-rule:nonzero;"/>
                </g>
                <g transform="matrix(8.33333,0,0,8.33333,160.819,717.911)">
                    <path d="M0,-6.915L0.741,-6.915L3.418,-0.922L6.093,-6.915L6.845,-6.915L6.845,0L6.143,0L6.143,-5.522L3.678,0L3.167,0L0.701,-5.501L0.701,0L0,0L0,-6.915Z" style="fill-rule:nonzero;"/>
                </g>
                <g transform="matrix(8.33333,0,0,8.33333,-2872.74,-819.877)">
                    <path d="M372.567,179.063L373.268,179.063L373.268,184.535L372.567,184.535L372.567,179.063ZM372.406,177.509C372.406,177.209 372.637,176.999 372.917,176.999C373.198,176.999 373.429,177.209 373.429,177.509C373.429,177.81 373.198,178.031 372.917,178.031C372.637,178.031 372.406,177.81 372.406,177.509" style="fill-rule:nonzero;"/>
                </g>
                <g transform="matrix(8.33333,0,0,8.33333,286.103,697.543)">
                    <path d="M0,-0.682C0,-1.895 -0.661,-2.516 -1.664,-2.516C-2.686,-2.516 -3.398,-1.875 -3.398,-0.542L-3.398,2.445L-4.099,2.445L-4.099,-3.027L-3.398,-3.027L-3.398,-2.095C-3.046,-2.777 -2.345,-3.127 -1.533,-3.127C-0.29,-3.127 0.691,-2.366 0.691,-0.762L0.691,2.445L0,2.445L0,-0.682Z" style="fill-rule:nonzero;"/>
                </g>
                <g transform="matrix(8.33333,0,0,8.33333,-2872.74,-819.877)">
                    <path d="M381.407,179.063L382.108,179.063L382.108,184.535L381.407,184.535L381.407,179.063ZM381.247,177.509C381.247,177.209 381.477,176.999 381.757,176.999C382.039,176.999 382.269,177.209 382.269,177.509C382.269,177.81 382.039,178.031 381.757,178.031C381.477,178.031 381.247,177.81 381.247,177.509" style="fill-rule:nonzero;"/>
                </g>
                <g transform="matrix(8.33333,0,0,8.33333,341.319,671.644)">
                    <path d="M0,5.633C-1.243,5.633 -2.115,5.012 -2.206,4.01L-1.483,4.01C-1.424,4.61 -0.903,5.041 -0.01,5.041C0.771,5.041 1.212,4.62 1.212,4.099C1.212,2.747 -2.075,3.538 -2.075,1.484C-2.075,0.672 -1.304,0 -0.151,0C1.021,0 1.793,0.622 1.853,1.674L1.152,1.674C1.112,1.063 0.661,0.602 -0.171,0.602C-0.903,0.602 -1.364,0.992 -1.364,1.474C-1.364,2.957 1.873,2.165 1.903,4.099C1.903,4.982 1.132,5.633 0,5.633" style="fill-rule:nonzero;"/>
                </g>
                <g transform="matrix(8.33333,0,0,8.33333,370.723,701.549)">
                    <path d="M0,-2.917L-0.762,-2.917L-0.762,-3.508L0,-3.508L0,-4.881L0.711,-4.881L0.711,-3.508L2.214,-3.508L2.214,-2.917L0.711,-2.917L0.711,0.481C0.711,1.152 0.942,1.362 1.573,1.362L2.214,1.362L2.214,1.964L1.463,1.964C0.511,1.964 0,1.573 0,0.481L0,-2.917Z" style="fill-rule:nonzero;"/>
                </g>
                <g transform="matrix(8.33333,0,0,8.33333,405.471,671.482)">
                    <path d="M0,5.572L-0.701,5.572L-0.701,0.1L0,0.1L0,1.072C0.3,0.401 0.932,0 1.874,0L1.874,0.731L1.684,0.731C0.772,0.731 0,1.142 0,2.515L0,5.572Z" style="fill-rule:nonzero;"/>
                </g>
                <g transform="matrix(8.33333,0,0,8.33333,462.255,739.383)">
                    <path d="M0,-8.048L0.722,-8.048L-2.525,0L-3.257,0L-2.195,-2.606L-4.439,-8.048L-3.668,-8.048L-1.803,-3.378L0,-8.048Z" style="fill-rule:nonzero;"/>
                </g>
                <g transform="matrix(8.33333,0,0,8.33333,520.74,676.747)">
                    <path d="M0,4.409C1.032,4.409 2.034,3.707 2.034,2.204C2.034,0.701 1.052,-0.001 0.01,-0.001C-1.033,-0.001 -2.004,0.701 -2.004,2.204C-2.004,3.707 -1.042,4.409 0,4.409M0,5.021C-1.543,5.021 -2.716,3.938 -2.716,2.204C-2.716,0.46 -1.513,-0.612 0.02,-0.612C1.563,-0.612 2.756,0.46 2.756,2.204C2.756,3.938 1.543,5.021 0,5.021" style="fill-rule:nonzero;"/>
                </g>
                <g transform="matrix(8.33333,0,0,8.33333,556.745,695.365)">
                    <path d="M0,-2.175L-0.762,-2.175L-0.762,-2.766L0,-2.766L0,-3.147C0,-4.32 0.551,-4.881 1.934,-4.881L1.934,-4.279C1.001,-4.279 0.701,-3.939 0.701,-3.147L0.701,-2.766L1.974,-2.766L1.974,-2.175L0.701,-2.175L0.701,2.706L0,2.706L0,-2.175Z" style="fill-rule:nonzero;"/>
                </g>
                <g transform="matrix(8.33333,0,0,8.33333,624.218,664.374)">
                    <path d="M0,5.844C1.985,5.844 2.997,4.741 2.997,2.937C2.997,1.123 1.985,0.001 0,0.001L-1.373,0.001L-1.373,5.844L0,5.844ZM3.709,2.937C3.709,5.112 2.335,6.425 0,6.425L-2.074,6.425L-2.074,-0.581L0,-0.581C2.335,-0.581 3.709,0.743 3.709,2.937" style="fill-rule:nonzero;"/>
                </g>
                <g transform="matrix(8.33333,0,0,8.33333,-2872.74,-819.877)">
                    <path d="M424.739,179.063L425.44,179.063L425.44,184.535L424.739,184.535L424.739,179.063ZM424.578,177.509C424.578,177.209 424.808,176.999 425.089,176.999C425.37,176.999 425.6,177.209 425.6,177.509C425.6,177.81 425.37,178.031 425.089,178.031C424.808,178.031 424.578,177.81 424.578,177.509" style="fill-rule:nonzero;"/>
                </g>
                <g transform="matrix(8.33333,0,0,8.33333,706.917,735.2)">
                    <path d="M0,-7.015C-1.152,-7.015 -2.034,-6.214 -2.034,-4.82C-2.034,-3.437 -1.152,-2.605 0,-2.605C1.122,-2.605 2.035,-3.447 2.035,-4.811C2.035,-6.173 1.122,-7.015 0,-7.015M-0.131,-7.627C0.953,-7.627 1.724,-7.045 2.035,-6.354L2.035,-7.546L2.736,-7.546L2.736,-1.934C2.736,-0.4 1.684,0.612 0.181,0.612C-1.233,0.612 -2.214,-0.11 -2.435,-1.252L-1.744,-1.252C-1.513,-0.511 -0.822,0 0.181,0C1.223,0 2.035,-0.691 2.035,-1.934L2.035,-3.287C1.714,-2.585 0.953,-1.994 -0.131,-1.994C-1.634,-1.994 -2.746,-3.107 -2.746,-4.82C-2.746,-6.534 -1.634,-7.627 -0.131,-7.627" style="fill-rule:nonzero;"/>
                </g>
                <g transform="matrix(8.33333,0,0,8.33333,-2872.74,-819.877)">
                    <path d="M434,179.063L434.701,179.063L434.701,184.535L434,184.535L434,179.063ZM433.839,177.509C433.839,177.209 434.07,176.999 434.35,176.999C434.631,176.999 434.862,177.209 434.862,177.509C434.862,177.81 434.631,178.031 434.35,178.031C434.07,178.031 433.839,177.81 433.839,177.509" style="fill-rule:nonzero;"/>
                </g>
                <g transform="matrix(8.33333,0,0,8.33333,765.559,701.549)">
                    <path d="M0,-2.917L-0.762,-2.917L-0.762,-3.508L0,-3.508L0,-4.881L0.711,-4.881L0.711,-3.508L2.214,-3.508L2.214,-2.917L0.711,-2.917L0.711,0.481C0.711,1.152 0.942,1.362 1.573,1.362L2.214,1.362L2.214,1.964L1.463,1.964C0.511,1.964 0,1.573 0,0.481L0,-2.917Z" style="fill-rule:nonzero;"/>
                </g>
                <g transform="matrix(8.33333,0,0,8.33333,814.671,713.484)">
                    <path d="M0,-4.409C-1.152,-4.409 -2.034,-3.608 -2.034,-2.214C-2.034,-0.831 -1.152,0.001 0,0.001C1.122,0.001 2.035,-0.841 2.035,-2.205C2.035,-3.567 1.122,-4.409 0,-4.409M-0.131,-5.021C0.973,-5.021 1.724,-4.429 2.035,-3.738L2.035,-4.94L2.736,-4.94L2.736,0.532L2.035,0.532L2.035,-0.681C1.714,0.021 0.953,0.612 -0.141,0.612C-1.634,0.612 -2.746,-0.501 -2.746,-2.214C-2.746,-3.928 -1.634,-5.021 -0.131,-5.021" style="fill-rule:nonzero;"/>
                </g>
                <g transform="matrix(8.33333,0,0,8.33333,-2872.74,-818.877)">
                    <rect x="446.929" y="176.999" width="0.701" height="7.416"/>
                </g>
                <g transform="matrix(8.33333,0,0,8.33333,915.897,710.565)">
                    <path d="M0,-5.151L-1.382,-1.363L1.384,-1.363L0,-5.151ZM1.594,-0.782L-1.593,-0.782L-2.204,0.882L-2.946,0.882L-0.391,-6.033L0.401,-6.033L2.947,0.882L2.206,0.882L1.594,-0.782Z" style="fill-rule:nonzero;"/>
                </g>
                <g transform="matrix(8.33333,0,0,8.33333,952.161,695.365)">
                    <path d="M0,-2.175L-0.762,-2.175L-0.762,-2.766L0,-2.766L0,-3.147C0,-4.32 0.55,-4.881 1.934,-4.881L1.934,-4.279C1.001,-4.279 0.701,-3.939 0.701,-3.147L0.701,-2.766L1.974,-2.766L1.974,-2.175L0.701,-2.175L0.701,2.706L0,2.706L0,-2.175Z" style="fill-rule:nonzero;"/>
                </g>
                <g transform="matrix(8.33333,0,0,8.33333,980.143,695.365)">
                    <path d="M0,-2.175L-0.762,-2.175L-0.762,-2.766L0,-2.766L0,-3.147C0,-4.32 0.551,-4.881 1.934,-4.881L1.934,-4.279C1.001,-4.279 0.701,-3.939 0.701,-3.147L0.701,-2.766L1.974,-2.766L1.974,-2.175L0.701,-2.175L0.701,2.706L0,2.706L0,-2.175Z" style="fill-rule:nonzero;"/>
                </g>
                <g transform="matrix(8.33333,0,0,8.33333,1026.83,713.484)">
                    <path d="M0,-4.409C-1.152,-4.409 -2.034,-3.608 -2.034,-2.214C-2.034,-0.831 -1.152,0.001 0,0.001C1.122,0.001 2.035,-0.841 2.035,-2.205C2.035,-3.567 1.122,-4.409 0,-4.409M-0.131,-5.021C0.973,-5.021 1.724,-4.429 2.035,-3.738L2.035,-4.94L2.736,-4.94L2.736,0.532L2.035,0.532L2.035,-0.681C1.714,0.021 0.953,0.612 -0.141,0.612C-1.634,0.612 -2.746,-0.501 -2.746,-2.214C-2.746,-3.928 -1.634,-5.021 -0.131,-5.021" style="fill-rule:nonzero;"/>
                </g>
                <g transform="matrix(8.33333,0,0,8.33333,-2872.74,-819.877)">
                    <path d="M472.389,179.063L473.09,179.063L473.09,184.535L472.389,184.535L472.389,179.063ZM472.228,177.509C472.228,177.209 472.459,176.999 472.739,176.999C473.021,176.999 473.251,177.209 473.251,177.509C473.251,177.81 473.021,178.031 472.739,178.031C472.459,178.031 472.228,177.81 472.228,177.509" style="fill-rule:nonzero;"/>
                </g>
                <g transform="matrix(8.33333,0,0,8.33333,1089.64,671.482)">
                    <path d="M0,5.572L-0.701,5.572L-0.701,0.1L0,0.1L0,1.072C0.3,0.401 0.932,0 1.874,0L1.874,0.731L1.684,0.731C0.772,0.731 0,1.142 0,2.515L0,5.572Z" style="fill-rule:nonzero;"/>
                </g>
                <g transform="matrix(8.33333,0,0,8.33333,1130.58,671.644)">
                    <path d="M0,5.633C-1.243,5.633 -2.115,5.012 -2.206,4.01L-1.483,4.01C-1.424,4.61 -0.903,5.041 -0.01,5.041C0.771,5.041 1.212,4.62 1.212,4.099C1.212,2.747 -2.075,3.538 -2.075,1.484C-2.075,0.672 -1.304,0 -0.151,0C1.021,0 1.793,0.622 1.853,1.674L1.152,1.674C1.112,1.063 0.661,0.602 -0.171,0.602C-0.903,0.602 -1.364,0.992 -1.364,1.474C-1.364,2.957 1.873,2.165 1.903,4.099C1.903,4.982 1.132,5.633 0,5.633" style="fill-rule:nonzero;"/>
                </g>
                <g transform="matrix(8.33333,0,0,8.33333,-2872.74,-1133.98)">
                    <path d="M364.518,195.517L365.837,195.517L365.837,196.177L364.518,196.177L364.518,195.517ZM367.855,196.177L366.439,196.177L366.439,195.517L367.855,195.517L367.855,196.177ZM367.855,197.439L366.439,197.439L366.439,196.779L367.855,196.779L367.855,197.439ZM364.518,196.78L365.837,196.78L365.837,197.44L364.518,197.44L364.518,196.78ZM367.855,200.003L366.439,200.003L366.439,199.198L367.855,199.198L367.855,200.003ZM364.25,199.199L365.837,199.199L365.837,200.004L364.25,200.004L364.25,199.199ZM367.463,201.911C367.292,202.392 367.023,202.789 366.68,203.097C366.235,202.882 365.714,202.661 365.116,202.45L365.417,201.942L367.463,201.911ZM363.916,196.78L363.916,198.042L365.837,198.042L365.837,198.597L363.648,198.597L363.648,200.606L365.508,200.606L365.071,201.344L363.294,201.371L363.303,201.973L364.711,201.952L364.076,203.024L364.594,203.331L364.803,202.978C365.3,203.149 365.752,203.33 366.144,203.509C365.072,204.173 363.821,204.306 363.8,204.308L363.856,204.908C363.956,204.899 365.527,204.724 366.767,203.813C367.649,204.271 368.129,204.645 368.136,204.651L368.512,204.179C368.481,204.155 368.046,203.82 367.268,203.397C367.647,203.01 367.935,202.508 368.104,201.902L369.559,201.881L369.55,201.278L365.777,201.334L366.208,200.606L368.458,200.606L368.458,198.597L366.44,198.597L366.44,198.042L368.458,198.042L368.458,196.78L369.202,196.78L369.202,196.177L368.458,196.177L368.458,194.915L366.44,194.915L366.44,194.318L365.837,194.318L365.837,194.915L363.916,194.915L363.916,196.177L363.171,196.177L363.171,196.78L363.916,196.78Z" style="fill-rule:nonzero;"/>
                </g>
                <g transform="matrix(8.33333,0,0,8.33333,223.87,519.773)">
                    <path d="M0,2.326C-0.662,0.989 -1.09,-0.348 -1.116,-1.332L0.808,-1.332C0.766,0.124 0.441,1.332 0,2.326M-2.22,1.356C-1.951,0.891 -1.732,0.386 -1.542,-0.121C-1.316,0.85 -0.885,1.941 -0.316,3.014C-1.322,4.86 -2.625,5.753 -2.647,5.767L-2.316,6.271C-2.228,6.213 -0.996,5.379 0.033,3.657C0.641,4.694 1.359,5.67 2.113,6.425L2.54,5.999C1.75,5.209 0.998,4.142 0.376,3.025C0.941,1.894 1.377,0.449 1.423,-1.332L2.137,-1.332L2.137,-1.934L-0.987,-1.934C-0.712,-3.077 -0.611,-3.968 -0.603,-4.037L-1.203,-4.099C-1.206,-4.069 -1.535,-1.031 -2.742,1.054L-2.22,1.356Z" style="fill-rule:nonzero;"/>
                </g>
                <g transform="matrix(8.33333,0,0,8.33333,293.301,487.52)">
                    <path d="M0,10.268L0,2.402C0.739,1.244 1.146,0.332 1.172,0.271L0.556,0C0.546,0.023 -0.497,2.372 -2.301,4.305L-1.808,4.765C-1.385,4.311 -1.01,3.841 -0.673,3.381L-0.673,10.268L0,10.268Z" style="fill-rule:nonzero;"/>
                </g>
                <g transform="matrix(8.33333,0,0,8.33333,359.695,491.455)">
                    <path d="M0,1.672L-3.112,1.672L-3.112,-0.674L-3.785,-0.674L-3.785,1.672L-6.896,1.672L-6.896,2.346L0,2.346L0,1.672Z" style="fill-rule:nonzero;"/>
                </g>
                <g transform="matrix(8.33333,0,0,8.33333,352.714,565.476)">
                    <path d="M0,-5.389L0.065,-5.719L-0.596,-5.849L-0.66,-5.518C-0.666,-5.491 -1.188,-2.849 -2.03,-0.213L-3.464,-0.213C-3.771,-2.108 -4.044,-4 -4.177,-4.926C-4.223,-5.244 -4.253,-5.45 -4.262,-5.509L-4.318,-5.841L-4.982,-5.73L-4.927,-5.398C-4.917,-5.341 -4.888,-5.139 -4.844,-4.83C-4.713,-3.92 -4.447,-2.078 -4.146,-0.213L-6.188,-0.213L-6.188,0.46L1.145,0.46L1.145,-0.213L-1.326,-0.213C-0.509,-2.818 -0.005,-5.362 0,-5.389" style="fill-rule:nonzero;"/>
                </g>
                <g transform="matrix(8.33333,0,0,8.33333,406.596,545.623)">
                    <path d="M0,-3.281L0,-2.941L2.089,-2.941L2.089,-1.828L0.056,-1.828C-0.099,-1.828 -0.235,-1.722 -0.271,-1.571L-0.815,0.668L-0.16,0.827L-0.087,0.526L2.072,0.526C2.014,1.471 1.856,2.481 1.677,2.676C1.534,2.832 0.956,2.802 0.531,2.782C0.349,2.773 0.169,2.764 0,2.764L0,3.437C0.158,3.437 0.327,3.446 0.497,3.454C0.678,3.464 0.862,3.473 1.04,3.473C1.497,3.473 1.916,3.412 2.174,3.131C2.641,2.619 2.742,0.759 2.762,0.201C2.766,0.11 2.732,0.021 2.668,-0.045C2.605,-0.111 2.517,-0.147 2.426,-0.147L0.076,-0.147L0.321,-1.155L2.089,-1.155L2.089,-0.936L2.762,-0.936L2.762,-3.277C2.762,-3.464 2.612,-3.614 2.426,-3.614L0.543,-3.614C2.489,-4.887 3.082,-6.217 3.111,-6.289C3.155,-6.393 3.143,-6.511 3.08,-6.605C3.018,-6.698 2.913,-6.754 2.801,-6.754L-0.368,-6.754L-0.368,-6.081L2.214,-6.081C1.99,-5.755 1.607,-5.289 1.012,-4.789C0.426,-5.319 -0.217,-5.691 -0.249,-5.709L-0.541,-5.181C-0.534,-5.178 0.015,-4.861 0.53,-4.415C-0.042,-4 -0.762,-3.579 -1.672,-3.207L-1.417,-2.584C-0.881,-2.803 -0.423,-3.04 0,-3.281" style="fill-rule:nonzero;"/>
                </g>
                <g transform="matrix(8.33333,0,0,8.33333,463.915,516.253)">
                    <path d="M0,-2.93L-0.467,-3.416C-0.468,-3.414 -0.899,-3.004 -1.508,-2.457C-2.053,-3.088 -2.365,-3.588 -2.372,-3.599L-2.951,-3.256C-2.88,-3.137 -1.185,-0.319 1.756,0.669L1.97,0.03C1.327,-0.186 0.75,-0.507 0.236,-0.866L1.326,-1.854L0.873,-2.353L-0.305,-1.285C-0.578,-1.51 -0.828,-1.736 -1.051,-1.963C-0.435,-2.516 0,-2.93 0,-2.93" style="fill-rule:nonzero;"/>
                </g>
                <g transform="matrix(8.33333,0,0,8.33333,443.555,569.704)">
                    <path d="M0,-2.515L2.061,-2.515C1.896,-2.191 1.599,-1.728 1.095,-1.274C0.459,-1.758 0.149,-2.213 0,-2.515M-1.377,0.673C-0.303,0.43 0.512,0.022 1.126,-0.43C1.725,-0.046 2.508,0.333 3.535,0.664L3.741,0.023C2.87,-0.258 2.193,-0.572 1.668,-0.887C2.602,-1.785 2.87,-2.697 2.888,-2.761C2.916,-2.863 2.895,-2.971 2.831,-3.055C2.768,-3.139 2.669,-3.188 2.563,-3.188L-0.469,-3.188C-0.564,-3.188 -0.654,-3.148 -0.719,-3.077C-0.782,-3.007 -0.814,-2.912 -0.804,-2.817C-0.798,-2.76 -0.686,-1.842 0.546,-0.846C0.022,-0.495 -0.655,-0.18 -1.525,0.015L-1.377,0.673Z" style="fill-rule:nonzero;"/>
                </g>
                <g transform="matrix(8.33333,0,0,8.33333,434.547,520.638)">
                    <path d="M0,1.802L0.034,2.137L0.009,1.801L0.06,2.473C0.113,2.469 1.366,2.35 1.301,0.291C1.298,0.213 1.294,0.085 1.302,0.002L2.593,0.002C2.653,0.002 2.721,0.077 2.721,0.185L2.721,1.482C2.721,1.92 3.054,2.276 3.465,2.276L4.092,2.276C4.299,2.276 4.596,2.14 4.738,1.889L5.056,1.329L4.471,0.996L4.153,1.556C4.143,1.572 4.1,1.598 4.092,1.603L3.465,1.603C3.436,1.603 3.393,1.554 3.393,1.482L3.393,0.185C3.393,-0.287 3.035,-0.671 2.593,-0.671L1.218,-0.671C1.059,-0.671 0.92,-0.614 0.816,-0.506C0.607,-0.289 0.618,0.046 0.63,0.356C0.672,1.7 0.028,1.799 0,1.802" style="fill-rule:nonzero;"/>
                </g>
                <g transform="matrix(8.33333,0,0,8.33333,528.58,553.988)">
                    <path d="M0,-4.863L2.035,-4.863L2.035,-3.64L0.439,-3.64L0.439,-2.967L2.035,-2.967L2.035,-1.72L-0.186,-1.72C-0.066,-2.814 -0.015,-3.924 0,-4.863M6.923,-6.907L6.923,-5.536L0.006,-5.536C0.007,-6.124 -0.004,-6.602 -0.014,-6.907L6.923,-6.907ZM5.204,-3.64L2.709,-3.64L2.709,-4.863L5.204,-4.863L5.204,-3.64ZM5.204,-1.72L2.709,-1.72L2.709,-2.967L5.204,-2.967L5.204,-1.72ZM2.191,1.434L2.191,-1.047L3.737,-1.047C4.031,-0.338 5.149,1.845 8.141,2.717L8.329,2.071C7.374,1.792 6.65,1.362 6.076,0.9C6.845,0.466 7.506,-0.1 7.538,-0.127L7.092,-0.633C7.085,-0.626 6.329,0.026 5.541,0.426C4.994,-0.131 4.655,-0.679 4.475,-1.047L8.235,-1.047L8.235,-1.72L5.877,-1.72L5.877,-2.967L7.618,-2.967L7.618,-3.64L5.877,-3.64L5.877,-4.863L7.26,-4.863C7.445,-4.863 7.596,-5.013 7.596,-5.199L7.596,-7.034C7.596,-7.335 7.351,-7.58 7.05,-7.58L-0.364,-7.58C-0.456,-7.58 -0.544,-7.542 -0.608,-7.476C-0.672,-7.409 -0.705,-7.319 -0.701,-7.227C-0.697,-7.155 -0.37,0.055 -1.945,2.124L-1.409,2.532C-0.822,1.76 -0.477,0.408 -0.272,-1.047L1.519,-1.047L1.519,1.554L0.215,1.787L0.335,2.45L4.528,1.7L4.41,1.037L2.191,1.434Z" style="fill-rule:nonzero;"/>
                </g>
                <g transform="matrix(8.33333,0,0,8.33333,642.928,515.643)">
                    <path d="M0,-1.622L2.525,-1.622C2.386,-0.993 2.133,0.217 2.01,1.116L0.515,1.116C0.391,0.217 0.138,-0.993 0,-1.622M3.214,-1.622L3.938,-1.622L3.938,-2.295L1.599,-2.295L1.599,-3.411L0.926,-3.411L0.926,-2.295L-1.413,-2.295L-1.413,-1.622L-0.69,-1.622C-0.572,-1.091 -0.302,0.173 -0.164,1.116L-1.626,1.116L-1.626,1.789L4.15,1.789L4.15,1.116L2.689,1.116C2.826,0.173 3.097,-1.091 3.214,-1.622" style="fill-rule:nonzero;"/>
                </g>
                <g transform="matrix(8.33333,0,0,8.33333,-2872.74,-1079.64)">
                    <path d="M421.667,194.886L424.64,194.886L424.64,197.313L421.667,197.313L421.667,194.886ZM424.977,194.213L421.331,194.213C421.145,194.213 420.994,194.363 420.994,194.549L420.994,198.493L421.667,198.493L421.667,197.986L424.64,197.986L424.64,198.493L425.313,198.493L425.313,194.549C425.313,194.363 425.163,194.213 424.977,194.213" style="fill-rule:nonzero;"/>
                </g>
                <g transform="matrix(8.33333,0,0,8.33333,712.342,565.634)">
                    <path d="M0,-7.679C0.11,-7.961 0.075,-8.279 -0.096,-8.528C-0.261,-8.769 -0.531,-8.913 -0.819,-8.913L-2.858,-8.913C-3.15,-8.913 -3.388,-8.673 -3.388,-8.378L-3.388,1.234L-2.715,1.234L-2.715,-8.241L-0.819,-8.24C-0.729,-8.24 -0.675,-8.182 -0.652,-8.148C-0.631,-8.117 -0.585,-8.032 -0.634,-7.907L-1.548,-5.127C-1.581,-5.027 -1.565,-4.917 -1.505,-4.83C-0.86,-3.897 0.014,-2.131 -0.387,-1.366C-0.548,-1.061 -0.937,-0.906 -1.546,-0.906L-1.883,-0.906L-1.883,-0.233L-1.546,-0.233C-0.667,-0.233 -0.076,-0.509 0.21,-1.054C0.86,-2.295 -0.454,-4.46 -0.857,-5.073L0,-7.679Z" style="fill-rule:nonzero;"/>
                </g>
            </g>
        </g>
    </g>
</svg>
