<?xml version="1.0" encoding="UTF-8" standalone="no"?>
<!DOCTYPE svg PUBLIC "-//W3C//DTD SVG 1.1//EN" "http://www.w3.org/Graphics/SVG/1.1/DTD/svg11.dtd">
<svg width="100%" height="100%" viewBox="0 0 400 400" version="1.1" xmlns="http://www.w3.org/2000/svg" xmlns:xlink="http://www.w3.org/1999/xlink" xml:space="preserve" xmlns:serif="http://www.serif.com/" style="fill-rule:evenodd;clip-rule:evenodd;stroke-linejoin:round;stroke-miterlimit:2;">
    <g transform="matrix(1,0,0,1,-903,-1548)">
        <g id="NETivism_logo_bg_400x400" transform="matrix(1,0,0,1,453,1548)">
            <rect x="450" y="0" width="400" height="400" style="fill:rgb(51,54,124);"/>
            <g transform="matrix(0.823797,0,0,0.823797,100.877,144.459)">
                <g transform="matrix(4.16667,0,0,4.16667,450,25.9667)">
                    <path d="M56.57,18.615L54.793,18.615L54.793,11.965L56.57,11.965L56.57,18.615ZM56.57,10.598L54.793,10.598L54.793,9.153L56.57,9.153L56.57,10.598Z" style="fill:white;fill-rule:nonzero;"/>
                </g>
                <g transform="matrix(4.16667,0,0,4.16667,735.38,103.58)">
                    <path d="M0,-6.663C-0.2,-6.101 -0.436,-5.548 -0.704,-5.002C-0.973,-4.457 -1.281,-3.936 -1.631,-3.442C-1.979,-2.948 -2.369,-2.491 -2.799,-2.07C-3.23,-1.65 -3.706,-1.287 -4.229,-0.981C-4.75,-0.676 -5.317,-0.436 -5.93,-0.262C-6.543,-0.088 -7.207,0 -7.923,0C-8.046,0 -8.162,-0.02 -8.271,-0.061C-8.381,-0.102 -8.477,-0.159 -8.559,-0.231C-8.641,-0.303 -8.704,-0.387 -8.75,-0.483C-8.796,-0.58 -8.818,-0.684 -8.818,-0.794L-8.818,-6.663L-7.041,-6.663L-7.041,-1.661C-6.608,-1.661 -6.192,-1.745 -5.793,-1.914C-5.395,-2.082 -5.018,-2.305 -4.662,-2.581C-4.307,-2.858 -3.978,-3.173 -3.674,-3.525C-3.371,-3.878 -3.102,-4.24 -2.864,-4.611C-2.627,-4.982 -2.426,-5.347 -2.26,-5.703C-2.093,-6.06 -1.969,-6.38 -1.887,-6.663L0,-6.663Z" style="fill:white;fill-rule:nonzero;"/>
                </g>
                <g transform="matrix(4.16667,0,0,4.16667,450,25.9667)">
                    <path d="M72.079,18.615L70.302,18.615L70.302,11.965L72.079,11.965L72.079,18.615ZM72.079,10.598L70.302,10.598L70.302,9.153L72.079,9.153L72.079,10.598Z" style="fill:white;fill-rule:nonzero;"/>
                </g>
                <g transform="matrix(4.16667,0,0,4.16667,793.022,85.1775)">
                    <path d="M0,2.158C0,2.433 -0.039,2.68 -0.116,2.9C-0.193,3.119 -0.296,3.312 -0.424,3.478C-0.552,3.644 -0.699,3.786 -0.868,3.903C-1.037,4.019 -1.213,4.115 -1.398,4.189C-1.582,4.262 -1.77,4.317 -1.959,4.351C-2.147,4.387 -2.326,4.404 -2.495,4.404L-7.308,4.404L-7.308,2.804L-2.509,2.804C-2.268,2.804 -2.085,2.749 -1.962,2.638C-1.839,2.528 -1.777,2.368 -1.777,2.158C-1.8,1.732 -2.039,1.518 -2.495,1.518L-5.25,1.518C-5.642,1.518 -5.975,1.457 -6.248,1.334C-6.521,1.211 -6.744,1.057 -6.914,0.873C-7.086,0.688 -7.209,0.489 -7.283,0.276C-7.359,0.062 -7.396,-0.136 -7.396,-0.321C-7.396,-0.678 -7.326,-0.978 -7.185,-1.222C-7.043,-1.466 -6.865,-1.664 -6.651,-1.816C-6.438,-1.968 -6.205,-2.077 -5.954,-2.145C-5.703,-2.213 -5.469,-2.246 -5.25,-2.246L-0.882,-2.246L-0.882,-0.647L-5.236,-0.647C-5.327,-0.647 -5.399,-0.638 -5.451,-0.619C-5.504,-0.601 -5.543,-0.576 -5.568,-0.545C-5.593,-0.515 -5.607,-0.482 -5.612,-0.447C-5.617,-0.412 -5.619,-0.378 -5.619,-0.346C-5.614,-0.28 -5.601,-0.229 -5.578,-0.192C-5.556,-0.155 -5.527,-0.128 -5.492,-0.112C-5.459,-0.095 -5.42,-0.086 -5.377,-0.084C-5.333,-0.082 -5.291,-0.081 -5.25,-0.081L-2.495,-0.081C-2.039,-0.081 -1.652,-0.007 -1.333,0.14C-1.014,0.288 -0.757,0.473 -0.561,0.697C-0.364,0.921 -0.223,1.164 -0.133,1.427C-0.045,1.689 0,1.933 0,2.158" style="fill:white;fill-rule:nonzero;"/>
                </g>
                <g transform="matrix(4.16667,0,0,4.16667,831.523,75.8196)">
                    <path d="M0,6.65L-1.777,6.65L-1.777,2.239C-1.777,2.03 -1.839,1.871 -1.962,1.762C-2.085,1.653 -2.268,1.599 -2.509,1.599L-4.819,1.599L-4.819,6.65L-6.597,6.65L-6.597,0.793C-6.597,0.682 -6.574,0.579 -6.528,0.482C-6.482,0.386 -6.419,0.301 -6.337,0.23C-6.255,0.159 -6.159,0.102 -6.05,0.061C-5.94,0.02 -5.824,0 -5.701,0L-2.495,0C-2.249,0 -1.984,0.039 -1.702,0.116C-1.42,0.194 -1.15,0.319 -0.896,0.492L-0.896,0L1.511,0C1.68,0 1.857,0.017 2.044,0.051C2.23,0.087 2.416,0.141 2.602,0.214C2.785,0.289 2.962,0.383 3.131,0.501C3.3,0.618 3.447,0.759 3.575,0.925C3.703,1.091 3.806,1.283 3.883,1.501C3.96,1.718 3.999,1.964 3.999,2.239L3.999,6.65L2.222,6.65L2.222,2.239C2.222,2.03 2.164,1.871 2.047,1.762C1.932,1.653 1.752,1.599 1.511,1.599L-0.089,1.599C-0.029,1.796 0,2.009 0,2.239L0,6.65Z" style="fill:white;fill-rule:nonzero;"/>
                </g>
                <g transform="matrix(4.16667,0,0,4.16667,717.362,55.4483)">
                    <path d="M0,-5C0.109,-5 0.218,-4.882 0.324,-4.645C0.431,-4.407 0.484,-4.229 0.484,-4.109C0.484,-3.948 0.383,-3.867 0.18,-3.867C0.075,-3.867 -0.008,-3.95 -0.07,-4.117C-0.211,-4.477 -0.281,-4.69 -0.281,-4.758C-0.281,-4.919 -0.188,-5 0,-5M0.945,-3.711L0.961,-3.773L1.266,-4.844C1.308,-5.005 1.401,-5.086 1.547,-5.086C1.739,-5.086 1.836,-5.011 1.836,-4.859C1.836,-4.739 1.7,-4.356 1.43,-3.711L1.836,-3.711C2.044,-3.711 2.148,-3.622 2.148,-3.445C2.148,-3.273 2.044,-3.187 1.836,-3.187L-0.328,-3.187C-0.505,-3.187 -0.594,-3.276 -0.594,-3.453C-0.594,-3.625 -0.5,-3.711 -0.313,-3.711L0.945,-3.711ZM0.422,-1.812L0.422,-0.852C0.422,-0.659 0.523,-0.558 0.727,-0.547L1.297,-0.539L1.695,-0.555C1.894,-0.555 1.992,-0.466 1.992,-0.289C1.992,-0.106 1.864,-0.011 1.609,0L0.938,0.008C0.495,0.008 0.207,-0.034 0.074,-0.117C-0.059,-0.2 -0.128,-0.344 -0.133,-0.547L-0.133,-1.812L-0.328,-1.812C-0.511,-1.812 -0.602,-1.901 -0.602,-2.078C-0.602,-2.25 -0.511,-2.336 -0.328,-2.336L0.516,-2.336L0.516,-2.758C0.516,-2.935 0.609,-3.023 0.797,-3.023C0.979,-3.023 1.07,-2.935 1.07,-2.758L1.07,-2.336L1.859,-2.336C2.052,-2.336 2.148,-2.247 2.148,-2.07C2.148,-1.898 2.052,-1.812 1.859,-1.812L0.422,-1.812ZM-0.742,-4.969L-0.742,0.836C-0.742,1.044 -0.833,1.148 -1.016,1.148C-1.198,1.148 -1.289,1.044 -1.289,0.836L-1.289,-5.094C-1.325,-5.609 -1.083,-5.849 -0.563,-5.813L2.141,-5.813C2.656,-5.849 2.896,-5.609 2.859,-5.094L2.859,0.391C2.88,0.875 2.651,1.117 2.172,1.117L1.68,1.117C1.435,1.117 1.313,1.016 1.313,0.813C1.313,0.614 1.43,0.516 1.664,0.516L2.023,0.516C2.2,0.511 2.292,0.419 2.297,0.242L2.297,-4.961C2.292,-5.148 2.195,-5.245 2.008,-5.25L-0.461,-5.25C-0.644,-5.245 -0.737,-5.151 -0.742,-4.969M-2.008,-1.781C-1.93,-1.781 -1.87,-1.753 -1.828,-1.695C-1.792,-1.638 -1.727,-1.367 -1.633,-0.883L-1.523,-0.047C-1.523,0.13 -1.609,0.219 -1.781,0.219C-1.88,0.219 -1.95,0.18 -1.992,0.102L-2.008,0.047L-2.203,-1.406L-2.227,-1.586C-2.227,-1.716 -2.153,-1.781 -2.008,-1.781M-3.039,-2.75L-2.148,-2.805L-2.227,-3.023C-2.263,-3.112 -2.281,-3.177 -2.281,-3.219C-2.281,-3.349 -2.208,-3.414 -2.063,-3.414C-1.953,-3.414 -1.872,-3.352 -1.82,-3.227C-1.586,-2.722 -1.469,-2.386 -1.469,-2.219C-1.469,-2.067 -1.552,-1.992 -1.719,-1.992C-1.828,-1.992 -1.925,-2.12 -2.008,-2.375L-2.039,-2.367L-2.453,-2.32L-2.477,-2.312L-2.477,0.844C-2.477,1.067 -2.573,1.18 -2.766,1.18C-2.958,1.18 -3.055,1.067 -3.055,0.844L-3.055,-2.25L-3.266,-2.227L-3.773,-2.18L-3.93,-2.164C-4.112,-2.164 -4.203,-2.261 -4.203,-2.453C-4.203,-2.594 -4.125,-2.683 -3.969,-2.719L-3.586,-2.742L-3.57,-2.766L-3.063,-3.531L-3.18,-3.641C-3.472,-3.927 -3.722,-4.146 -3.93,-4.297C-4.075,-4.401 -4.148,-4.5 -4.148,-4.594C-4.148,-4.776 -4.067,-4.867 -3.906,-4.867C-3.844,-4.867 -3.745,-4.82 -3.609,-4.727C-3.386,-5.138 -3.223,-5.483 -3.121,-5.762C-3.02,-6.04 -2.896,-6.18 -2.75,-6.18C-2.531,-6.18 -2.422,-6.089 -2.422,-5.906C-2.422,-5.719 -2.692,-5.224 -3.234,-4.422L-2.875,-4.102L-2.773,-4.008L-2.227,-4.992C-2.148,-5.128 -2.055,-5.195 -1.945,-5.195C-1.737,-5.195 -1.633,-5.106 -1.633,-4.93C-1.633,-4.82 -1.974,-4.269 -2.656,-3.273L-2.969,-2.836L-3.039,-2.75ZM-3.664,-1.805C-3.503,-1.805 -3.422,-1.695 -3.422,-1.477C-3.422,-1.206 -3.484,-0.75 -3.609,-0.109C-3.677,0.239 -3.792,0.414 -3.953,0.414C-4.125,0.414 -4.211,0.331 -4.211,0.164C-4.211,0.097 -4.188,0.003 -4.141,-0.117C-4.005,-0.466 -3.93,-0.927 -3.914,-1.5C-3.903,-1.703 -3.82,-1.805 -3.664,-1.805" style="fill:white;fill-rule:nonzero;"/>
                </g>
                <g transform="matrix(4.16667,0,0,4.16667,755.632,54.7954)">
                    <path d="M0,-4.687C0.141,-4.176 0.401,-3.723 0.781,-3.328C0.995,-3.52 1.216,-3.762 1.445,-4.054C1.675,-4.346 1.789,-4.528 1.789,-4.601C1.789,-4.659 1.753,-4.687 1.68,-4.687L0,-4.687ZM-0.031,0.485L1.672,0.485C1.844,0.49 1.927,0.407 1.922,0.235L1.922,-0.789C1.927,-0.96 1.844,-1.043 1.672,-1.039L-0.031,-1.039C-0.203,-1.043 -0.286,-0.96 -0.281,-0.789L-0.281,0.235C-0.286,0.407 -0.203,0.49 -0.031,0.485M-0.164,-1.632L1.828,-1.632C2.354,-1.668 2.599,-1.421 2.563,-0.89L2.563,0.336C2.599,0.868 2.354,1.115 1.828,1.079L-0.164,1.079C-0.695,1.115 -0.942,0.868 -0.906,0.336L-0.906,-0.89C-0.942,-1.421 -0.695,-1.668 -0.164,-1.632M1.25,-2.929C1.708,-2.596 2.198,-2.362 2.719,-2.226C3.016,-2.148 3.164,-2.015 3.164,-1.828C3.164,-1.598 3.058,-1.484 2.844,-1.484C2.651,-1.484 2.335,-1.602 1.895,-1.839C1.454,-2.077 1.097,-2.315 0.82,-2.554C0.461,-2.268 0.074,-2.007 -0.34,-1.773C-0.754,-1.539 -1.026,-1.421 -1.156,-1.421C-1.333,-1.421 -1.422,-1.528 -1.422,-1.742C-1.422,-1.893 -1.31,-2.01 -1.086,-2.093C-0.586,-2.276 -0.099,-2.57 0.375,-2.976C0.067,-3.315 -0.188,-3.734 -0.391,-4.234C-0.771,-3.604 -1.052,-3.289 -1.234,-3.289C-1.438,-3.289 -1.539,-3.387 -1.539,-3.585C-1.539,-3.659 -1.466,-3.784 -1.32,-3.96C-0.919,-4.476 -0.597,-5.059 -0.352,-5.71C-0.273,-5.918 -0.156,-6.023 0,-6.023C0.214,-6.023 0.32,-5.924 0.32,-5.726C0.32,-5.664 0.266,-5.515 0.156,-5.281L1.891,-5.281C2.354,-5.281 2.586,-5.132 2.586,-4.835C2.586,-4.668 2.437,-4.378 2.137,-3.964C1.837,-3.55 1.542,-3.206 1.25,-2.929M-1.883,-1.664C-1.742,-1.664 -1.633,-1.465 -1.555,-1.07C-1.419,-0.393 -1.352,-0.002 -1.352,0.102C-1.352,0.274 -1.44,0.36 -1.617,0.36C-1.789,0.36 -1.891,0.222 -1.922,-0.054C-1.979,-0.565 -2.039,-0.973 -2.102,-1.281L-2.125,-1.453C-2.125,-1.593 -2.044,-1.664 -1.883,-1.664M-2.945,-2.578L-2.922,-2.585L-2.742,-2.593L-2.383,-2.617L-2.023,-2.632L-2.117,-2.914C-2.153,-2.997 -2.172,-3.059 -2.172,-3.101C-2.172,-3.247 -2.091,-3.32 -1.93,-3.32C-1.831,-3.32 -1.75,-3.262 -1.688,-3.148L-1.344,-2.265L-1.328,-2.148C-1.328,-1.992 -1.417,-1.914 -1.594,-1.914C-1.724,-1.914 -1.82,-2.012 -1.883,-2.21L-2.031,-2.195L-2.445,-2.14L-2.445,1.001C-2.445,1.224 -2.542,1.336 -2.734,1.336C-2.927,1.336 -3.023,1.224 -3.023,1.001L-3.023,-2.07L-3.633,-2.007L-3.891,-1.984C-4.089,-1.984 -4.188,-2.083 -4.188,-2.281C-4.188,-2.437 -4.094,-2.523 -3.906,-2.539L-3.531,-2.554L-2.969,-3.398L-2.977,-3.406C-3.284,-3.687 -3.589,-3.934 -3.891,-4.148C-4.031,-4.247 -4.102,-4.343 -4.102,-4.437C-4.102,-4.624 -4.008,-4.718 -3.82,-4.718C-3.758,-4.718 -3.661,-4.668 -3.531,-4.57C-3.302,-4.965 -3.122,-5.335 -2.992,-5.679C-2.909,-5.898 -2.792,-6.007 -2.641,-6.007C-2.438,-6.007 -2.336,-5.911 -2.336,-5.718C-2.336,-5.52 -2.604,-5.041 -3.141,-4.281L-2.672,-3.874L-2.125,-4.835C-2.052,-4.94 -1.964,-4.992 -1.859,-4.992C-1.661,-4.992 -1.563,-4.898 -1.563,-4.71C-1.563,-4.487 -2.023,-3.776 -2.945,-2.578M-3.625,-1.64C-3.458,-1.64 -3.375,-1.546 -3.375,-1.359C-3.375,-1.078 -3.422,-0.694 -3.516,-0.207C-3.609,0.281 -3.745,0.524 -3.922,0.524C-4.104,0.524 -4.195,0.441 -4.195,0.274C-4.195,0.211 -4.172,0.121 -4.125,0.001C-3.984,-0.359 -3.906,-0.791 -3.891,-1.296C-3.886,-1.526 -3.797,-1.64 -3.625,-1.64" style="fill:white;fill-rule:nonzero;"/>
                </g>
                <g transform="matrix(4.16667,0,0,4.16667,791.068,56.1308)">
                    <path d="M0,-5.281C-0.255,-5.281 -0.383,-5.395 -0.383,-5.625C-0.383,-5.854 -0.255,-5.969 0,-5.969L3.148,-5.969C3.403,-5.969 3.531,-5.854 3.531,-5.625C3.531,-5.395 3.403,-5.281 3.148,-5.281L0,-5.281ZM2.703,-3.078L2.703,0.039C2.739,0.691 2.442,0.995 1.813,0.953L1.141,0.953C0.849,0.953 0.703,0.828 0.703,0.578C0.703,0.333 0.849,0.211 1.141,0.211L1.625,0.211C1.88,0.216 2.005,0.091 2,-0.164L2,-3.078L-0.359,-3.078C-0.63,-3.078 -0.766,-3.192 -0.766,-3.422C-0.766,-3.651 -0.63,-3.765 -0.359,-3.765L3.445,-3.765C3.727,-3.765 3.867,-3.651 3.867,-3.422C3.867,-3.192 3.727,-3.078 3.445,-3.078L2.703,-3.078ZM-1.453,-6.297C-1.214,-6.297 -1.094,-6.182 -1.094,-5.953C-1.094,-5.802 -1.386,-5.512 -1.969,-5.086C-2.552,-4.659 -2.942,-4.445 -3.141,-4.445C-3.344,-4.445 -3.445,-4.573 -3.445,-4.828C-3.445,-4.968 -3.317,-5.101 -3.063,-5.226C-2.656,-5.445 -2.237,-5.739 -1.805,-6.109C-1.659,-6.234 -1.542,-6.297 -1.453,-6.297M-1.688,-3.125L-1.688,0.602C-1.688,0.878 -1.8,1.016 -2.023,1.016C-2.247,1.016 -2.359,0.878 -2.359,0.602L-2.359,-2.398C-2.766,-1.981 -3.042,-1.773 -3.188,-1.773C-3.401,-1.773 -3.508,-1.895 -3.508,-2.14C-3.508,-2.281 -3.403,-2.432 -3.195,-2.593C-2.617,-3.042 -2.094,-3.612 -1.625,-4.304C-1.516,-4.456 -1.396,-4.531 -1.266,-4.531C-1.021,-4.531 -0.898,-4.425 -0.898,-4.211C-0.898,-4.044 -1.161,-3.682 -1.688,-3.125" style="fill:white;fill-rule:nonzero;"/>
                </g>
                <g transform="matrix(4.16667,0,0,4.16667,837.96,49.7196)">
                    <path d="M0,-2.336C-0.036,-1.388 -0.12,-0.597 -0.25,0.039C-0.38,0.675 -0.582,1.227 -0.855,1.699C-1.129,2.171 -1.364,2.406 -1.563,2.406C-1.776,2.406 -1.883,2.297 -1.883,2.078C-1.883,1.989 -1.82,1.88 -1.695,1.75C-1.013,1 -0.653,-0.362 -0.617,-2.336L-1.141,-2.336C-1.386,-2.336 -1.508,-2.445 -1.508,-2.664C-1.508,-2.888 -1.386,-3 -1.141,-3L-0.602,-3L-0.594,-3.344L-0.578,-3.836L-0.586,-4.461C-0.586,-4.69 -0.479,-4.805 -0.266,-4.805C-0.058,-4.805 0.047,-4.688 0.047,-4.453L0.031,-3L0.813,-3C1.308,-3 1.555,-2.786 1.555,-2.359L1.492,-0.719C1.435,0.448 1.362,1.245 1.273,1.672C1.164,2.203 0.745,2.469 0.016,2.469C-0.234,2.469 -0.359,2.349 -0.359,2.109C-0.359,1.974 -0.308,1.875 -0.203,1.812C-0.156,1.781 -0.011,1.763 0.234,1.758C0.547,1.731 0.714,1.489 0.734,1.031C0.802,0.27 0.852,-0.45 0.883,-1.133L0.906,-1.664L0.922,-2.055C0.922,-2.242 0.825,-2.336 0.633,-2.336L0,-2.336ZM-3.156,-0.539L-2.375,-0.539C-2.229,-0.544 -2.156,-0.617 -2.156,-0.758L-2.156,-1.055L-3.156,-1.055L-3.156,-0.539ZM-3.156,-1.492L-2.156,-1.492L-2.156,-1.766C-2.156,-1.911 -2.229,-1.987 -2.375,-1.992L-3.156,-1.992L-3.156,-1.492ZM-4.641,-1.055L-4.641,-0.758C-4.641,-0.617 -4.57,-0.544 -4.43,-0.539L-3.68,-0.539L-3.68,-1.055L-4.641,-1.055ZM-4.641,-1.492L-3.68,-1.492L-3.68,-1.992L-4.43,-1.992C-4.57,-1.987 -4.641,-1.911 -4.641,-1.766L-4.641,-1.492ZM-3.68,-2.891L-5.266,-2.891C-5.453,-2.891 -5.547,-2.98 -5.547,-3.156C-5.547,-3.328 -5.453,-3.414 -5.266,-3.414L-3.68,-3.414L-3.68,-3.906L-3.914,-3.883L-4.156,-3.867L-5.047,-3.805C-5.255,-3.805 -5.359,-3.899 -5.359,-4.086C-5.359,-4.227 -5.297,-4.313 -5.172,-4.344L-4.781,-4.375C-3.589,-4.422 -2.716,-4.528 -2.164,-4.695L-2.008,-4.719C-1.8,-4.719 -1.695,-4.614 -1.695,-4.406C-1.695,-4.255 -1.836,-4.155 -2.117,-4.106C-2.398,-4.056 -2.745,-4.005 -3.156,-3.953L-3.156,-3.414L-1.742,-3.414C-1.55,-3.414 -1.453,-3.325 -1.453,-3.149C-1.453,-2.977 -1.55,-2.891 -1.742,-2.891L-3.156,-2.891L-3.156,-2.445L-2.195,-2.445C-1.8,-2.445 -1.602,-2.258 -1.602,-1.883L-1.602,-0.664C-1.602,-0.278 -1.805,-0.086 -2.211,-0.086L-3.156,-0.086L-3.156,0.383L-1.828,0.383C-1.636,0.383 -1.539,0.469 -1.539,0.641C-1.539,0.812 -1.636,0.898 -1.828,0.898L-3.156,0.898L-3.156,1.469L-2.203,1.383L-1.922,1.352C-1.766,1.352 -1.688,1.435 -1.688,1.602C-1.688,1.742 -1.761,1.825 -1.906,1.852L-2.773,1.977L-4.992,2.203L-5.242,2.227C-5.45,2.227 -5.555,2.122 -5.555,1.914C-5.555,1.716 -5.409,1.614 -5.117,1.609L-3.68,1.508L-3.68,0.898L-5.023,0.898C-5.211,0.898 -5.305,0.812 -5.305,0.641C-5.305,0.469 -5.211,0.383 -5.023,0.383L-3.68,0.383L-3.68,-0.086L-4.586,-0.086C-4.992,-0.086 -5.195,-0.273 -5.195,-0.648L-5.195,-1.867C-5.2,-2.253 -5.003,-2.445 -4.602,-2.445L-3.68,-2.445L-3.68,-2.891Z" style="fill:white;fill-rule:nonzero;"/>
                </g>
                <g transform="matrix(4.16667,0,0,4.16667,546.188,53.4058)">
                    <path d="M0,11.208C0,11.38 -0.036,11.54 -0.107,11.687C-0.18,11.836 -0.275,11.963 -0.395,12.071C-0.515,12.179 -0.656,12.263 -0.82,12.325C-0.984,12.386 -1.158,12.417 -1.344,12.417C-1.508,12.417 -1.673,12.39 -1.841,12.334C-2.008,12.278 -2.157,12.189 -2.287,12.066L-12.027,2.911L-12.027,12.232L-14.693,12.232L-14.693,0.023C-14.693,-0.223 -14.617,-0.446 -14.463,-0.646C-14.31,-0.846 -14.113,-0.995 -13.873,-1.094C-13.621,-1.186 -13.361,-1.209 -13.094,-1.163C-12.828,-1.116 -12.599,-1.004 -12.407,-0.826L-2.666,8.319L-2.666,-1.001L0,-1.001L0,11.208Z" style="fill:rgb(238,183,24);fill-rule:nonzero;"/>
                </g>
                <g transform="matrix(4.16667,0,0,4.16667,450,11.9417)">
                    <path d="M38.082,16.776L29.663,16.776L29.663,14.358L38.082,14.358L38.082,16.776ZM39.282,22.184L29.663,22.184C29.294,22.184 28.891,22.125 28.454,22.008C28.016,21.892 27.611,21.699 27.238,21.432C26.866,21.164 26.555,20.817 26.306,20.389C26.056,19.961 25.931,19.437 25.931,18.816L25.931,10.159C25.931,9.993 25.965,9.836 26.034,9.689C26.102,9.54 26.196,9.411 26.315,9.301C26.436,9.19 26.577,9.104 26.741,9.042C26.905,8.981 27.083,8.95 27.274,8.95L39.282,8.95L39.282,11.35L28.597,11.35L28.597,18.816C28.597,19.129 28.689,19.369 28.874,19.535C29.059,19.701 29.328,19.784 29.685,19.784L39.282,19.784L39.282,22.184Z" style="fill:rgb(238,183,24);fill-rule:nonzero;"/>
                </g>
                <g transform="matrix(4.16667,0,0,4.16667,678.984,94.3783)">
                    <path d="M0,-8.435L-5.876,-8.435L-5.876,2.399L-8.542,2.399L-8.542,-8.435L-14.428,-8.435L-14.428,-10.834L0,-10.834L0,-8.435Z" style="fill:rgb(238,183,24);fill-rule:nonzero;"/>
                </g>
            </g>
        </g>
    </g>
</svg>
