<?xml version="1.0" encoding="UTF-8" standalone="no"?>
<!DOCTYPE svg PUBLIC "-//W3C//DTD SVG 1.1//EN" "http://www.w3.org/Graphics/SVG/1.1/DTD/svg11.dtd">
<svg width="100%" height="100%" viewBox="0 0 400 400" version="1.1" xmlns="http://www.w3.org/2000/svg" xmlns:xlink="http://www.w3.org/1999/xlink" xml:space="preserve" xmlns:serif="http://www.serif.com/" style="fill-rule:evenodd;clip-rule:evenodd;stroke-linejoin:round;stroke-miterlimit:2;">
    <rect id="直式" x="0" y="0" width="400" height="400" style="fill:none;"/>
    <g id="直式1" serif:id="直式">
        <g>
            <g transform="matrix(1.97067,0,0,1.97067,99.1458,337.046)">
                <path d="M0,-44.728C3.213,-44.728 5.955,-43.592 8.227,-41.32C10.499,-39.049 11.635,-36.317 11.635,-33.124L11.635,-32.94C11.635,-29.726 10.499,-26.984 8.227,-24.713C5.955,-22.441 3.213,-21.305 0,-21.305L-6.539,-21.305L-6.539,-2.886C-6.539,-2.087 -6.815,-1.402 -7.368,-0.829C-7.941,-0.276 -8.616,0 -9.394,0C-10.192,0 -10.878,-0.276 -11.451,-0.829C-12.003,-1.402 -12.279,-2.087 -12.279,-2.886L-12.279,-41.873C-12.279,-42.671 -12.003,-43.347 -11.451,-43.899C-10.878,-44.452 -10.192,-44.728 -9.394,-44.728L0,-44.728ZM5.894,-33.124C5.894,-34.74 5.311,-36.122 4.144,-37.268C2.998,-38.414 1.616,-38.987 0,-38.987L-6.539,-38.987L-6.539,-27.045L0,-27.045C1.616,-27.045 2.998,-27.618 4.144,-28.765C5.311,-29.911 5.894,-31.302 5.894,-32.94L5.894,-33.124Z" style="fill:rgb(61,58,57);fill-rule:nonzero;"/>
            </g>
            <g transform="matrix(1.97067,0,0,1.97067,169.239,311.291)">
                <path d="M0,-5.144C-0.086,-4.291 -0.335,-3.467 -0.867,-2.587C-1.972,-0.684 -3.619,0.268 -5.809,0.268L-18.214,0.299C-18.214,2.243 -17.529,3.901 -16.157,5.272C-14.786,6.643 -13.129,7.329 -11.184,7.329L-10.969,7.329C-8.595,7.329 -6.984,6.303 -5.572,4.359C-4.754,3.234 -3.679,2.906 -2.349,3.377C-1.428,3.684 -0.824,4.297 -0.538,5.218C-0.251,6.16 -0.395,7.019 -0.968,7.797C-3.526,11.277 -6.672,13.069 -10.969,13.069L-11.184,13.069C-14.684,13.069 -17.682,11.831 -20.179,9.355C-22.655,6.899 -23.914,3.921 -23.955,0.422L-23.955,-5.473C-23.955,-8.993 -22.707,-11.991 -20.21,-14.467C-17.713,-16.964 -14.705,-18.213 -11.184,-18.213L-10.969,-18.213C-7.799,-18.213 -5.018,-16.429 -3.662,-14.878C-2.563,-13.687 -1.523,-11.891 -0.888,-10.337C-0.54,-9.255 -0.331,-8.391 -0.175,-7.493C-0.052,-6.782 -0.02,-6.495 -0.02,-6.495C-0.007,-6.371 0.06,-5.743 0,-5.144M-18.214,-5.442L-5.84,-5.442C-6.12,-7.579 -6.624,-9.382 -7.717,-10.637C-8.664,-11.723 -9.838,-12.472 -11.375,-12.472C-13.319,-12.472 -14.786,-11.786 -16.157,-10.415C-17.529,-9.044 -18.214,-7.396 -18.214,-5.473L-18.214,-5.442Z" style="fill:rgb(61,58,57);fill-rule:nonzero;"/>
            </g>
            <g transform="matrix(1.97067,0,0,1.97067,189.19,335.413)">
                <path d="M0,-41.627C0.553,-41.054 0.829,-40.379 0.829,-39.601L0.829,-11.942C0.829,-9.997 1.514,-8.34 2.886,-6.969C4.257,-5.597 5.914,-4.912 7.859,-4.912L7.889,-4.912C8.688,-4.912 9.363,-4.635 9.916,-4.083C10.488,-3.509 10.775,-2.834 10.775,-2.057C10.775,-1.258 10.488,-0.573 9.916,0C9.363,0.553 8.688,0.829 7.889,0.829L7.859,0.829C4.339,0.829 1.33,-0.419 -1.167,-2.916C-3.664,-5.413 -4.912,-8.421 -4.912,-11.942L-4.912,-39.601C-4.912,-40.379 -4.636,-41.054 -4.083,-41.627C-3.51,-42.18 -2.824,-42.456 -2.026,-42.456C-1.248,-42.456 -0.573,-42.18 0,-41.627" style="fill:rgb(61,58,57);fill-rule:nonzero;"/>
            </g>
            <g transform="matrix(1.97067,0,0,1.97067,226.485,326.157)">
                <path d="M0,-32.397C-0.634,-31.762 -1.392,-31.445 -2.272,-31.445C-3.173,-31.445 -3.94,-31.762 -4.574,-32.397C-5.208,-33.031 -5.525,-33.788 -5.525,-34.668C-5.525,-35.569 -5.208,-36.336 -4.574,-36.971C-3.94,-37.605 -3.173,-37.923 -2.272,-37.923C-1.392,-37.923 -0.634,-37.605 0,-36.971C0.634,-36.336 0.952,-35.569 0.952,-34.668C0.952,-33.788 0.634,-33.031 0,-32.397M-4.329,4.697C-4.881,4.124 -5.158,3.438 -5.158,2.64L-5.158,-23.306C-5.158,-24.104 -4.881,-24.779 -4.329,-25.332C-3.756,-25.884 -3.069,-26.161 -2.272,-26.161C-1.494,-26.161 -0.819,-25.884 -0.246,-25.332C0.307,-24.779 0.583,-24.104 0.583,-23.306L0.583,2.64C0.583,3.438 0.307,4.124 -0.246,4.697C-0.819,5.249 -1.494,5.526 -2.272,5.526C-3.069,5.526 -3.756,5.249 -4.329,4.697" style="fill:rgb(61,58,57);fill-rule:nonzero;"/>
            </g>
            <g transform="matrix(1.97067,0,0,1.97067,263.626,263.06)">
                <path d="M0,31.803C0.798,31.803 1.473,32.079 2.026,32.632C2.598,33.205 2.886,33.88 2.886,34.658C2.886,35.456 2.598,36.142 2.026,36.715C1.473,37.267 0.798,37.544 0,37.544L-0.031,37.544C-3.551,37.544 -6.56,36.295 -9.056,33.798C-11.553,31.302 -12.801,28.293 -12.801,24.773L-12.801,-2.886C-12.801,-3.664 -12.525,-4.339 -11.973,-4.912C-11.4,-5.465 -10.714,-5.741 -9.916,-5.741C-9.138,-5.741 -8.463,-5.465 -7.89,-4.912C-7.337,-4.339 -7.061,-3.664 -7.061,-2.886L-7.061,7.004L-1.303,7.004C-0.505,7.004 0.17,7.28 0.722,7.833C1.295,8.386 1.582,9.061 1.582,9.859C1.582,10.657 1.295,11.333 0.722,11.885C0.17,12.458 -0.505,12.745 -1.303,12.745L-7.061,12.745L-7.061,24.773C-7.061,26.718 -6.375,28.375 -5.004,29.746C-3.633,31.118 -1.976,31.803 -0.031,31.803L0,31.803Z" style="fill:rgb(61,58,57);fill-rule:nonzero;"/>
            </g>
            <g transform="matrix(1.97067,0,0,1.97067,300.151,313.888)">
                <path d="M0,-19.653C3.52,-19.653 6.736,-18.529 9.233,-16.033C11.729,-13.556 12.771,-10.423 12.771,-6.883L12.771,9.24C12.771,10.038 12.484,10.724 11.911,11.296C11.359,11.849 10.683,12.126 9.885,12.126C9.087,12.126 8.411,11.849 7.859,11.296C7.306,10.724 7.03,10.038 7.03,9.24L7.03,-6.883C7.03,-8.826 6.344,-10.484 4.973,-11.856C3.602,-13.226 1.944,-13.913 0,-13.913L-0.215,-13.913C-2.16,-13.913 -3.817,-12.852 -5.188,-11.482C-6.56,-10.11 -7.245,-8.453 -7.245,-6.509L-7.245,8.866C-7.245,9.706 -7.542,10.401 -8.135,10.953C-8.729,11.527 -9.435,11.792 -10.253,11.752C-11.031,11.711 -11.686,11.394 -12.218,10.8C-12.73,10.206 -12.985,9.51 -12.985,8.713L-12.985,-28.801C-12.985,-29.681 -12.638,-30.407 -11.942,-30.981C-11.246,-31.574 -10.448,-31.779 -9.548,-31.595C-8.872,-31.472 -8.319,-31.124 -7.89,-30.551C-7.459,-29.998 -7.245,-29.374 -7.245,-28.678L-7.245,-17.161C-5.382,-18.759 -2.773,-19.653 -0.215,-19.653L0,-19.653Z" style="fill:rgb(61,58,57);fill-rule:nonzero;"/>
            </g>
            <g transform="matrix(1.97067,0,0,1.97067,266.041,150.952)">
                <path d="M0,-40.756C-9.267,-41.608 -13.228,-39.38 -16.913,-34.129C-18.043,-33.128 -20.364,-28.601 -21.05,-27.4C-22.441,-24.966 -23.968,-20.354 -24.108,-17.242C-24.233,-14.451 -23.718,-11.848 -22.167,-9.496C-21.092,-7.865 -19.725,-6.593 -18.186,-5.573C-13.592,-2.437 -7.803,-0.759 -2.037,-0.229C9.718,0.852 18.246,-5.761 19.327,-17.516C20.408,-29.27 11.755,-39.675 0,-40.756" style="fill:rgb(247,247,248);fill-rule:nonzero;"/>
            </g>
            <g transform="matrix(1.97067,0,0,1.97067,87.2387,177.003)">
                <path d="M0,-24.189C-3.879,-22.568 1.22,-3.931 3.904,-2.161C3.914,-1.977 9.817,2.514 9.972,2.618C17.081,7.355 18.204,7.633 28.55,9.186C32.661,9.802 35.017,9.186 39.185,7.085C42.093,6.526 42.661,5.379 45.195,3.565C53.196,-2.161 59.787,-12.247 59.8,-25.358C59.8,-25.654 59.83,-25.943 59.876,-26.212C61.203,-33.991 55.039,-33.247 50.398,-32.525L0,-24.189Z" style="fill:rgb(246,211,0);fill-rule:nonzero;"/>
            </g>
            <g transform="matrix(1.97067,0,0,1.97067,238.26,89.0326)">
                <path d="M0,14.95C-0.503,14.95 -1.01,14.803 -1.455,14.496C-2.619,13.691 -2.91,12.095 -2.106,10.931L4.442,1.455C5.247,0.291 6.842,0 8.006,0.804C9.17,1.608 9.462,3.204 8.658,4.368L2.11,13.844C1.613,14.564 0.813,14.95 0,14.95" style="fill:rgb(61,58,57);fill-rule:nonzero;"/>
            </g>
            <g transform="matrix(1.97067,0,0,1.97067,142.78,61.1462)">
                <path d="M0,70.538C-9.158,70.538 -17.082,67.366 -22.913,61.364C-29.089,55.009 -32.91,45.689 -34.271,33.662L-34.556,31.141L20.795,24.33C22.201,24.157 23.478,25.156 23.651,26.56C23.823,27.965 22.825,29.244 21.421,29.416L-28.849,35.602C-25.961,54.856 -15.783,65.414 0,65.414C8.372,65.414 15.336,61.528 21.291,53.536C26.14,47.028 30.335,37.707 34.117,25.042C37.6,13.377 43.257,5.778 50.931,2.456C56.004,0.26 61.867,0 68.358,1.685C74.642,3.316 80.928,8.998 84.001,15.824C86.924,22.317 86.79,29.316 83.625,35.532C80.017,42.619 74.021,47.486 66.74,49.236C58.666,51.177 49.676,49.124 42.076,43.605C40.93,42.773 40.676,41.171 41.508,40.026C42.339,38.881 43.942,38.627 45.086,39.458C51.472,44.096 58.929,45.843 65.543,44.254C71.425,42.84 76.099,39.02 79.058,33.208C82.194,27.049 80.936,21.499 79.328,17.928C76.897,12.527 71.857,7.887 67.071,6.645C61.636,5.235 57.023,5.403 52.967,7.159C46.747,9.851 42.057,16.361 39.027,26.508C33.384,45.41 23.197,70.538 0,70.538" style="fill:rgb(61,58,57);fill-rule:nonzero;"/>
            </g>
        </g>
    </g>
</svg>
