<?xml version="1.0" encoding="UTF-8" standalone="no"?><!DOCTYPE svg PUBLIC "-//W3C//DTD SVG 1.1//EN" "http://www.w3.org/Graphics/SVG/1.1/DTD/svg11.dtd"><svg width="100%" height="100%" viewBox="0 0 1024 1024" version="1.1" xmlns="http://www.w3.org/2000/svg" xmlns:xlink="http://www.w3.org/1999/xlink" xml:space="preserve" xmlns:serif="http://www.serif.com/" style="fill-rule:evenodd;clip-rule:evenodd;stroke-linejoin:round;stroke-miterlimit:2;"><g transform="matrix(1,0,0,1,151.682,108.934)"><g transform="matrix(128,0,0,128,-25.1545,394.434)"><path d="M0.051,-0.027L0.154,0.073C0.213,0.007 0.243,-0.074 0.257,-0.176L0.322,-0.176L0.322,-0.051C0.291,-0.049 0.26,-0.048 0.229,-0.048C0.238,0.054 0.25,0.083 0.264,0.082C0.274,0.082 0.276,0.074 0.277,0.059C0.381,0.053 0.476,0.041 0.577,0.005L0.557,-0.095C0.638,0.016 0.762,0.063 0.878,0.077L0.934,-0.04C0.872,-0.046 0.82,-0.056 0.776,-0.071C0.797,-0.085 0.817,-0.102 0.831,-0.118C0.84,-0.115 0.855,-0.113 0.858,-0.124C0.86,-0.132 0.846,-0.148 0.803,-0.176C0.832,-0.175 0.86,-0.174 0.893,-0.171L0.893,-0.265C0.844,-0.261 0.804,-0.261 0.765,-0.261L0.265,-0.261L0.267,-0.341L0.267,-0.385L0.758,-0.385C0.801,-0.385 0.83,-0.385 0.881,-0.383L0.881,-0.473C0.827,-0.47 0.803,-0.47 0.758,-0.47L0.141,-0.47C0.144,-0.439 0.145,-0.411 0.145,-0.351C0.143,-0.189 0.121,-0.101 0.051,-0.027ZM0.302,-0.365L0.302,-0.284C0.346,-0.286 0.377,-0.286 0.408,-0.286L0.714,-0.286C0.745,-0.286 0.779,-0.286 0.813,-0.284L0.813,-0.365C0.777,-0.362 0.745,-0.362 0.718,-0.362L0.402,-0.362C0.374,-0.362 0.337,-0.363 0.302,-0.365ZM0.182,-0.493L0.832,-0.493C0.83,-0.515 0.83,-0.537 0.83,-0.554L0.83,-0.716C0.83,-0.732 0.83,-0.754 0.832,-0.775L0.662,-0.775L0.662,-0.808C0.669,-0.809 0.681,-0.813 0.681,-0.825C0.681,-0.837 0.654,-0.841 0.532,-0.841C0.535,-0.82 0.535,-0.805 0.535,-0.785L0.535,-0.775L0.478,-0.775L0.478,-0.809C0.486,-0.81 0.497,-0.814 0.497,-0.825C0.497,-0.838 0.466,-0.842 0.348,-0.841C0.351,-0.819 0.351,-0.805 0.351,-0.785L0.351,-0.775L0.182,-0.775C0.185,-0.753 0.185,-0.729 0.185,-0.709L0.185,-0.556C0.185,-0.536 0.184,-0.514 0.182,-0.493ZM0.309,-0.572L0.309,-0.599L0.369,-0.599L0.369,-0.572L0.309,-0.572ZM0.309,-0.666L0.309,-0.691L0.369,-0.691L0.369,-0.666L0.309,-0.666ZM0.447,-0.066L0.447,-0.176L0.511,-0.176C0.524,-0.145 0.539,-0.12 0.557,-0.095C0.522,-0.083 0.484,-0.073 0.447,-0.066ZM0.476,-0.572L0.476,-0.599L0.536,-0.599L0.536,-0.572L0.476,-0.572ZM0.476,-0.666L0.476,-0.691L0.536,-0.691L0.536,-0.666L0.476,-0.666ZM0.625,-0.176L0.745,-0.176C0.727,-0.153 0.706,-0.134 0.683,-0.118C0.661,-0.134 0.641,-0.153 0.625,-0.176ZM0.643,-0.572L0.643,-0.599L0.705,-0.599L0.705,-0.572L0.643,-0.572ZM0.643,-0.666L0.643,-0.691L0.705,-0.691L0.705,-0.666L0.643,-0.666Z" style="fill-rule:nonzero;"/></g><g transform="matrix(128,0,0,128,102.846,394.434)"><path d="M0.68,0.083C0.774,0.084 0.815,0.045 0.815,-0.047L0.815,-0.508L0.846,-0.508C0.879,-0.508 0.916,-0.508 0.952,-0.506L0.952,-0.628C0.913,-0.625 0.878,-0.623 0.849,-0.623L0.815,-0.623L0.815,-0.806C0.825,-0.811 0.835,-0.813 0.834,-0.827C0.833,-0.839 0.805,-0.844 0.677,-0.846C0.681,-0.818 0.682,-0.797 0.681,-0.776L0.681,-0.623L0.558,-0.623C0.526,-0.623 0.481,-0.625 0.446,-0.629L0.446,-0.505C0.487,-0.508 0.53,-0.509 0.562,-0.508L0.681,-0.508L0.681,-0.103C0.681,-0.061 0.667,-0.046 0.629,-0.051C0.597,-0.055 0.561,-0.062 0.504,-0.086L0.526,0.065C0.579,0.076 0.617,0.083 0.68,0.083ZM0.042,-0.227L0.102,-0.081C0.141,-0.122 0.172,-0.174 0.196,-0.234L0.196,-0.071C0.196,-0.024 0.195,0.023 0.192,0.082L0.324,0.082C0.324,0.023 0.322,-0.023 0.322,-0.071L0.322,-0.326C0.347,-0.297 0.37,-0.267 0.392,-0.232L0.445,-0.352C0.419,-0.385 0.373,-0.43 0.322,-0.469L0.322,-0.538C0.35,-0.538 0.385,-0.538 0.421,-0.536L0.421,-0.656C0.376,-0.653 0.345,-0.652 0.322,-0.652L0.322,-0.804C0.332,-0.808 0.343,-0.813 0.343,-0.826C0.343,-0.838 0.316,-0.843 0.19,-0.844C0.195,-0.816 0.196,-0.797 0.196,-0.776L0.196,-0.652L0.156,-0.652C0.13,-0.652 0.099,-0.653 0.066,-0.657L0.066,-0.536C0.101,-0.538 0.127,-0.538 0.157,-0.538L0.191,-0.538C0.165,-0.406 0.112,-0.286 0.042,-0.227ZM0.554,-0.188L0.66,-0.24C0.639,-0.306 0.593,-0.393 0.54,-0.458L0.446,-0.411C0.489,-0.349 0.531,-0.264 0.554,-0.188Z" style="fill-rule:nonzero;"/></g><g transform="matrix(128,0,0,128,230.846,394.434)"><path d="M0.805,0.067C0.848,0.067 0.876,0.05 0.898,-0.003C0.916,-0.048 0.931,-0.108 0.945,-0.217L0.846,-0.282C0.831,-0.099 0.824,-0.075 0.803,-0.075C0.78,-0.075 0.757,-0.143 0.74,-0.215C0.722,-0.291 0.716,-0.363 0.713,-0.5L0.796,-0.5C0.828,-0.5 0.875,-0.499 0.916,-0.496L0.916,-0.618C0.877,-0.615 0.834,-0.615 0.805,-0.615L0.711,-0.615L0.709,-0.798C0.719,-0.8 0.734,-0.806 0.734,-0.819C0.734,-0.831 0.705,-0.838 0.577,-0.838C0.58,-0.812 0.581,-0.781 0.581,-0.739L0.582,-0.615L0.207,-0.615C0.175,-0.615 0.132,-0.617 0.09,-0.62L0.09,-0.497C0.132,-0.5 0.18,-0.5 0.212,-0.5L0.583,-0.5C0.586,-0.387 0.595,-0.272 0.622,-0.162C0.653,-0.038 0.717,0.067 0.805,0.067ZM0.119,0.072C0.131,0.071 0.134,0.059 0.135,0.042C0.275,0.029 0.433,-0.007 0.599,-0.06L0.57,-0.178C0.525,-0.163 0.477,-0.149 0.431,-0.138L0.431,-0.253L0.466,-0.253C0.489,-0.253 0.523,-0.253 0.55,-0.251L0.55,-0.364C0.526,-0.362 0.491,-0.361 0.468,-0.361L0.431,-0.361L0.431,-0.433C0.438,-0.436 0.45,-0.439 0.45,-0.453C0.45,-0.465 0.424,-0.468 0.3,-0.471C0.303,-0.45 0.304,-0.431 0.304,-0.41L0.304,-0.112L0.252,-0.104L0.252,-0.365C0.261,-0.368 0.271,-0.372 0.271,-0.384C0.271,-0.396 0.246,-0.401 0.135,-0.402C0.137,-0.382 0.138,-0.362 0.138,-0.335L0.138,-0.091L0.075,-0.087C0.093,0.044 0.105,0.073 0.119,0.072ZM0.174,-0.776L0.174,-0.665C0.206,-0.668 0.235,-0.668 0.26,-0.668L0.45,-0.668C0.473,-0.668 0.501,-0.668 0.526,-0.665L0.526,-0.775C0.5,-0.772 0.474,-0.772 0.454,-0.772L0.254,-0.772C0.233,-0.772 0.203,-0.773 0.174,-0.776ZM0.845,-0.622L0.928,-0.699C0.893,-0.749 0.838,-0.798 0.79,-0.826L0.717,-0.759C0.76,-0.726 0.81,-0.675 0.845,-0.622Z" style="fill-rule:nonzero;"/></g><g transform="matrix(128,0,0,128,358.846,394.434)"><path d="M0.882,0.076L0.935,-0.039C0.861,-0.057 0.799,-0.078 0.749,-0.108C0.786,-0.128 0.813,-0.152 0.837,-0.179C0.847,-0.175 0.86,-0.173 0.864,-0.182C0.868,-0.192 0.859,-0.205 0.779,-0.257L0.785,-0.257C0.82,-0.257 0.864,-0.256 0.902,-0.254L0.902,-0.366C0.866,-0.363 0.824,-0.362 0.793,-0.362L0.576,-0.362L0.576,-0.401C0.585,-0.402 0.594,-0.408 0.594,-0.417C0.594,-0.427 0.571,-0.433 0.445,-0.432L0.444,-0.546L0.444,-0.809C0.453,-0.81 0.463,-0.815 0.463,-0.826C0.463,-0.836 0.435,-0.841 0.319,-0.84C0.321,-0.822 0.322,-0.802 0.322,-0.78L0.322,-0.731L0.252,-0.731L0.252,-0.788C0.261,-0.789 0.272,-0.794 0.272,-0.804C0.272,-0.814 0.251,-0.818 0.136,-0.818C0.138,-0.804 0.138,-0.789 0.138,-0.769L0.138,-0.705L0.136,-0.645L0.322,-0.645L0.322,-0.615L0.178,-0.615C0.157,-0.615 0.123,-0.616 0.096,-0.619L0.096,-0.524C0.126,-0.526 0.151,-0.526 0.17,-0.526C0.153,-0.499 0.124,-0.477 0.078,-0.46L0.15,-0.377C0.228,-0.413 0.265,-0.467 0.28,-0.526L0.322,-0.526C0.322,-0.488 0.321,-0.444 0.318,-0.41L0.441,-0.41C0.442,-0.398 0.442,-0.387 0.442,-0.374L0.442,-0.362L0.209,-0.362C0.18,-0.362 0.134,-0.363 0.098,-0.366L0.098,-0.254C0.143,-0.256 0.188,-0.257 0.222,-0.257L0.347,-0.257C0.276,-0.215 0.174,-0.187 0.061,-0.178L0.104,-0.066C0.177,-0.078 0.246,-0.097 0.305,-0.123L0.305,-0.053C0.261,-0.048 0.214,-0.045 0.164,-0.044C0.176,0.069 0.191,0.089 0.2,0.088C0.208,0.088 0.212,0.077 0.213,0.065C0.347,0.056 0.463,0.035 0.574,-0.007L0.547,-0.108C0.511,-0.095 0.471,-0.083 0.431,-0.074L0.431,-0.201C0.451,-0.218 0.468,-0.236 0.485,-0.257L0.503,-0.257C0.567,-0.076 0.704,0.027 0.882,0.076ZM0.874,-0.445L0.874,-0.553C0.834,-0.55 0.802,-0.549 0.766,-0.549L0.744,-0.549L0.744,-0.628L0.791,-0.628C0.833,-0.628 0.865,-0.628 0.907,-0.625L0.907,-0.735C0.866,-0.732 0.833,-0.732 0.791,-0.732L0.744,-0.732L0.744,-0.808C0.753,-0.809 0.763,-0.814 0.763,-0.824C0.763,-0.835 0.74,-0.84 0.617,-0.839C0.62,-0.819 0.62,-0.798 0.62,-0.777L0.62,-0.732L0.584,-0.732C0.55,-0.732 0.513,-0.732 0.467,-0.736L0.467,-0.625C0.513,-0.628 0.55,-0.628 0.586,-0.628L0.62,-0.628L0.62,-0.549L0.601,-0.549C0.566,-0.549 0.535,-0.549 0.493,-0.553L0.493,-0.446C0.534,-0.448 0.566,-0.448 0.601,-0.448L0.766,-0.448C0.802,-0.448 0.834,-0.448 0.874,-0.445ZM0.612,-0.257L0.763,-0.257C0.739,-0.224 0.706,-0.196 0.668,-0.175C0.647,-0.199 0.629,-0.226 0.612,-0.257Z" style="fill-rule:nonzero;"/></g><g transform="matrix(128,0,0,128,486.846,394.434)"><path d="M0.222,0.08L0.361,0.08C0.359,0.03 0.358,-0.015 0.358,-0.065L0.358,-0.093L0.644,-0.093L0.644,-0.065C0.644,-0.042 0.634,-0.032 0.609,-0.034C0.575,-0.036 0.537,-0.043 0.5,-0.056L0.519,0.063C0.568,0.073 0.614,0.077 0.664,0.077C0.749,0.077 0.777,0.045 0.777,-0.032L0.777,-0.342L0.778,-0.405L0.222,-0.405C0.225,-0.381 0.225,-0.36 0.225,-0.339L0.225,-0.065C0.225,-0.017 0.224,0.03 0.222,0.08ZM0.071,-0.533L0.071,-0.433C0.126,-0.435 0.165,-0.435 0.205,-0.435L0.789,-0.435C0.836,-0.435 0.879,-0.435 0.93,-0.433L0.93,-0.533C0.876,-0.529 0.833,-0.529 0.787,-0.529L0.571,-0.529L0.571,-0.561L0.658,-0.561C0.699,-0.561 0.738,-0.561 0.783,-0.559L0.783,-0.65C0.735,-0.648 0.698,-0.648 0.656,-0.648L0.571,-0.648L0.571,-0.678L0.712,-0.678C0.756,-0.678 0.796,-0.678 0.845,-0.675L0.845,-0.772C0.793,-0.768 0.754,-0.769 0.71,-0.769L0.571,-0.769L0.571,-0.811C0.58,-0.813 0.59,-0.817 0.59,-0.829C0.59,-0.84 0.561,-0.844 0.426,-0.845C0.429,-0.82 0.43,-0.804 0.43,-0.784L0.43,-0.769L0.286,-0.769C0.248,-0.769 0.21,-0.768 0.155,-0.772L0.155,-0.675C0.212,-0.678 0.249,-0.678 0.287,-0.678L0.43,-0.678L0.43,-0.648L0.345,-0.648C0.308,-0.648 0.271,-0.648 0.218,-0.65L0.218,-0.559C0.273,-0.561 0.309,-0.561 0.345,-0.561L0.43,-0.561L0.43,-0.529L0.204,-0.529C0.164,-0.529 0.126,-0.529 0.071,-0.533ZM0.358,-0.173L0.358,-0.207L0.644,-0.207L0.644,-0.173L0.358,-0.173ZM0.358,-0.287L0.358,-0.319L0.644,-0.319L0.644,-0.287L0.358,-0.287Z" style="fill-rule:nonzero;"/></g><g transform="matrix(128,0,0,128,614.846,394.434)"><path d="M0.222,-0.452L0.222,-0.265L0.217,-0.265C0.176,-0.265 0.133,-0.266 0.075,-0.27L0.075,-0.147C0.139,-0.15 0.168,-0.15 0.215,-0.15L0.473,-0.15L0.473,-0.09C0.473,-0.039 0.47,0.019 0.468,0.079L0.616,0.079C0.614,0.018 0.612,-0.04 0.612,-0.094L0.612,-0.15L0.766,-0.15C0.819,-0.15 0.868,-0.151 0.923,-0.148L0.923,-0.27C0.868,-0.267 0.819,-0.265 0.771,-0.265L0.612,-0.265L0.612,-0.408L0.682,-0.408C0.727,-0.408 0.779,-0.408 0.824,-0.406L0.824,-0.525C0.775,-0.521 0.724,-0.52 0.679,-0.52L0.612,-0.52L0.612,-0.62L0.725,-0.62C0.763,-0.62 0.822,-0.619 0.865,-0.617L0.865,-0.738C0.82,-0.735 0.762,-0.734 0.722,-0.734L0.388,-0.734C0.395,-0.754 0.402,-0.775 0.407,-0.794C0.417,-0.795 0.43,-0.798 0.431,-0.81C0.432,-0.823 0.409,-0.829 0.301,-0.849C0.286,-0.738 0.188,-0.605 0.061,-0.562L0.124,-0.424C0.16,-0.44 0.192,-0.46 0.221,-0.483C0.222,-0.472 0.222,-0.462 0.222,-0.452ZM0.262,-0.52C0.292,-0.551 0.316,-0.584 0.337,-0.62L0.473,-0.62L0.473,-0.52L0.262,-0.52ZM0.351,-0.265L0.351,-0.408L0.473,-0.408L0.473,-0.265L0.351,-0.265Z" style="fill-rule:nonzero;"/></g><g transform="matrix(128,0,0,128,69.5015,522.434)"><path d="M0.235,-0.03L0.404,-0.03C0.399,-0.088 0.396,-0.148 0.396,-0.201L0.396,-0.596L0.471,-0.596C0.508,-0.596 0.555,-0.596 0.599,-0.592L0.612,-0.735C0.56,-0.731 0.508,-0.73 0.448,-0.73L0.168,-0.73C0.123,-0.73 0.083,-0.731 0.04,-0.734L0.027,-0.591C0.079,-0.595 0.128,-0.596 0.185,-0.596L0.243,-0.596L0.243,-0.202C0.243,-0.147 0.24,-0.087 0.235,-0.03Z" style="fill-rule:nonzero;"/></g><g transform="matrix(128,0,0,128,134.526,522.434)"><path d="M0.219,-0.018C0.28,-0.019 0.332,-0.046 0.361,-0.099C0.365,-0.071 0.372,-0.043 0.381,-0.021L0.52,-0.04C0.5,-0.092 0.492,-0.147 0.492,-0.212L0.492,-0.485C0.444,-0.485 0.381,-0.481 0.339,-0.471C0.346,-0.433 0.348,-0.4 0.348,-0.369L0.348,-0.274C0.348,-0.19 0.309,-0.141 0.262,-0.141C0.227,-0.141 0.206,-0.165 0.206,-0.22L0.206,-0.485C0.153,-0.487 0.094,-0.482 0.053,-0.471C0.06,-0.434 0.062,-0.4 0.062,-0.369L0.062,-0.185C0.062,-0.079 0.121,-0.017 0.219,-0.018Z" style="fill-rule:nonzero;"/></g><g transform="matrix(128,0,0,128,204.03,522.434)"><path d="M0.239,-0.018C0.296,-0.018 0.352,-0.041 0.375,-0.089C0.377,-0.064 0.382,-0.038 0.39,-0.018L0.531,-0.036C0.511,-0.088 0.503,-0.15 0.503,-0.223L0.503,-0.745C0.45,-0.746 0.391,-0.741 0.35,-0.73C0.357,-0.686 0.359,-0.64 0.359,-0.598L0.359,-0.479C0.332,-0.492 0.301,-0.498 0.268,-0.499C0.125,-0.501 0.039,-0.405 0.039,-0.246C0.039,-0.121 0.104,-0.018 0.239,-0.018ZM0.186,-0.251C0.186,-0.337 0.223,-0.385 0.281,-0.385C0.311,-0.385 0.338,-0.373 0.359,-0.35L0.359,-0.264C0.359,-0.188 0.327,-0.133 0.27,-0.133C0.217,-0.133 0.186,-0.181 0.186,-0.251Z" style="fill-rule:nonzero;"/></g><g transform="matrix(128,0,0,128,275.838,522.434)"><path d="M0.051,-0.03L0.211,-0.03C0.205,-0.079 0.203,-0.145 0.203,-0.192L0.203,-0.497C0.153,-0.497 0.091,-0.492 0.051,-0.483C0.057,-0.444 0.059,-0.395 0.059,-0.36L0.059,-0.197C0.059,-0.146 0.057,-0.078 0.051,-0.03ZM0.13,-0.562C0.177,-0.562 0.22,-0.595 0.22,-0.648C0.22,-0.699 0.182,-0.733 0.133,-0.733C0.086,-0.733 0.043,-0.7 0.043,-0.647C0.042,-0.594 0.082,-0.562 0.13,-0.562Z" style="fill-rule:nonzero;"/></g><g transform="matrix(128,0,0,128,305.918,522.434)"><rect x="0.072" y="-0.344" width="0.263" height="0.122" style="fill-rule:nonzero;"/></g><g transform="matrix(128,0,0,128,349.694,522.434)"><path d="M0.245,-0.03L0.442,-0.03C0.451,-0.067 0.465,-0.11 0.482,-0.163L0.616,-0.563C0.634,-0.62 0.652,-0.673 0.674,-0.73L0.503,-0.73C0.493,-0.683 0.481,-0.638 0.458,-0.56L0.348,-0.2L0.236,-0.563C0.213,-0.64 0.202,-0.684 0.191,-0.73L0.014,-0.73C0.035,-0.679 0.056,-0.626 0.073,-0.572L0.208,-0.162C0.224,-0.11 0.237,-0.068 0.245,-0.03Z" style="fill-rule:nonzero;"/></g><g transform="matrix(128,0,0,128,427.006,522.434)"><path d="M0.276,-0.016C0.425,-0.016 0.513,-0.121 0.513,-0.258C0.513,-0.394 0.426,-0.499 0.276,-0.499C0.127,-0.499 0.039,-0.394 0.039,-0.258C0.039,-0.121 0.126,-0.016 0.276,-0.016ZM0.276,-0.13C0.222,-0.13 0.185,-0.18 0.185,-0.258C0.185,-0.336 0.222,-0.386 0.276,-0.386C0.33,-0.386 0.367,-0.336 0.367,-0.258C0.367,-0.18 0.33,-0.13 0.276,-0.13Z" style="fill-rule:nonzero;"/></g><g transform="matrix(128,0,0,128,494.334,522.434)"><path d="M0.051,-0.03L0.211,-0.03C0.205,-0.079 0.203,-0.145 0.203,-0.192L0.203,-0.497C0.153,-0.497 0.091,-0.492 0.051,-0.483C0.057,-0.444 0.059,-0.395 0.059,-0.36L0.059,-0.197C0.059,-0.146 0.057,-0.078 0.051,-0.03ZM0.13,-0.562C0.177,-0.562 0.22,-0.595 0.22,-0.648C0.22,-0.699 0.182,-0.733 0.133,-0.733C0.086,-0.733 0.043,-0.7 0.043,-0.647C0.042,-0.594 0.082,-0.562 0.13,-0.562Z" style="fill-rule:nonzero;"/></g><g transform="matrix(128,0,0,128,525.694,522.434)"><path d="M0.282,-0.016C0.328,-0.016 0.368,-0.023 0.404,-0.038L0.41,-0.164C0.373,-0.143 0.338,-0.134 0.304,-0.134C0.229,-0.134 0.185,-0.179 0.185,-0.257C0.185,-0.339 0.238,-0.381 0.305,-0.381C0.336,-0.381 0.37,-0.372 0.407,-0.351L0.403,-0.478C0.369,-0.491 0.327,-0.499 0.282,-0.499C0.129,-0.499 0.039,-0.397 0.039,-0.255C0.039,-0.121 0.115,-0.016 0.282,-0.016Z" style="fill-rule:nonzero;"/></g><g transform="matrix(128,0,0,128,581.63,522.434)"><path d="M0.291,-0.016C0.349,-0.016 0.4,-0.028 0.453,-0.053L0.457,-0.173C0.403,-0.143 0.357,-0.128 0.3,-0.128C0.23,-0.128 0.191,-0.162 0.182,-0.215L0.479,-0.215C0.481,-0.236 0.483,-0.26 0.483,-0.276C0.483,-0.408 0.408,-0.499 0.267,-0.499C0.123,-0.499 0.039,-0.394 0.039,-0.256C0.039,-0.121 0.111,-0.016 0.291,-0.016ZM0.182,-0.303C0.19,-0.358 0.223,-0.391 0.266,-0.391C0.312,-0.391 0.339,-0.358 0.343,-0.303L0.182,-0.303Z" style="fill-rule:nonzero;"/></g></g></svg>