<?xml version="1.0" encoding="UTF-8" standalone="no"?><!DOCTYPE svg PUBLIC "-//W3C//DTD SVG 1.1//EN" "http://www.w3.org/Graphics/SVG/1.1/DTD/svg11.dtd"><svg width="100%" height="100%" viewBox="0 0 1024 1024" version="1.1" xmlns="http://www.w3.org/2000/svg" xmlns:xlink="http://www.w3.org/1999/xlink" xml:space="preserve" xmlns:serif="http://www.serif.com/" style="fill-rule:evenodd;clip-rule:evenodd;stroke-linejoin:round;stroke-miterlimit:2;"><g transform="matrix(1,0,0,1,151.682,108.934)"><g transform="matrix(128,0,0,128,166.846,394.434)"><path d="M0.131,-0.554L0.191,-0.554C0.183,-0.517 0.164,-0.478 0.144,-0.448L0.115,-0.463L0.066,-0.384C0.111,-0.362 0.152,-0.333 0.194,-0.296C0.17,-0.272 0.143,-0.248 0.12,-0.231L0.076,-0.233C0.08,-0.144 0.087,-0.113 0.099,-0.113C0.108,-0.113 0.112,-0.123 0.113,-0.134C0.186,-0.135 0.267,-0.147 0.353,-0.165L0.359,-0.134L0.342,-0.129C0.358,-0.078 0.371,-0.012 0.377,0.038L0.459,0.016C0.452,-0.025 0.438,-0.088 0.417,-0.143L0.439,-0.15C0.43,-0.194 0.411,-0.264 0.388,-0.314L0.315,-0.292C0.32,-0.281 0.325,-0.266 0.33,-0.25C0.304,-0.245 0.278,-0.241 0.252,-0.238C0.319,-0.296 0.382,-0.368 0.412,-0.433C0.421,-0.433 0.431,-0.432 0.434,-0.443C0.437,-0.454 0.415,-0.469 0.333,-0.501C0.319,-0.459 0.291,-0.412 0.258,-0.369C0.246,-0.38 0.233,-0.39 0.219,-0.4C0.246,-0.433 0.264,-0.47 0.276,-0.501C0.285,-0.502 0.294,-0.502 0.296,-0.511C0.298,-0.523 0.277,-0.534 0.212,-0.554L0.871,-0.554C0.869,-0.597 0.869,-0.633 0.869,-0.675C0.869,-0.72 0.869,-0.755 0.871,-0.791L0.13,-0.791C0.133,-0.758 0.134,-0.722 0.134,-0.675C0.134,-0.635 0.133,-0.593 0.131,-0.554ZM0.063,0.03L0.15,0.085C0.188,0.034 0.199,-0.022 0.202,-0.085C0.209,-0.088 0.217,-0.089 0.217,-0.099C0.217,-0.108 0.197,-0.112 0.122,-0.122C0.12,-0.062 0.101,-0.01 0.063,0.03ZM0.249,0.063L0.338,0.052C0.334,-0.002 0.326,-0.062 0.311,-0.127L0.231,-0.114C0.241,-0.059 0.247,0.005 0.249,0.063ZM0.48,0.08L0.607,0.08L0.605,0.024L0.831,0.024C0.863,0.024 0.892,0.024 0.928,0.026L0.928,-0.076C0.894,-0.073 0.869,-0.073 0.833,-0.073L0.788,-0.073L0.788,-0.115L0.79,-0.115C0.823,-0.115 0.851,-0.114 0.888,-0.112L0.888,-0.2C0.852,-0.197 0.823,-0.198 0.795,-0.198L0.788,-0.198L0.788,-0.236L0.79,-0.236C0.822,-0.236 0.851,-0.236 0.888,-0.234L0.888,-0.322C0.852,-0.319 0.823,-0.319 0.794,-0.319L0.788,-0.319L0.788,-0.354L0.815,-0.354C0.846,-0.354 0.872,-0.354 0.91,-0.352L0.91,-0.452C0.878,-0.45 0.843,-0.449 0.815,-0.449L0.797,-0.449C0.804,-0.467 0.808,-0.484 0.81,-0.499C0.818,-0.501 0.828,-0.504 0.828,-0.514C0.828,-0.526 0.799,-0.531 0.699,-0.538C0.7,-0.507 0.697,-0.476 0.689,-0.449L0.617,-0.449C0.624,-0.468 0.629,-0.484 0.633,-0.502C0.639,-0.503 0.649,-0.504 0.65,-0.514C0.651,-0.526 0.627,-0.534 0.542,-0.549C0.532,-0.476 0.481,-0.387 0.408,-0.343L0.448,-0.213C0.461,-0.221 0.473,-0.23 0.484,-0.24L0.484,-0.063C0.484,-0.018 0.483,0.031 0.48,0.08ZM0.744,-0.645L0.656,-0.645L0.656,-0.696L0.744,-0.696L0.744,-0.645ZM0.259,-0.645L0.259,-0.696L0.348,-0.696L0.348,-0.645L0.259,-0.645ZM0.458,-0.645L0.458,-0.696L0.546,-0.696L0.546,-0.645L0.458,-0.645ZM0.604,-0.073L0.604,-0.115L0.673,-0.115L0.673,-0.073L0.604,-0.073ZM0.604,-0.198L0.604,-0.236L0.673,-0.236L0.673,-0.198L0.604,-0.198ZM0.604,-0.319L0.604,-0.354L0.673,-0.354L0.673,-0.319L0.604,-0.319Z" style="fill-rule:nonzero;"/></g><g transform="matrix(128,0,0,128,294.846,394.434)"><path d="M0.059,-0.071L0.116,0.07C0.263,0.053 0.399,-0.007 0.509,-0.107C0.619,-0.014 0.752,0.049 0.876,0.07L0.936,-0.069C0.813,-0.087 0.692,-0.134 0.598,-0.203C0.667,-0.291 0.717,-0.392 0.743,-0.559L0.765,-0.559C0.811,-0.559 0.85,-0.558 0.899,-0.556L0.899,-0.678C0.851,-0.675 0.817,-0.675 0.776,-0.675L0.572,-0.675L0.572,-0.803C0.581,-0.805 0.596,-0.809 0.596,-0.822C0.596,-0.833 0.568,-0.839 0.425,-0.84C0.427,-0.822 0.428,-0.802 0.428,-0.783L0.428,-0.675L0.218,-0.675C0.184,-0.675 0.145,-0.676 0.101,-0.68L0.101,-0.556C0.154,-0.558 0.187,-0.559 0.226,-0.559L0.257,-0.559C0.287,-0.392 0.341,-0.29 0.407,-0.21L0.416,-0.199C0.316,-0.121 0.194,-0.082 0.059,-0.071ZM0.384,-0.559L0.614,-0.559C0.597,-0.435 0.558,-0.352 0.507,-0.289C0.45,-0.358 0.407,-0.443 0.384,-0.559Z" style="fill-rule:nonzero;"/></g><g transform="matrix(128,0,0,128,422.846,394.434)"><path d="M0.04,-0.316L0.081,-0.165C0.114,-0.183 0.148,-0.211 0.179,-0.243L0.179,-0.084C0.179,-0.035 0.178,0.02 0.176,0.08L0.309,0.08C0.307,0.022 0.307,-0.033 0.307,-0.09L0.307,-0.271C0.328,-0.247 0.348,-0.221 0.366,-0.194L0.417,-0.291L0.441,-0.221L0.476,-0.24L0.476,-0.019C0.476,0.016 0.475,0.046 0.473,0.081L0.606,0.081L0.604,0.018L0.747,0.018L0.745,0.08L0.877,0.08L0.875,-0.019L0.875,-0.241L0.902,-0.224L0.96,-0.347C0.852,-0.394 0.777,-0.476 0.724,-0.579L0.732,-0.613C0.74,-0.614 0.752,-0.617 0.752,-0.628C0.752,-0.641 0.729,-0.649 0.626,-0.665C0.615,-0.539 0.525,-0.401 0.395,-0.356L0.404,-0.33C0.395,-0.339 0.385,-0.348 0.373,-0.358C0.396,-0.383 0.418,-0.414 0.43,-0.444C0.439,-0.444 0.45,-0.443 0.452,-0.455C0.454,-0.465 0.434,-0.479 0.356,-0.513C0.346,-0.474 0.329,-0.44 0.307,-0.412L0.307,-0.429C0.337,-0.49 0.358,-0.55 0.368,-0.608C0.37,-0.621 0.375,-0.638 0.381,-0.654L0.302,-0.696L0.289,-0.686L0.285,-0.686L0.285,-0.809C0.293,-0.812 0.304,-0.818 0.304,-0.831C0.304,-0.843 0.275,-0.848 0.153,-0.847C0.158,-0.821 0.159,-0.803 0.159,-0.777L0.159,-0.686L0.147,-0.686C0.119,-0.686 0.095,-0.687 0.061,-0.692L0.061,-0.57C0.097,-0.572 0.125,-0.573 0.151,-0.573L0.249,-0.573C0.231,-0.484 0.159,-0.37 0.04,-0.316ZM0.604,-0.093L0.604,-0.221L0.747,-0.221L0.747,-0.093L0.604,-0.093ZM0.384,-0.608L0.459,-0.497C0.55,-0.559 0.614,-0.658 0.633,-0.758C0.642,-0.758 0.654,-0.759 0.655,-0.772C0.655,-0.784 0.637,-0.791 0.535,-0.817C0.522,-0.72 0.463,-0.644 0.384,-0.608ZM0.885,-0.5L0.957,-0.614C0.885,-0.653 0.839,-0.727 0.814,-0.818C0.72,-0.792 0.698,-0.784 0.699,-0.77C0.7,-0.756 0.712,-0.757 0.726,-0.756C0.744,-0.663 0.813,-0.554 0.885,-0.5ZM0.59,-0.332C0.625,-0.369 0.655,-0.412 0.678,-0.457C0.703,-0.41 0.733,-0.369 0.767,-0.332L0.59,-0.332Z" style="fill-rule:nonzero;"/></g><g transform="matrix(128,0,0,128,184.702,522.434)"><path d="M0.182,-0.03L0.388,-0.03C0.396,-0.072 0.407,-0.115 0.422,-0.167L0.492,-0.41L0.563,-0.167C0.579,-0.114 0.59,-0.073 0.599,-0.03L0.806,-0.03C0.813,-0.07 0.824,-0.111 0.834,-0.154L0.934,-0.592C0.944,-0.636 0.956,-0.684 0.971,-0.73L0.8,-0.73C0.795,-0.689 0.786,-0.633 0.775,-0.576L0.696,-0.194L0.603,-0.495C0.591,-0.536 0.578,-0.591 0.57,-0.631L0.418,-0.631C0.409,-0.591 0.395,-0.537 0.383,-0.495L0.297,-0.209L0.219,-0.576C0.207,-0.635 0.197,-0.689 0.192,-0.73L0.015,-0.73C0.03,-0.683 0.045,-0.628 0.056,-0.58L0.155,-0.154C0.165,-0.111 0.176,-0.073 0.182,-0.03Z" style="fill-rule:nonzero;"/></g><g transform="matrix(128,0,0,128,310.91,522.434)"><path d="M0.06,-0.029L0.228,-0.029C0.222,-0.088 0.221,-0.145 0.221,-0.198L0.221,-0.558C0.221,-0.61 0.224,-0.678 0.228,-0.731L0.06,-0.731C0.065,-0.679 0.068,-0.611 0.068,-0.559L0.068,-0.2C0.068,-0.146 0.065,-0.088 0.06,-0.029Z" style="fill-rule:nonzero;"/></g><g transform="matrix(128,0,0,128,347.774,522.434)"><path d="M0.06,-0.03L0.228,-0.03C0.223,-0.088 0.221,-0.147 0.221,-0.202L0.221,-0.446L0.42,-0.168C0.452,-0.121 0.477,-0.079 0.502,-0.03L0.657,-0.03C0.653,-0.088 0.649,-0.146 0.649,-0.202L0.649,-0.578C0.649,-0.628 0.652,-0.68 0.657,-0.73L0.489,-0.73C0.495,-0.68 0.497,-0.628 0.497,-0.579L0.497,-0.307L0.295,-0.588C0.257,-0.642 0.233,-0.685 0.209,-0.73L0.062,-0.73C0.068,-0.677 0.069,-0.617 0.069,-0.564L0.069,-0.203C0.069,-0.146 0.066,-0.086 0.06,-0.03Z" style="fill-rule:nonzero;"/></g><g transform="matrix(128,0,0,128,439.55,522.434)"><path d="M0.405,-0.018C0.501,-0.018 0.603,-0.047 0.663,-0.091L0.663,-0.339C0.663,-0.387 0.664,-0.421 0.668,-0.453C0.638,-0.451 0.605,-0.451 0.58,-0.451L0.474,-0.451C0.443,-0.451 0.411,-0.451 0.381,-0.453L0.371,-0.322C0.404,-0.324 0.44,-0.324 0.473,-0.324L0.513,-0.324L0.513,-0.178C0.485,-0.166 0.452,-0.159 0.411,-0.159C0.285,-0.159 0.208,-0.244 0.208,-0.381C0.208,-0.52 0.294,-0.603 0.427,-0.603C0.493,-0.603 0.558,-0.586 0.615,-0.554L0.608,-0.706C0.557,-0.73 0.487,-0.744 0.413,-0.744C0.179,-0.744 0.044,-0.58 0.044,-0.379C0.044,-0.184 0.161,-0.018 0.405,-0.018Z" style="fill-rule:nonzero;"/></g></g></svg>