<svg width="47" height="40" viewBox="0 0 47 40" fill="none" xmlns="http://www.w3.org/2000/svg">
<path d="M11.1316 0C4.98602 0 0 5.03906 0 11.25V27.5C0 30.2578 2.21859 32.5 4.94737 32.5H25.9737V28.7422C25.9737 26.5156 26.9322 24.5234 28.4474 23.1562V21.25C28.4474 18.8828 29.259 16.7109 30.6196 15H26.5921C25.564 15 24.7368 14.1641 24.7368 13.125C24.7368 12.0859 25.564 11.25 26.5921 11.25H35.25C35.5824 11.25 35.8993 11.3359 36.1699 11.4922C36.8734 11.3359 37.6 11.25 38.3421 11.25C40.6844 11.25 42.8334 12.0703 44.5263 13.4375V12.5C44.5263 5.59375 38.9914 0 32.1579 0H11.1316ZM3.71053 11.25C3.71053 7.10938 7.03454 3.75 11.1316 3.75C15.2286 3.75 18.5526 7.10938 18.5526 11.25V27.5C18.5526 28.1875 17.9961 28.75 17.3158 28.75H4.94737C4.26711 28.75 3.71053 28.1875 3.71053 27.5V11.25ZM8.03947 11.25C7.01135 11.25 6.18421 12.0859 6.18421 13.125C6.18421 14.1641 7.01135 15 8.03947 15H14.2237C15.2518 15 16.0789 14.1641 16.0789 13.125C16.0789 12.0859 15.2518 11.25 14.2237 11.25H8.03947ZM38.3421 15.0078C34.9253 15.0078 32.1579 17.8047 32.1579 21.2578V25.2188C30.7201 25.7344 29.6842 27.1172 29.6842 28.75V36.25C29.6842 38.3203 31.3462 40 33.3947 40H43.2895C45.338 40 47 38.3203 47 36.25V28.75C47 27.1172 45.9641 25.7344 44.5263 25.2188V21.2578C44.5263 17.8047 41.7589 15.0078 38.3421 15.0078ZM38.3421 18.7578C39.7104 18.7578 40.8158 19.875 40.8158 21.2578V25H35.8684V21.2578C35.8684 19.875 36.9739 18.7578 38.3421 18.7578Z" fill="black"/>
</svg>
