<svg width="47" height="31" viewBox="0 0 47 31" fill="currentColor" xmlns="http://www.w3.org/2000/svg">
<path d="M10.9772 26.0139L11.4398 26.2291C11.9097 26.4156 12.4163 26.5089 12.9303 26.5089C13.6132 26.5089 14.2887 26.3367 14.8835 26.0211L21.154 22.6492V31H3.53179C1.586 31 0.0073426 29.4575 0.0073426 27.5564V20.1238L10.9772 26.0211V26.0139ZM38.7763 0C40.7221 0 42.3007 1.54247 42.3007 3.44365C45.157 5.53853 47 8.87457 47 12.6267V26.4013C47 28.9338 44.8927 30.9928 42.3007 30.9928H24.6785V11.4788C24.6785 7.67646 21.5212 4.59153 17.6296 4.59153C14.5604 4.59153 11.9611 6.50706 10.9919 9.18306H7.32792C8.3926 4.58436 12.5999 1.14788 17.6296 1.14788H27.9313C28.5774 0.444804 29.5099 0 30.5526 0H38.7763ZM21.154 18.7105L13.18 23.0007C13.0992 23.0437 13.0184 23.0653 12.9303 23.0653C12.8863 23.0653 12.8422 23.0581 12.7982 23.0509L12.6733 23.0007L0 16.1851V16.0704C0 14.1692 1.57866 12.6267 3.52445 12.6267H21.1467V18.7105H21.154ZM32.3148 3.44365C31.4043 3.44365 30.6554 4.11803 30.5599 4.98611L30.5526 5.16547V13.2006C30.5526 14.1548 31.3382 14.9225 32.3148 14.9225C33.2914 14.9225 34.077 14.1548 34.077 13.2006V9.18306H37.0141C37.9906 9.18306 38.7763 8.41541 38.7763 7.46124V5.16547C38.7763 4.27586 38.0861 3.54409 37.1976 3.45082L37.0141 3.44365H32.3148Z"/>
</svg>
