<?xml version="1.0" encoding="UTF-8"?>
<svg id="_圖層_1" data-name="圖層 1" xmlns="http://www.w3.org/2000/svg" viewBox="0 0 543.67 454.49">
  <defs>
    <style>
      .cls-1 {
        fill: #9a7113;
      }

      .cls-1, .cls-2, .cls-3 {
        stroke-width: 0px;
      }

      .cls-2 {
        fill: #ffc738;
      }

      .cls-3 {
        fill: #f6b21c;
      }
    </style>
  </defs>
  <g>
    <path class="cls-1" d="M501.5,218.7s-7.88-50.43-11-59l-19.3-60.66s-2.34-8.79-10.13-5.68l-17.93,8.57s22.61,68.82,28.06,109.35c0,0,2.34,10.91-3.9,10.13l-63.58-6.24.78,25.72,61.24,6.24,32.74-21.83s3.02-4.28,3.02-6.62Z"/>
    <path class="cls-1" d="M510.17,272.43c0-2.34,0-9.35-3.12-9.35s-3.12-1.56-7.02,2.34l-21.83,15.59,5.46,48.77s0,6.24,4.68,7.79l31.18,8.57s-9.35-71.37-9.35-73.71Z"/>
    <path class="cls-1" d="M248.27,198.04c-5.46,0-4.68-6.24-4.68-6.24l1.91-63.1-85-9-1.87,79.12c0,3.12-3.9,4.68-3.9,4.68l-93.2,50.11s-1.56,10.91-1.56,14.81,3.9,4.68,3.9,4.68l7.79.78,80.73-43.09c6.24-1.56,6.24,3.9,6.24,3.9l-.13,48.03,84,8,1.09-63.04c0-5.46,4.68-4.68,4.68-4.68l57.12,6.24-2.34-25.72-54.78-5.46Z"/>
    <path class="cls-1" d="M157.07,378.1c0,4.68,6.24,2.34,6.24,2.34,31.96-17.15,74.83-4.68,74.83-4.68,4.68,0,4.68-4.27,4.68-4.27v-39.05l-84.96-7.79-.78,53.45Z"/>
  </g>
  <path class="cls-2" d="M174.44,2.89,247,1.2c-20.98.95-44,2-67,5s-90,26-97,28-14.3,9.05-14.3,9.05c-24.7,29.95-38.08,112.81-38.08,112.81l-14.03,104.45S1,392.69,1,397.36s3.12,6.24,3.12,6.24l42.87,14.81s7.02,2.34,7.02-3.9,5.22-88.64,5.99-93.31,4-4,4-4c0,0,234.85,20.97,241,22s6.24,6.16,6.24,6.16l5.76,91.84c.18,2.87,0,6,4,7,11.02,2.75,39.53,9,50,9,13.25,0,18-3,18-3l18.47-11.19c3-1.64,4.81-4.82,4.7-8.24-.68-20.77-3.17-92.57-3.17-94.58,0-5,2.79-7.09,2.79-7.09,0,0,69.79-50.96,89.21-63.91,3-2,7,0,8,3l11.54,91.83c.35,2.07,2.65,3.17,4.48,2.14l15.47-8.72c1.37-.77,2.21-2.23,2.19-3.8-.48-36.63-11.67-115.45-11.67-115.45-14-110-62.36-201.02-62.36-201.02-6.24-14.03-16.37-15.59-16.37-15.59C390.54,3.97,269,.2,247,1.2ZM300,294.2l-231.57-21.72s-5.43-.28-5.43-7.28c0,0,7.25-74.19,9.32-84.58,2.68-13.42,5.06-63.42,34.68-63.42l149.06,14.19s36.64,0,41.31,35.08c0,0,6.63,51.04,6.63,62.73,0,10.65,2.98,51.32,3.44,57.39.06.79,0,1.6-.23,2.36-.59,1.97-2.3,5.25-7.21,5.25ZM500,218.2s.99,5.78-2.91,8.12l-80.85,53.56s-1.44.82-3.26.99c-2.83.26-5.28-1.97-5.41-4.81l-6.14-141.16s-1.56-10.13,8.57-15.59l49.67-23.94s.78-.39,1.97-.59c3.22-.53,6.35,1.4,7.44,4.48,4.7,13.22,27.71,79.56,30.91,118.94Z"/>
  <path class="cls-3" d="M473.28,38.18,451.5,17.7C402.5,6.7,350.58,3.7,279.5,1.7c-71-2-107,6-107,6-30.01,5.85-79.42,22.21-96,29,0,0-6.34,3.72-2,8s85,21,159,23c70.04,1.89,130,1,168.11-11.45,28.41-9.28,47.6-16.8,55.89-21.55,3.49-2,6-3.98,6-8,0-3-2.05-6.77-12-9Z"/>
  <ellipse class="cls-1" cx="272.88" cy="26.39" rx="37.81" ry="8.57"/>
</svg>