<?xml version="1.0" encoding="UTF-8"?>
<svg id="_圖層_1" data-name="圖層 1" xmlns="http://www.w3.org/2000/svg" viewBox="0 0 544.68 726.72">
  <defs>
    <style>
      .cls-1 {
        fill: #9a7113;
      }

      .cls-1, .cls-2, .cls-3 {
        stroke-width: 0px;
      }

      .cls-2 {
        fill: #ffc738;
      }

      .cls-3 {
        fill: #f6b21c;
      }
    </style>
  </defs>
  <g>
    <path class="cls-1" d="M498.82,494.66s-26.28-323.32-29.4-331.89l-9.35-62.71s-1.21-9.5-10.13-4.94l-17.93,8.57s24.35,203.36,38.19,379.83c0,0,1.65,11.03-6.35,10.03l-59.13-6.13.78,25.72,60.35,7.41,30.63-22s2.34-1.56,2.34-3.9Z"/>
    <path class="cls-1" d="M509.17,546.66c0-2.34,0-9.35-3.12-9.35s-3.12-1.56-7.02,2.34l-21.83,15.59,5.46,46.77s0,6.24,4.68,7.79l31.18,8.57s-9.35-69.37-9.35-71.71Z"/>
    <path class="cls-1" d="M232.27,472.27c-5.46,0-4.68-6.24-4.68-6.24l6.26-338.48-85-8-6.23,353.5c0,3.12-3.9,4.68-3.9,4.68l-77.88,47.83v15c0,2.8,2.07,4.16,3.23,4.7.41.19.86.31,1.31.34l6.27.5,64.73-41.09c6.24-1.56,6.24,3.9,6.24,3.9l-.78,45.99,84.96,7.79.78-60.8c0-5.46,4.68-4.68,4.68-4.68l73.58,4.34-2-26-71.58-3.28Z"/>
    <path class="cls-1" d="M141.07,645.34c0,4.68,6.24,2.34,6.24,2.34,31.96-17.15,74.83-4.68,74.83-4.68,4.68,0,4.68-4.27,4.68-4.27v-34.05l-84.96-7.79-.78,48.45Z"/>
  </g>
  <path class="cls-2" d="M464.13,39.54,489.35,74.06c-8-47-28-50-32-52-1.46-.73-8.03-2.64-9.61-3.03C401.06,7.44,341.76,3.51,269.85.56c-73-3-106.55,7.09-106.55,7.09-30.01,5.85-80.66,23.38-97.24,30.17-4.19,1.71-7.3,4.98-10.49,8.19C19.28,82.46,0,670.6,0,670.6c0,4.68,3.12,6.24,3.12,6.24l45.87,7.81s7.02,2.34,7.02-3.9,2.46-81.86,3.24-86.54,6.24-3.9,6.24-3.9c0,0,233.07,21.83,239.3,21.83s5.46,5.46,5.46,5.46l5.93,94.94c.18,2.87,2.23,5.28,5.04,5.9,11.09,2.45,38.58,8.29,49.05,8.29,13.25,0,17.93-3.9,17.93-3.9l18.59-10.19c3.42-1.88,5.5-5.5,5.38-9.4-.69-22-2.92-93.79-2.92-95.77,0-2.34,1.56-3.12,1.56-3.12,3.4-2.4,6.8-4.8,10.19-7.21,7.99-5.66,15.96-11.33,23.92-17.03,9.27-6.62,18.52-13.27,27.73-19.97,7.25-5.28,12.12-9.09,19.22-14.58,2.81-2.18,7.94-7.18,11.53-8.06s5.12,1.9,5.47,5.06l1.69,15.51c2.37,20.98,4.83,64.25,6.99,77.2.35,2.07,2.65,3.17,4.48,2.14l20.47-18.72c1.37-.77,2.3-2.23,2.19-3.8-21.82-315.33-55.32-540.83-55.32-540.83ZM296.65,565.63l-229.22-20.91s-5.42.78-5.46-4.68c-1.12-184.48,18.59-389.48,18.59-389.48,0-27,13.29-33,27.29-32.22l138,13.22s36.71,1.59,41.39,36.67c0,0,17.15,326.6,17.15,338.3l2.04,49.8c.22,5.42-4.38,9.8-9.79,9.31ZM493.42,500.67l-77.18,51.45s-.74.42-1.83.72c-3.36.93-6.71-1.56-6.85-5.04l-16.26-403.24s-1.45-18,8.57-23.49l50.67-24.94s2.36-1.18,5.12-.47c1.99.51,3.49,2.15,3.97,4.15,1.82,7.67,5.94,34.1,7.22,51.75l30.77,340.41c.29,3.45-1.32,6.78-4.2,8.7Z"/>
  <path class="cls-3" d="M464.13,39.54,443.35,18.06C394.35,7.06,340.88,3.99,269.85.56c-72.5-3.5-106.55,7.09-106.55,7.09-30.01,5.85-80.66,23.38-97.24,30.17,0,0-4.88,2.19-.54,6.47s88.99,23.78,158.84,26.78,130,1,168.11-13.45c27.94-10.6,45.55-16.91,53.84-21.65,3.49-2,5.92-5.51,6.29-9.52.28-3.04.71-6.14-9.24-8.38Z"/>
  <ellipse class="cls-1" cx="261.75" cy="31.15" rx="37.81" ry="8.57"/>
</svg>