<?xml version="1.0" encoding="UTF-8" standalone="no"?>
<!DOCTYPE svg PUBLIC "-//W3C//DTD SVG 1.1//EN" "http://www.w3.org/Graphics/SVG/1.1/DTD/svg11.dtd">
<svg width="100%" height="100%" viewBox="0 0 592 39" version="1.1" xmlns="http://www.w3.org/2000/svg" xmlns:xlink="http://www.w3.org/1999/xlink" xml:space="preserve" xmlns:serif="http://www.serif.com/" style="fill-rule:evenodd;clip-rule:evenodd;stroke-linejoin:round;stroke-miterlimit:2;">
    <g transform="matrix(1,0,0,1,-2697,-1893)">
        <g transform="matrix(1,0,0,1,2040,1330)">
            <g transform="matrix(0.390213,0,0,0.390213,656.931,563.554)">
                <g transform="matrix(96,0,0,96,1517.47,74.4)">
                </g>
                <text x="0px" y="74.4px" style="font-family:'jf-kamabit-1.0', sans-serif;font-weight:800;font-size:96px;">20<tspan x="116.736px 172.512px 229.056px 257.76px 319.2px 373.92px 406.08px 463.296px " y="74.4px 74.4px 74.4px 74.4px 74.4px 74.4px 74.4px 74.4px ">26.05.23</tspan> - 2<tspan x="675.744px " y="74.4px ">4</tspan>｜T<tspan x="891.168px 947.424px 979.296px 1036.03px 1085.57px " y="74.4px 74.4px 74.4px 74.4px 74.4px ">aipei</tspan>, T<tspan x="1233.41px 1289.66px 1319.52px 1401.31px " y="74.4px 74.4px 74.4px 74.4px ">aiwa</tspan>n</text>
            </g>
        </g>
    </g>
</svg>
