<?xml version="1.0" encoding="UTF-8" standalone="no"?>
<!DOCTYPE svg PUBLIC "-//W3C//DTD SVG 1.1//EN" "http://www.w3.org/Graphics/SVG/1.1/DTD/svg11.dtd">
<svg width="100%" height="100%" viewBox="0 0 313 319" version="1.1" xmlns="http://www.w3.org/2000/svg" xmlns:xlink="http://www.w3.org/1999/xlink" xml:space="preserve" xmlns:serif="http://www.serif.com/" style="fill-rule:evenodd;clip-rule:evenodd;stroke-linejoin:round;stroke-miterlimit:2;">
    <g transform="matrix(1,0,0,1,-3787,-2123)">
        <g transform="matrix(1,0,0,1,2040,1330)">
            <g transform="matrix(0.575985,0,0,0.575985,1243.06,18.4856)">
                <g transform="matrix(1,0,0,1,876,1344.68)">
                    <path d="M500.5,317.65C500.5,317.65 492.62,167.22 489.5,158.65L470.2,97.99C470.2,97.99 467.86,89.2 460.07,92.31L442.14,100.88C442.14,100.88 464.75,269.7 470.2,310.23C470.2,310.23 472.54,321.14 466.3,320.36L402.72,314.12L403.5,339.84L464.74,346.08L497.48,324.25C497.48,324.25 500.5,319.97 500.5,317.63L500.5,317.65Z" style="fill:rgb(26,109,17);fill-rule:nonzero;"/>
                </g>
                <g transform="matrix(1,0,0,1,876,1344.68)">
                    <path d="M509.17,371.38C509.17,369.04 509.17,362.03 506.05,362.03C502.93,362.03 502.93,360.47 499.03,364.37L477.2,379.96L482.66,428.73C482.66,428.73 482.66,434.97 487.34,436.52L518.52,445.09C518.52,445.09 509.17,373.72 509.17,371.38Z" style="fill:rgb(26,109,17);fill-rule:nonzero;"/>
                </g>
                <g transform="matrix(1,0,0,1,876,1344.68)">
                    <path d="M247.27,296.99C241.81,296.99 242.59,290.75 242.59,290.75L244.5,127.65L159.5,118.65L157.63,297.77C157.63,300.89 153.73,302.45 153.73,302.45L60.53,352.56C60.53,352.56 58.97,363.47 58.97,367.37C58.97,371.27 62.87,372.05 62.87,372.05L70.66,372.83L151.39,329.74C157.63,328.18 157.63,333.64 157.63,333.64L157.5,381.67L241.5,389.67L242.59,326.63C242.59,321.17 247.27,321.95 247.27,321.95L304.39,328.19L302.05,302.47L247.27,297.01L247.27,296.99Z" style="fill:rgb(26,109,17);fill-rule:nonzero;"/>
                </g>
                <g transform="matrix(1,0,0,1,876,1344.68)">
                    <path d="M156.07,477.05C156.07,481.73 162.31,479.39 162.31,479.39C194.27,462.24 237.14,474.71 237.14,474.71C241.82,474.71 241.82,470.44 241.82,470.44L241.82,431.39L156.86,423.6L156.08,477.05L156.07,477.05Z" style="fill:rgb(26,109,17);fill-rule:nonzero;"/>
                </g>
                <g transform="matrix(1,0,0,1,876,1344.68)">
                    <path d="M173.44,1.85L246,0.15C225.02,1.1 202,2.15 179,5.15C156,8.15 89,31.15 82,33.15C75,35.15 67.7,42.2 67.7,42.2C13,91.15 0,491.64 0,496.32C0,501 3.12,502.56 3.12,502.56L45.99,517.37C45.99,517.37 53.01,519.71 53.01,513.47C53.01,507.23 58.23,424.83 59,420.16C59.77,415.49 63,416.16 63,416.16C63,416.16 297.85,437.13 304,438.16C310.15,439.19 310.24,444.32 310.24,444.32L316,536.16C316.18,539.03 316,542.16 320,543.16C331.02,545.91 359.53,552.16 370,552.16C383.25,552.16 388,549.16 388,549.16L406.47,537.97C409.47,536.33 411.28,533.15 411.17,529.73C410.49,508.96 408,437.16 408,435.15C408,430.15 410.79,428.06 410.79,428.06C410.79,428.06 480.58,377.1 500,364.15C503,362.15 507,364.15 508,367.15L519.54,458.98C519.89,461.05 522.19,462.15 524.02,461.12L539.49,452.4C540.86,451.63 541.7,450.17 541.68,448.6C541.2,411.97 530.01,333.15 530.01,333.15C516.01,223.15 504.402,113.638 472.28,33.869C468.89,25.451 451.28,16.54 451.28,16.54C389.54,2.92 268,-0.85 246,0.15L173.44,1.85ZM299,393.15L67.43,371.43C67.43,371.43 62,371.15 62,364.15C62,364.15 69.25,189.96 71.32,179.57C74,166.15 76.38,116.15 106,116.15L255.06,130.34C255.06,130.34 291.7,130.34 296.37,165.42C296.37,165.42 303,316.46 303,328.15C303,338.8 305.98,379.47 306.44,385.54C306.5,386.33 306.44,387.14 306.21,387.9C305.62,389.87 303.91,393.15 299,393.15ZM499,317.15C499,317.15 499.99,322.93 496.09,325.27L415.24,378.83C415.24,378.83 413.8,379.65 411.98,379.82C409.15,380.08 406.7,377.85 406.57,375.01L400.43,133.85C400.43,133.85 398.87,123.72 409,118.26L458.67,94.32C458.67,94.32 459.45,93.93 460.64,93.73C463.86,93.2 466.99,95.13 468.08,98.21C472.78,111.43 495.79,277.77 498.99,317.15L499,317.15Z" style="fill:rgb(64,173,58);fill-rule:nonzero;"/>
                </g>
                <g transform="matrix(1,0,0,1,876,1344.68)">
                    <path d="M472.28,37.14L450.5,16.65C401.5,5.65 349.58,2.65 278.5,0.65C207.5,-1.35 171.5,6.65 171.5,6.65C141.49,12.5 92.08,28.86 75.5,35.65C75.5,35.65 69.16,39.37 73.5,43.65C77.84,47.93 158.5,64.65 232.5,66.65C302.54,68.54 362.5,67.65 400.61,55.2C429.02,45.92 448.21,38.4 456.5,33.65C459.99,31.65 462.5,29.67 462.5,25.65C462.5,22.65 460.45,18.88 450.5,16.65L472.28,37.14Z" style="fill:rgb(87,196,78);fill-rule:nonzero;"/>
                </g>
                <g transform="matrix(1,0,0,1,876,1344.68)">
                    <ellipse cx="271.88" cy="25.34" rx="37.81" ry="8.57" style="fill:rgb(26,109,17);"/>
                </g>
            </g>
        </g>
    </g>
</svg>
