<?xml version="1.0" encoding="UTF-8" standalone="no"?>
<!DOCTYPE svg PUBLIC "-//W3C//DTD SVG 1.1//EN" "http://www.w3.org/Graphics/SVG/1.1/DTD/svg11.dtd">
<svg width="100%" height="100%" viewBox="0 0 313 261" version="1.1" xmlns="http://www.w3.org/2000/svg" xmlns:xlink="http://www.w3.org/1999/xlink" xml:space="preserve" xmlns:serif="http://www.serif.com/" style="fill-rule:evenodd;clip-rule:evenodd;stroke-linejoin:round;stroke-miterlimit:2;">
    <g transform="matrix(1,0,0,1,-3315,-2183)">
        <g transform="matrix(1,0,0,1,2040,1330)">
            <g transform="matrix(0.575996,0,0,0.575996,1431.82,983.355)">
                <g transform="matrix(1,0,0,1,-270.835,-226.075)">
                    <clipPath id="_clip1">
                        <rect x="0" y="0" width="541.67" height="452.15"/>
                    </clipPath>
                    <g clip-path="url(#_clip1)">
                        <g>
                            <path d="M500.5,217.65C500.5,217.65 492.62,167.22 489.5,158.65L470.2,97.99C470.2,97.99 467.86,89.2 460.07,92.31L442.14,100.88C442.14,100.88 464.75,169.7 470.2,210.23C470.2,210.23 472.54,221.14 466.3,220.36L402.72,214.12L403.5,239.84L464.74,246.08L497.48,224.25C497.48,224.25 500.5,219.97 500.5,217.63L500.5,217.65Z" style="fill:rgb(20,83,130);fill-rule:nonzero;"/>
                            <path d="M509.17,271.38C509.17,269.04 509.17,262.03 506.05,262.03C502.93,262.03 502.93,260.47 499.03,264.37L477.2,279.96L482.66,328.73C482.66,328.73 482.66,334.97 487.34,336.52L518.52,345.09C518.52,345.09 509.17,273.72 509.17,271.38Z" style="fill:rgb(20,83,130);fill-rule:nonzero;"/>
                            <path d="M247.27,196.99C241.81,196.99 242.59,190.75 242.59,190.75L244.5,127.65L159.5,118.65L157.63,197.77C157.63,200.89 153.73,202.45 153.73,202.45L60.53,252.56C60.53,252.56 58.97,263.47 58.97,267.37C58.97,271.27 62.87,272.05 62.87,272.05L70.66,272.83L151.39,229.74C157.63,228.18 157.63,233.64 157.63,233.64L157.5,281.67L241.5,289.67L242.59,226.63C242.59,221.17 247.27,221.95 247.27,221.95L304.39,228.19L302.05,202.47L247.27,197.01L247.27,196.99Z" style="fill:rgb(20,83,130);fill-rule:nonzero;"/>
                            <path d="M156.07,377.05C156.07,381.73 162.31,379.39 162.31,379.39C194.27,362.24 237.14,374.71 237.14,374.71C241.82,374.71 241.82,370.44 241.82,370.44L241.82,331.39L156.86,323.6L156.08,377.05L156.07,377.05Z" style="fill:rgb(20,83,130);fill-rule:nonzero;"/>
                        </g>
                        <path d="M173.44,1.85L246,0.15C225.02,1.1 202,2.15 179,5.15C156,8.15 89,31.15 82,33.15C75,35.15 67.7,42.2 67.7,42.2C43,72.15 29.62,155.01 29.62,155.01L15.59,259.46C15.59,259.46 0,391.64 0,396.32C0,401 3.12,402.56 3.12,402.56L45.99,417.37C45.99,417.37 53.01,419.71 53.01,413.47C53.01,407.23 58.23,324.83 59,320.16C59.77,315.49 63,316.16 63,316.16C63,316.16 297.85,337.13 304,338.16C310.15,339.19 310.24,344.32 310.24,344.32L316,436.16C316.18,439.03 316,442.16 320,443.16C331.02,445.91 359.53,452.16 370,452.16C383.25,452.16 388,449.16 388,449.16L406.47,437.97C409.47,436.33 411.28,433.15 411.17,429.73C410.49,408.96 408,337.16 408,335.15C408,330.15 410.79,328.06 410.79,328.06C410.79,328.06 480.58,277.1 500,264.15C503,262.15 507,264.15 508,267.15L519.54,358.98C519.89,361.05 522.19,362.15 524.02,361.12L539.49,352.4C540.86,351.63 541.7,350.17 541.68,348.6C541.2,311.97 530.01,233.15 530.01,233.15C516.01,123.15 467.65,32.13 467.65,32.13C461.41,18.1 451.28,16.54 451.28,16.54C389.54,2.92 268,-0.85 246,0.15L173.44,1.85ZM299,293.15L67.43,271.43C67.43,271.43 62,271.15 62,264.15C62,264.15 69.25,189.96 71.32,179.57C74,166.15 76.38,116.15 106,116.15L255.06,130.34C255.06,130.34 291.7,130.34 296.37,165.42C296.37,165.42 303,216.46 303,228.15C303,238.8 305.98,279.47 306.44,285.54C306.5,286.33 306.44,287.14 306.21,287.9C305.62,289.87 303.91,293.15 299,293.15ZM499,217.15C499,217.15 499.99,222.93 496.09,225.27L415.24,278.83C415.24,278.83 413.8,279.65 411.98,279.82C409.15,280.08 406.7,277.85 406.57,275.01L400.43,133.85C400.43,133.85 398.87,123.72 409,118.26L458.67,94.32C458.67,94.32 459.45,93.93 460.64,93.73C463.86,93.2 466.99,95.13 468.08,98.21C472.78,111.43 495.79,177.77 498.99,217.15L499,217.15Z" style="fill:rgb(44,118,181);fill-rule:nonzero;"/>
                        <path d="M472.28,37.14L450.5,16.65C401.5,5.65 349.58,2.65 278.5,0.65C207.5,-1.35 171.5,6.65 171.5,6.65C141.49,12.5 92.08,28.86 75.5,35.65C75.5,35.65 69.16,39.37 73.5,43.65C77.84,47.93 158.5,64.65 232.5,66.65C302.54,68.54 362.5,67.65 400.61,55.2C429.02,45.92 448.21,38.4 456.5,33.65C459.99,31.65 462.5,29.67 462.5,25.65C462.5,22.65 460.45,18.88 450.5,16.65L472.28,37.14Z" style="fill:rgb(54,138,201);fill-rule:nonzero;"/>
                        <ellipse cx="271.88" cy="25.34" rx="37.81" ry="8.57" style="fill:rgb(20,83,130);"/>
                    </g>
                </g>
            </g>
        </g>
    </g>
</svg>
