<?xml version="1.0" encoding="UTF-8" standalone="no"?>
<!DOCTYPE svg PUBLIC "-//W3C//DTD SVG 1.1//EN" "http://www.w3.org/Graphics/SVG/1.1/DTD/svg11.dtd">
<svg width="100%" height="100%" viewBox="0 0 314 417" version="1.1" xmlns="http://www.w3.org/2000/svg" xmlns:xlink="http://www.w3.org/1999/xlink" xml:space="preserve" xmlns:serif="http://www.serif.com/" style="fill-rule:evenodd;clip-rule:evenodd;stroke-linejoin:round;stroke-miterlimit:2;">
    <g transform="matrix(1,0,0,1,-2843,-2027)">
        <g transform="matrix(1,0,0,1,2040,1330)">
            <g transform="matrix(0.572889,0,0,0.572889,960,905.408)">
                <g transform="matrix(1,0,0,1,-272.34,-363.36)">
                    <clipPath id="_clip1">
                        <rect x="0" y="0" width="544.68" height="726.72"/>
                    </clipPath>
                    <g clip-path="url(#_clip1)">
                        <g>
                            <path d="M405.35,488.06L463.85,493.56C471.85,494.56 470.2,483.53 470.2,483.53C456.35,307.06 432.35,105.06 432.35,105.06L450.35,96.06C452.35,95.06 455.66,95.66 455.66,95.66C457.65,96.17 459.15,97.81 459.63,99.81C461.45,107.48 465.57,133.91 466.85,151.56L497.62,491.97C497.91,495.42 497.35,498.06 494.35,500.06L464.35,520.06L406.35,513.06L405.35,488.06Z" style="fill:rgb(142,19,25);fill-rule:nonzero;"/>
                            <path d="M509.35,546.56C509.53,549.95 515.35,618.06 515.35,618.06L487.35,609.8C482.67,608.24 482.67,602.01 482.67,602.01L477.35,557.06L499.04,539.65C499.04,539.65 508.53,530.95 509.35,546.56Z" style="fill:rgb(142,19,25);fill-rule:nonzero;"/>
                            <path d="M73.35,545.06L151.39,503.02C157.63,501.46 157.63,506.92 157.63,506.92L156.85,552.91L241.81,560.7L242.59,499.9C242.59,494.44 247.27,495.22 247.27,495.22L303.85,501.56L302.35,476.06L247.27,470.28C241.81,470.28 242.59,464.04 242.59,464.04L233.85,130.56L148.85,122.56L157.62,471.06C157.62,474.18 153.72,475.74 153.72,475.74L62.34,525.57L62.34,537.65C62.34,537.65 61.34,546.07 73.34,545.07" style="fill:rgb(142,19,25);fill-rule:nonzero;"/>
                            <path d="M156.07,650.34C156.07,655.02 162.31,652.68 162.31,652.68C194.27,635.53 237.14,648 237.14,648C241.82,648 241.82,643.73 241.82,643.73L241.82,606.68L156.86,598.89L156.08,650.34L156.07,650.34Z" style="fill:rgb(142,19,25);fill-rule:nonzero;"/>
                        </g>
                        <path d="M304.78,612.14C310.85,612.56 310.85,617.56 310.85,617.56L316.17,712.54C316.35,715.41 318.4,717.82 321.21,718.44C332.3,720.89 359.79,726.73 370.26,726.73C383.51,726.73 388.19,722.83 388.19,722.83L406.78,712.64C410.2,710.76 412.28,707.14 412.16,703.24C411.47,681.24 409.24,609.45 409.24,607.47C409.24,605.13 410.8,604.35 410.8,604.35C414.2,601.95 417.6,599.55 420.99,597.14C428.98,591.48 436.95,585.81 444.91,580.11C454.18,573.49 463.43,566.84 472.64,560.14C479.89,554.86 484.76,551.05 491.86,545.56C494.67,543.38 499.8,538.38 503.39,537.5C506.98,536.62 508.51,539.4 508.86,542.56L510.55,558.07C512.92,579.05 515.38,622.32 517.54,635.27C517.89,637.34 520.19,638.44 522.02,637.41L542.86,618.56C543.86,617.56 544.79,616.46 544.68,614.89C522.86,299.56 489.36,74.06 489.36,74.06C482.86,28.56 447.75,19.03 447.75,19.03C401.06,7.44 341.76,3.51 269.85,0.56C196.85,-2.44 163.3,7.65 163.3,7.65C133.29,13.5 82.64,31.03 66.06,37.82C61.87,39.53 58.76,42.8 55.57,46.01C19.28,82.46 0,670.6 0,670.6C0,672.3 0.41,673.58 0.93,674.53C1.68,675.9 3.05,676.82 4.59,677.09L48.99,684.65C48.99,684.65 55.85,685.56 56.01,680.75C56.21,674.52 58.47,598.89 59.25,594.21C60.03,589.53 65.49,590.31 65.49,590.31C65.49,590.31 298.57,611.71 304.79,612.14M296.65,565.63L67.43,544.72C67.43,544.72 61.89,544.02 61.86,538.56C60.74,354.08 80.57,150.56 80.57,150.56C82.86,123.56 93.86,117.56 107.86,118.34L245.86,131.56C245.86,131.56 282.57,133.15 287.25,168.23C287.25,168.23 304.4,494.83 304.4,506.53L306.44,556.33C306.66,561.75 302.06,566.13 296.65,565.64L296.65,565.63ZM493.42,500.67L416.24,552.12C416.24,552.12 415.5,552.54 414.41,552.84C411.05,553.77 407.7,551.28 407.56,547.8L391.3,144.56C391.3,144.56 389.85,126.56 399.87,121.07L450.54,96.13C450.54,96.13 452.9,94.95 455.66,95.66C457.65,96.17 459.15,97.81 459.63,99.81C461.45,107.48 465.57,133.91 466.85,151.56L497.62,491.97C497.91,495.42 496.3,498.75 493.42,500.67Z" style="fill:rgb(193,40,42);fill-rule:nonzero;"/>
                        <path d="M443.35,18.06C394.35,7.06 340.88,3.99 269.85,0.56C197.35,-2.94 163.3,7.65 163.3,7.65C133.29,13.5 82.64,31.03 66.06,37.82C66.06,37.82 61.18,40.01 65.52,44.29C69.86,48.57 154.51,68.07 224.36,71.07C294.21,74.07 354.36,72.07 392.47,57.62C420.41,47.02 438.02,40.71 446.31,35.97C449.8,33.97 452.23,30.46 452.6,26.45C452.88,23.41 453.31,20.31 443.36,18.07L443.35,18.06Z" style="fill:rgb(214,60,68);fill-rule:nonzero;"/>
                        <ellipse cx="262.75" cy="31.15" rx="37.81" ry="8.57" style="fill:rgb(142,19,25);"/>
                    </g>
                </g>
            </g>
        </g>
    </g>
</svg>
