<?xml version="1.0" encoding="UTF-8" standalone="no"?>
<!DOCTYPE svg PUBLIC "-//W3C//DTD SVG 1.1//EN" "http://www.w3.org/Graphics/SVG/1.1/DTD/svg11.dtd">
<svg width="100%" height="100%" viewBox="0 0 1156 255" version="1.1" xmlns="http://www.w3.org/2000/svg" xmlns:xlink="http://www.w3.org/1999/xlink" xml:space="preserve" xmlns:serif="http://www.serif.com/" style="fill-rule:evenodd;clip-rule:evenodd;stroke-linejoin:round;stroke-miterlimit:2;">
    <g transform="matrix(1,0,0,1,-2422,-1576)">
        <g transform="matrix(1,0,0,1,2040,1330)">
            <g transform="matrix(1.31478,0,0,0.480398,328.017,257.722)">
                <path d="M67.421,489.656L70.125,498.907C102.347,512.474 133.668,498.29 157.102,456.355C172.65,484.723 190.226,498.29 206.675,502.607C224.25,507.54 233.714,496.44 235.968,454.505C237.094,434.77 237.32,433.537 244.755,436.004L245.657,419.97C226.504,407.636 209.604,392.835 194.507,376.184C213.209,330.549 224.701,279.363 229.208,238.044C235.517,232.494 239.122,212.76 238.671,194.259C238.221,171.441 225.828,140.607 217.49,136.906C210.956,133.823 205.999,140.607 201.943,149.24L93.784,149.24L93.784,101.755L223.124,101.755C231.686,101.755 241.15,67.837 241.15,48.102C241.15,29.601 226.053,-5.55 219.293,-5.55C214.111,-5.55 207.576,8.017 205.097,17.884L92.432,17.884C90.179,5.55 84.32,0.617 68.547,0C55.929,0 53.225,9.867 53.225,39.469L53.225,244.211C53.225,334.249 47.817,445.871 41.282,500.14L44.662,503.224C81.616,478.556 91.531,388.518 93.334,285.53C100.319,330.549 111.135,365.7 124.429,393.452C105.727,431.687 85.672,465.605 67.421,489.656ZM111.585,230.644L185.944,230.644C178.283,261.479 167.693,292.93 155.525,323.765C137.048,293.547 122.627,261.479 111.585,230.644Z" style="fill-rule:nonzero;"/>
                <path d="M265.035,298.481L265.936,308.348C272.696,311.431 279.682,313.281 286.892,313.898C283.963,319.448 282.611,329.315 282.611,345.349L282.16,473.622C282.16,497.673 285.315,505.69 297.257,505.69C317.762,506.307 321.818,500.14 322.72,480.406L412.176,480.406C412.626,499.523 415.556,505.69 427.723,505.69C450.256,505.69 452.735,498.907 452.51,460.672L452.284,387.285C456.566,377.418 458.368,357.683 456.34,341.649C454.763,329.315 447.552,316.981 440.117,310.198L444.849,310.198C461.523,308.964 465.579,292.314 465.128,262.712C464.903,248.528 465.354,244.828 470.987,244.211L471.212,230.027C454.763,228.794 439.215,226.327 424.343,223.86C434.709,211.527 440.342,200.426 443.947,188.709C450.932,184.392 453.862,172.058 453.636,155.407C453.411,145.54 450.482,130.739 446.426,120.872C454.538,115.939 461.748,107.922 465.579,94.354C470.536,77.704 470.761,56.119 466.931,40.702C463.776,28.368 456.115,11.717 450.482,6.784C444.173,1.233 438.314,4.317 433.357,20.968L388.516,20.968C388.516,11.717 387.84,4.317 386.488,-1.85C383.333,-14.184 376.573,-20.968 369.138,-21.584C359.899,-22.201 346.83,-16.651 340.521,-6.784L339.845,3.7C341.873,8.634 344.577,14.801 347.506,20.968L305.369,20.968C302.665,9.867 296.581,6.167 283.062,4.934C271.795,4.317 268.19,14.184 268.19,40.085L268.19,101.138C268.19,125.189 270.894,136.906 281.935,136.29C288.695,136.29 293.877,135.673 297.483,133.206C291.624,166.508 282.836,220.777 275.626,262.712L278.104,267.646C291.849,266.412 305.144,249.145 315.509,224.477C318.889,232.494 322.72,239.895 327.001,246.678C304.243,266.412 282.16,284.913 265.035,298.481ZM307.172,101.755L307.172,90.654L425.695,90.654L421.64,115.322L329.93,115.322C329.029,113.472 327.902,111.622 326.55,109.772C321.368,103.605 313.03,101.138 307.172,101.755ZM315.284,312.665C334.211,308.964 352.238,299.714 365.532,286.763C383.784,299.714 403.838,307.114 423.893,309.581C422.991,310.815 422.09,312.048 421.414,313.898L316.861,313.898C316.41,313.281 315.96,313.281 315.284,312.665ZM322.945,413.803L322.945,378.034L412.176,378.034L412.176,413.803L322.945,413.803ZM327.902,184.392C328.353,183.159 328.578,181.925 328.804,180.692L397.079,180.692C388.516,189.942 379.052,199.193 369.138,208.443C354.266,202.276 340.746,194.876 327.902,184.392Z" style="fill-rule:nonzero;"/>
                <path d="M487.887,395.919L490.816,401.469C496.674,399.002 502.308,394.068 507.716,387.285C503.434,424.903 500.054,461.288 496.674,500.757L499.604,505.69C522.362,505.074 537.684,450.188 540.839,402.702C541.966,387.285 540.388,371.867 534.981,365.7C531.826,362 528.446,358.917 524.841,357.067C526.869,352.75 528.897,347.816 530.925,342.883L654.405,342.883L653.729,404.552C653.504,417.503 652.152,421.82 647.195,421.203L637.055,420.586C636.379,408.869 634.576,397.152 631.647,387.285C626.014,369.401 617.677,356.45 609.79,352.75L606.636,357.683C607.086,388.518 610.917,436.004 614.747,463.755C616.55,476.706 619.705,481.639 624.887,479.172C630.295,476.706 634.802,464.988 636.83,446.488L636.83,445.871C638.182,448.338 638.182,452.654 637.731,458.205C635.928,488.423 639.534,506.307 658.912,506.307C681.445,506.307 689.332,489.656 690.684,444.021C691.585,411.336 691.585,372.484 691.585,342.266C695.641,334.249 697.669,314.515 695.416,299.097C693.388,284.913 682.797,265.796 674.46,262.096L675.587,226.944C679.417,220.777 681.896,201.043 679.868,186.859C677.614,171.441 664.996,149.24 657.56,149.24C656.884,149.24 656.208,149.24 655.307,149.857L656.433,110.388C660.715,102.371 662.743,82.02 660.94,68.453C658.912,51.802 646.97,29.601 637.506,29.601C634.126,29.601 630.295,35.768 627.141,44.402L589.736,44.402C590.186,40.702 590.412,37.002 590.637,33.302C592.214,10.484 590.412,-3.7 583.877,-12.334C577.793,-20.968 567.653,-24.051 559.091,-22.201C550.979,-20.351 549.176,-7.4 553.458,4.317L547.374,44.402L541.29,44.402C541.74,39.469 542.191,33.302 542.191,26.518C542.642,10.484 539.262,-5.55 531.826,-10.484C524.39,-15.417 512.898,-15.417 506.814,-10.484L505.012,-3.083C506.814,11.101 510.645,28.985 514.926,44.402L501.857,44.402C494.196,44.402 492.168,51.186 492.844,70.303C494.196,117.789 496.9,119.639 505.012,119.639L535.657,119.639C520.559,211.527 501.857,320.682 487.887,395.919ZM545.12,360.15C543.994,392.218 544.444,443.404 546.923,473.622C548.05,487.806 550.754,495.206 556.387,493.973C562.696,492.74 569.005,482.873 572.611,464.988C575.991,448.338 575.765,421.203 571.259,402.085C566.076,380.501 557.964,362.617 548.951,355.217L545.12,360.15ZM553.232,271.346C556.612,257.779 559.767,243.595 562.921,228.794L638.182,228.794L637.055,271.346L553.232,271.346ZM575.765,360.15C576.216,391.602 578.92,440.321 582.3,469.305C583.877,482.873 587.032,489.04 592.214,485.956C597.848,482.873 602.805,473.622 605.284,454.505C607.311,437.854 606.185,411.336 601.228,394.068C595.82,374.334 587.257,359.533 579.145,354.6L575.765,360.15ZM575.765,158.491C578.019,145.54 579.821,132.59 581.624,119.639L620.381,119.639L619.254,158.491L575.765,158.491Z" style="fill-rule:nonzero;"/>
                <path d="M735.074,150.474L795.913,150.474L795.913,208.443L734.848,208.443C726.736,208.443 724.032,215.843 724.483,236.811C726.06,291.697 729.215,294.78 738.003,294.78L795.913,294.78L795.913,405.169L726.286,405.169C718.174,405.169 715.47,412.569 715.921,434.154C717.273,490.89 720.653,493.973 729.666,493.973L901.367,493.973C910.38,493.973 920.07,458.821 920.07,438.47C920.07,418.736 904.522,382.968 897.311,382.968C892.354,382.968 885.819,395.919 883.341,405.169L837.824,405.169L837.824,294.78L895.283,294.78C904.071,294.78 913.535,260.245 913.535,240.511C913.535,221.394 898.438,186.242 891.453,186.242C886.27,186.242 879.961,199.193 877.708,208.443L837.824,208.443L837.824,150.474L897.086,150.474C905.874,150.474 915.563,115.322 915.563,95.588C915.563,76.47 900.241,40.702 893.255,40.702C888.073,40.702 881.764,53.653 879.285,62.903L837.148,62.903C839.176,50.569 839.852,36.385 839.401,23.434C838.725,3.7 834.219,-10.484 826.783,-15.417C817.544,-21.584 797.265,-17.267 788.026,-8.017L786.674,1.233C790.28,23.434 796.814,45.635 803.574,62.903L731.919,62.903C723.807,62.903 720.878,70.303 721.329,91.271C722.906,147.39 726.06,150.474 735.074,150.474Z" style="fill-rule:nonzero;"/>
            </g>
        </g>
    </g>
</svg>
