<?xml version="1.0" encoding="UTF-8"?><svg id="_圖層_1" xmlns="http://www.w3.org/2000/svg" viewBox="0 0 200 200"><path d="m30,165.5c-3.3,0-6-3-6-6.7s2.7-6.7,6-6.7,6,3,6,6.7-2.7,6.7-6,6.7Zm0-12.2c-2.6,0-4.7,2.5-4.7,5.5s2.1,5.5,4.7,5.5,4.7-2.5,4.7-5.5-2.1-5.5-4.7-5.5Z"/><path d="m47.4,165.7c-.3,0-.6-.3-.6-.6v-10.3c0-1.5,1.2-2.7,2.7-2.8h1.7c2.5,0,4.5,1.8,4.5,3.9s-2,3.9-4.5,3.9c-.3,0-.6-.3-.6-.6s.3-.6.6-.6c1.8,0,3.2-1.2,3.2-2.7s-1.4-2.7-3.2-2.7h-1.7c-.8,0-1.5.7-1.5,1.5v10.3c0,.4-.3.7-.6.7Z"/><path d="m93.9,165.7c-.9,0-1.7-.6-2-1.5l-3.3-10.2c-.2-.5-.6-.7-1-.6-.4.1-.8.3-.8.9v10.7c0,.3-.3.6-.6.6s-.6-.3-.6-.6v-10.8c0-1.1.8-2,1.8-2.1,1.1-.2,2.1.4,2.4,1.5l3.2,10.2c.2.5.6.7,1,.6.4-.1.8-.3.8-.9v-10.8c0-.3.3-.6.6-.6s.6.3.6.6v10.8c0,1.1-.8,2-1.8,2.1-.1,0-.2.1-.3.1Z"/><path d="m166.7,165.7c-.9,0-1.7-.6-2-1.5l-3.2-10.2c-.2-.5-.6-.7-1-.6-.4.1-.8.3-.8.9v10.7c0,.3-.3.6-.6.6s-.6-.3-.6-.6v-10.8c0-1.1.8-2,1.8-2.1,1.1-.2,2.1.4,2.4,1.5l3.2,10.2c.2.5.6.7,1,.6.4-.1.8-.3.8-.9v-10.8c0-.3.3-.6.6-.6s.6.3.6.6v10.8c0,1.1-.8,2-1.8,2.1-.1,0-.2.1-.4.1Z"/><path d="m119.5,165.7c-.3,0-.6-.3-.6-.6v-10.3c0-1.5,1.2-2.7,2.7-2.7h5.4c.3,0,.6.3.6.6s-.3.6-.6.6h-5.4c-.8,0-1.5.7-1.5,1.5v10.3c0,.3-.2.6-.6.6Z"/><path d="m75.3,165.5h-6.7c-1.5,0-2.7-1.2-2.7-2.7v-8c0-1.5,1.2-2.7,2.7-2.7h5.8c.3,0,.6.3.6.6s-.3.6-.6.6h-5.8c-.8,0-1.5.7-1.5,1.5v8c0,.8.7,1.5,1.5,1.5h6.7c.3,0,.6.3.6.6s-.3.6-.6.6Z"/><path d="m142.3,165.7c-2.7,0-5-1.9-5-4.3v-8.8c0-.3.3-.6.6-.6s.6.3.6.6v8.8c0,1.7,1.7,3,3.7,3,2.1,0,3.7-1.3,3.7-3v-8.8c0-.3.3-.6.6-.6s.6.3.6.6v8.8c.2,2.4-2,4.3-4.8,4.3Z"/><path d="m71.4,155.5c0,1.9-1.3,3.5-3.1,3.5,1.8,0,3.1,1.7,3.1,3.5,0-1.9,1.3-3.5,3.1-3.5-1.8,0-3.1-1.7-3.1-3.5Z"/><path d="m124.4,155.5c0,1.9-1.3,3.5-3.1,3.5,1.8,0,3.1,1.7,3.1,3.5,0-1.9,1.3-3.5,3.1-3.5-1.9,0-3.1-1.7-3.1-3.5Z"/><path d="m148.5,34.3c0,8.2-5.6,15.5-13.5,15.5,7.9,0,13.5,7.3,13.5,15.5,0-8.2,5.6-15.5,13.5-15.5-7.9,0-13.5-7.3-13.5-15.5Z"/><path d="m160.9,57.6c0,6.3-4.4,12-10.5,12,6.1,0,10.5,5.7,10.5,12,0-6.3,4.4-12,10.5-12-6.1,0-10.5-5.7-10.5-12Z"/><path d="m136.2,57.6c0,6.3-4.4,12-10.5,12,6.1,0,10.5,5.7,10.5,12,0-6.3,4.4-12,10.5-12-6.1,0-10.5-5.7-10.5-12Z"/><path d="m59.6,135.6h-30.8c-2.6,0-4.7-2.1-4.7-4.7v-60.1c0-2.6,2.1-4.7,4.7-4.7h25.2c5.8,0,10.6,4.8,10.6,10.6,0,.7-.5,1.2-1.2,1.2s-1.2-.5-1.2-1.2c0-4.5-3.7-8.2-8.2-8.2h-25.2c-1.3,0-2.4,1.1-2.4,2.4v60.1c0,1.3,1.1,2.4,2.4,2.4h30.9c.7,0,1.2.5,1.2,1.2-.1.5-.6,1-1.3,1Z"/><path d="m92.9,105.2c-.7,0-1.2-.5-1.2-1.2v-25c0-5.9-4.8-10.8-10.8-10.8h-10.4c-3.9,0-7.1-3.2-7.1-7.1v-7.8c0-.7.5-1.2,1.2-1.2s1.2.5,1.2,1.2v7.8c0,2.6,2.1,4.8,4.8,4.8h10.4c7.1,0,13,5.9,13,13.1v25c0,.7-.5,1.2-1.1,1.2Z"/><path d="m120,125h-8.2c-2.6,0-4.7-2.1-4.7-4.7v-49.5c0-2.6,2.1-4.7,4.7-4.7h4.7c4.5,0,8.2,3.7,8.2,8.2v46c0,2.6-2.1,4.7-4.7,4.7Zm-8.3-56.5c-1.3,0-2.4,1.1-2.4,2.4v49.5c0,1.3,1.1,2.4,2.4,2.4h8.2c1.3,0,2.4-1.1,2.4-2.4v-46c0-3.2-2.6-5.9-5.9-5.9h-4.7Z"/><path d="m164.7,125h-10.2c-.7,0-1.2-.5-1.2-1.2s.5-1.2,1.2-1.2h10.2c1.3,0,2.4-1.5,2.4-3.2v-23.3c0-7.4-4.8-13.5-10.7-13.5h-22.3c-1.3,0-2.4,1.5-2.4,3.2v33.6c0,1.7,1.1,3.2,2.4,3.2h4.7c.7,0,1.2.5,1.2,1.2s-.5,1.2-1.2,1.2h-4.7c-2.6,0-4.7-2.5-4.7-5.6v-33.6c0-3.1,2.1-5.6,4.7-5.6h22.3c7.2,0,13,7.1,13,15.9v23.3c.1,3.1-2.1,5.6-4.7,5.6Z"/><path d="m60.6,125h-22.5c-1.6,0-2.9-1.3-2.9-2.9v-18.9c0-1.6,1.3-2.9,2.9-2.9h18.2c3.9,0,7.1,3.2,7.1,7.1v14.7c.1,1.6-1.2,2.9-2.8,2.9Zm-22.4-22.4c-.3,0-.6.3-.6.6v18.9c0,.3.3.6.6.6h22.4c.3,0,.6-.3.6-.6v-14.7c0-2.6-2.1-4.8-4.8-4.8h-18.2Z"/><path d="m53.5,93.2h-15.4c-1.6,0-2.9-1.3-2.9-2.9v-10.6c0-1.6,1.3-2.9,2.9-2.9h11.2c3.9,0,7.1,3.2,7.1,7.1v6.5c0,1.5-1.3,2.8-2.9,2.8Zm-15.3-14.1c-.3,0-.6.3-.6.6v10.6c0,.3.3.6.6.6h15.4c.3,0,.6-.3.6-.6v-6.5c0-2.6-2.1-4.7-4.7-4.7h-11.3Z"/><path d="m59.9,135.6c-.7,0-1.2-.5-1.2-1.2s.5-1.2,1.2-1.2c11.7,0,17.7-9.5,17.7-28.3,0-.7.5-1.2,1.2-1.2s1.2.5,1.2,1.2c-.1,20.4-6.8,30.7-20.1,30.7Z"/><path d="m78.7,106.2c-.7,0-1.2-.5-1.2-1.2v-18.9c0-.7.5-1.2,1.2-1.2s1.2.5,1.2,1.2v18.9c0,.7-.5,1.2-1.2,1.2Z"/><path d="m174.8,135.5h0c-.8,0-16.7-1.2-21.6-11.1-.3-.6-.1-1.3.5-1.6.6-.3,1.3-.1,1.6.5,4.4,8.7,19.5,9.8,19.6,9.8.6,0,1.1.6,1.1,1.3,0,.6-.6,1.1-1.2,1.1Z"/><path d="m125.3,135.5h-17.2c-.7,0-1.2-.5-1.2-1.2s.5-1.2,1.2-1.2h17.2c3.6,0,12.4-.5,16.8-5.5,2.3-2.6,10.5-15.4,13.5-20.2h-15.6c-.4,0-.8-.2-1-.6s-.2-.8,0-1.2l13.6-24.7c.3-.6,1-.8,1.6-.5s.8,1,.5,1.6l-12.7,23h15.8c.4,0,.8.2,1,.6s.2.8,0,1.2c-.5.8-11.9,19-14.9,22.3-5.1,5.7-14.7,6.4-18.6,6.4Z"/><path d="m97.7,135.4c-13.3,0-20-10.3-20-30.6,0-.7.5-1.2,1.2-1.2s1.2.5,1.2,1.2c0,18.8,5.9,28.3,17.7,28.3.7,0,1.2.5,1.2,1.2-.2.6-.7,1.1-1.3,1.1Z"/><path d="m42.4,125c-.2,0-.4-.1-.6-.2-.5-.3-.7-1.1-.4-1.6l14.1-22.4c.3-.5,1.1-.7,1.6-.4.5.3.7,1.1.4,1.6l-14.1,22.4c-.2.4-.6.6-1,.6Z"/></svg>