<?xml version="1.0" encoding="UTF-8" standalone="no"?>
<!DOCTYPE svg PUBLIC "-//W3C//DTD SVG 1.1//EN" "http://www.w3.org/Graphics/SVG/1.1/DTD/svg11.dtd">
<svg width="100%" height="100%" viewBox="0 0 1920 158" version="1.1" xmlns="http://www.w3.org/2000/svg" xmlns:xlink="http://www.w3.org/1999/xlink" xml:space="preserve" xmlns:serif="http://www.serif.com/" style="fill-rule:evenodd;clip-rule:evenodd;stroke-linejoin:round;stroke-miterlimit:2;">
    <g transform="matrix(1,0,0,1,-2040,-2372)">
        <g transform="matrix(1,0,0,1,2040,1330)">
            <g id="底條" transform="matrix(0.869565,0,0,1,84.3478,0)">
                <g transform="matrix(1,0,0,0.524858,8,508.431)">
                    <rect x="-105" y="1017.45" width="2208" height="35.779" style="fill:rgb(238,156,146);"/>
                </g>
                <g transform="matrix(1,0,0,0.524858,8,543.125)">
                    <rect x="-105" y="1017.45" width="2208" height="35.779" style="fill:rgb(161,185,231);"/>
                </g>
                <g transform="matrix(1,0,0,0.524858,8,577.819)">
                    <rect x="-105" y="1017.45" width="2208" height="35.779" style="fill:rgb(238,156,146);"/>
                </g>
                <g transform="matrix(1,0,0,0.524858,8,612.513)">
                    <rect x="-105" y="1017.45" width="2208" height="35.779" style="fill:rgb(161,185,231);"/>
                </g>
                <g transform="matrix(1,0,0,0.524858,8,647.207)">
                    <rect x="-105" y="1017.45" width="2208" height="35.779" style="fill:rgb(238,156,146);"/>
                </g>
            </g>
        </g>
    </g>
</svg>
