<?xml version="1.0" encoding="UTF-8" standalone="no"?>
<!DOCTYPE svg PUBLIC "-//W3C//DTD SVG 1.1//EN" "http://www.w3.org/Graphics/SVG/1.1/DTD/svg11.dtd">
<svg width="100%" height="100%" viewBox="0 0 592 39" version="1.1" xmlns="http://www.w3.org/2000/svg" xmlns:xlink="http://www.w3.org/1999/xlink" xml:space="preserve" xmlns:serif="http://www.serif.com/" style="fill-rule:evenodd;clip-rule:evenodd;stroke-linejoin:round;stroke-miterlimit:2;">
    <g transform="matrix(1,0,0,1,-2697,-1893)">
        <g transform="matrix(1,0,0,1,2040,1330)">
            <g transform="matrix(0.390213,0,0,0.390213,656.931,563.554)">
                <g transform="matrix(96,0,0,96,0,74.4)">
                    <path d="M0.136,0.005L0.417,0.005C0.468,0.005 0.511,-0.004 0.536,-0.043C0.558,-0.079 0.556,-0.14 0.546,-0.171C0.533,-0.213 0.496,-0.216 0.466,-0.182C0.447,-0.159 0.42,-0.148 0.385,-0.148L0.195,-0.148C0.195,-0.154 0.2,-0.161 0.209,-0.168C0.233,-0.186 0.294,-0.224 0.339,-0.26C0.457,-0.346 0.535,-0.417 0.535,-0.555C0.535,-0.649 0.482,-0.75 0.292,-0.75C0.124,-0.75 0.022,-0.68 0.022,-0.559C0.022,-0.501 0.066,-0.452 0.129,-0.452C0.188,-0.452 0.216,-0.477 0.216,-0.504C0.216,-0.512 0.214,-0.521 0.212,-0.528C0.196,-0.583 0.208,-0.634 0.279,-0.634C0.325,-0.634 0.347,-0.6 0.349,-0.547C0.349,-0.478 0.309,-0.436 0.243,-0.373L0.126,-0.26C0.056,-0.192 0.023,-0.132 0.023,-0.086C0.023,-0.02 0.055,0.005 0.136,0.005Z" style="fill-rule:nonzero;"/>
                </g>
                <g transform="matrix(96,0,0,96,55.2,74.4)">
                    <path d="M0.31,0.015C0.477,0.015 0.602,-0.116 0.602,-0.368C0.602,-0.61 0.525,-0.75 0.329,-0.75C0.162,-0.75 0.034,-0.619 0.034,-0.367C0.034,-0.125 0.114,0.015 0.31,0.015ZM0.221,-0.442C0.221,-0.526 0.236,-0.628 0.309,-0.628C0.406,-0.628 0.415,-0.41 0.415,-0.293C0.415,-0.209 0.4,-0.107 0.327,-0.107C0.23,-0.107 0.221,-0.325 0.221,-0.442Z" style="fill-rule:nonzero;"/>
                </g>
                <g transform="matrix(96,0,0,96,116.736,74.4)">
                    <path d="M0.136,0.005L0.417,0.005C0.468,0.005 0.511,-0.004 0.536,-0.043C0.558,-0.079 0.556,-0.14 0.546,-0.171C0.533,-0.213 0.496,-0.216 0.466,-0.182C0.447,-0.159 0.42,-0.148 0.385,-0.148L0.195,-0.148C0.195,-0.154 0.2,-0.161 0.209,-0.168C0.233,-0.186 0.294,-0.224 0.339,-0.26C0.457,-0.346 0.535,-0.417 0.535,-0.555C0.535,-0.649 0.482,-0.75 0.292,-0.75C0.124,-0.75 0.022,-0.68 0.022,-0.559C0.022,-0.501 0.066,-0.452 0.129,-0.452C0.188,-0.452 0.216,-0.477 0.216,-0.504C0.216,-0.512 0.214,-0.521 0.212,-0.528C0.196,-0.583 0.208,-0.634 0.279,-0.634C0.325,-0.634 0.347,-0.6 0.349,-0.547C0.349,-0.478 0.309,-0.436 0.243,-0.373L0.126,-0.26C0.056,-0.192 0.023,-0.132 0.023,-0.086C0.023,-0.02 0.055,0.005 0.136,0.005Z" style="fill-rule:nonzero;"/>
                </g>
                <g transform="matrix(96,0,0,96,172.512,74.4)">
                    <path d="M0.303,0.015C0.471,0.015 0.563,-0.111 0.563,-0.242C0.563,-0.396 0.475,-0.47 0.359,-0.47C0.296,-0.47 0.248,-0.45 0.21,-0.416C0.212,-0.548 0.227,-0.627 0.286,-0.627C0.319,-0.627 0.339,-0.612 0.356,-0.581C0.38,-0.537 0.391,-0.518 0.421,-0.518C0.482,-0.518 0.525,-0.569 0.525,-0.632C0.525,-0.709 0.441,-0.75 0.328,-0.75C0.095,-0.75 0.029,-0.542 0.029,-0.337C0.029,-0.092 0.137,0.015 0.303,0.015ZM0.211,-0.297C0.233,-0.328 0.267,-0.343 0.295,-0.343C0.359,-0.343 0.385,-0.278 0.386,-0.213C0.387,-0.141 0.353,-0.102 0.311,-0.102C0.264,-0.102 0.22,-0.146 0.211,-0.297Z" style="fill-rule:nonzero;"/>
                </g>
                <g transform="matrix(96,0,0,96,229.056,74.4)">
                    <path d="M0.158,0.02C0.229,0.02 0.27,-0.021 0.27,-0.084C0.27,-0.144 0.222,-0.19 0.159,-0.19C0.096,-0.19 0.048,-0.146 0.048,-0.084C0.048,-0.022 0.092,0.02 0.158,0.02Z" style="fill-rule:nonzero;"/>
                </g>
                <g transform="matrix(96,0,0,96,257.76,74.4)">
                    <path d="M0.31,0.015C0.477,0.015 0.602,-0.116 0.602,-0.368C0.602,-0.61 0.525,-0.75 0.329,-0.75C0.162,-0.75 0.034,-0.619 0.034,-0.367C0.034,-0.125 0.114,0.015 0.31,0.015ZM0.221,-0.442C0.221,-0.526 0.236,-0.628 0.309,-0.628C0.406,-0.628 0.415,-0.41 0.415,-0.293C0.415,-0.209 0.4,-0.107 0.327,-0.107C0.23,-0.107 0.221,-0.325 0.221,-0.442Z" style="fill-rule:nonzero;"/>
                </g>
                <g transform="matrix(96,0,0,96,319.2,74.4)">
                    <path d="M0.266,0.015C0.434,0.015 0.54,-0.077 0.54,-0.246C0.54,-0.381 0.455,-0.47 0.33,-0.47C0.287,-0.47 0.245,-0.464 0.206,-0.449L0.22,-0.584L0.41,-0.584C0.452,-0.584 0.489,-0.593 0.512,-0.63C0.533,-0.663 0.549,-0.704 0.535,-0.732C0.523,-0.756 0.502,-0.754 0.463,-0.743C0.442,-0.737 0.413,-0.732 0.392,-0.732L0.174,-0.732C0.098,-0.732 0.087,-0.701 0.083,-0.659L0.053,-0.388C0.049,-0.342 0.084,-0.302 0.143,-0.327C0.171,-0.339 0.203,-0.352 0.249,-0.352C0.319,-0.352 0.362,-0.297 0.362,-0.217C0.362,-0.133 0.322,-0.102 0.281,-0.102C0.222,-0.102 0.195,-0.146 0.195,-0.188C0.195,-0.226 0.182,-0.247 0.143,-0.247C0.071,-0.247 0.034,-0.184 0.034,-0.131C0.034,-0.046 0.11,0.015 0.266,0.015Z" style="fill-rule:nonzero;"/>
                </g>
                <g transform="matrix(96,0,0,96,373.92,74.4)">
                    <path d="M0.158,0.02C0.229,0.02 0.27,-0.021 0.27,-0.084C0.27,-0.144 0.222,-0.19 0.159,-0.19C0.096,-0.19 0.048,-0.146 0.048,-0.084C0.048,-0.022 0.092,0.02 0.158,0.02Z" style="fill-rule:nonzero;"/>
                </g>
                <g transform="matrix(96,0,0,96,406.08,74.4)">
                    <path d="M0.136,0.005L0.417,0.005C0.468,0.005 0.511,-0.004 0.536,-0.043C0.558,-0.079 0.556,-0.14 0.546,-0.171C0.533,-0.213 0.496,-0.216 0.466,-0.182C0.447,-0.159 0.42,-0.148 0.385,-0.148L0.195,-0.148C0.195,-0.154 0.2,-0.161 0.209,-0.168C0.233,-0.186 0.294,-0.224 0.339,-0.26C0.457,-0.346 0.535,-0.417 0.535,-0.555C0.535,-0.649 0.482,-0.75 0.292,-0.75C0.124,-0.75 0.022,-0.68 0.022,-0.559C0.022,-0.501 0.066,-0.452 0.129,-0.452C0.188,-0.452 0.216,-0.477 0.216,-0.504C0.216,-0.512 0.214,-0.521 0.212,-0.528C0.196,-0.583 0.208,-0.634 0.279,-0.634C0.325,-0.634 0.347,-0.6 0.349,-0.547C0.349,-0.478 0.309,-0.436 0.243,-0.373L0.126,-0.26C0.056,-0.192 0.023,-0.132 0.023,-0.086C0.023,-0.02 0.055,0.005 0.136,0.005Z" style="fill-rule:nonzero;"/>
                </g>
                <g transform="matrix(96,0,0,96,463.296,74.4)">
                    <path d="M0.273,0.015C0.442,0.015 0.549,-0.063 0.549,-0.194C0.549,-0.281 0.512,-0.35 0.399,-0.366C0.386,-0.368 0.385,-0.383 0.398,-0.387C0.495,-0.416 0.529,-0.493 0.529,-0.572C0.529,-0.694 0.408,-0.75 0.284,-0.75C0.113,-0.75 0.027,-0.662 0.027,-0.58C0.027,-0.505 0.078,-0.473 0.132,-0.473C0.17,-0.473 0.209,-0.49 0.209,-0.524C0.209,-0.532 0.208,-0.54 0.208,-0.548C0.208,-0.595 0.22,-0.629 0.272,-0.629C0.328,-0.629 0.34,-0.573 0.34,-0.54C0.34,-0.479 0.306,-0.419 0.217,-0.419C0.156,-0.418 0.157,-0.319 0.218,-0.32C0.316,-0.32 0.363,-0.278 0.363,-0.201C0.363,-0.134 0.323,-0.106 0.279,-0.106C0.23,-0.106 0.207,-0.132 0.207,-0.182C0.207,-0.188 0.209,-0.208 0.209,-0.221C0.209,-0.25 0.176,-0.271 0.139,-0.271C0.069,-0.271 0.023,-0.205 0.023,-0.146C0.023,-0.049 0.113,0.015 0.273,0.015Z" style="fill-rule:nonzero;"/>
                </g>
                <g transform="matrix(96,0,0,96,542.976,74.4)">
                    <path d="M0.106,-0.213L0.454,-0.213C0.482,-0.213 0.497,-0.227 0.499,-0.25C0.501,-0.272 0.501,-0.294 0.497,-0.316C0.493,-0.339 0.48,-0.353 0.452,-0.353L0.108,-0.353C0.08,-0.353 0.067,-0.339 0.063,-0.316C0.059,-0.294 0.059,-0.272 0.061,-0.25C0.063,-0.227 0.078,-0.213 0.106,-0.213Z" style="fill-rule:nonzero;"/>
                </g>
                <g transform="matrix(96,0,0,96,621.696,74.4)">
                    <path d="M0.136,0.005L0.417,0.005C0.468,0.005 0.511,-0.004 0.536,-0.043C0.558,-0.079 0.556,-0.14 0.546,-0.171C0.533,-0.213 0.496,-0.216 0.466,-0.182C0.447,-0.159 0.42,-0.148 0.385,-0.148L0.195,-0.148C0.195,-0.154 0.2,-0.161 0.209,-0.168C0.233,-0.186 0.294,-0.224 0.339,-0.26C0.457,-0.346 0.535,-0.417 0.535,-0.555C0.535,-0.649 0.482,-0.75 0.292,-0.75C0.124,-0.75 0.022,-0.68 0.022,-0.559C0.022,-0.501 0.066,-0.452 0.129,-0.452C0.188,-0.452 0.216,-0.477 0.216,-0.504C0.216,-0.512 0.214,-0.521 0.212,-0.528C0.196,-0.583 0.208,-0.634 0.279,-0.634C0.325,-0.634 0.347,-0.6 0.349,-0.547C0.349,-0.478 0.309,-0.436 0.243,-0.373L0.126,-0.26C0.056,-0.192 0.023,-0.132 0.023,-0.086C0.023,-0.02 0.055,0.005 0.136,0.005Z" style="fill-rule:nonzero;"/>
                </g>
                <g transform="matrix(96,0,0,96,675.744,74.4)">
                    <path d="M0.088,-0.186L0.315,-0.186L0.315,-0.112C0.266,-0.085 0.249,-0.068 0.249,-0.039C0.249,-0.021 0.255,0.005 0.321,0.005L0.481,0.005C0.547,0.005 0.553,-0.021 0.553,-0.039C0.553,-0.068 0.536,-0.085 0.487,-0.112L0.487,-0.186L0.561,-0.186C0.581,-0.186 0.601,-0.19 0.604,-0.253C0.605,-0.283 0.604,-0.311 0.573,-0.311L0.482,-0.311L0.482,-0.675C0.482,-0.715 0.459,-0.75 0.408,-0.75C0.235,-0.75 0.042,-0.404 0.017,-0.264C0.007,-0.213 0.032,-0.186 0.088,-0.186ZM0.176,-0.311C0.186,-0.367 0.249,-0.503 0.316,-0.576L0.316,-0.311L0.176,-0.311Z" style="fill-rule:nonzero;"/>
                </g>
                <g transform="matrix(96,0,0,96,735.264,74.4)">
                    <path d="M0.493,0.024C0.571,0.024 0.586,0.018 0.586,-0.029L0.586,-0.731C0.586,-0.773 0.578,-0.786 0.482,-0.786C0.426,-0.786 0.414,-0.773 0.414,-0.738L0.414,-0.019C0.414,0.017 0.425,0.024 0.493,0.024Z" style="fill-rule:nonzero;"/>
                </g>
                <g transform="matrix(96,0,0,96,831.264,74.4)">
                    <path d="M0.259,0.005L0.437,0.005C0.492,0.005 0.499,-0.014 0.499,-0.036C0.499,-0.059 0.479,-0.079 0.444,-0.111L0.444,-0.618L0.472,-0.618C0.525,-0.618 0.545,-0.595 0.578,-0.545C0.595,-0.518 0.613,-0.504 0.635,-0.504C0.662,-0.504 0.675,-0.527 0.676,-0.557C0.677,-0.608 0.665,-0.66 0.648,-0.714C0.637,-0.748 0.614,-0.758 0.589,-0.758C0.555,-0.758 0.545,-0.736 0.485,-0.736L0.211,-0.736C0.151,-0.736 0.141,-0.758 0.107,-0.758C0.082,-0.758 0.059,-0.748 0.048,-0.714C0.031,-0.66 0.019,-0.608 0.02,-0.557C0.021,-0.527 0.034,-0.504 0.061,-0.504C0.083,-0.504 0.101,-0.518 0.118,-0.545C0.151,-0.595 0.171,-0.618 0.224,-0.618L0.252,-0.618L0.252,-0.111C0.217,-0.079 0.197,-0.059 0.197,-0.036C0.197,-0.014 0.204,0.005 0.259,0.005Z" style="fill-rule:nonzero;"/>
                </g>
                <g transform="matrix(96,0,0,96,891.168,74.4)">
                    <path d="M0.447,0.014C0.513,0.014 0.585,-0.036 0.585,-0.096C0.585,-0.118 0.574,-0.13 0.553,-0.128C0.528,-0.126 0.517,-0.131 0.514,-0.154L0.484,-0.365C0.469,-0.471 0.41,-0.544 0.279,-0.544C0.184,-0.544 0.097,-0.5 0.066,-0.416C0.054,-0.384 0.083,-0.366 0.107,-0.38C0.136,-0.397 0.174,-0.418 0.213,-0.418C0.28,-0.418 0.305,-0.384 0.312,-0.331C0.173,-0.351 0.03,-0.284 0.03,-0.143C0.03,-0.049 0.087,0.015 0.193,0.015C0.267,0.015 0.316,-0.014 0.346,-0.065C0.354,-0.007 0.383,0.014 0.447,0.014ZM0.19,-0.158C0.19,-0.227 0.253,-0.242 0.32,-0.241L0.325,-0.175C0.318,-0.141 0.287,-0.103 0.25,-0.103C0.207,-0.103 0.19,-0.127 0.19,-0.158Z" style="fill-rule:nonzero;"/>
                </g>
                <g transform="matrix(96,0,0,96,947.424,74.4)">
                    <path d="M0.086,0.005L0.254,0.005C0.3,0.005 0.306,-0.011 0.306,-0.029C0.306,-0.048 0.289,-0.065 0.26,-0.092L0.26,-0.48C0.26,-0.529 0.243,-0.544 0.212,-0.544C0.161,-0.544 0.028,-0.497 0.028,-0.451C0.028,-0.435 0.045,-0.417 0.08,-0.406L0.08,-0.092C0.051,-0.065 0.034,-0.048 0.034,-0.029C0.034,-0.011 0.04,0.005 0.086,0.005ZM0.068,-0.638C0.089,-0.59 0.15,-0.58 0.215,-0.61C0.27,-0.635 0.286,-0.693 0.264,-0.736C0.24,-0.777 0.185,-0.785 0.129,-0.761C0.069,-0.736 0.051,-0.68 0.068,-0.638Z" style="fill-rule:nonzero;"/>
                </g>
                <g transform="matrix(96,0,0,96,979.296,74.4)">
                    <path d="M0.334,0.015C0.447,0.015 0.559,-0.072 0.559,-0.275C0.559,-0.425 0.485,-0.544 0.359,-0.544C0.307,-0.544 0.262,-0.53 0.223,-0.496C0.211,-0.532 0.201,-0.545 0.176,-0.545C0.127,-0.545 0.014,-0.498 0.014,-0.452C0.014,-0.436 0.031,-0.418 0.065,-0.407L0.065,0.13C0.036,0.157 0.019,0.174 0.019,0.193C0.019,0.211 0.025,0.227 0.071,0.227L0.237,0.227C0.283,0.227 0.289,0.211 0.289,0.193C0.289,0.174 0.272,0.157 0.243,0.13L0.243,-0.015C0.269,0.005 0.299,0.015 0.334,0.015ZM0.243,-0.169L0.243,-0.414C0.251,-0.426 0.261,-0.434 0.275,-0.434C0.343,-0.434 0.4,-0.301 0.4,-0.171C0.4,-0.117 0.38,-0.083 0.343,-0.082C0.311,-0.081 0.268,-0.114 0.243,-0.169Z" style="fill-rule:nonzero;"/>
                </g>
                <g transform="matrix(96,0,0,96,1036.03,74.4)">
                    <path d="M0.288,0.015C0.356,0.015 0.456,-0.022 0.489,-0.111C0.503,-0.15 0.482,-0.175 0.453,-0.162C0.422,-0.148 0.39,-0.134 0.354,-0.134C0.275,-0.134 0.228,-0.165 0.205,-0.219C0.387,-0.223 0.482,-0.276 0.487,-0.378C0.49,-0.438 0.45,-0.544 0.303,-0.544C0.131,-0.544 0.03,-0.404 0.03,-0.253C0.03,-0.099 0.117,0.015 0.288,0.015ZM0.189,-0.319C0.189,-0.383 0.211,-0.441 0.266,-0.441C0.301,-0.441 0.324,-0.412 0.324,-0.381C0.324,-0.345 0.284,-0.306 0.19,-0.298C0.189,-0.305 0.189,-0.312 0.189,-0.319Z" style="fill-rule:nonzero;"/>
                </g>
                <g transform="matrix(96,0,0,96,1085.57,74.4)">
                    <path d="M0.086,0.005L0.254,0.005C0.3,0.005 0.306,-0.011 0.306,-0.029C0.306,-0.048 0.289,-0.065 0.26,-0.092L0.26,-0.48C0.26,-0.529 0.243,-0.544 0.212,-0.544C0.161,-0.544 0.028,-0.497 0.028,-0.451C0.028,-0.435 0.045,-0.417 0.08,-0.406L0.08,-0.092C0.051,-0.065 0.034,-0.048 0.034,-0.029C0.034,-0.011 0.04,0.005 0.086,0.005ZM0.068,-0.638C0.089,-0.59 0.15,-0.58 0.215,-0.61C0.27,-0.635 0.286,-0.693 0.264,-0.736C0.24,-0.777 0.185,-0.785 0.129,-0.761C0.069,-0.736 0.051,-0.68 0.068,-0.638Z" style="fill-rule:nonzero;"/>
                </g>
                <g transform="matrix(96,0,0,96,1117.44,74.4)">
                    <path d="M0.113,0.179C0.22,0.18 0.276,0.074 0.276,-0.044C0.276,-0.128 0.236,-0.189 0.16,-0.189C0.105,-0.189 0.048,-0.155 0.048,-0.089C0.048,-0.053 0.07,-0.019 0.11,-0.008C0.133,-0.002 0.155,0.005 0.166,0.016C0.158,0.055 0.101,0.08 0.071,0.087C0.06,0.09 0.059,0.096 0.059,0.106C0.059,0.137 0.078,0.179 0.113,0.179Z" style="fill-rule:nonzero;"/>
                </g>
                <g transform="matrix(96,0,0,96,1173.5,74.4)">
                    <path d="M0.259,0.005L0.437,0.005C0.492,0.005 0.499,-0.014 0.499,-0.036C0.499,-0.059 0.479,-0.079 0.444,-0.111L0.444,-0.618L0.472,-0.618C0.525,-0.618 0.545,-0.595 0.578,-0.545C0.595,-0.518 0.613,-0.504 0.635,-0.504C0.662,-0.504 0.675,-0.527 0.676,-0.557C0.677,-0.608 0.665,-0.66 0.648,-0.714C0.637,-0.748 0.614,-0.758 0.589,-0.758C0.555,-0.758 0.545,-0.736 0.485,-0.736L0.211,-0.736C0.151,-0.736 0.141,-0.758 0.107,-0.758C0.082,-0.758 0.059,-0.748 0.048,-0.714C0.031,-0.66 0.019,-0.608 0.02,-0.557C0.021,-0.527 0.034,-0.504 0.061,-0.504C0.083,-0.504 0.101,-0.518 0.118,-0.545C0.151,-0.595 0.171,-0.618 0.224,-0.618L0.252,-0.618L0.252,-0.111C0.217,-0.079 0.197,-0.059 0.197,-0.036C0.197,-0.014 0.204,0.005 0.259,0.005Z" style="fill-rule:nonzero;"/>
                </g>
                <g transform="matrix(96,0,0,96,1233.41,74.4)">
                    <path d="M0.447,0.014C0.513,0.014 0.585,-0.036 0.585,-0.096C0.585,-0.118 0.574,-0.13 0.553,-0.128C0.528,-0.126 0.517,-0.131 0.514,-0.154L0.484,-0.365C0.469,-0.471 0.41,-0.544 0.279,-0.544C0.184,-0.544 0.097,-0.5 0.066,-0.416C0.054,-0.384 0.083,-0.366 0.107,-0.38C0.136,-0.397 0.174,-0.418 0.213,-0.418C0.28,-0.418 0.305,-0.384 0.312,-0.331C0.173,-0.351 0.03,-0.284 0.03,-0.143C0.03,-0.049 0.087,0.015 0.193,0.015C0.267,0.015 0.316,-0.014 0.346,-0.065C0.354,-0.007 0.383,0.014 0.447,0.014ZM0.19,-0.158C0.19,-0.227 0.253,-0.242 0.32,-0.241L0.325,-0.175C0.318,-0.141 0.287,-0.103 0.25,-0.103C0.207,-0.103 0.19,-0.127 0.19,-0.158Z" style="fill-rule:nonzero;"/>
                </g>
                <g transform="matrix(96,0,0,96,1289.66,74.4)">
                    <path d="M0.086,0.005L0.254,0.005C0.3,0.005 0.306,-0.011 0.306,-0.029C0.306,-0.048 0.289,-0.065 0.26,-0.092L0.26,-0.48C0.26,-0.529 0.243,-0.544 0.212,-0.544C0.161,-0.544 0.028,-0.497 0.028,-0.451C0.028,-0.435 0.045,-0.417 0.08,-0.406L0.08,-0.092C0.051,-0.065 0.034,-0.048 0.034,-0.029C0.034,-0.011 0.04,0.005 0.086,0.005ZM0.068,-0.638C0.089,-0.59 0.15,-0.58 0.215,-0.61C0.27,-0.635 0.286,-0.693 0.264,-0.736C0.24,-0.777 0.185,-0.785 0.129,-0.761C0.069,-0.736 0.051,-0.68 0.068,-0.638Z" style="fill-rule:nonzero;"/>
                </g>
                <g transform="matrix(96,0,0,96,1319.52,74.4)">
                    <path d="M0.606,0.013C0.664,0.013 0.69,-0.008 0.717,-0.089L0.832,-0.437C0.861,-0.464 0.878,-0.481 0.878,-0.5C0.878,-0.518 0.872,-0.534 0.826,-0.534L0.697,-0.534C0.651,-0.534 0.645,-0.518 0.645,-0.5C0.645,-0.481 0.662,-0.464 0.691,-0.437L0.619,-0.162L0.611,-0.162L0.541,-0.438C0.57,-0.465 0.587,-0.482 0.587,-0.501C0.587,-0.519 0.581,-0.535 0.535,-0.535L0.38,-0.535C0.334,-0.535 0.328,-0.519 0.328,-0.501C0.328,-0.482 0.345,-0.465 0.374,-0.438L0.396,-0.37L0.323,-0.162L0.315,-0.162L0.236,-0.438C0.265,-0.465 0.282,-0.482 0.282,-0.501C0.282,-0.519 0.276,-0.535 0.23,-0.535L0.062,-0.535C0.016,-0.535 0.01,-0.519 0.01,-0.501C0.01,-0.482 0.027,-0.465 0.056,-0.438L0.177,-0.088C0.206,-0.008 0.231,0.013 0.291,0.013C0.35,0.013 0.371,-0.007 0.404,-0.089L0.45,-0.205L0.489,-0.088C0.516,-0.005 0.544,0.013 0.606,0.013Z" style="fill-rule:nonzero;"/>
                </g>
                <g transform="matrix(96,0,0,96,1401.31,74.4)">
                    <path d="M0.447,0.014C0.513,0.014 0.585,-0.036 0.585,-0.096C0.585,-0.118 0.574,-0.13 0.553,-0.128C0.528,-0.126 0.517,-0.131 0.514,-0.154L0.484,-0.365C0.469,-0.471 0.41,-0.544 0.279,-0.544C0.184,-0.544 0.097,-0.5 0.066,-0.416C0.054,-0.384 0.083,-0.366 0.107,-0.38C0.136,-0.397 0.174,-0.418 0.213,-0.418C0.28,-0.418 0.305,-0.384 0.312,-0.331C0.173,-0.351 0.03,-0.284 0.03,-0.143C0.03,-0.049 0.087,0.015 0.193,0.015C0.267,0.015 0.316,-0.014 0.346,-0.065C0.354,-0.007 0.383,0.014 0.447,0.014ZM0.19,-0.158C0.19,-0.227 0.253,-0.242 0.32,-0.241L0.325,-0.175C0.318,-0.141 0.287,-0.103 0.25,-0.103C0.207,-0.103 0.19,-0.127 0.19,-0.158Z" style="fill-rule:nonzero;"/>
                </g>
                <g transform="matrix(96,0,0,96,1457.86,74.4)">
                    <path d="M0.397,0.005L0.565,0.005C0.611,0.005 0.617,-0.011 0.617,-0.029C0.617,-0.048 0.6,-0.065 0.571,-0.092C0.551,-0.396 0.508,-0.544 0.381,-0.544C0.319,-0.544 0.27,-0.507 0.243,-0.465L0.24,-0.481C0.231,-0.528 0.22,-0.545 0.189,-0.545C0.138,-0.545 0.02,-0.498 0.02,-0.452C0.02,-0.436 0.037,-0.418 0.072,-0.407L0.072,-0.092C0.043,-0.065 0.026,-0.048 0.026,-0.029C0.026,-0.011 0.032,0.005 0.078,0.005L0.246,0.005C0.292,0.005 0.298,-0.011 0.298,-0.029C0.298,-0.048 0.281,-0.065 0.252,-0.092L0.252,-0.364C0.266,-0.392 0.288,-0.409 0.312,-0.409C0.358,-0.409 0.377,-0.321 0.391,-0.092C0.362,-0.065 0.345,-0.048 0.345,-0.029C0.345,-0.011 0.351,0.005 0.397,0.005Z" style="fill-rule:nonzero;"/>
                </g>
            </g>
        </g>
    </g>
</svg>
